/* XPM */
static char * Bowser_left_xpm[] = {
"32 32 499 2",
"  	c #010000",
". 	c #1F1108",
"+ 	c #452B19",
"@ 	c #442A19",
"# 	c #442B19",
"$ 	c #452B18",
"% 	c #442A18",
"& 	c #442B18",
"* 	c #010101",
"= 	c #030101",
"- 	c #533019",
"; 	c #95572D",
"> 	c #96572D",
", 	c #96582C",
"' 	c #96592C",
") 	c #97592C",
"! 	c #96592D",
"~ 	c #95592D",
"{ 	c #95582C",
"] 	c #97592D",
"^ 	c #96582D",
"/ 	c #96582E",
"( 	c #A05F32",
"_ 	c #020101",
": 	c #522F1A",
"< 	c #5E331A",
"[ 	c #62371D",
"} 	c #653B20",
"| 	c #653B1F",
"1 	c #653C21",
"2 	c #653C20",
"3 	c #5D331A",
"4 	c #532E17",
"5 	c #9F5F32",
"6 	c #532F19",
"7 	c #874121",
"8 	c #98542B",
"9 	c #A36131",
"0 	c #B06C39",
"a 	c #A36132",
"b 	c #AC6634",
"c 	c #B16C39",
"d 	c #8A4524",
"e 	c #955229",
"f 	c #A36130",
"g 	c #E6934E",
"h 	c #A36032",
"i 	c #000000",
"j 	c #A46130",
"k 	c #AF6735",
"l 	c #A46131",
"m 	c #E6924D",
"n 	c #A46032",
"o 	c #AF6B39",
"p 	c #A36133",
"q 	c #532E16",
"r 	c #9F6032",
"s 	c #945229",
"t 	c #A46033",
"u 	c #A46031",
"v 	c #A36033",
"w 	c #AE6937",
"x 	c #AA6433",
"y 	c #9E8785",
"z 	c #725C5B",
"A 	c #AB6433",
"B 	c #E9944F",
"C 	c #522E16",
"D 	c #522F19",
"E 	c #A96433",
"F 	c #EA9650",
"G 	c #BC3117",
"H 	c #C63013",
"I 	c #AD2711",
"J 	c #9F2912",
"K 	c #7E7566",
"L 	c #D2773A",
"M 	c #522E17",
"N 	c #010100",
"O 	c #A36231",
"P 	c #D4783A",
"Q 	c #947342",
"R 	c #81200C",
"S 	c #DE3A16",
"T 	c #B02814",
"U 	c #A02113",
"V 	c #651A11",
"W 	c #BA9F5F",
"X 	c #948474",
"Y 	c #CAA86A",
"Z 	c #A76332",
"` 	c #A26132",
" .	c #020100",
"..	c #A86433",
"+.	c #715731",
"@.	c #A32A12",
"#.	c #AB2411",
"$.	c #902711",
"%.	c #603117",
"&.	c #8B6E3A",
"*.	c #E1BB69",
"=.	c #836130",
"-.	c #5B120F",
";.	c #805D2D",
">.	c #6D5026",
",.	c #9B8F79",
"'.	c #EF9A53",
").	c #8B1C0D",
"!.	c #68832D",
"~.	c #985D22",
"{.	c #C63112",
"].	c #7E431A",
"^.	c #7A692C",
"/.	c #A7753B",
"(.	c #576058",
"_.	c #5B7C5D",
":.	c #3F9933",
"<.	c #368733",
"[.	c #4B6F4A",
"}.	c #BC9D63",
"|.	c #C19D59",
"1.	c #F4D2BC",
"2.	c #5F1409",
"3.	c #378132",
"4.	c #932711",
"5.	c #C1B9B2",
"6.	c #689B55",
"7.	c #6E8946",
"8.	c #555A34",
"9.	c #859C94",
"0.	c #E9EDEB",
"a.	c #819E84",
"b.	c #7A957E",
"c.	c #6D9770",
"d.	c #6F8C34",
"e.	c #946C2F",
"f.	c #F5DCCB",
"g.	c #F3A36F",
"h.	c #F4DCCB",
"i.	c #F7CFB2",
"j.	c #B6A684",
"k.	c #BFA666",
"l.	c #917C3E",
"m.	c #3A6E29",
"n.	c #97AE7E",
"o.	c #C3BA66",
"p.	c #E9C976",
"q.	c #AB9050",
"r.	c #43544C",
"s.	c #C4CECA",
"t.	c #D0DBD5",
"u.	c #CEDAD4",
"v.	c #E7ECE8",
"w.	c #6E9C6E",
"x.	c #378831",
"y.	c #532F17",
"z.	c #9E6032",
"A.	c #F3CAAF",
"B.	c #FCD4C0",
"C.	c #FBDEC9",
"D.	c #F7B78B",
"E.	c #FBB808",
"F.	c #F89505",
"G.	c #FBC434",
"H.	c #F7D7C0",
"I.	c #C7A159",
"J.	c #D2AF62",
"K.	c #EECD7B",
"L.	c #D8B466",
"M.	c #E9CA76",
"N.	c #D8B66B",
"O.	c #DEC176",
"P.	c #E0BB6D",
"Q.	c #59390D",
"R.	c #452A05",
"S.	c #684705",
"T.	c #4C5651",
"U.	c #757A77",
"V.	c #DCE0DE",
"W.	c #4C8B52",
"X.	c #346830",
"Y.	c #96713D",
"Z.	c #9D844C",
"`.	c #9E5F32",
" +	c #FABF50",
".+	c #F5B847",
"++	c #FACD41",
"@+	c #FAD75A",
"#+	c #D2B55A",
"$+	c #D29521",
"%+	c #D3CEC8",
"&+	c #5F594A",
"*+	c #C8A35D",
"=+	c #DDB768",
"-+	c #E5C170",
";+	c #E5BF6D",
">+	c #B49156",
",+	c #724D30",
"'+	c #A07A40",
")+	c #AA8247",
"!+	c #4F564F",
"~+	c #976F1B",
"{+	c #5D5A49",
"]+	c #493F31",
"^+	c #B98613",
"/+	c #A08250",
"(+	c #4F6A38",
"_+	c #4C9531",
":+	c #B67433",
"<+	c #AA9475",
"[+	c #F3D7C1",
"}+	c #F5C69A",
"|+	c #F8DD86",
"1+	c #F8EDA4",
"2+	c #BDAE73",
"3+	c #D3A71B",
"4+	c #CE9F19",
"5+	c #C79918",
"6+	c #675738",
"7+	c #544832",
"8+	c #977750",
"9+	c #A0917C",
"0+	c #816E55",
"a+	c #BAAA96",
"b+	c #922520",
"c+	c #99675B",
"d+	c #9E743C",
"e+	c #41311D",
"f+	c #585645",
"g+	c #9F731C",
"h+	c #272C29",
"i+	c #A47613",
"j+	c #D0A10E",
"k+	c #D8A10D",
"l+	c #BC901A",
"m+	c #487F2C",
"n+	c #557933",
"o+	c #532F16",
"p+	c #FBAC42",
"q+	c #FBE589",
"r+	c #E9E1AC",
"s+	c #81580C",
"t+	c #E8B008",
"u+	c #A3740C",
"v+	c #F2BD05",
"w+	c #B18216",
"x+	c #1F1405",
"y+	c #9D6A0D",
"z+	c #654607",
"A+	c #B0977B",
"B+	c #996333",
"C+	c #BB9088",
"D+	c #C5A588",
"E+	c #91754D",
"F+	c #4B534D",
"G+	c #A26F14",
"H+	c #9A6B17",
"I+	c #3B443F",
"J+	c #766750",
"K+	c #787B6D",
"L+	c #CF9C13",
"M+	c #F3BE04",
"N+	c #96771E",
"O+	c #286B33",
"P+	c #F8BA97",
"Q+	c #FBB206",
"R+	c #FBE489",
"S+	c #E8E1AB",
"T+	c #7C530D",
"U+	c #A37114",
"V+	c #AF7E0C",
"W+	c #ECB604",
"X+	c #A67715",
"Y+	c #56605A",
"Z+	c #A16C07",
"`+	c #815702",
" @	c #ECCB77",
".@	c #D9B86B",
"+@	c #EDCD7B",
"@@	c #D5B268",
"#@	c #72552B",
"$@	c #AF8743",
"%@	c #9F7229",
"&@	c #946F17",
"*@	c #E6B210",
"=@	c #CB9811",
"-@	c #3A2603",
";@	c #635D4B",
">@	c #CF980F",
",@	c #825E1A",
"'@	c #1A532A",
")@	c #845826",
"!@	c #F5D2BA",
"~@	c #FAC748",
"{@	c #F8E799",
"]@	c #BEB684",
"^@	c #756F50",
"/@	c #AB7A16",
"(@	c #AE8C5B",
"_@	c #5A564D",
":@	c #494C4A",
"<@	c #675B3F",
"[@	c #564528",
"}@	c #8B7447",
"|@	c #967744",
"1@	c #D8B568",
"2@	c #DAB465",
"3@	c #7E5D2B",
"4@	c #CE9C14",
"5@	c #EDB806",
"6@	c #F5BE03",
"7@	c #AD7E16",
"8@	c #2C312E",
"9@	c #8E6315",
"0@	c #5C6757",
"a@	c #174525",
"b@	c #966831",
"c@	c #9E8F7A",
"d@	c #F7BB83",
"e@	c #F6B44C",
"f@	c #F9AC1F",
"g@	c #FADF7F",
"h@	c #E69B13",
"i@	c #D6951E",
"j@	c #AC8140",
"k@	c #C09650",
"l@	c #C5A057",
"m@	c #D5B267",
"n@	c #A9915B",
"o@	c #B68611",
"p@	c #EDB906",
"q@	c #F5C003",
"r@	c #B38318",
"s@	c #555A52",
"t@	c #615641",
"u@	c #769286",
"v@	c #284431",
"w@	c #FAE7DB",
"x@	c #F7D2BB",
"y@	c #FAC2A5",
"z@	c #FBCC7E",
"A@	c #FAB38B",
"B@	c #F9C295",
"C@	c #FABE9A",
"D@	c #A46132",
"E@	c #AA8F62",
"F@	c #E9C776",
"G@	c #EDCC7A",
"H@	c #D4B369",
"I@	c #744F0F",
"J@	c #E1AF15",
"K@	c #D19C10",
"L@	c #714C15",
"M@	c #9C6B12",
"N@	c #A6772C",
"O@	c #748D83",
"P@	c #556961",
"Q@	c #F5DDCE",
"R@	c #F5DECE",
"S@	c #F9DAC8",
"T@	c #FACEB7",
"U@	c #F9E9DF",
"V@	c #FAF3EF",
"W@	c #8E651D",
"X@	c #B38642",
"Y@	c #C69F58",
"Z@	c #C59E57",
"`@	c #DDBA6D",
" #	c #CFB26D",
".#	c #725526",
"+#	c #795205",
"@#	c #D4A10C",
"##	c #F6C104",
"$#	c #DCA607",
"%#	c #7B5A2E",
"&#	c #595A4B",
"*#	c #C2954D",
"=#	c #965229",
"-#	c #F9DCCA",
";#	c #CE9511",
">#	c #D89804",
",#	c #B2802D",
"'#	c #D3AC60",
")#	c #DAB66B",
"!#	c #BA904A",
"~#	c #A07332",
"{#	c #CA9207",
"]#	c #F4C103",
"^#	c #F8C202",
"/#	c #F5C102",
"(#	c #C5910C",
"_#	c #926513",
":#	c #AF791E",
"<#	c #745F48",
"[#	c #8D7658",
"}#	c #542F18",
"|#	c #965329",
"1#	c #C77B3F",
"2#	c #A36031",
"3#	c #C77B40",
"4#	c #865D10",
"5#	c #D89906",
"6#	c #DB9A04",
"7#	c #CB8C06",
"8#	c #A47324",
"9#	c #B3863F",
"0#	c #B48740",
"a#	c #BF9247",
"b#	c #A67522",
"c#	c #D39B08",
"d#	c #F6C302",
"e#	c #F7C202",
"f#	c #D59E09",
"g#	c #835813",
"h#	c #C88707",
"i#	c #BF8208",
"j#	c #9F6C11",
"k#	c #030201",
"l#	c #975229",
"m#	c #D68848",
"n#	c #D68748",
"o#	c #765210",
"p#	c #CE8E06",
"q#	c #CC8D04",
"r#	c #C08308",
"s#	c #9C6A0F",
"t#	c #654514",
"u#	c #4F3408",
"v#	c #7C561A",
"w#	c #8C6014",
"x#	c #A67915",
"y#	c #F0BD05",
"z#	c #F7C302",
"A#	c #F1BD03",
"B#	c #D19307",
"C#	c #AC7716",
"D#	c #805604",
"E#	c #815700",
"F#	c #A27119",
"G#	c #C78606",
"H#	c #CB8805",
"I#	c #9D6B0C",
"J#	c #A2978D",
"K#	c #C1840D",
"L#	c #DFA607",
"M#	c #D19406",
"N#	c #C98705",
"O#	c #C78710",
"P#	c #9F6033",
"Q#	c #522E19",
"R#	c #96522A",
"S#	c #D27637",
"T#	c #CA9813",
"U#	c #ECB605",
"V#	c #E7AF04",
"W#	c #C68706",
"X#	c #99836A",
"Y#	c #ABA49E",
"Z#	c #AC8044",
"`#	c #C88A09",
" $	c #D59804",
".$	c #E5AD06",
"+$	c #A1720B",
"@$	c #ABA89B",
"#$	c #B59C78",
"$$	c #B79E63",
"%$	c #C78F07",
"&$	c #B77C07",
"*$	c #9A826A",
"=$	c #978B7E",
"-$	c #DCAB43",
";$	c #ECBC43",
">$	c #E3B036",
",$	c #ECBE4B",
"'$	c #ABABAA",
")$	c #96532A",
"!$	c #A46030",
"~$	c #E9934D",
"{$	c #A06133",
"]$	c #522F18",
"^$	c #8F4624",
"/$	c #E7904A",
"($	c #A56132",
"_$	c #B36D39",
":$	c #542F16",
"<$	c #A16133",
"[$	c #9F5C2E",
"}$	c #B46E3A",
"|$	c #9E5B2E",
"1$	c #8D4624",
"2$	c #62381D",
"3$	c #663C20",
"4$	c #663C1F",
"5$	c #663D20",
"6$	c #643C21",
"7$	c #201209",
"8$	c #201208",
"9$	c #211209",
"0$	c #20120A",
"  . + @ # # $ % # + # & # & & @ + + + $ + + # + @ + + + + @ # * ",
"= - ; > , ' ' ' ) ! ' ~ ! ! { ' ' ! ] ) ) ) ! ) ' ] ] ] ^ / (   ",
"_ : < [ } } | } 1 } | | 2 2 } } } 2 } | | 2 2 } } } 1 } 3 4 5 * ",
"_ 6 7 8 9 9 9 0 9 9 9 9 9 9 a 9 b 9 a a 9 9 c a 9 9 9 9 d 4 5   ",
"_ 6 e 9 9 9 f g 9 a a 9 a 9 h i i j k h l 9 m n 9 o 9 9 p q r * ",
"_ 6 s 9 t u 9 9 v u 9 w x a i y z i i A l l u a f B A h a C r   ",
"_ D s 9 n u E 9 a 9 9 F i i G H I J K i n i i u 9 l L h a M 5 N ",
"= 6 s 9 O 9 P u 9 9 9 i Q R S T U V W X i Y i Z l i i 9 ` C 5 N ",
" .6 e 9 ..9 9 l u u u i +.@.#.$.%.&.*.=.-.;.>.i i ,.i a a q r   ",
"_ D s 9 '.i u 9 9 9 h i ).!.~.{.].^./.(._.:.<.[.}.|.i 9 ` C r N ",
"= 6 e i i 1.9 i i i 9 i 2.3.4.5.6.7.8.9.0.a.b.c.d.e.i 9 ` C r   ",
" .i i f.i g.i h.i.i i j.k.l.m.n.o.p.q.r.s.t.u.v.w.x.i i i y.z.* ",
"i A.B.C.D.E.F.G.H.i i I.J.K.L.M.N.O.P.Q.R.S.T.U.V.W.X.Y.Z.i `.  ",
"_ i  +.+++@+#+$+%+i &+*+=+-+;+>+,+'+)+!+~+{+]+^+/+(+_+:+<+i `.  ",
"i [+}+|+1+2+3+4+5+6+7+8+9+0+a+b+c+d+e+f+g+h+i+j+k+l+m+n+i o+5   ",
"= i p+q+r+s+t+u+v+w+x+y+z+A+B+C+D+E+F+G+H+I+J+K+L+M+N+O+i q r   ",
"i P+Q+R+S+T+U+V+W+X+Y+Z+`+ @.@+@@@#@$@%@&@*@=@-@;@>@,@'@)@i r   ",
" .i !@~@{@]@^@/@(@_@:@i i <@[@}@|@1@2@3@4@5@6@7@8@9@0@a@b@c@i * ",
"_ i d@e@f@g@h@i@i i i l l i i j@k@l@m@n@o@p@q@r@s@t@u@v@i i r N ",
"i w@x@C.y@z@A@B@C@i D@l l h i E@F@+@G@H@I@J@K@L@M@N@O@P@i y.r   ",
"i Q@i R@i S@T@i U@V@i a l 9 i W@X@Y@Z@`@ #.#+#@###$#%#&#*#i i   ",
"= i =#i 9 i -#i i i 9 u u i ;#>#,#'#)#)#!#~#{#]#^#/#(#_#:#<#[#i ",
"= }#|#1#9 9 i 9 9 u 2#3#i 4#5#6#7#8#9#0#a#b#c#d#e#e#f#g#h#i#j#i ",
"k#M l#m#9 9 a 2#u l 9 n#i o#p#q#r#s#t#u#v#w#x#y#z#A#B#C#D#E#i i ",
"_ M e 9 9 u l D@u D@l 9 u i F#G#H#I#i i i i J#K#L#M#N#O#i o+P#  ",
"_ Q#R#9 9 S#l 9 l D@D@u u i T#U#V#W#X#i u u i Y#Z#`# $.$+$i r * ",
"_ D =#9 l x l u u u u u i @$#$$$%$&$*$i u 9 l i =$-$;$>$,$'$i N ",
"= Q#)$9 u u u l !$u u u i i i i i i i u f ~$f i i i i i i i {$N ",
"_ ]$R#^$9 l u u u u /$($n ^$9 l u u u l u _$u u 9 u u 9 ` :$<$  ",
"_ ]$=#[$9 2#9 l l 9 }$9 a |$9 u l u !$u u u u u u u 9 9 1$:$<$N ",
"_ D 2$3$4$4$4$4$4$4$4$4$3$3$3$4$4$4$4$4$4$4$4$3$3$3$3$5$< ]$6$* ",
"_ 7$7$7$7$8$7$9$7$7$9$7$9$9$7$9$7$7$7$7$9$9$9$7$7$7$7$7$7$7$0$* "};
