/* XPM */
static char * Bowser_xpm[] = {
"32 32 488 2",
"  	c #010101",
". 	c #442B19",
"+ 	c #442A19",
"@ 	c #452B19",
"# 	c #452B18",
"$ 	c #442B18",
"% 	c #442A18",
"& 	c #1F1108",
"* 	c #010000",
"= 	c #A05F32",
"- 	c #96582E",
"; 	c #96582D",
"> 	c #97592D",
", 	c #96592C",
"' 	c #97592C",
") 	c #96592D",
"! 	c #95582C",
"~ 	c #95592D",
"{ 	c #96582C",
"] 	c #96572D",
"^ 	c #95572D",
"/ 	c #533019",
"( 	c #030101",
"_ 	c #9F5F32",
": 	c #532E17",
"< 	c #5D331A",
"[ 	c #653B20",
"} 	c #653C21",
"| 	c #653C20",
"1 	c #653B1F",
"2 	c #62371D",
"3 	c #5E331A",
"4 	c #522F1A",
"5 	c #020101",
"6 	c #8A4524",
"7 	c #A36131",
"8 	c #A36132",
"9 	c #B16C39",
"0 	c #AC6634",
"a 	c #B06C39",
"b 	c #98542B",
"c 	c #874121",
"d 	c #532F19",
"e 	c #9F6032",
"f 	c #532E16",
"g 	c #A36133",
"h 	c #AF6B39",
"i 	c #A46032",
"j 	c #E6924D",
"k 	c #A46131",
"l 	c #A36032",
"m 	c #AF6735",
"n 	c #A46130",
"o 	c #000000",
"p 	c #A46132",
"q 	c #E6934E",
"r 	c #A36130",
"s 	c #955229",
"t 	c #522E16",
"u 	c #AB6433",
"v 	c #E9944F",
"w 	c #A46031",
"x 	c #C22F15",
"y 	c #DF503F",
"z 	c #9D291C",
"A 	c #AA6433",
"B 	c #A36033",
"C 	c #A46033",
"D 	c #945229",
"E 	c #010100",
"F 	c #522E17",
"G 	c #D2773A",
"H 	c #D1B56C",
"I 	c #B5726F",
"J 	c #D63518",
"K 	c #F93D19",
"L 	c #EE3615",
"M 	c #940B09",
"N 	c #A24A49",
"O 	c #A96433",
"P 	c #522F19",
"Q 	c #A26132",
"R 	c #D4B872",
"S 	c #EBCB77",
"T 	c #AFA282",
"U 	c #85190A",
"V 	c #C0230F",
"W 	c #F33916",
"X 	c #DF2B14",
"Y 	c #AE1208",
"Z 	c #8E1B0B",
"` 	c #B0A384",
" .	c #EAC975",
"..	c #D3B771",
"+.	c #D4783A",
"@.	c #A36231",
"#.	c #BE9E59",
"$.	c #BA8B4F",
"%.	c #447421",
"&.	c #B29652",
"*.	c #A77844",
"=.	c #B02811",
"-.	c #386B1F",
";.	c #825518",
">.	c #845519",
",.	c #39691F",
"'.	c #AF2811",
").	c #B29653",
"!.	c #417420",
"~.	c #B98B4F",
"{.	c #BE9D58",
"].	c #A86433",
"^.	c #020100",
"/.	c #FDFDFD",
"(.	c #6B401A",
"_.	c #488B2D",
":.	c #32952E",
"<.	c #676F51",
"[.	c #833617",
"}.	c #CD2F19",
"|.	c #BC4A1A",
"1.	c #4FAE2D",
"2.	c #4DAD2D",
"3.	c #BC4A1B",
"4.	c #CD2F1A",
"5.	c #813416",
"6.	c #666D4F",
"7.	c #31952D",
"8.	c #498B2D",
"9.	c #EF9A53",
"0.	c #C1C3C1",
"a.	c #8EA491",
"b.	c #86A48A",
"c.	c #A7BBAD",
"d.	c #C9CCCB",
"e.	c #358322",
"f.	c #FFFFFF",
"g.	c #BA2B15",
"h.	c #37851F",
"i.	c #36841E",
"j.	c #B82A14",
"k.	c #A9BCAE",
"l.	c #8EA492",
"m.	c #9E6032",
"n.	c #532F17",
"o.	c #ADA69C",
"p.	c #BCAE90",
"q.	c #BEC6C0",
"r.	c #F5F7F6",
"s.	c #E4E5E3",
"t.	c #B79F67",
"u.	c #B4A95C",
"v.	c #7B9367",
"w.	c #96876B",
"x.	c #A29253",
"y.	c #96886B",
"z.	c #7B9267",
"A.	c #B4A95D",
"B.	c #B79E67",
"C.	c #E4E5E4",
"D.	c #F6F7F6",
"E.	c #BFC7C1",
"F.	c #BBAE90",
"G.	c #9E5F32",
"H.	c #98804F",
"I.	c #E5E9E6",
"J.	c #7E8A84",
"K.	c #9A8D79",
"L.	c #918777",
"M.	c #F2D17D",
"N.	c #EBC773",
"O.	c #DEC172",
"P.	c #DEBA6B",
"Q.	c #E2C476",
"R.	c #E4C477",
"S.	c #DEBB6A",
"T.	c #DEC173",
"U.	c #EBC873",
"V.	c #F1D07D",
"W.	c #948979",
"X.	c #9A8E79",
"Y.	c #E6EAE7",
"Z.	c #998050",
"`.	c #8C918F",
" +	c #A37D08",
".+	c #EDB504",
"++	c #B67C19",
"@+	c #CBA256",
"#+	c #B49356",
"$+	c #F8D983",
"%+	c #F5D681",
"&+	c #EFCE7A",
"*+	c #EFCF7A",
"=+	c #B49457",
"-+	c #C9A156",
";+	c #B77E1E",
">+	c #A37D06",
",+	c #8E9290",
"'+	c #A56130",
")+	c #532F16",
"!+	c #0B0C0B",
"~+	c #808584",
"{+	c #D4A61D",
"]+	c #DB9B06",
"^+	c #845C24",
"/+	c #8A5F2A",
"(+	c #A68E5D",
"_+	c #CCAE69",
":+	c #977C49",
"<+	c #977C4A",
"[+	c #A48E5D",
"}+	c #89602B",
"|+	c #855D24",
"1+	c #DC9C06",
"2+	c #D6A71D",
"3+	c #818584",
"4+	c #0A0B0A",
"5+	c #F19A53",
"6+	c #955228",
"7+	c #522F18",
"8+	c #ECC00F",
"9+	c #C39612",
"0+	c #676967",
"a+	c #B27709",
"b+	c #926B40",
"c+	c #94714B",
"d+	c #7A604B",
"e+	c #AA0D14",
"f+	c #7B604A",
"g+	c #95734C",
"h+	c #906A40",
"i+	c #686A69",
"j+	c #000100",
"k+	c #C39713",
"l+	c #EDC00E",
"m+	c #945129",
"n+	c #D3A93A",
"o+	c #FCCF02",
"p+	c #F9CA05",
"q+	c #C19114",
"r+	c #4F5653",
"s+	c #4C3510",
"t+	c #D38F07",
"u+	c #6B4914",
"v+	c #B38C44",
"w+	c #C6B088",
"x+	c #C0A45F",
"y+	c #C7B188",
"z+	c #B18841",
"A+	c #6A4712",
"B+	c #D28E06",
"C+	c #4F3711",
"D+	c #505654",
"E+	c #C09013",
"F+	c #F9CA04",
"G+	c #FDCF02",
"H+	c #D4A93B",
"I+	c #C29D0C",
"J+	c #CEA711",
"K+	c #F5C819",
"L+	c #E29F0E",
"M+	c #5A3B0D",
"N+	c #9C6B24",
"O+	c #CF8D1A",
"P+	c #B89248",
"Q+	c #C1A05A",
"R+	c #F8D884",
"S+	c #D3B265",
"T+	c #D4B266",
"U+	c #F8D984",
"V+	c #C1A059",
"W+	c #B79148",
"X+	c #CE8D1B",
"Y+	c #9B6B24",
"Z+	c #593C11",
"`+	c #E2A00D",
" @	c #F4C818",
".@	c #CDA710",
"+@	c #C29D0E",
"@@	c #898B8A",
"#@	c #4B4E4D",
"$@	c #535B58",
"%@	c #757263",
"&@	c #876730",
"*@	c #4B6452",
"=@	c #C3830A",
"-@	c #C48C2E",
";@	c #CA9F4E",
">@	c #A28040",
",@	c #AA8742",
"'@	c #B8944C",
")@	c #AA8641",
"!@	c #A2803F",
"~@	c #C99E4F",
"{@	c #C38A2D",
"]@	c #C2830A",
"^@	c #4B6352",
"/@	c #89682F",
"(@	c #767363",
"_@	c #535B59",
":@	c #4B4D4D",
"<@	c #8D6A0C",
"[@	c #E0B703",
"}@	c #DBAE03",
"|@	c #92753E",
"1@	c #6B7571",
"2@	c #596F60",
"3@	c #CB890A",
"4@	c #BE8B36",
"5@	c #E8C772",
"6@	c #DAB768",
"7@	c #CAA256",
"8@	c #CAA255",
"9@	c #DAB666",
"0@	c #E8C572",
"a@	c #BD8A36",
"b@	c #C9880A",
"c@	c #586F60",
"d@	c #697370",
"e@	c #93763F",
"f@	c #8D6A0D",
"g@	c #040101",
"h@	c #9E6133",
"i@	c #E6BB05",
"j@	c #F9CB02",
"k@	c #AA8939",
"l@	c #627368",
"m@	c #B87A08",
"n@	c #BB8936",
"o@	c #DFBB6B",
"p@	c #E9C877",
"q@	c #EDCD7B",
"r@	c #EDCD7A",
"s@	c #E9C775",
"t@	c #BA8836",
"u@	c #B77B08",
"v@	c #627369",
"w@	c #A98939",
"x@	c #F8CB01",
"y@	c #E7BB05",
"z@	c #96532A",
"A@	c #532E15",
"B@	c #F6C502",
"C@	c #F5C803",
"D@	c #EFC312",
"E@	c #CFA10E",
"F@	c #C29704",
"G@	c #BD9325",
"H@	c #DEA807",
"I@	c #C58A29",
"J@	c #DCB564",
"K@	c #F0D17D",
"L@	c #EECE7B",
"M@	c #EECE7A",
"N@	c #F1D17D",
"O@	c #DDB664",
"P@	c #C38929",
"Q@	c #DEA706",
"R@	c #BF9526",
"S@	c #C29603",
"T@	c #CFA00D",
"U@	c #F7C601",
"V@	c #965229",
"W@	c #512F18",
"X@	c #9F6132",
"Y@	c #BF8E06",
"Z@	c #D8AB0A",
"`@	c #E6B314",
" #	c #987D5A",
".#	c #B5A273",
"+#	c #FBCF03",
"@#	c #FACC02",
"##	c #DC9D0A",
"$#	c #BC9042",
"%#	c #C99F51",
"&#	c #DCB969",
"*#	c #E0BD6E",
"=#	c #E0BE6E",
"-#	c #DCB86A",
";#	c #C89F50",
">#	c #DA9D0A",
",#	c #FCCF03",
"'#	c #B6A273",
")#	c #987F5D",
"!#	c #D9AB0A",
"~#	c #BF8E07",
"{#	c #965329",
"]#	c #542F18",
"^#	c #AB700B",
"/#	c #9D7240",
"(#	c #977142",
"_#	c #ECBF06",
":#	c #FDCF03",
"<#	c #F4C104",
"[#	c #C48317",
"}#	c #C4994B",
"|#	c #BF9546",
"1#	c #BF9547",
"2#	c #C09647",
"3#	c #C3994A",
"4#	c #C38317",
"5#	c #F3C104",
"6#	c #FCD002",
"7#	c #EDBE06",
"8#	c #966F41",
"9#	c #9F7341",
"0#	c #AA6F0B",
"a#	c #D68848",
"b#	c #975229",
"c#	c #030201",
"d#	c #9F6033",
"e#	c #A36031",
"f#	c #F7C608",
"g#	c #F8C803",
"h#	c #FACC04",
"i#	c #ECB105",
"j#	c #E09706",
"k#	c #B2781E",
"l#	c #AD823C",
"m#	c #B88F45",
"n#	c #B89045",
"o#	c #AD823D",
"p#	c #B2771D",
"q#	c #E19706",
"r#	c #EDB105",
"s#	c #FBCC03",
"t#	c #D58747",
"u#	c #E6A409",
"v#	c #EAAE05",
"w#	c #E29A05",
"x#	c #DC9306",
"y#	c #B07207",
"z#	c #AAA098",
"A#	c #A89E97",
"B#	c #B17208",
"C#	c #DD9307",
"D#	c #E29A06",
"E#	c #EAAD06",
"F#	c #D27637",
"G#	c #96522A",
"H#	c #522E19",
"I#	c #C58B0B",
"J#	c #E7A407",
"K#	c #E8A208",
"L#	c #E59C07",
"M#	c #D99106",
"N#	c #D48545",
"O#	c #E59D08",
"P#	c #E8A109",
"Q#	c #C48A09",
"R#	c #A06133",
"S#	c #BBA882",
"T#	c #E4C053",
"U#	c #E7BF32",
"V#	c #F8D251",
"W#	c #F8C903",
"X#	c #E39F07",
"Y#	c #F7C903",
"Z#	c #F8D352",
"`#	c #E8BF32",
" $	c #E3C152",
".$	c #BAA783",
"+$	c #A16133",
"@$	c #542F16",
"#$	c #A2A09E",
"$$	c #D1D0CD",
"%$	c #A49D93",
"&$	c #C3BEAF",
"*$	c #B78E3A",
"=$	c #B8987C",
"-$	c #B88F39",
";$	c #C4BFB0",
">$	c #A59E93",
",$	c #D2D1CE",
"'$	c #8F4624",
")$	c #8D4624",
"!$	c #A46030",
"~$	c #9E5B2E",
"{$	c #9F5C2E",
"]$	c #643C21",
"^$	c #663D20",
"/$	c #663C20",
"($	c #663C1F",
"_$	c #62381D",
":$	c #20120A",
"<$	c #201209",
"[$	c #211209",
"}$	c #201208",
"  . + @ @ @ @ + @ . @ @ # @ @ @ + $ $ . $ . @ . % # . . + @ & * ",
"* = - ; > > > , ' ) ' ' ' > ) , , ! ) ) ~ , ) ' , , , { ] ^ / ( ",
"  _ : < [ } [ [ [ | | 1 1 [ | [ [ [ | | 1 1 [ } [ 1 [ [ 2 3 4 5 ",
"* _ : 6 7 7 7 7 8 9 7 7 8 8 7 0 7 8 7 7 7 7 7 7 a 7 7 7 b c d 5 ",
"  e f g 7 7 h 7 i j 7 k l m n o p o 7 8 7 8 8 7 q r 7 7 7 s d 5 ",
"* e t 8 l u v r 8 w k o u o o x y z o A o 7 w B 7 7 w C 7 D d 5 ",
"E _ F 8 l G k 7 o w o H o I J K L M N o H o 7 o o O w i 7 D P 5 ",
"E _ t Q 7 7 7 o R o o S T U V W X Y Z `  .o o ..o +.7 @.7 D d ( ",
"* e f 8 8 7 7 o #.$.%.&.*.=.-.;.>.,.'.*.).!.~.{.o 7 7 ].7 s d ^.",
"E e t Q 7 7 r /.(._.:.<.[.}.|.1.2.3.4.5.6.7.8.(.7 w k 9.7 D P 5 ",
"* e t Q o o o 0.a.b.c.d.e.f.g.h.i.j.f.e.d.k.b.l.o o 7 8 7 s d ( ",
"  m.n.8 o o.p.q.r.r.s.t.u.v.w.x.x.y.z.A.B.C.D.r.E.F.o 8 7 D P ^.",
"* G.F Q 7 o H.I.J.K.L.M.N.O.P.Q.R.S.T.U.V.W.X.J.Y.Z.o w 7 s d ( ",
"* G.n.8 7 7 o `. +.+++@+#+$+%+&+*+%+$+=+-+;+.+>+,+o 7 7 '+D d 5 ",
"* _ )+8 7 k o !+~+{+]+^+/+(+_+:+<+_+[+}+|+1+2+3+4+o k k 5+6+7+5 ",
"* e f 8 k o 8+9+  0+a+b+c+d+f.e+e+f.f+g+h+a+i+j+k+l+o 7 n m+P ( ",
"* e : Q o n+o+p+q+r+s+t+u+v+w+x+x+y+z+A+B+C+D+E+F+G+H+k 7 s d 5 ",
"  e f 8 o I+J+K+L+M+N+O+P+Q+R+S+T+U+V+W+X+Y+Z+`+ @.@+@o 7 s P ^.",
"E e n.o @@#@$@%@&@*@=@-@;@>@,@'@'@)@!@~@{@]@^@/@(@_@:@o o s P 5 ",
"* e n.o <@[@}@|@1@2@3@4@5@6@7@8@8@7@9@0@a@b@c@d@e@}@[@f@o s P g@",
"* h@n.o i@o+o+j@k@l@m@n@o@p@q@r@r@r@s@P.t@u@v@w@x@o+o+y@o z@P ^.",
"* e A@o B@C@D@E@F@G@H@I@J@K@L@L@M@L@N@O@P@Q@R@S@T@D@C@U@o V@W@( ",
"* X@A@o Y@Z@`@ #.#+#@###$#%#&#*#=#-#;#$#>#@#,#'#)#`@!#~#o {#]#( ",
"  e f 8 o ^#/#(#_#:#G+<#[#}#|#|#1#2#3#4#5#o+6#7#8#9#0#o a#b#F c#",
"* d#)+g e#o o o f#g#h#i#j#k#l#m#n#o#p#q#r#s#g#f#o o o 7 7 s F 5 ",
"  e n.g l t#8 o u#v#w#x#y#z#o o o o A#B#C#D#E#u#o k F#7 7 G#H#5 ",
"E d#n.Q w w k o I#J#K#L#M#o e#w 7 N#o M#O#P#J#Q#o k A k 7 V@P 5 ",
"E R#)+Q w p o S#T#U#V#W#X#o k 7 w 7 o X#Y#Z#`# $.$o w w 7 z@H#( ",
"* +$@$Q 7 w o #$$$%$&$*$=$o w w k 7 o o -$;$>$,$o o k 7 '$G#7+5 ",
"E +$@$)$7 7 w o o o o o w !$w k w 7 ~$8 o o o o k 7 e#7 {$V@7+5 ",
"  ]$7+3 ^$/$/$/$/$($($($($($($($($/$/$/$($($($($($($($($/$_$P 5 ",
"  :$<$<$<$<$<$<$<$[$[$[$<$<$<$<$[$<$[$[$<$[$<$<$[$<$}$<$<$<$<$5 "};
