/* XPM */
static char * Bowser_right_xpm[] = {
"32 32 499 2",
"  	c #010101",
". 	c #442B19",
"+ 	c #442A19",
"@ 	c #452B19",
"# 	c #452B18",
"$ 	c #442B18",
"% 	c #442A18",
"& 	c #1F1108",
"* 	c #010000",
"= 	c #A05F32",
"- 	c #96582E",
"; 	c #96582D",
"> 	c #97592D",
", 	c #96592C",
"' 	c #97592C",
") 	c #96592D",
"! 	c #95582C",
"~ 	c #95592D",
"{ 	c #96582C",
"] 	c #96572D",
"^ 	c #95572D",
"/ 	c #533019",
"( 	c #030101",
"_ 	c #9F5F32",
": 	c #532E17",
"< 	c #5D331A",
"[ 	c #653B20",
"} 	c #653C21",
"| 	c #653C20",
"1 	c #653B1F",
"2 	c #62371D",
"3 	c #5E331A",
"4 	c #522F1A",
"5 	c #020101",
"6 	c #8A4524",
"7 	c #A36131",
"8 	c #A36132",
"9 	c #B16C39",
"0 	c #AC6634",
"a 	c #B06C39",
"b 	c #98542B",
"c 	c #874121",
"d 	c #532F19",
"e 	c #9F6032",
"f 	c #532E16",
"g 	c #A36133",
"h 	c #AF6B39",
"i 	c #A46032",
"j 	c #E6924D",
"k 	c #A46131",
"l 	c #A36032",
"m 	c #AF6735",
"n 	c #A46130",
"o 	c #000000",
"p 	c #E6934E",
"q 	c #A36130",
"r 	c #955229",
"s 	c #522E16",
"t 	c #AB6433",
"u 	c #E9944F",
"v 	c #A46031",
"w 	c #725C5B",
"x 	c #9E8785",
"y 	c #AA6433",
"z 	c #AE6937",
"A 	c #A36033",
"B 	c #A46033",
"C 	c #945229",
"D 	c #010100",
"E 	c #522E17",
"F 	c #D2773A",
"G 	c #7E7566",
"H 	c #9F2912",
"I 	c #AD2711",
"J 	c #C63013",
"K 	c #BC3117",
"L 	c #EA9650",
"M 	c #A96433",
"N 	c #522F19",
"O 	c #A26132",
"P 	c #A76332",
"Q 	c #CAA86A",
"R 	c #948474",
"S 	c #BA9F5F",
"T 	c #651A11",
"U 	c #A02113",
"V 	c #B02814",
"W 	c #DE3A16",
"X 	c #81200C",
"Y 	c #947342",
"Z 	c #D4783A",
"` 	c #A36231",
" .	c #9B8F79",
"..	c #6D5026",
"+.	c #805D2D",
"@.	c #5B120F",
"#.	c #836130",
"$.	c #E1BB69",
"%.	c #8B6E3A",
"&.	c #603117",
"*.	c #902711",
"=.	c #AB2411",
"-.	c #A32A12",
";.	c #715731",
">.	c #A86433",
",.	c #020100",
"'.	c #C19D59",
").	c #BC9D63",
"!.	c #4B6F4A",
"~.	c #368733",
"{.	c #3F9933",
"].	c #5B7C5D",
"^.	c #576058",
"/.	c #A7753B",
"(.	c #7A692C",
"_.	c #7E431A",
":.	c #C63112",
"<.	c #985D22",
"[.	c #68832D",
"}.	c #8B1C0D",
"|.	c #EF9A53",
"1.	c #946C2F",
"2.	c #6F8C34",
"3.	c #6D9770",
"4.	c #7A957E",
"5.	c #819E84",
"6.	c #E9EDEB",
"7.	c #859C94",
"8.	c #555A34",
"9.	c #6E8946",
"0.	c #689B55",
"a.	c #C1B9B2",
"b.	c #932711",
"c.	c #378132",
"d.	c #5F1409",
"e.	c #F4D2BC",
"f.	c #9E6032",
"g.	c #532F17",
"h.	c #378831",
"i.	c #6E9C6E",
"j.	c #E7ECE8",
"k.	c #CEDAD4",
"l.	c #D0DBD5",
"m.	c #C4CECA",
"n.	c #43544C",
"o.	c #AB9050",
"p.	c #E9C976",
"q.	c #C3BA66",
"r.	c #97AE7E",
"s.	c #3A6E29",
"t.	c #917C3E",
"u.	c #BFA666",
"v.	c #B6A684",
"w.	c #F7CFB2",
"x.	c #F4DCCB",
"y.	c #F3A36F",
"z.	c #F5DCCB",
"A.	c #9E5F32",
"B.	c #9D844C",
"C.	c #96713D",
"D.	c #346830",
"E.	c #4C8B52",
"F.	c #DCE0DE",
"G.	c #757A77",
"H.	c #4C5651",
"I.	c #684705",
"J.	c #452A05",
"K.	c #59390D",
"L.	c #E0BB6D",
"M.	c #DEC176",
"N.	c #D8B66B",
"O.	c #E9CA76",
"P.	c #D8B466",
"Q.	c #EECD7B",
"R.	c #D2AF62",
"S.	c #C7A159",
"T.	c #F7D7C0",
"U.	c #FBC434",
"V.	c #F89505",
"W.	c #FBB808",
"X.	c #F7B78B",
"Y.	c #FBDEC9",
"Z.	c #FCD4C0",
"`.	c #F3CAAF",
" +	c #AA9475",
".+	c #B67433",
"++	c #4C9531",
"@+	c #4F6A38",
"#+	c #A08250",
"$+	c #B98613",
"%+	c #493F31",
"&+	c #5D5A49",
"*+	c #976F1B",
"=+	c #4F564F",
"-+	c #AA8247",
";+	c #A07A40",
">+	c #724D30",
",+	c #B49156",
"'+	c #E5BF6D",
")+	c #E5C170",
"!+	c #DDB768",
"~+	c #C8A35D",
"{+	c #5F594A",
"]+	c #D3CEC8",
"^+	c #D29521",
"/+	c #D2B55A",
"(+	c #FAD75A",
"_+	c #FACD41",
":+	c #F5B847",
"<+	c #FABF50",
"[+	c #532F16",
"}+	c #557933",
"|+	c #487F2C",
"1+	c #BC901A",
"2+	c #D8A10D",
"3+	c #D0A10E",
"4+	c #A47613",
"5+	c #272C29",
"6+	c #9F731C",
"7+	c #585645",
"8+	c #41311D",
"9+	c #9E743C",
"0+	c #99675B",
"a+	c #922520",
"b+	c #BAAA96",
"c+	c #816E55",
"d+	c #A0917C",
"e+	c #977750",
"f+	c #544832",
"g+	c #675738",
"h+	c #C79918",
"i+	c #CE9F19",
"j+	c #D3A71B",
"k+	c #BDAE73",
"l+	c #F8EDA4",
"m+	c #F8DD86",
"n+	c #F5C69A",
"o+	c #F3D7C1",
"p+	c #286B33",
"q+	c #96771E",
"r+	c #F3BE04",
"s+	c #CF9C13",
"t+	c #787B6D",
"u+	c #766750",
"v+	c #3B443F",
"w+	c #9A6B17",
"x+	c #A26F14",
"y+	c #4B534D",
"z+	c #91754D",
"A+	c #C5A588",
"B+	c #BB9088",
"C+	c #996333",
"D+	c #B0977B",
"E+	c #654607",
"F+	c #9D6A0D",
"G+	c #1F1405",
"H+	c #B18216",
"I+	c #F2BD05",
"J+	c #A3740C",
"K+	c #E8B008",
"L+	c #81580C",
"M+	c #E9E1AC",
"N+	c #FBE589",
"O+	c #FBAC42",
"P+	c #845826",
"Q+	c #1A532A",
"R+	c #825E1A",
"S+	c #CF980F",
"T+	c #635D4B",
"U+	c #3A2603",
"V+	c #CB9811",
"W+	c #E6B210",
"X+	c #946F17",
"Y+	c #9F7229",
"Z+	c #AF8743",
"`+	c #72552B",
" @	c #D5B268",
".@	c #EDCD7B",
"+@	c #D9B86B",
"@@	c #ECCB77",
"#@	c #815702",
"$@	c #A16C07",
"%@	c #56605A",
"&@	c #A67715",
"*@	c #ECB604",
"=@	c #AF7E0C",
"-@	c #A37114",
";@	c #7C530D",
">@	c #E8E1AB",
",@	c #FBE489",
"'@	c #FBB206",
")@	c #F8BA97",
"!@	c #9E8F7A",
"~@	c #966831",
"{@	c #174525",
"]@	c #5C6757",
"^@	c #8E6315",
"/@	c #2C312E",
"(@	c #AD7E16",
"_@	c #F5BE03",
":@	c #EDB806",
"<@	c #CE9C14",
"[@	c #7E5D2B",
"}@	c #DAB465",
"|@	c #D8B568",
"1@	c #967744",
"2@	c #8B7447",
"3@	c #564528",
"4@	c #675B3F",
"5@	c #494C4A",
"6@	c #5A564D",
"7@	c #AE8C5B",
"8@	c #AB7A16",
"9@	c #756F50",
"0@	c #BEB684",
"a@	c #F8E799",
"b@	c #FAC748",
"c@	c #F5D2BA",
"d@	c #284431",
"e@	c #769286",
"f@	c #615641",
"g@	c #555A52",
"h@	c #B38318",
"i@	c #F5C003",
"j@	c #EDB906",
"k@	c #B68611",
"l@	c #A9915B",
"m@	c #D5B267",
"n@	c #C5A057",
"o@	c #C09650",
"p@	c #AC8140",
"q@	c #D6951E",
"r@	c #E69B13",
"s@	c #FADF7F",
"t@	c #F9AC1F",
"u@	c #F6B44C",
"v@	c #F7BB83",
"w@	c #556961",
"x@	c #748D83",
"y@	c #A6772C",
"z@	c #9C6B12",
"A@	c #714C15",
"B@	c #D19C10",
"C@	c #E1AF15",
"D@	c #744F0F",
"E@	c #D4B369",
"F@	c #EDCC7A",
"G@	c #E9C776",
"H@	c #AA8F62",
"I@	c #A46132",
"J@	c #FABE9A",
"K@	c #F9C295",
"L@	c #FAB38B",
"M@	c #FBCC7E",
"N@	c #FAC2A5",
"O@	c #F7D2BB",
"P@	c #FAE7DB",
"Q@	c #C2954D",
"R@	c #595A4B",
"S@	c #7B5A2E",
"T@	c #DCA607",
"U@	c #F6C104",
"V@	c #D4A10C",
"W@	c #795205",
"X@	c #725526",
"Y@	c #CFB26D",
"Z@	c #DDBA6D",
"`@	c #C59E57",
" #	c #C69F58",
".#	c #B38642",
"+#	c #8E651D",
"@#	c #FAF3EF",
"##	c #F9E9DF",
"$#	c #FACEB7",
"%#	c #F9DAC8",
"&#	c #F5DECE",
"*#	c #F5DDCE",
"=#	c #8D7658",
"-#	c #745F48",
";#	c #AF791E",
">#	c #926513",
",#	c #C5910C",
"'#	c #F5C102",
")#	c #F8C202",
"!#	c #F4C103",
"~#	c #CA9207",
"{#	c #A07332",
"]#	c #BA904A",
"^#	c #DAB66B",
"/#	c #D3AC60",
"(#	c #B2802D",
"_#	c #D89804",
":#	c #CE9511",
"<#	c #F9DCCA",
"[#	c #965229",
"}#	c #9F6C11",
"|#	c #BF8208",
"1#	c #C88707",
"2#	c #835813",
"3#	c #D59E09",
"4#	c #F7C202",
"5#	c #F6C302",
"6#	c #D39B08",
"7#	c #A67522",
"8#	c #BF9247",
"9#	c #B48740",
"0#	c #B3863F",
"a#	c #A47324",
"b#	c #CB8C06",
"c#	c #DB9A04",
"d#	c #D89906",
"e#	c #865D10",
"f#	c #C77B40",
"g#	c #A36031",
"h#	c #C77B3F",
"i#	c #965329",
"j#	c #542F18",
"k#	c #815700",
"l#	c #805604",
"m#	c #AC7716",
"n#	c #D19307",
"o#	c #F1BD03",
"p#	c #F7C302",
"q#	c #F0BD05",
"r#	c #A67915",
"s#	c #8C6014",
"t#	c #7C561A",
"u#	c #4F3408",
"v#	c #654514",
"w#	c #9C6A0F",
"x#	c #C08308",
"y#	c #CC8D04",
"z#	c #CE8E06",
"A#	c #765210",
"B#	c #D68748",
"C#	c #D68848",
"D#	c #975229",
"E#	c #030201",
"F#	c #9F6033",
"G#	c #C78710",
"H#	c #C98705",
"I#	c #D19406",
"J#	c #DFA607",
"K#	c #C1840D",
"L#	c #A2978D",
"M#	c #9D6B0C",
"N#	c #CB8805",
"O#	c #C78606",
"P#	c #A27119",
"Q#	c #A1720B",
"R#	c #E5AD06",
"S#	c #D59804",
"T#	c #C88A09",
"U#	c #AC8044",
"V#	c #ABA49E",
"W#	c #99836A",
"X#	c #C68706",
"Y#	c #E7AF04",
"Z#	c #ECB605",
"`#	c #CA9813",
" $	c #D27637",
".$	c #96522A",
"+$	c #522E19",
"@$	c #ABABAA",
"#$	c #ECBE4B",
"$$	c #E3B036",
"%$	c #ECBC43",
"&$	c #DCAB43",
"*$	c #978B7E",
"=$	c #9A826A",
"-$	c #B77C07",
";$	c #C78F07",
">$	c #B79E63",
",$	c #B59C78",
"'$	c #ABA89B",
")$	c #A06133",
"!$	c #E9934D",
"~$	c #A46030",
"{$	c #96532A",
"]$	c #A16133",
"^$	c #542F16",
"/$	c #B36D39",
"($	c #8F4624",
"_$	c #A56132",
":$	c #E7904A",
"<$	c #522F18",
"[$	c #8D4624",
"}$	c #9E5B2E",
"|$	c #B46E3A",
"1$	c #9F5C2E",
"2$	c #643C21",
"3$	c #663D20",
"4$	c #663C20",
"5$	c #663C1F",
"6$	c #62381D",
"7$	c #20120A",
"8$	c #201209",
"9$	c #211209",
"0$	c #201208",
"  . + @ @ @ @ + @ . @ @ # @ @ @ + $ $ . $ . @ . % # . . + @ & * ",
"* = - ; > > > , ' ) ' ' ' > ) , , ! ) ) ~ , ) ' , , , { ] ^ / ( ",
"  _ : < [ } [ [ [ | | 1 1 [ | [ [ [ | | 1 1 [ } [ 1 [ [ 2 3 4 5 ",
"* _ : 6 7 7 7 7 8 9 7 7 8 8 7 0 7 8 7 7 7 7 7 7 a 7 7 7 b c d 5 ",
"  e f g 7 7 h 7 i j 7 k l m n o o l 7 8 7 8 8 7 p q 7 7 7 r d 5 ",
"* e s 8 l t u q 8 v k k t o o w x o 8 y z 7 v A 7 7 v B 7 C d 5 ",
"D _ E 8 l F k 7 v o o i o G H I J K o o L 7 7 8 7 M v i 7 C N 5 ",
"D _ s O 7 o o k P o Q o R S T U V W X Y o 7 7 7 v Z 7 ` 7 C d ( ",
"* e f 8 8 o  .o o ..+.@.#.$.%.&.*.=.-.;.o v v v k 7 7 >.7 r d ,.",
"D e s O 7 o '.).!.~.{.].^./.(._.:.<.[.}.o l 7 7 7 v o |.7 C N 5 ",
"* e s O 7 o 1.2.3.4.5.6.7.8.9.0.a.b.c.d.o 7 o o o 7 e.o o r d ( ",
"  f.g.o o o h.i.j.k.l.m.n.o.p.q.r.s.t.u.v.o o w.x.o y.o z.o o ,.",
"* A.o B.C.D.E.F.G.H.I.J.K.L.M.N.O.P.Q.R.S.o o T.U.V.W.X.Y.Z.`.o ",
"* A.o  +.+++@+#+$+%+&+*+=+-+;+>+,+'+)+!+~+{+o ]+^+/+(+_+:+<+o 5 ",
"* _ [+o }+|+1+2+3+4+5+6+7+8+9+0+a+b+c+d+e+f+g+h+i+j+k+l+m+n+o+o ",
"* e f o p+q+r+s+t+u+v+w+x+y+z+A+B+C+D+E+F+G+H+I+J+K+L+M+N+O+o ( ",
"* e o P+Q+R+S+T+U+V+W+X+Y+Z+`+ @.@+@@@#@$@%@&@*@=@-@;@>@,@'@)@o ",
"  o !@~@{@]@^@/@(@_@:@<@[@}@|@1@2@3@4@o o 5@6@7@8@9@0@a@b@c@o ,.",
"D e o o d@e@f@g@h@i@j@k@l@m@n@o@p@o o k k o o o q@r@s@t@u@v@o 5 ",
"* e g.o w@x@y@z@A@B@C@D@E@F@.@G@H@o l k k I@o J@K@L@M@N@Y.O@P@o ",
"* o o Q@R@S@T@U@V@W@X@Y@Z@`@ #.#+#o 7 k 8 o @###o $#%#o &#o *#o ",
"o =#-#;#>#,#'#)#!#~#{#]#^#^#/#(#_#:#o v v 7 o o o <#o 7 o [#o ( ",
"o }#|#1#2#3#4#4#5#6#7#8#9#0#a#b#c#d#e#o f#g#v 7 7 o 7 7 h#i#j#( ",
"o o k#l#m#n#o#p#q#r#s#t#u#v#w#x#y#z#A#o B#7 k v g#8 7 7 C#D#E E#",
"* F#[+o G#H#I#J#K#L#o o o o M#N#O#P#o v 7 k I@v I@k v 7 7 r E 5 ",
"  e o Q#R#S#T#U#V#o v v o W#X#Y#Z#`#o v v I@I@k 7 k  $7 7 .$+$5 ",
"D o @$#$$$%$&$*$o k 7 v o =$-$;$>$,$'$o v v v v v k y k 7 [#N 5 ",
"D )$o o o o o o o q !$q v o o o o o o o v v v ~$k v v v 7 {$+$( ",
"* ]$^$O 7 v v 7 v v /$v k v v v k 7 ($i _$:$v v v v k 7 ($.$<$5 ",
"D ]$^$[$7 7 v v v v v v v ~$v k v 7 }$8 7 |$7 k k 7 g#7 1$[#<$5 ",
"  2$<$3 3$4$4$4$4$5$5$5$5$5$5$5$5$4$4$4$5$5$5$5$5$5$5$5$4$6$N 5 ",
"  7$8$8$8$8$8$8$8$9$9$9$8$8$8$8$9$8$9$9$8$9$8$8$9$8$0$8$8$8$8$5 "};
