/* XPM */
static char * collectible2_xpm[] = {
"32 32 468 2",
"  	c #000D00",
". 	c #301400",
"+ 	c #301300",
"@ 	c #311400",
"# 	c #341C00",
"$ 	c #341B00",
"% 	c #321500",
"& 	c #2C1100",
"* 	c #2B1000",
"= 	c #2F1500",
"- 	c #311500",
"; 	c #180900",
"> 	c #010000",
", 	c #0E0D00",
"' 	c #893B0F",
") 	c #803700",
"! 	c #803400",
"~ 	c #813500",
"{ 	c #803600",
"] 	c #813600",
"^ 	c #803500",
"/ 	c #813800",
"( 	c #5E2502",
"_ 	c #21080E",
": 	c #23090F",
"< 	c #471A04",
"[ 	c #732F00",
"} 	c #7E3500",
"| 	c #80380F",
"1 	c #813900",
"2 	c #803300",
"3 	c #7E3300",
"4 	c #401A00",
"5 	c #020000",
"6 	c #000D0D",
"7 	c #883B0F",
"8 	c #421900",
"9 	c #4B1C00",
"0 	c #4F1F00",
"a 	c #4E1F00",
"b 	c #4F2000",
"c 	c #502000",
"d 	c #481B01",
"e 	c #11030D",
"f 	c #402900",
"g 	c #CAA600",
"h 	c #A68300",
"i 	c #381501",
"j 	c #4D1F00",
"k 	c #4F250E",
"l 	c #4E1D00",
"m 	c #4C1C00",
"n 	c #3E1700",
"o 	c #883800",
"p 	c #772600",
"q 	c #8D3B00",
"r 	c #8D3A00",
"s 	c #9B4200",
"t 	c #5F2502",
"u 	c #270A0F",
"v 	c #8C6500",
"w 	c #F1D300",
"x 	c #E3BF00",
"y 	c #7B5200",
"z 	c #994200",
"A 	c #833100",
"B 	c #752500",
"C 	c #401800",
"D 	c #883900",
"E 	c #431A00",
"F 	c #8D3D00",
"G 	c #984000",
"H 	c #8E3900",
"I 	c #DB6300",
"J 	c #8E3B00",
"K 	c #7E3200",
"L 	c #541F03",
"M 	c #4F2F00",
"N 	c #D1A700",
"O 	c #F0D000",
"P 	c #9F7C00",
"Q 	c #672801",
"R 	c #8E3D00",
"S 	c #8E3C00",
"T 	c #813100",
"U 	c #421A00",
"V 	c #8D3900",
"W 	c #963D00",
"X 	c #DF6400",
"Y 	c #8E3A00",
"Z 	c #8E3E00",
"` 	c #511E03",
" .	c #3C120C",
"..	c #A47F00",
"+.	c #ECCA00",
"@.	c #F2D400",
"#.	c #F2D500",
"$.	c #E0C000",
"%.	c #634800",
"&.	c #873800",
"*.	c #8C3800",
"=.	c #8D3800",
"-.	c #803100",
";.	c #0E0E00",
">.	c #411900",
",.	c #C54F00",
"'.	c #8F3D00",
").	c #712C00",
"!.	c #300D0F",
"~.	c #280A0B",
"{.	c #E6C000",
"].	c #F1D400",
"^.	c #A98600",
"/.	c #662A07",
"(.	c #863800",
"_.	c #943D00",
":.	c #3F1800",
"<.	c #010100",
"[.	c #893B00",
"}.	c #8B3A00",
"|.	c #923D00",
"1.	c #833500",
"2.	c #501D04",
"3.	c #250A0F",
"4.	c #956D00",
"5.	c #F4D500",
"6.	c #EDCB00",
"7.	c #290C0A",
"8.	c #7A3200",
"9.	c #8B3B00",
"0.	c #853601",
"a.	c #BB4B00",
"b.	c #843701",
"c.	c #843901",
"d.	c #843700",
"e.	c #7C2F00",
"f.	c #893C00",
"g.	c #913C00",
"h.	c #BF4D00",
"i.	c #853800",
"j.	c #6B2A00",
"k.	c #250A0D",
"l.	c #764F00",
"m.	c #D8B300",
"n.	c #F3D500",
"o.	c #BF9D00",
"p.	c #3D1508",
"q.	c #4A1A06",
"r.	c #461906",
"s.	c #25090E",
"t.	c #270B0E",
"u.	c #260A0E",
"v.	c #280B0D",
"w.	c #3D1306",
"x.	c #3A1600",
"y.	c #7A3201",
"z.	c #7C3300",
"A.	c #732F01",
"B.	c #602602",
"C.	c #8F3D03",
"D.	c #2E0D0F",
"E.	c #320F0E",
"F.	c #4C2900",
"G.	c #BE9800",
"H.	c #F1D100",
"I.	c #EACC00",
"J.	c #937000",
"K.	c #846000",
"L.	c #886800",
"M.	c #978000",
"N.	c #988100",
"O.	c #C2A200",
"P.	c #CFA800",
"Q.	c #BC8D00",
"R.	c #4D2B00",
"S.	c #301002",
"T.	c #161600",
"U.	c #652801",
"V.	c #0E020E",
"W.	c #270A0E",
"X.	c #270B0D",
"Y.	c #644100",
"Z.	c #B79800",
"`.	c #BEA500",
" +	c #CAAE00",
".+	c #EECE00",
"++	c #F3D600",
"@+	c #F1D500",
"#+	c #F4D600",
"$+	c #EBCB00",
"%+	c #D5A300",
"&+	c #563400",
"*+	c #311002",
"=+	c #0D0D00",
"-+	c #1F070E",
";+	c #10030E",
">+	c #A27500",
",+	c #D9AE00",
"'+	c #EDCA00",
")+	c #E8C700",
"!+	c #E7C600",
"~+	c #EACB00",
"{+	c #F2D300",
"]+	c #E8CA00",
"^+	c #DBBF00",
"/+	c #EED000",
"(+	c #D8BD00",
"_+	c #EBCD00",
":+	c #F2D600",
"<+	c #EDCD00",
"[+	c #D8A900",
"}+	c #4B1902",
"|+	c #401B00",
"1+	c #020100",
"2+	c #1F070D",
"3+	c #8F6400",
"4+	c #DBAE00",
"5+	c #977C00",
"6+	c #7D3100",
"7+	c #C2A300",
"8+	c #C2A100",
"9+	c #682900",
"0+	c #9B7D00",
"a+	c #E1B600",
"b+	c #A67800",
"c+	c #4E1D03",
"d+	c #742B00",
"e+	c #793200",
"f+	c #230A03",
"g+	c #3D1A00",
"h+	c #966B00",
"i+	c #D8AB00",
"j+	c #EAC800",
"k+	c #705F00",
"l+	c #A78B00",
"m+	c #A58A00",
"n+	c #823600",
"o+	c #716200",
"p+	c #F4D700",
"q+	c #F5D600",
"r+	c #F6D600",
"s+	c #E3BC00",
"t+	c #A47700",
"u+	c #3A1800",
"v+	c #010D00",
"w+	c #4A1B04",
"x+	c #3F1C00",
"y+	c #A67A00",
"z+	c #D6A800",
"A+	c #E9C600",
"B+	c #000000",
"C+	c #A88C00",
"D+	c #A58900",
"E+	c #726300",
"F+	c #F3D700",
"G+	c #F5D700",
"H+	c #E5BF00",
"I+	c #C69400",
"J+	c #593600",
"K+	c #763000",
"L+	c #E96900",
"M+	c #813200",
"N+	c #401900",
"O+	c #843600",
"P+	c #4E1D02",
"Q+	c #3E1A00",
"R+	c #8A6200",
"S+	c #D9AC00",
"T+	c #E9C700",
"U+	c #6F6000",
"V+	c #A58B00",
"W+	c #EAC900",
"X+	c #D6A500",
"Y+	c #492800",
"Z+	c #682802",
"`+	c #8B3C00",
" @	c #8F3C00",
".@	c #803000",
"+@	c #3F1F00",
"@@	c #833600",
"#@	c #22080E",
"$@	c #371500",
"%@	c #9F7500",
"&@	c #E8C600",
"*@	c #8A7200",
"=@	c #000101",
"-@	c #B99900",
";@	c #8C7400",
">@	c #DAAC00",
",@	c #7E5800",
"'@	c #4F1E04",
")@	c #8F3E00",
"!@	c #823500",
"~@	c #431F00",
"{@	c #EA6B00",
"]@	c #DE6300",
"^@	c #573600",
"/@	c #A27400",
"(@	c #D6A400",
"_@	c #EFCD00",
":@	c #E3C200",
"<@	c #C1A800",
"[@	c #EBCC00",
"}@	c #F0CE00",
"|@	c #C0A900",
"1@	c #DFC300",
"2@	c #C79900",
"3@	c #401D00",
"4@	c #010E00",
"5@	c #823501",
"6@	c #24090E",
"7@	c #2F0E06",
"8@	c #A57A00",
"9@	c #ECCD00",
"0@	c #C19400",
"a@	c #280B0F",
"b@	c #8E4000",
"c@	c #421F00",
"d@	c #8F3B00",
"e@	c #863601",
"f@	c #280A0D",
"g@	c #A37A00",
"h@	c #ECCC00",
"i@	c #E7C300",
"j@	c #926800",
"k@	c #672901",
"l@	c #030000",
"m@	c #863A00",
"n@	c #712D01",
"o@	c #7C5400",
"p@	c #EBC500",
"q@	c #EED100",
"r@	c #AC8800",
"s@	c #552102",
"t@	c #8B3900",
"u@	c #441B00",
"v@	c #6B2B01",
"w@	c #8A6B00",
"x@	c #EDCC00",
"y@	c #ECCB00",
"z@	c #C4A900",
"A@	c #4C2200",
"B@	c #753000",
"C@	c #823100",
"D@	c #3F1900",
"E@	c #883A00",
"F@	c #7D3200",
"G@	c #21060E",
"H@	c #5B3800",
"I@	c #B89900",
"J@	c #F0D100",
"K@	c #EAC600",
"L@	c #D6A600",
"M@	c #C79500",
"N@	c #C59500",
"O@	c #D5A500",
"P@	c #EBC600",
"Q@	c #895B00",
"R@	c #753001",
"S@	c #B55000",
"T@	c #823200",
"U@	c #7C3201",
"V@	c #20050D",
"W@	c #8E6300",
"X@	c #EECF00",
"Y@	c #E7C400",
"Z@	c #D8AA00",
"`@	c #B58700",
" #	c #492A00",
".#	c #482900",
"+#	c #B68800",
"@#	c #DBAD00",
"##	c #EDCF00",
"$#	c #815800",
"%#	c #6D2C01",
"&#	c #C65900",
"*#	c #431B00",
"=#	c #8C3A00",
"-#	c #953F00",
";#	c #23080D",
">#	c #8E6400",
",#	c #D9AB00",
"'#	c #B88800",
")#	c #6B4500",
"!#	c #5D2304",
"~#	c #612501",
"{#	c #5B2203",
"]#	c #6D4700",
"^#	c #B88700",
"/#	c #D1A000",
"(#	c #EBC900",
"_#	c #976D00",
":#	c #351001",
"<#	c #853700",
"[#	c #853500",
"}#	c #2E0F0C",
"|#	c #906400",
"1#	c #E0B600",
"2#	c #CB9C00",
"3#	c #896000",
"4#	c #633A00",
"5#	c #5B2303",
"6#	c #612603",
"7#	c #893900",
"8#	c #8F3F00",
"9#	c #B84A01",
"0#	c #612503",
"a#	c #4E1D04",
"b#	c #714A00",
"c#	c #BF9200",
"d#	c #C89A00",
"e#	c #D4A300",
"f#	c #572700",
"g#	c #813000",
"h#	c #3F1700",
"i#	c #863600",
"j#	c #21080C",
"k#	c #553400",
"l#	c #C49500",
"m#	c #A37900",
"n#	c #775000",
"o#	c #5B2202",
"p#	c #712D00",
"q#	c #C45800",
"r#	c #B84A00",
"s#	c #893800",
"t#	c #762F01",
"u#	c #280A0F",
"v#	c #644200",
"w#	c #A17600",
"x#	c #3F1B00",
"y#	c #863700",
"z#	c #21080D",
"A#	c #512F00",
"B#	c #B08200",
"C#	c #896100",
"D#	c #592302",
"E#	c #9A4302",
"F#	c #833700",
"G#	c #652702",
"H#	c #6F2C01",
"I#	c #8A3A00",
"J#	c #742E00",
"K#	c #612502",
"L#	c #813400",
"M#	c #9E4600",
"N#	c #7D2800",
"O#	c #8F3A00",
"P#	c #DD6300",
"Q#	c #7A2800",
"R#	c #904000",
"S#	c #893700",
"T#	c #9E4300",
"U#	c #8A3800",
"V#	c #502100",
"W#	c #50250E",
"X#	c #512600",
"Y#	c #512100",
"Z#	c #532600",
"`#	c #4E1E00",
" $	c #170800",
".$	c #18140D",
"+$	c #191400",
"@$	c #1F1400",
"#$	c #1E1400",
"$$	c #190900",
"%$	c #181400",
"&$	c #190A00",
"  . + @ # @ @ $ @ . @ @ % @ + & * = - . - . @ . @ % # . + @ ; > ",
", ' ) ! ~ ~ ~ { ] ^ ] ] ] / ( _ : < [ ^ } { | ] { 1 { ^ 2 3 4 5 ",
"6 7 8 9 0 a 0 0 0 b b c c d e f g h i j c c k a 0 c 0 0 l m n > ",
"> o 8 p q q q q r s q q r t u v w x y ~ q q q q z q q q A B C > ",
"  D E F q q G q H I q J K L M N w O P Q q r R q I S q q q T C > ",
", D U r V W X S r Y J Z `  ...+.@.#.$.%.&.q Y *.q q Y =.q -.C > ",
";.o >.r V ,.J q Y Y '.).!.~.{.#.w ].#.^./.(.Z r q _.Y H q -.:.> ",
"<.[.U }.q q q J |.Z 1.2.3.4.].].].].5.6.7.8.q 9.0.a.b.c.d.e.C , ",
"> f.E r r q Z g.h.i.j.k.l.m.n.w ].].w #.o.p.q.r.s.t.u.v.u.w.n ;.",
";.i.x.y.z.A.B.C.D.E.u.F.G.H.#.w ].w w w I.J.K.L.M.N.O.P.Q.R.S.T.",
", U.V.W.t.u X.u.Y.Z.`. +.+++#.w w w w @+#.#.#.++#+#+#+$+%+&+*+, ",
"=+-+;+>+,+'+)+!+~+{+#.#.@.]+^+/+#.#./+(+_+#.#.++#+:+<+[+&+}+|+1+",
"> 2+;+3+4+'+#.w w #.#.#.#+5+6+7+{+].8+9+0+#.#.#+#+@.a+b+c+d+C , ",
", e+f+g+h+i+j+#.#.#+#.#.#.k+] l+@.#.m+n+o+p+q+r+#+s+t+u+~ ~ C , ",
"v+[.4 w+x+y+z+A+#.++#.#.#.k+B+C+#.w D+B+E+F+n.G+H+I+J+K+L+M+N+, ",
", D E O+P+Q+R+S+T+#.#.#.#.U+B+C+#.q+V+B+E+#+#+W+X+Y+Z+`+ @.@+@, ",
"> D 8 }.@@#@$@%@[+&@#.w ].*@=@-@#.#.-@=@;@5.#.>@,@'@h.)@q !@~@, ",
"  D E r {@]@#@^@/@(@_@w #.:@<@[@{+#.}@|@1@#.@.2@3@z.J Y q T :.1+",
"4@D U }.Y L+5@6@7@8@9@w ].w #.#.#.#.#.#.@.w #.0@a@z.Z b@q T c@> ",
"> D U }.q d@e@#@f@g@h@w ].].w #.#.@.#.#.].#.#.i@j@k@'.Z r T :.l@",
"> m@U r q J n@6@o@p@@+w ].@.#.#.#.#+#+#.#.#.#.q@r@s@t@'.q T :.1+",
"> D u@}.q t@v@s.w@<+{+@.@.#.:+x@y@$+h@:+#.].#.#.z@A@B@Z q C@D@5 ",
", E@u@r q F@G@H@I@#.#.@.++J@K@L@M@N@O@P@J@#.#.#.$+Q@R@Z S@T@8 5 ",
"=+D E r Y U@V@W@x@#.#.X@Y@Z@`@y+ #.#8@+#@#Y@##F+].$#%#Z &#A >.1+",
", &.*#=#t@-#;#>#x@#.&@,#I+'#)#!#~#{#W.]#^#/#O@(#6._#:#<#q T >.> ",
"B+D U =#[#}#v.|#1#s+2#3#4#5#6#7#8#I 9#0#a#~@b#c#d#e#f#<#q g#h#> ",
";.&.U }.i#j#k#M@l#m#n#o#p#o r Y q q#r#Z s#t#u.u#v#w#x#y#q C@:.> ",
"<.E@*#}.i#z#A#B#C#D#E#F#Y Y J q Y q J q Y Y s#p#U.G#H#'.q T h#5 ",
"> I#u@}.I#J#K#B.~#L#M#'.J R Y Y J q N#H O#P#Y '.Y '.)@Z N#g#~@> ",
"4@I#u@Q#q Z '.'.R#'.Y Y Y d@Y J Y q S#r q T#q J J q r q U#C@N+> ",
"B+j ~@m V#W#c c c X#Y#Y#Z#Y#Y#Y#Y#c c c Y#Y#Y#Y#Y#Y#Z#Y#c `#:.v+",
"   $; ; ; ; ; .$; +$+$@$; ; ; #$$$%$$$$$; @$#$; @$%$&$; ; ; #$, "};
