/* XPM */
static char * collectible_left_xpm[] = {
"32 32 385 2",
"  	c #192201",
". 	c #493819",
"+ 	c #493719",
"@ 	c #4A3819",
"# 	c #483519",
"$ 	c #493D19",
"% 	c #4B3518",
"& 	c #4A3A19",
"* 	c #493D18",
"= 	c #493818",
"- 	c #493718",
"; 	c #483518",
"> 	c #473519",
", 	c #2C2408",
"' 	c #192200",
") 	c #A06431",
"! 	c #975E2D",
"~ 	c #975B2D",
"{ 	c #975D2D",
"] 	c #985D2D",
"^ 	c #975C2C",
"/ 	c #975D2C",
"( 	c #965D2D",
"_ 	c #965D2C",
": 	c #965C2C",
"< 	c #955D2D",
"[ 	c #985D2C",
"} 	c #975A2D",
"| 	c #965A2D",
"1 	c #553919",
"2 	c #1A2201",
"3 	c #9F6431",
"4 	c #563A17",
"5 	c #5E361A",
"6 	c #663E20",
"7 	c #674121",
"8 	c #653B20",
"9 	c #653C20",
"0 	c #654120",
"a 	c #653E20",
"b 	c #653C1F",
"c 	c #643D1F",
"d 	c #5D361D",
"e 	c #5D371D",
"f 	c #663E1F",
"g 	c #653C21",
"h 	c #653E1F",
"i 	c #62381D",
"j 	c #55351A",
"k 	c #1A1901",
"l 	c #9F6331",
"m 	c #8A4724",
"n 	c #A36131",
"o 	c #A36232",
"p 	c #B16C39",
"q 	c #A36132",
"r 	c #94582C",
"s 	c #000000",
"t 	c #000001",
"u 	c #A05F30",
"v 	c #B06C39",
"w 	c #98542B",
"x 	c #874121",
"y 	c #563519",
"z 	c #171E01",
"A 	c #131D01",
"B 	c #9F6531",
"C 	c #563A16",
"D 	c #A36233",
"E 	c #AF6B39",
"F 	c #A46032",
"G 	c #E6924D",
"H 	c #A36231",
"I 	c #A46131",
"J 	c #A86332",
"K 	c #B29407",
"L 	c #73560B",
"M 	c #A16131",
"N 	c #E5934E",
"O 	c #A36130",
"P 	c #955229",
"Q 	c #111901",
"R 	c #553A16",
"S 	c #AB6433",
"T 	c #E9944F",
"U 	c #A46031",
"V 	c #AB6533",
"W 	c #B78F0D",
"X 	c #E8C501",
"Y 	c #C8A104",
"Z 	c #150A01",
"` 	c #9C5D2F",
" .	c #A36133",
"..	c #A46033",
"+.	c #945229",
"@.	c #1F1E01",
"#.	c #131D00",
"$.	c #553A17",
"%.	c #A36032",
"&.	c #D2773A",
"*.	c #A46132",
"=.	c #C9A710",
"-.	c #F4D601",
";.	c #D9B101",
">.	c #9C5D2E",
",.	c #A96433",
"'.	c #533519",
").	c #543716",
"!.	c #A26132",
"~.	c #A76332",
"{.	c #885027",
"].	c #D0B00E",
"^.	c #95592C",
"/.	c #A16130",
"(.	c #A36431",
"_.	c #D4783A",
":.	c #A36331",
"<.	c #543519",
"[.	c #A86432",
"}.	c #D6793A",
"|.	c #A36332",
"1.	c #BE950C",
"2.	c #F0CF02",
"3.	c #F5D601",
"4.	c #F2D101",
"5.	c #9C5B2E",
"6.	c #A46231",
"7.	c #A86433",
"8.	c #171E00",
"9.	c #A26232",
"0.	c #EE9952",
"a.	c #BC6C33",
"b.	c #C47137",
"c.	c #DAB717",
"d.	c #F5D800",
"e.	c #F6D800",
"f.	c #F6D700",
"g.	c #E5C409",
"h.	c #9B5C2E",
"i.	c #EE9A53",
"j.	c #955429",
"k.	c #543319",
"l.	c #131C00",
"m.	c #9D5D2F",
"n.	c #B46732",
"o.	c #C4A006",
"p.	c #F1D003",
"q.	c #F5D701",
"r.	c #F2D401",
"s.	c #DAB305",
"t.	c #96592C",
"u.	c #8E4B24",
"v.	c #9D5D30",
"w.	c #935128",
"x.	c #553319",
"y.	c #9E6431",
"z.	c #563B17",
"A.	c #C39E03",
"B.	c #F1D001",
"C.	c #F5D700",
"D.	c #F4D603",
"E.	c #844924",
"F.	c #553519",
"G.	c #1A1900",
"H.	c #9E6331",
"I.	c #D6A90C",
"J.	c #D8AF01",
"K.	c #D8B001",
"L.	c #DBB301",
"M.	c #F1D102",
"N.	c #E7C60B",
"O.	c #F0CF07",
"P.	c #F3D303",
"Q.	c #E5C30C",
"R.	c #DCB602",
"S.	c #DAB101",
"T.	c #854924",
"U.	c #121901",
"V.	c #CA9E0C",
"W.	c #F2D102",
"X.	c #F4D701",
"Y.	c #F6D702",
"Z.	c #CAAA0E",
"`.	c #DCBE07",
" +	c #F6D601",
".+	c #F5D702",
"++	c #F3D501",
"@+	c #DAB307",
"#+	c #844923",
"$+	c #553816",
"%+	c #180A02",
"&+	c #CEA00C",
"*+	c #F2D202",
"=+	c #FFFFFF",
"-+	c #CEA021",
";+	c #DDB41A",
">+	c #DCB508",
",+	c #854923",
"'+	c #553518",
")+	c #9F6231",
"!+	c #553716",
"~+	c #1E0E04",
"{+	c #CB9F0D",
"]+	c #F6D701",
"^+	c #CBAA0E",
"/+	c #DEC004",
"(+	c #D9B304",
"_+	c #6A5304",
":+	c #93572A",
"<+	c #A46431",
"[+	c #301908",
"}+	c #C99F0A",
"|+	c #F1D202",
"1+	c #C9AB0E",
"2+	c #F6D900",
"3+	c #DBB304",
"4+	c #624907",
"5+	c #93572B",
"6+	c #131301",
"7+	c #F19B53",
"8+	c #F09952",
"9+	c #A36230",
"0+	c #C79F06",
"a+	c #F1D002",
"b+	c #C9AA0E",
"c+	c #DEC005",
"d+	c #F5D603",
"e+	c #E0BE01",
"f+	c #684F0B",
"g+	c #94572B",
"h+	c #A46232",
"i+	c #EF9952",
"j+	c #C6A003",
"k+	c #F1D101",
"l+	c #B39B05",
"m+	c #DCBC0B",
"n+	c #F7D800",
"o+	c #E6C903",
"p+	c #A18A07",
"q+	c #DDB600",
"r+	c #D5AA01",
"s+	c #A26131",
"t+	c #A46030",
"u+	c #A16031",
"v+	c #C59E03",
"w+	c #F0D001",
"x+	c #DEB500",
"y+	c #97592D",
"z+	c #A26130",
"A+	c #181E01",
"B+	c #9E6632",
"C+	c #F0D101",
"D+	c #F4D800",
"E+	c #96562A",
"F+	c #563A15",
"G+	c #A16232",
"H+	c #714220",
"I+	c #EACA02",
"J+	c #F5D600",
"K+	c #B8703A",
"L+	c #A36530",
"M+	c #965229",
"N+	c #523518",
"O+	c #9F6631",
"P+	c #9B572B",
"Q+	c #C9A007",
"R+	c #F1D201",
"S+	c #DCB502",
"T+	c #C37A40",
"U+	c #C77B3F",
"V+	c #965529",
"W+	c #563318",
"X+	c #955028",
"Y+	c #754420",
"Z+	c #EAC902",
"`+	c #F3D601",
" @	c #E5C101",
".@	c #DFB902",
"+@	c #E3BE02",
"@@	c #F5D802",
"#@	c #76481E",
"$@	c #D58848",
"%@	c #975229",
"&@	c #553517",
"*@	c #171F01",
"=@	c #9F6532",
"-@	c #563B16",
";@	c #A36031",
">@	c #C77B41",
",@	c #A36033",
"'@	c #CA9E09",
")@	c #F2D201",
"!@	c #E3BF01",
"~@	c #DFB901",
"{@	c #94562B",
"]@	c #563617",
"^@	c #D58747",
"/@	c #92572C",
"(@	c #E9C804",
"_@	c #E3BE01",
":@	c #DFB802",
"<@	c #683C1C",
"[@	c #95592B",
"}@	c #DEB701",
"|@	c #E0BB00",
"1@	c #F2D601",
"2@	c #C9A408",
"3@	c #955721",
"4@	c #96522A",
"5@	c #9F6432",
"6@	c #553817",
"7@	c #8E5329",
"8@	c #E3BC01",
"9@	c #E1B901",
"0@	c #73431F",
"a@	c #9D5C2E",
"b@	c #C67C40",
"c@	c #D5AE07",
"d@	c #F2D301",
"e@	c #E1BA01",
"f@	c #A36630",
"g@	c #A06632",
"h@	c #8E532A",
"i@	c #E0BA01",
"j@	c #0A0301",
"k@	c #93562B",
"l@	c #9C5C2E",
"m@	c #9A5B2D",
"n@	c #995B2D",
"o@	c #D0AE02",
"p@	c #DCB600",
"q@	c #96532A",
"r@	c #A16632",
"s@	c #573B16",
"t@	c #794621",
"u@	c #985A2D",
"v@	c #A15F30",
"w@	c #A26231",
"x@	c #8F4724",
"y@	c #995A2E",
"z@	c #92572B",
"A@	c #8F4A24",
"B@	c #543318",
"C@	c #593D16",
"D@	c #8D4624",
"E@	c #9D5C2F",
"F@	c #96582C",
"G@	c #9B5A2E",
"H@	c #A46130",
"I@	c #A46430",
"J@	c #9E5B2E",
"K@	c #A86635",
"L@	c #95582C",
"M@	c #9E5E2F",
"N@	c #9F5C2E",
"O@	c #523018",
"P@	c #654121",
"Q@	c #553918",
"R@	c #603B1A",
"S@	c #664220",
"T@	c #674020",
"U@	c #663F20",
"V@	c #664120",
"W@	c #674320",
"X@	c #67431F",
"Y@	c #68471E",
"Z@	c #67411F",
"`@	c #684120",
" #	c #67401F",
".#	c #67451F",
"+#	c #68451F",
"@#	c #68411F",
"##	c #66411F",
"$#	c #63401D",
"%#	c #543819",
"&#	c #161E01",
"*#	c #29250A",
"=#	c #292509",
"-#	c #292C09",
";#	c #2A2109",
">#	c #272109",
",#	c #2A2509",
"'#	c #2B2109",
")#	c #262109",
"!#	c #2A2108",
"  . + @ @ # @ + @ $ # @ % @ @ @ & * = . = . @ . - ; > . + # , ' ",
"' ) ! ~ { ] { ^ / ( / / / { { / _ : { ( < _ ( [ _ ^ ^ : } | 1 2 ",
"  3 4 5 6 7 8 9 9 0 a b b 9 c d d d e e b f 8 g 8 h 8 9 i 5 j k ",
"' l 4 m n n n n o p n n q q r s s s s t u n n n v n n n w x y z ",
"A B C D n n E n F G H I q J s K L s s s } M q n N O n n n P y Q ",
"' 3 R q q S T O o U I I V s W X Y s s s Z ` U  .n n U ..n +.y @.",
"#.3 $.o %.&.I H U U *.*.&.s =.-.;.s s s s >.H q n ,.I F n +.'.z ",
"' 3 ).!.H H n I ~.H o q {.s ].-.;.;.s s s ^./.(.U _.n :.H +.<.z ",
"' B C q q n n [.}.n |.>.s 1.2.3.4.;.s s s s 5.U 6.n n 7.n P y 8.",
"' B R 9.n H O 0.a.b.(.s s c.d.e.f.g.;.s s s h.n H U I i.(.j.k.Q ",
"l.B R |.u m.m.m.m.n.m.s o.p.3.q.q.r.s.;.s s t.u.m.m.m.v.m.w.x.z ",
"A y.z.o s s s s s s s A.B.f.e.q.e.C.D.;.s s s s s s s s s E.F.G.",
"l.H.$.9.s I.J.K.;.L.M.3.e.N.O.e.P.Q.C.f.;.R.;.;.S.J.s s s T.y U.",
"l.y.z.H s V.W.X.-.Y.3.3.3.s Z.e.`.s q.e.e.3. +.+++@+s s s #+y Q ",
"l.l $+q :.%+&+*+q. +f.3.3.=+-+f.;+=+q.e.f.f. +.+>+s s s s ,+'+z ",
"l.)+!+q 6.6.~+{+M.3.]+3.f.s ^+e./+s q.f.e.f.-.(+_+s s s :+j.'.U.",
"l.3 4 !.6.<+:.[+}+|+e.3.f.s 1+2+/+s X.e.e.q.3+4+s s s 5+:.j.<.z ",
"6+B C q 7+8+H 9+s 0+a+3.3.s b+f.c+s d+f.q.e+f+s s s g+h+H P '.8.",
"#.3 z.!.U i+I n s s j+k+q.l+m+n+o+p+X.C.q+r+s s s r s+:.:.j.k.z ",
"l.3 z.!.n t+n n u+s v+w+f.3.f.f.f.C.-.C.x+s s s y+z+I H n P '.A+",
"' B+z.o n I *.I U s v+C+3.3.f.f.f.]+C.D+q+s s s s y+I *.n E+'.8.",
"l.3 F+G+H U I I H+s I+J+f.f.f.f.3.f.f.C.;.;.s s s K+L+:.n M+N+U.",
"l.O+F+q n U P+n s Q+R+C.]+3.3.q.3.f.3.q.3.S+s s s T+L+n U+V+W+U.",
"A B C o *.q X+Y+s Z+`+f.3.-. @.@+@d.q.f.@@;.s s s #@y+n $@%@&@*@",
"' =@-@ .;@>@,@s '@)@f.C.]+!@s s s ~@X.X.X.X.;.s s s {@n n P &@z ",
"  B ]@ .q ^@/@s (@`+X._@:@s s <@[@s }@|@1@X.2@s s s 3@t.:.4@F.z ",
"' 5@6@!.I I 7@s R+8@9@s s s 0@a@/.b@s s c@d@e@s s s s 5+f@M+'.@.",
"' g@-@!.I h+h@s i@s s s j@k@l@H 6.s+m@n@s o@p@s s s s k@:.q@'.z ",
"' r@s@!.H U 7@s s s s t@u@v@U U 6.w@x@F y@s s s s s s z@A@4@B@z ",
"#.r@C@D@n n E@F@F@F@F@G@U H@I 6.I@:.J@o n K@L@F@F@^.F@M@N@M+O@k ",
"  P@Q@R@S@T@U@V@W@X@X@X@X@X@X@Y@Z@`@W@T@ #X@.#+#@#X@##X@W@$#%#z ",
"&#*#=#=#=#=#=#-#;#>#,#,#=#=#=#=#,#=#,#,#=#,#=#=#'#)#!#)#;#=#=#z "};
