/* XPM */
static char * collectible3_xpm[] = {
"32 32 241 2",
"  	c #060600",
". 	c #301C00",
"+ 	c #301B00",
"@ 	c #311C00",
"# 	c #311400",
"$ 	c #301300",
"% 	c #301400",
"& 	c #341C00",
"* 	c #321C00",
"= 	c #2E1200",
"- 	c #2B1100",
"; 	c #2C1201",
"> 	c #2E1300",
", 	c #311500",
"' 	c #321500",
") 	c #180900",
"! 	c #010000",
"~ 	c #0E0000",
"{ 	c #893800",
"] 	c #7F3300",
"^ 	c #803400",
"/ 	c #813500",
"( 	c #803600",
"_ 	c #813600",
": 	c #80380F",
"< 	c #793200",
"[ 	c #532001",
"} 	c #886100",
"| 	c #855F00",
"1 	c #7E3500",
"2 	c #803500",
"3 	c #813900",
"4 	c #803300",
"5 	c #7E3300",
"6 	c #401A00",
"7 	c #020000",
"8 	c #000000",
"9 	c #883800",
"0 	c #421900",
"a 	c #4B1C00",
"b 	c #4F1F00",
"c 	c #4E1F00",
"d 	c #4F2000",
"e 	c #502000",
"f 	c #481D00",
"g 	c #14040D",
"h 	c #C9AD00",
"i 	c #C9AE00",
"j 	c #4E1D00",
"k 	c #4C1C00",
"l 	c #3E1700",
"m 	c #0E0D00",
"n 	c #772600",
"o 	c #8D3B00",
"p 	c #8D3A00",
"q 	c #9B4200",
"r 	c #2B0C0D",
"s 	c #D1B300",
"t 	c #D3B500",
"u 	c #280B0D",
"v 	c #994200",
"w 	c #833100",
"x 	c #752500",
"y 	c #401800",
"z 	c #893C00",
"A 	c #431A00",
"B 	c #8C3A00",
"C 	c #984000",
"D 	c #8E3900",
"E 	c #DB6300",
"F 	c #8E3B00",
"G 	c #8D3900",
"H 	c #9A3F00",
"I 	c #823600",
"J 	c #3A120E",
"K 	c #D1B500",
"L 	c #D2B400",
"M 	c #280B0E",
"N 	c #8E3C00",
"O 	c #813100",
"P 	c #010D00",
"Q 	c #883900",
"R 	c #421A00",
"S 	c #963D00",
"T 	c #DF6400",
"U 	c #8E3A00",
"V 	c #DB5700",
"W 	c #D2B500",
"X 	c #873700",
"Y 	c #8C3800",
"Z 	c #8D3800",
"` 	c #803100",
" .	c #010100",
"..	c #411900",
"+.	c #C54F00",
"@.	c #C54E00",
"#.	c #2B0C0E",
"$.	c #BA4A00",
"%.	c #E06800",
"&.	c #943D00",
"*.	c #3F1800",
"=.	c #8B3A00",
"-.	c #923D00",
";.	c #D0B200",
">.	c #3C130D",
",.	c #B64A00",
"'.	c #C75000",
").	c #8D3D00",
"!.	c #933D00",
"~.	c #CB5200",
"{.	c #813300",
"].	c #D1B400",
"^.	c #020100",
"/.	c #E66700",
"(.	c #AB4600",
"_.	c #B44A00",
":.	c #C55700",
"<.	c #C7A500",
"[.	c #C8A400",
"}.	c #290C0D",
"|.	c #E76900",
"1.	c #AA4500",
"2.	c #B65000",
"3.	c #684400",
"4.	c #6A4500",
"5.	c #290B0D",
"6.	c #802F00",
"7.	c #431F00",
"8.	c #000D00",
"9.	c #863900",
"0.	c #C35600",
"a.	c #A04100",
"b.	c #290C0E",
"c.	c #CFAD00",
"d.	c #C9AA00",
"e.	c #833300",
"f.	c #0E0E00",
"g.	c #863800",
"h.	c #B74F00",
"i.	c #9A3E00",
"j.	c #D4B500",
"k.	c #C45500",
"l.	c #B54900",
"m.	c #C45700",
"n.	c #903C00",
"o.	c #431B00",
"p.	c #BB5200",
"q.	c #813401",
"r.	c #BA8F00",
"s.	c #BA8E00",
"t.	c #813400",
"u.	c #AF4900",
"v.	c #EA6900",
"w.	c #813200",
"x.	c #401900",
"y.	c #B98D00",
"z.	c #C29100",
"A.	c #8F3C00",
"B.	c #803000",
"C.	c #B98E00",
"D.	c #CA5200",
"E.	c #8F3B00",
"F.	c #CC5200",
"G.	c #EA6A00",
"H.	c #823601",
"I.	c #B88D00",
"J.	c #BA8D00",
"K.	c #44190D",
"L.	c #E96900",
"M.	c #290C0C",
"N.	c #8F3E00",
"O.	c #CDAE00",
"P.	c #CDAD00",
"Q.	c #EA6800",
"R.	c #030000",
"S.	c #873D00",
"T.	c #E45F00",
"U.	c #D7B700",
"V.	c #8E3D00",
"W.	c #441B00",
"X.	c #823000",
"Y.	c #A84500",
"Z.	c #823100",
"`.	c #3F1900",
" +	c #893D00",
".+	c #863300",
"++	c #B34900",
"@+	c #B55100",
"#+	c #C65700",
"$+	c #B55000",
"%+	c #823200",
"&+	c #802D00",
"*+	c #D3B600",
"=+	c #C65800",
"-+	c #C65900",
";+	c #873800",
">+	c #B44E00",
",+	c #B44F00",
"'+	c #290B0E",
")+	c #8D3E00",
"!+	c #C55900",
"~+	c #DAB700",
"{+	c #3E140D",
"]+	c #8F3D00",
"^+	c #C65000",
"/+	c #813000",
"(+	c #3F1700",
"_+	c #010E00",
":+	c #883B00",
"<+	c #C8A600",
"[+	c #CCA700",
"}+	c #37110D",
"|+	c #953D00",
"1+	c #883A00",
"2+	c #8C3D00",
"3+	c #B78900",
"4+	c #B88800",
"5+	c #8A3A00",
"6+	c #9D4300",
"7+	c #793100",
"8+	c #612600",
"9+	c #602600",
"0+	c #6B2200",
"a+	c #903D00",
"b+	c #DD6300",
"c+	c #7D2800",
"d+	c #7A2800",
"e+	c #8E3E00",
"f+	c #9E4300",
"g+	c #8A3800",
"h+	c #4D1F00",
"i+	c #502100",
"j+	c #512100",
"k+	c #4E1E00",
"l+	c #170800",
"m+	c #1E1400",
"n+	c #181400",
"o+	c #191400",
"p+	c #1F1400",
"q+	c #190900",
"r+	c #18140D",
"  . + @ # @ # $ @ % # & * & # = - ; > % , & & % # ' . & $ # ) ! ",
"~ { ] ^ / / / ( _ : _ _ _ / < [ } | [ < 1 ( 2 _ ( ( 3 2 4 5 6 7 ",
"8 9 0 a b c b b b d d e e b f g h i g f e e b c b e b b j k l m ",
"! 9 0 n o o o o p q o o p p 2 r s t u 2 o o o o v o o o w x y m ",
"8 z A B o o C o D E o F G H I J K L M ^ o p p o E N o o o O y ! ",
"P Q R p G S T N p U F F S V / M W W M X C o U Y o o U Z o ` y ! ",
" .9 ..p G +.F o U U U D @.U 2 M s L #.$.%.o o p o &.U D o ` *.! ",
" .9 R =.o o o F -.o p p o o 2 M ;.W >.,.N o o o U '.o ).o ` y 7 ",
"P Q A p p o o !.~.o p o o o {.M ].t M ^ F U U U F o o -.o O y ^.",
" .Q R =.o o N /.(._.o F o :.2 M <.[.}.^ U G o o o U F |.o ` *.! ",
"P Q R =.o o o o o 1.o o p 2.2 }.3.4.5.^ N o o 6.o o o p o O 7.7 ",
"8.9.R p o 0.F U o o o U U o a.b.c.d.M 2 0.o o e.o U U p o ` *.f.",
"m g...=.o h.U o o o o F o o i.}.j.t }.2 2.o o U p F U U o O y 7 ",
"m g.R p o o o o o k.o o o o 2 u K ].5./ o U l.m.o p o o n.` y ! ",
"! 9 o.p o F U o o p.o U U F q.u r.s.}.t.G D u.p.F U F F v.w.x.! ",
"! Q A p F F o D U F p U U U t.5.y.z.}.t.o F o o o o U o A.B.*.7 ",
"m Q 0 =.F F o F F o o o o F 2 u C.y.}.2 p o o o o N D.F o O y ! ",
"8 Q A p v.v.p o D E.F.E.N G.H.5.I.J.K.( F U U U U o F U o O *.^.",
" .Q R =.U L.U p o o N U U U / }.C.C.M.2 N.U F o o o o ).o O *.m ",
"! Q R =.o E.U o p U o D U D t.u O.P.5./ F U D Q.o o U o p O *.R.",
"! S.R p o F U U U T.U D F U t.5.].U.}./ V.U G F o o U U o O *.^.",
"m Q W.=.o U F U p X.D U Y.U t.5.W t }.t.F o F p o h.o o o Z.`.7 ",
"!  +W.p o U .+o p o o o ++U / }.].t }./ @+p U o o #+o o $+%+0 7 ",
"8 z A p U p &+F U F p F o F t.}.].*+}.4 =+o F U p p o o -+w ..^.",
"P ;+o.B p >+Y U U F U o ,+U t.5.].L '+t.)+F U U U F U o o O ..! ",
"8 z R B G !+p D U U U U :.p / M L ~+{+t.]+U U F o F ^+o o /+(+! ",
"_+:+R =.U U F U U F o U p p ^ 5.<+[+}+2 U U U U U F |+F o Z.*.! ",
" .1+o.2+U U U U U N T N U U / }.3+4+}.2 F U U E.F U U U o O (+7 ",
"! 5+W.=.o U U o U U 6+U F U U 7+8+9+0+V.a+b+U U U U F o c+/+x.! ",
"_+5+W.d+o o U U U U U U U E.U N.]+e+5+p o f+o F F o p o g+Z.x.! ",
"8 h+x.k i+e e e e j+j+j+j+j+j+j+j+e e e j+j+j+j+j+j+j+j+e k+*.! ",
"8 l+) ) ) m+m+n+n+o+p+p+m+) ) ) p+m+q+q+) p+n+) p+n+o+r+) ) ) ! "};
