/* XPM */
static char * collectible_profile_xpm[] = {
"32 32 219 2",
"  	c #010101",
". 	c #442B19",
"+ 	c #442A19",
"@ 	c #452B19",
"# 	c #452B18",
"$ 	c #2E1200",
"% 	c #2B1100",
"& 	c #2E1300",
"* 	c #442B18",
"= 	c #442A18",
"- 	c #1F1108",
"; 	c #010000",
"> 	c #A05F32",
", 	c #96582E",
"' 	c #96582D",
") 	c #97592D",
"! 	c #96592C",
"~ 	c #97592C",
"{ 	c #96592D",
"] 	c #521F00",
"^ 	c #886100",
"/ 	c #855F00",
"( 	c #95592D",
"_ 	c #96582C",
": 	c #96572D",
"< 	c #95572D",
"[ 	c #533019",
"} 	c #030101",
"| 	c #9F5F32",
"1 	c #532E17",
"2 	c #5D331A",
"3 	c #653B20",
"4 	c #653C21",
"5 	c #653C20",
"6 	c #653B1F",
"7 	c #14020A",
"8 	c #C9AD00",
"9 	c #C9AE00",
"0 	c #62371D",
"a 	c #5E331A",
"b 	c #522F1A",
"c 	c #020101",
"d 	c #8A4524",
"e 	c #A36131",
"f 	c #A36132",
"g 	c #B16C39",
"h 	c #341206",
"i 	c #D1B300",
"j 	c #D3B500",
"k 	c #2F1006",
"l 	c #B06C39",
"m 	c #98542B",
"n 	c #874121",
"o 	c #532F19",
"p 	c #9F6032",
"q 	c #532E16",
"r 	c #A36133",
"s 	c #AF6B39",
"t 	c #A46032",
"u 	c #E6924D",
"v 	c #A46131",
"w 	c #A36032",
"x 	c #AF6735",
"y 	c #A46130",
"z 	c #461B07",
"A 	c #D1B500",
"B 	c #D2B400",
"C 	c #2F1007",
"D 	c #E6934E",
"E 	c #A36130",
"F 	c #955229",
"G 	c #522E16",
"H 	c #AB6433",
"I 	c #E9944F",
"J 	c #A46031",
"K 	c #E48241",
"L 	c #D2B500",
"M 	c #AA6433",
"N 	c #AE6937",
"O 	c #A36033",
"P 	c #A46033",
"Q 	c #945229",
"R 	c #010100",
"S 	c #522E17",
"T 	c #D2773A",
"U 	c #A46132",
"V 	c #D2763A",
"W 	c #331207",
"X 	c #D97A3A",
"Y 	c #EA9650",
"Z 	c #A96433",
"` 	c #522F19",
" .	c #A26132",
"..	c #A76332",
"+.	c #D0B200",
"@.	c #481C07",
"#.	c #D5793A",
"$.	c #D4783A",
"%.	c #A36231",
"&.	c #A86332",
"*.	c #D7793A",
"=.	c #D1B400",
"-.	c #A86433",
";.	c #020100",
">.	c #EE9852",
",.	c #BC6B33",
"'.	c #C47137",
").	c #D58647",
"!.	c #C7A500",
"~.	c #C8A400",
"{.	c #301106",
"].	c #EF9A53",
"^.	c #BB6B34",
"/.	c #A36031",
"(.	c #C87B3F",
"_.	c #684400",
":.	c #6A4500",
"<.	c #934E26",
"[.	c #9E6032",
"}.	c #532F17",
"|.	c #D48547",
"1.	c #C27037",
"2.	c #CFAD00",
"3.	c #C9AA00",
"4.	c #D48648",
"5.	c #98552B",
"6.	c #9E5F32",
"7.	c #C97B40",
"8.	c #D4B500",
"9.	c #C87C40",
"0.	c #D48446",
"a.	c #301006",
"b.	c #C57138",
"c.	c #D48546",
"d.	c #A56130",
"e.	c #532F16",
"f.	c #CC7E41",
"g.	c #BA8F00",
"h.	c #BA8E00",
"i.	c #BF6E34",
"j.	c #F19A53",
"k.	c #955228",
"l.	c #522F18",
"m.	c #B98D00",
"n.	c #C29100",
"o.	c #945129",
"p.	c #A36030",
"q.	c #B98E00",
"r.	c #D6793A",
"s.	c #F19952",
"t.	c #A46030",
"u.	c #D87A3B",
"v.	c #F19A52",
"w.	c #B88D00",
"x.	c #BA8D00",
"y.	c #52260D",
"z.	c #F09952",
"A.	c #301105",
"B.	c #CDAE00",
"C.	c #CDAD00",
"D.	c #F19A54",
"E.	c #040101",
"F.	c #9E6133",
"G.	c #EC8D49",
"H.	c #D7B700",
"I.	c #96532A",
"J.	c #532E15",
"K.	c #954F26",
"L.	c #BA6B34",
"M.	c #965229",
"N.	c #512F18",
"O.	c #9F6132",
"P.	c #9A552B",
"Q.	c #C47138",
"R.	c #C77B40",
"S.	c #D68647",
"T.	c #C77B3F",
"U.	c #965329",
"V.	c #542F18",
"W.	c #944E28",
"X.	c #D3B600",
"Y.	c #D68748",
"Z.	c #D68848",
"`.	c #975229",
" +	c #030201",
".+	c #9F6033",
"++	c #C77B41",
"@+	c #301007",
"#+	c #D58747",
"$+	c #DAB700",
"%+	c #491C06",
"&+	c #D27637",
"*+	c #96522A",
"=+	c #522E19",
"-+	c #C8A600",
";+	c #CCA700",
">+	c #411806",
",+	c #A06133",
"'+	c #E9934D",
")+	c #B78900",
"!+	c #B88800",
"~+	c #A16133",
"{+	c #542F16",
"]+	c #B36D39",
"^+	c #A56132",
"/+	c #E7904A",
"(+	c #8F4624",
"_+	c #8D4624",
":+	c #B46E3A",
"<+	c #9F5C2E",
"[+	c #643C21",
"}+	c #663D20",
"|+	c #663C20",
"1+	c #663C1F",
"2+	c #62381D",
"3+	c #20120A",
"4+	c #201209",
"5+	c #211209",
"6+	c #201208",
"  . + @ @ @ @ + @ . @ @ # @ @ $ % % & . * . @ . = # . . + @ - ; ",
"; > , ' ) ) ) ! ~ { ~ ~ ~ ) { ] ^ / ] { ( ! { ~ ! ! ! _ : < [ } ",
"  | 1 2 3 4 3 3 3 5 5 6 6 3 5 7 8 9 7 5 6 6 3 4 3 6 3 3 0 a b c ",
"; | 1 d e e e e f g e e f f e h i j k e e e e e l e e e m n o c ",
"  p q r e e s e t u e v w x y z A B C f e f f e D E e e e F o c ",
"; p G f w H I E f J v v H K v C L L C M N e J O e e J P e Q o c ",
"R | S f w T v e J J U t V J e C i B W X Y e e f e Z J t e Q ` c ",
"R | G  .e e e v ..e f f e e e C +.L @.#.E e e e J $.e %.e Q o } ",
"; p q f f e e &.*.e f e e e t C =.j C f v J J J v e e -.e F o ;.",
"R p G  .e e E >.,.'.e v e ).e C !.~.{.J J w e e e J v ].e Q ` c ",
"; p G  .e e e e e ^.e e /.(.e {._.:.k J w e e <.e e e f e F o } ",
"  [.}.f e |.v J e e e J J e 1.{.2.3.C e 4.e e 5.e J U f e Q ` ;.",
"; 6.S  .e 7.J e e e e v e e ^.{.8.j {.e 9.e e J f v U J e F o } ",
"; 6.}.f e e e e e 0.e e e e e k A =.a.v e J b.c.e f e e d.Q o c ",
"; | e.f e v J e e f.e J J v J k g.h.{.J w t i.f.v J v v j.k.l.c ",
"; p q f v v e t J v /.J J J J k m.n.{.J e v e e e e J e y o.` } ",
"; p 1  .v v e v v e e e e p.e k q.m.{.e f e e e e E r.v e F o c ",
"  p q f j.s./.e t t.u.t.E v.y a.w.x.y.E v J J J J e v U e F ` ;.",
"R p }. .J z.J /.e e E J J J v {.q.q.A.v v J v e e e e %.e F ` c ",
"; p }. .e t.J e f J e t J t J k B.C.k v v U t D.e e J e /.F ` E.",
"; F.}.f e v U J J G.J t v J J a.=.H.{.v f J w p.e e J U e I.` ;.",
"; p J. .e J v J f K.t J L.J J a.L j {.J J e v f e 7.e e e M.N.} ",
"; O.J.f e J P.e f e e e Q.J v {.=.j {.v R./.J e e S.e e T.U.V.} ",
"  p q f U f W.v U v f v e v U {.=.X.{.w Y.e v J /.f e e Z.`.S  +",
"; .+e.r /.++O J J v U e R.J J a.=.B @+J e v U J U v J e e F S c ",
"  p }.r w #+f t U U J J ).f v C B $+%+J J U U v e v &+e e *+=+c ",
"R .+}. .J J v U J v e J /././.a.-+;+>+e J J J J J v M v e M.` c ",
"R ,+e. .J U U J J E '+E J J v {.)+!+{.e J J J t.v J J J e I.=+} ",
"; ~+{+ .e J J e J J ]+J v J J {.;+;+{.t ^+/+J J J J v e (+*+l.c ",
"R ~+{+_+e e J J J J J J J t.J {.;+;+{.f e :+e v v e /.e <+M.l.c ",
"  [+l.a }+|+|+|+|+1+1+1+1+1+1+{.{.{.{.|+1+1+1+1+1+1+1+1+|+2+` c ",
"  3+4+4+4+4+4+4+4+5+5+5+4+4+4+4+5+4+5+5+4+5+4+4+5+4+6+4+4+4+4+c "};
