/* XPM */
static char * collectible_left_xpm[] = {
"32 32 245 2",
"  	c #010000",
". 	c #1F1108",
"+ 	c #452B19",
"@ 	c #442A19",
"# 	c #442B19",
"$ 	c #452B18",
"% 	c #442A18",
"& 	c #442B18",
"* 	c #010101",
"= 	c #030101",
"- 	c #533019",
"; 	c #95572D",
"> 	c #96572D",
", 	c #96582C",
"' 	c #96592C",
") 	c #97592C",
"! 	c #96592D",
"~ 	c #95592D",
"{ 	c #95582C",
"] 	c #97592D",
"^ 	c #96582D",
"/ 	c #96582E",
"( 	c #A05F32",
"_ 	c #020101",
": 	c #522F1A",
"< 	c #5E331A",
"[ 	c #62371D",
"} 	c #653B20",
"| 	c #653B1F",
"1 	c #653C21",
"2 	c #653C20",
"3 	c #5D331A",
"4 	c #532E17",
"5 	c #9F5F32",
"6 	c #532F19",
"7 	c #874121",
"8 	c #98542B",
"9 	c #A36131",
"0 	c #B06C39",
"a 	c #000000",
"b 	c #2B2B29",
"c 	c #A36132",
"d 	c #B16C39",
"e 	c #8A4524",
"f 	c #955229",
"g 	c #A36130",
"h 	c #E6934E",
"i 	c #C3AA21",
"j 	c #232522",
"k 	c #AF6735",
"l 	c #A36032",
"m 	c #A46131",
"n 	c #E6924D",
"o 	c #A46032",
"p 	c #AF6B39",
"q 	c #A36133",
"r 	c #532E16",
"s 	c #9F6032",
"t 	c #945229",
"u 	c #A46033",
"v 	c #A46031",
"w 	c #A36033",
"x 	c #AE920F",
"y 	c #D8BC1A",
"z 	c #000200",
"A 	c #AB6433",
"B 	c #E9944F",
"C 	c #522E16",
"D 	c #522F19",
"E 	c #A96433",
"F 	c #C0A911",
"G 	c #DABE18",
"H 	c #010100",
"I 	c #D2763A",
"J 	c #A46132",
"K 	c #D2773A",
"L 	c #522E17",
"M 	c #A36231",
"N 	c #D4783A",
"O 	c #CAB00F",
"P 	c #DFC317",
"Q 	c #A76332",
"R 	c #A26132",
"S 	c #020100",
"T 	c #A86433",
"U 	c #B09314",
"V 	c #EBCA02",
"W 	c #F0D003",
"X 	c #CAA906",
"Y 	c #010201",
"Z 	c #D7793A",
"` 	c #A86332",
" .	c #EF9A53",
"..	c #CAB117",
"+.	c #F4D501",
"@.	c #F4D601",
"#.	c #E2C50A",
"$.	c #C47137",
"%.	c #BC6B33",
"&.	c #EE9852",
"*.	c #934E26",
"=.	c #CFB519",
"-.	c #F5D501",
";.	c #F1D102",
">.	c #B0900B",
",.	c #010301",
"'.	c #BB6B34",
").	c #C1A118",
"!.	c #ECCC02",
"~.	c #F4D701",
"{.	c #CEB413",
"].	c #28220F",
"^.	c #D48547",
"/.	c #532F17",
"(.	c #9E6032",
"_.	c #D3B015",
":.	c #D4B203",
"<.	c #D6B403",
"[.	c #D4AE04",
"}.	c #D2AE04",
"|.	c #CFAC10",
"1.	c #010203",
"2.	c #C97B40",
"3.	c #9E5F32",
"4.	c #A56130",
"5.	c #EFD21D",
"6.	c #F5D601",
"7.	c #F2D406",
"8.	c #CDAF20",
"9.	c #130E05",
"0.	c #522F18",
"a.	c #955228",
"b.	c #F19A53",
"c.	c #F1D307",
"d.	c #F9F1C8",
"e.	c #F9F7E2",
"f.	c #ECD124",
"g.	c #010202",
"h.	c #532F16",
"i.	c #945129",
"j.	c #A46130",
"k.	c #C8A81E",
"l.	c #EFD003",
"m.	c #CFAE24",
"n.	c #020102",
"o.	c #D6793A",
"p.	c #D9C008",
"q.	c #DCC107",
"r.	c #C0A00C",
"s.	c #EED004",
"t.	c #BD9D0C",
"u.	c #A46030",
"v.	c #A36031",
"w.	c #F19952",
"x.	c #D9BF1B",
"y.	c #C2A51A",
"z.	c #F09952",
"A.	c #040101",
"B.	c #D8BF20",
"C.	c #F4D500",
"D.	c #EACB01",
"E.	c #BFA31A",
"F.	c #13120A",
"G.	c #96532A",
"H.	c #D9BF1F",
"I.	c #EBCB01",
"J.	c #BFA31C",
"K.	c #EC8D49",
"L.	c #9E6133",
"M.	c #512F18",
"N.	c #965229",
"O.	c #B89C32",
"P.	c #EBCE09",
"Q.	c #F3D401",
"R.	c #E6C708",
"S.	c #B49315",
"T.	c #5C4E1C",
"U.	c #954F26",
"V.	c #532E15",
"W.	c #542F18",
"X.	c #965329",
"Y.	c #C77B3F",
"Z.	c #D68647",
"`.	c #C6A609",
" +	c #EED002",
".+	c #EECF03",
"++	c #C19E05",
"@+	c #9A552B",
"#+	c #9F6132",
"$+	c #030201",
"%+	c #975229",
"&+	c #D68848",
"*+	c #D7BC0A",
"=+	c #F3D501",
"-+	c #E6C403",
";+	c #DBB803",
">+	c #E5C502",
",+	c #D6BA08",
"'+	c #944E28",
")+	c #DBC00B",
"!+	c #E4C302",
"~+	c #9F8616",
"{+	c #E4C503",
"]+	c #DCC007",
"^+	c #C77B41",
"/+	c #9F6033",
"(+	c #522E19",
"_+	c #96522A",
":+	c #D27637",
"<+	c #B09423",
"[+	c #EACC08",
"}+	c #E0BF02",
"|+	c #977F15",
"1+	c #E1C202",
"2+	c #EED207",
"3+	c #CAB229",
"4+	c #D58747",
"5+	c #AA6433",
"6+	c #CCA718",
"7+	c #DAB603",
"8+	c #917A12",
"9+	c #E1C303",
"0+	c #EACD22",
"a+	c #010304",
"b+	c #CBA818",
"c+	c #8F7821",
"d+	c #E8CD22",
"e+	c #020205",
"f+	c #A06133",
"g+	c #8F4624",
"h+	c #542F16",
"i+	c #A16133",
"j+	c #9F5C2E",
"k+	c #B46E3A",
"l+	c #9E5B2E",
"m+	c #8D4624",
"n+	c #62381D",
"o+	c #663C20",
"p+	c #663C1F",
"q+	c #663D20",
"r+	c #643C21",
"s+	c #201209",
"t+	c #201208",
"u+	c #211209",
"v+	c #20120A",
"  . + @ # # $ % # + # & # & & @ + + + $ + + # + @ + + + + @ # * ",
"= - ; > , ' ' ' ) ! ' ~ ! ! { ' ' ! ] ) ) ) ! ) ' ] ] ] ^ / (   ",
"_ : < [ } } | } 1 } | | 2 2 } } } 2 } | | 2 2 } } } 1 } 3 4 5 * ",
"_ 6 7 8 9 9 9 0 9 9 9 9 a a a a a b c c 9 9 d c 9 9 9 9 e 4 5   ",
"_ 6 f 9 9 9 g h 9 c c a i a a a a j k l m 9 n o 9 p 9 9 q r s * ",
"_ 6 t 9 u v 9 9 w v a x y a a a a a z A m m v c g B A l c C s   ",
"_ D t 9 o v E 9 c 9 a F G a a a a a H I o J v v 9 m K l c L 5 H ",
"= 6 t 9 M 9 N v 9 9 a O P a a a a a a 9 c c 9 Q m 9 9 9 R C 5 H ",
"S 6 f 9 T 9 9 m v a U V W X a a a a a Y 9 c 9 Z ` 9 9 c c r s   ",
"_ D t 9  .m v 9 9 a ..+.@.#.a a a a a Y m 9 $.%.&.g 9 9 R C s H ",
"= 6 f 9 c 9 9 9 *.a =.+.-.;.>.a a a a ,.9 9 '.9 9 9 9 9 R C s   ",
"S D t 9 c a a a a ).!.~.~.@.{.a a a a ,.a a a a ].m ^.9 c /.(.* ",
"= 6 f 9 v a _.:.<.~.~.~.~.~.~.~.[.}.|.1.a a a a a v 2.9 R L 3.  ",
"_ 6 t 4.9 a 5.@.6.~.a ~.~.a ~.@.@.7.8.9.a a a a a 9 9 9 c /.3.  ",
"_ 0.a.b.m m a c.@.~.d.~.~.e.~.@.6.f.g.a a a a a 9 v m 9 c h.5   ",
"= D i.j.9 v a k.W ~.a ~.~.a ~.@.l.m.n.a a a a a o 9 m m c r s   ",
"_ 6 f 9 m o.g a p.~.a ~.~.a ~.+.q.a a a a a a m m 9 m m R 4 s   ",
"S D f 9 J m 9 a r.s.a ~.~.a ~.s.t.a a a a a u.o 9 v.w.b.c r s * ",
"_ D f 9 M 9 9 9 a x.~.~.~.~.~.y.a a a a a a 9 9 v.v z.v R /.s H ",
"A.D f v.9 v 9 9 a B.C.+.@.+.D.E.F.a a a a a v c 9 v u.9 R /.s   ",
"S D G.9 J v 9 9 a H.@.@.~.@.I.J.a a a a a a K.v v J m 9 c /.L.  ",
"= M.N.9 9 9 2.a O.P.@.@.6.6.Q.R.S.T.a a a a U.c v m v 9 R V.s   ",
"= W.X.Y.9 9 Z.a `. +@.6.@.6.+..+++a a a a a 9 c 9 @+v 9 c V.#+  ",
"$+L %+&+9 9 c a *+=+@.-+;+>+@.Q.,+a a a a a m J m '+c J c r s * ",
"_ L f 9 9 v m a )++.!+~+a a {+@.]+a a a a a a v v w ^+v.q h./+  ",
"_ (+_+9 9 :+a <+[+}+|+a a a a 1+2+3+a a a a a J o c 4+l q /.s * ",
"_ D N.9 m 5+a 6+7+8+a a a a a a 9+0+a+a a a a a J m v v R /./+H ",
"= (+G.9 v v a b+c+a a a a a 9 a a d+e+a a a a a v J J v R h.f+H ",
"_ 0._+g+9 m a a a a a a a g+9 m a a g.a a a a a 9 v v 9 R h+i+  ",
"_ 0.N.j+9 v.9 m m 9 k+9 c l+9 v m v u.v v v v v v v 9 9 m+h+i+H ",
"_ D n+o+p+p+p+p+p+p+p+p+o+o+o+p+p+p+p+p+p+p+p+o+o+o+o+q+< 0.r+* ",
"_ s+s+s+s+t+s+u+s+s+u+s+u+u+s+u+s+s+s+s+u+u+u+s+s+s+s+s+s+s+v+* "};
