/* XPM */
static char * collectible_right_xpm[] = {
"32 32 245 2",
"  	c #010101",
". 	c #442B19",
"+ 	c #442A19",
"@ 	c #452B19",
"# 	c #452B18",
"$ 	c #442B18",
"% 	c #442A18",
"& 	c #1F1108",
"* 	c #010000",
"= 	c #A05F32",
"- 	c #96582E",
"; 	c #96582D",
"> 	c #97592D",
", 	c #96592C",
"' 	c #97592C",
") 	c #96592D",
"! 	c #95582C",
"~ 	c #95592D",
"{ 	c #96582C",
"] 	c #96572D",
"^ 	c #95572D",
"/ 	c #533019",
"( 	c #030101",
"_ 	c #9F5F32",
": 	c #532E17",
"< 	c #5D331A",
"[ 	c #653B20",
"} 	c #653C21",
"| 	c #653C20",
"1 	c #653B1F",
"2 	c #62371D",
"3 	c #5E331A",
"4 	c #522F1A",
"5 	c #020101",
"6 	c #8A4524",
"7 	c #A36131",
"8 	c #A36132",
"9 	c #B16C39",
"0 	c #2B2B29",
"a 	c #000000",
"b 	c #B06C39",
"c 	c #98542B",
"d 	c #874121",
"e 	c #532F19",
"f 	c #9F6032",
"g 	c #532E16",
"h 	c #A36133",
"i 	c #AF6B39",
"j 	c #A46032",
"k 	c #E6924D",
"l 	c #A46131",
"m 	c #A36032",
"n 	c #AF6735",
"o 	c #232522",
"p 	c #C3AA21",
"q 	c #E6934E",
"r 	c #A36130",
"s 	c #955229",
"t 	c #522E16",
"u 	c #AB6433",
"v 	c #E9944F",
"w 	c #A46031",
"x 	c #000200",
"y 	c #D8BC1A",
"z 	c #AE920F",
"A 	c #A36033",
"B 	c #A46033",
"C 	c #945229",
"D 	c #010100",
"E 	c #522E17",
"F 	c #D2773A",
"G 	c #A46132",
"H 	c #D2763A",
"I 	c #DABE18",
"J 	c #C0A911",
"K 	c #A96433",
"L 	c #522F19",
"M 	c #A26132",
"N 	c #A76332",
"O 	c #DFC317",
"P 	c #CAB00F",
"Q 	c #D4783A",
"R 	c #A36231",
"S 	c #A86332",
"T 	c #D7793A",
"U 	c #010201",
"V 	c #CAA906",
"W 	c #F0D003",
"X 	c #EBCA02",
"Y 	c #B09314",
"Z 	c #A86433",
"` 	c #020100",
" .	c #EE9852",
"..	c #BC6B33",
"+.	c #C47137",
"@.	c #E2C50A",
"#.	c #F4D601",
"$.	c #F4D501",
"%.	c #CAB117",
"&.	c #EF9A53",
"*.	c #BB6B34",
"=.	c #010301",
"-.	c #B0900B",
";.	c #F1D102",
">.	c #F5D501",
",.	c #CFB519",
"'.	c #934E26",
").	c #9E6032",
"!.	c #532F17",
"~.	c #D48547",
"{.	c #28220F",
"].	c #CEB413",
"^.	c #F4D701",
"/.	c #ECCC02",
"(.	c #C1A118",
"_.	c #9E5F32",
":.	c #C97B40",
"<.	c #010203",
"[.	c #CFAC10",
"}.	c #D2AE04",
"|.	c #D4AE04",
"1.	c #D6B403",
"2.	c #D4B203",
"3.	c #D3B015",
"4.	c #130E05",
"5.	c #CDAF20",
"6.	c #F2D406",
"7.	c #F5D601",
"8.	c #EFD21D",
"9.	c #A56130",
"0.	c #532F16",
"a.	c #010202",
"b.	c #ECD124",
"c.	c #F9F7E2",
"d.	c #F9F1C8",
"e.	c #F1D307",
"f.	c #F19A53",
"g.	c #955228",
"h.	c #522F18",
"i.	c #020102",
"j.	c #CFAE24",
"k.	c #EFD003",
"l.	c #C8A81E",
"m.	c #A46130",
"n.	c #945129",
"o.	c #DCC107",
"p.	c #D9C008",
"q.	c #D6793A",
"r.	c #F19952",
"s.	c #A36031",
"t.	c #A46030",
"u.	c #BD9D0C",
"v.	c #EED004",
"w.	c #C0A00C",
"x.	c #F09952",
"y.	c #C2A51A",
"z.	c #D9BF1B",
"A.	c #13120A",
"B.	c #BFA31A",
"C.	c #EACB01",
"D.	c #F4D500",
"E.	c #D8BF20",
"F.	c #040101",
"G.	c #9E6133",
"H.	c #EC8D49",
"I.	c #BFA31C",
"J.	c #EBCB01",
"K.	c #D9BF1F",
"L.	c #96532A",
"M.	c #532E15",
"N.	c #954F26",
"O.	c #5C4E1C",
"P.	c #B49315",
"Q.	c #E6C708",
"R.	c #F3D401",
"S.	c #EBCE09",
"T.	c #B89C32",
"U.	c #965229",
"V.	c #512F18",
"W.	c #9F6132",
"X.	c #9A552B",
"Y.	c #C19E05",
"Z.	c #EECF03",
"`.	c #EED002",
" +	c #C6A609",
".+	c #D68647",
"++	c #C77B3F",
"@+	c #965329",
"#+	c #542F18",
"$+	c #944E28",
"%+	c #D6BA08",
"&+	c #E5C502",
"*+	c #DBB803",
"=+	c #E6C403",
"-+	c #F3D501",
";+	c #D7BC0A",
">+	c #D68848",
",+	c #975229",
"'+	c #030201",
")+	c #9F6033",
"!+	c #C77B41",
"~+	c #DCC007",
"{+	c #E4C503",
"]+	c #9F8616",
"^+	c #E4C302",
"/+	c #DBC00B",
"(+	c #D58747",
"_+	c #CAB229",
":+	c #EED207",
"<+	c #E1C202",
"[+	c #977F15",
"}+	c #E0BF02",
"|+	c #EACC08",
"1+	c #B09423",
"2+	c #D27637",
"3+	c #96522A",
"4+	c #522E19",
"5+	c #010304",
"6+	c #EACD22",
"7+	c #E1C303",
"8+	c #917A12",
"9+	c #DAB603",
"0+	c #CCA718",
"a+	c #AA6433",
"b+	c #A06133",
"c+	c #020205",
"d+	c #E8CD22",
"e+	c #8F7821",
"f+	c #CBA818",
"g+	c #A16133",
"h+	c #542F16",
"i+	c #8F4624",
"j+	c #8D4624",
"k+	c #9E5B2E",
"l+	c #B46E3A",
"m+	c #9F5C2E",
"n+	c #643C21",
"o+	c #663D20",
"p+	c #663C20",
"q+	c #663C1F",
"r+	c #62381D",
"s+	c #20120A",
"t+	c #201209",
"u+	c #211209",
"v+	c #201208",
"  . + @ @ @ @ + @ . @ @ # @ @ @ + $ $ . $ . @ . % # . . + @ & * ",
"* = - ; > > > , ' ) ' ' ' > ) , , ! ) ) ~ , ) ' , , , { ] ^ / ( ",
"  _ : < [ } [ [ [ | | 1 1 [ | [ [ [ | | 1 1 [ } [ 1 [ [ 2 3 4 5 ",
"* _ : 6 7 7 7 7 8 9 7 7 8 8 0 a a a a a 7 7 7 7 b 7 7 7 c d e 5 ",
"  f g h 7 7 i 7 j k 7 l m n o a a a a p a 8 8 7 q r 7 7 7 s e 5 ",
"* f t 8 m u v r 8 w l l u x a a a a a y z a w A 7 7 w B 7 C e 5 ",
"D _ E 8 m F l 7 w w G j H D a a a a a I J a 7 8 7 K w j 7 C L 5 ",
"D _ t M 7 7 7 l N 7 8 8 7 a a a a a a O P a 7 7 w Q 7 R 7 C e ( ",
"* f g 8 8 7 7 S T 7 8 7 U a a a a a V W X Y a w l 7 7 Z 7 s e ` ",
"D f t M 7 7 r  ...+.7 l U a a a a a @.#.$.%.a 7 7 w l &.7 C L 5 ",
"* f t M 7 7 7 7 7 *.7 7 =.a a a a -.;.>.$.,.a '.7 7 7 8 7 s e ( ",
"  ).!.8 7 ~.l {.a a a a =.a a a a ].#.^.^./.(.a a a a 8 7 C L ` ",
"* _.E M 7 :.w a a a a a <.[.}.|.^.^.^.^.^.^.^.1.2.3.a w 7 s e ( ",
"* _.!.8 7 7 7 a a a a a 4.5.6.#.#.^.a ^.^.a ^.7.#.8.a 7 9.C e 5 ",
"* _ 0.8 7 l w 7 a a a a a a.b.7.#.^.c.^.^.d.^.#.e.a l l f.g.h.5 ",
"* f g 8 l l 7 j a a a a a i.j.k.#.^.a ^.^.a ^.W l.a w 7 m.n.L ( ",
"* f : M l l 7 l l a a a a a a o.$.^.a ^.^.a ^.p.a r q.l 7 s e 5 ",
"  f g 8 f.r.s.7 j t.a a a a a u.v.^.a ^.^.a v.w.a 7 l G 7 s L ` ",
"D f !.M w x.w s.7 7 a a a a a a y.^.^.^.^.^.z.a 7 7 7 R 7 s L 5 ",
"* f !.M 7 t.w 7 8 w a a a a a A.B.C.$.#.$.D.E.a 7 7 w 7 s.s L F.",
"* G.!.8 7 l G w w H.a a a a a a I.J.#.^.#.#.K.a 7 7 w G 7 L.L ` ",
"* f M.M 7 w l w 8 N.a a a a O.P.Q.R.7.7.#.#.S.T.a :.7 7 7 U.V.( ",
"* W.M.8 7 w X.7 8 7 a a a a a Y.Z.$.7.#.7.#.`. +a .+7 7 ++@+#+( ",
"  f g 8 G 8 $+l G l a a a a a %+R.#.&+*+=+#.-+;+a 8 7 7 >+,+E '+",
"* )+0.h s.!+A w w a a a a a a ~+#.{+a a ]+^+$./+a l w 7 7 s E 5 ",
"  f !.h m (+8 j G a a a a a _+:+<+a a a a [+}+|+1+a 2+7 7 3+4+5 ",
"D )+!.M w w l G a a a a a 5+6+7+a a a a a a 8+9+0+a a+l 7 U.L 5 ",
"D b+0.M w G G w a a a a a c+d+a a 7 a a a a a e+f+a w w 7 L.4+( ",
"* g+h+M 7 w w 7 a a a a a a.a a l 7 i+a a a a a a a l 7 i+3+h.5 ",
"D g+h+j+7 7 w w w w w w w t.w l w 7 k+8 7 l+7 l l 7 s.7 m+U.h.5 ",
"  n+h.3 o+p+p+p+p+q+q+q+q+q+q+q+q+p+p+p+q+q+q+q+q+q+q+q+p+r+L 5 ",
"  s+t+t+t+t+t+t+t+u+u+u+t+t+t+t+u+t+u+u+t+u+t+t+u+t+v+t+t+t+t+5 "};
