/* XPM */
static char * collectible_front_xpm[] = {
"32 32 347 2",
"  	c #101001",
". 	c #483219",
"+ 	c #462E19",
"@ 	c #472F19",
"# 	c #493219",
"$ 	c #462F19",
"% 	c #472F18",
"& 	c #462F18",
"* 	c #483218",
"= 	c #462E18",
"- 	c #251A08",
"; 	c #171600",
"> 	c #100F00",
", 	c #A06032",
"' 	c #965A2E",
") 	c #965A2D",
"! 	c #975B2D",
"~ 	c #97592D",
"{ 	c #965B2C",
"] 	c #97592C",
"^ 	c #965B2D",
"/ 	c #975B2C",
"( 	c #955A2C",
"_ 	c #955B2D",
": 	c #965A2C",
"< 	c #96592D",
"[ 	c #95592D",
"} 	c #553419",
"| 	c #111001",
"1 	c #9F6032",
"2 	c #553217",
"3 	c #5E361A",
"4 	c #663E20",
"5 	c #663E21",
"6 	c #653B20",
"7 	c #653C20",
"8 	c #653B1F",
"9 	c #60381E",
"0 	c #653C21",
"a 	c #62371D",
"b 	c #5E331A",
"c 	c #52301A",
"d 	c #171701",
"e 	c #8A4624",
"f 	c #A36131",
"g 	c #A36132",
"h 	c #B16C39",
"i 	c #A66232",
"j 	c #000000",
"k 	c #9D5E2F",
"l 	c #B06C39",
"m 	c #99562B",
"n 	c #874121",
"o 	c #533019",
"p 	c #0D1701",
"q 	c #9F6132",
"r 	c #553216",
"s 	c #A36133",
"t 	c #AF6B39",
"u 	c #A46032",
"v 	c #E6924D",
"w 	c #A46131",
"x 	c #A36032",
"y 	c #AF6735",
"z 	c #A15F2F",
"A 	c #816809",
"B 	c #83690A",
"C 	c #A05F31",
"D 	c #A36232",
"E 	c #E6934E",
"F 	c #A36130",
"G 	c #955229",
"H 	c #0D0C01",
"I 	c #543216",
"J 	c #AB6433",
"K 	c #E9944F",
"L 	c #A46031",
"M 	c #E48341",
"N 	c #8D5329",
"O 	c #E4BB01",
"P 	c #E2BA01",
"Q 	c #93562B",
"R 	c #AE6A3A",
"S 	c #A36033",
"T 	c #A46033",
"U 	c #945229",
"V 	c #101000",
"W 	c #A06132",
"X 	c #553517",
"Y 	c #D2773A",
"Z 	c #A46132",
"` 	c #D2763A",
" .	c #8C5229",
"..	c #F3D500",
"+.	c #F5D600",
"@.	c #BD6931",
"#.	c #EA9750",
"$.	c #A36231",
"%.	c #A96433",
"&.	c #523019",
"*.	c #0C1700",
"=.	c #A26132",
"-.	c #A76332",
";.	c #975A2D",
">.	c #744420",
",.	c #F5D601",
"'.	c #F4D601",
").	c #9A5627",
"!.	c #975A2C",
"~.	c #D4783A",
"{.	c #0E1701",
"].	c #563516",
"^.	c #A86332",
"/.	c #D7793A",
"(.	c #A26030",
"_.	c #8A5128",
":.	c #E9C402",
"<.	c #F5D701",
"[.	c #E7C201",
"}.	c #8B5128",
"|.	c #A35F30",
"1.	c #A86433",
"2.	c #0D1700",
"3.	c #171700",
"4.	c #9E6132",
"5.	c #EE9852",
"6.	c #BC6B33",
"7.	c #C47237",
"8.	c #1C1102",
"9.	c #A98F0A",
"0.	c #F3D801",
"a.	c #A88F07",
"b.	c #8C522A",
"c.	c #EF9A53",
"d.	c #A26232",
"e.	c #A26131",
"f.	c #A26031",
"g.	c #BA6A34",
"h.	c #E6C201",
"i.	c #8B5228",
"j.	c #924E26",
"k.	c #A26032",
"l.	c #553319",
"m.	c #181701",
"n.	c #553317",
"o.	c #000101",
"p.	c #000001",
"q.	c #E7C301",
"r.	c #F6D701",
"s.	c #F4D701",
"t.	c #E7C303",
"u.	c #9E6032",
"v.	c #543217",
"w.	c #D8AE02",
"x.	c #D9AF02",
"y.	c #D8AF02",
"z.	c #E7C302",
"A.	c #F1D105",
"B.	c #EFCE07",
"C.	c #F6D601",
"D.	c #EECE07",
"E.	c #EFD004",
"F.	c #F3D501",
"G.	c #E5C102",
"H.	c #7F4522",
"I.	c #060501",
"J.	c #070600",
"K.	c #D7AB03",
"L.	c #F4D501",
"M.	c #F5D702",
"N.	c #A58A0C",
"O.	c #A88D0B",
"P.	c #F5D802",
"Q.	c #F3D401",
"R.	c #D6AA03",
"S.	c #7E4522",
"T.	c #0A0301",
"U.	c #926F0A",
"V.	c #E4C003",
"W.	c #BE8828",
"X.	c #FFFFFF",
"Y.	c #F5D700",
"Z.	c #BE8928",
"`.	c #E5C103",
" +	c #93700A",
".+	c #7F4521",
"++	c #523018",
"@+	c #A06232",
"#+	c #050300",
"$+	c #957408",
"%+	c #A5890B",
"&+	c #A88E0B",
"*+	c #937208",
"=+	c #8D5328",
"-+	c #955429",
";+	c #A46231",
">+	c #8C5329",
",+	c #947009",
"'+	c #A48A0C",
")+	c #906D09",
"!+	c #8E5329",
"~+	c #F19A53",
"{+	c #F19A52",
"]+	c #947108",
"^+	c #E8C303",
"/+	c #F6D702",
"(+	c #A88C0B",
"_+	c #E6C102",
":+	c #947307",
"<+	c #8C5228",
"[+	c #543319",
"}+	c #9F6232",
"|+	c #563517",
"1+	c #A46331",
"2+	c #F09A52",
"3+	c #A36031",
"4+	c #967604",
"5+	c #C8AC09",
"6+	c #B69E04",
"7+	c #B49A06",
"8+	c #CAAD09",
"9+	c #977604",
"0+	c #A26231",
"a+	c #A46130",
"b+	c #8D5229",
"c+	c #E7C101",
"d+	c #E6C301",
"e+	c #9F6333",
"f+	c #A46232",
"g+	c #CC793E",
"h+	c #96532A",
"i+	c #553215",
"j+	c #8C532A",
"k+	c #DCB60A",
"l+	c #DDB609",
"m+	c #AD6936",
"n+	c #965229",
"o+	c #563515",
"p+	c #9B572B",
"q+	c #E2BE04",
"r+	c #F4D602",
"s+	c #E4BD04",
"t+	c #B8733C",
"u+	c #C77B3F",
"v+	c #975529",
"w+	c #543018",
"x+	c #0E0C01",
"y+	c #955028",
"z+	c #8E690A",
"A+	c #F3D302",
"B+	c #DAB001",
"C+	c #DBB200",
"D+	c #F3D701",
"E+	c #F4D402",
"F+	c #8C6B09",
"G+	c #D68948",
"H+	c #975229",
"I+	c #522F17",
"J+	c #0E0D01",
"K+	c #A06233",
"L+	c #C77C41",
"M+	c #967408",
"N+	c #DEB301",
"O+	c #D9AC03",
"P+	c #D8AC03",
"Q+	c #DDB301",
"R+	c #F4D801",
"S+	c #957406",
"T+	c #965429",
"U+	c #D58947",
"V+	c #61371A",
"W+	c #8A670A",
"X+	c #DBB606",
"Y+	c #EAC502",
"Z+	c #D6AD05",
"`+	c #864F26",
" @	c #C1793E",
".@	c #D4A905",
"+@	c #E8C501",
"@@	c #8A680B",
"#@	c #96522A",
"$@	c #522F19",
"%@	c #050501",
"&@	c #9F6133",
"*@	c #957208",
"=@	c #E5C101",
"-@	c #EAC601",
";@	c #DEB401",
">@	c #9F7D07",
",@	c #884F27",
"'@	c #D48545",
")@	c #A55C2A",
"!@	c #9D7B08",
"~@	c #EAC602",
"{@	c #95710A",
"]@	c #A16333",
"^@	c #553316",
"/@	c #DCB201",
"(@	c #AB8414",
"_@	c #9D5C2F",
":@	c #A15F30",
"<@	c #A05F30",
"[@	c #A47F0A",
"}@	c #937109",
"|@	c #A16233",
"1@	c #573516",
"2@	c #874E27",
"3@	c #9D5D2E",
"4@	c #8F4624",
"5@	c #A56132",
"6@	c #DE8A47",
"7@	c #8F4824",
"8@	c #8D4824",
"9@	c #9C5B2E",
"0@	c #A05E2F",
"a@	c #9E5B2E",
"b@	c #B46F3A",
"c@	c #9F5F30",
"d@	c #9C5C2E",
"e@	c #9F5C2E",
"f@	c #975429",
"g@	c #522F18",
"h@	c #0C1701",
"i@	c #653E21",
"j@	c #533218",
"k@	c #5F391A",
"l@	c #664020",
"m@	c #663D20",
"n@	c #673F20",
"o@	c #663F1F",
"p@	c #66411F",
"q@	c #673F1F",
"r@	c #663E1F",
"s@	c #68411F",
"t@	c #664120",
"u@	c #663C1F",
"v@	c #663D1F",
"w@	c #663F20",
"x@	c #623B1D",
"y@	c #24180A",
"z@	c #241809",
"A@	c #271D09",
"B@	c #251809",
"C@	c #281D09",
"D@	c #211409",
"E@	c #241808",
"F@	c #141301",
"  . + @ # @ @ + @ $ @ @ % @ @ @ + & * $ & $ @ $ = % $ $ + @ - ; ",
"> , ' ) ! ! ~ { ] ^ / / / ! ^ { { ( ^ ^ _ { ^ / { { { : < [ } | ",
"  1 2 3 4 5 6 6 6 7 7 8 8 6 7 6 9 9 4 7 8 8 6 0 6 8 6 6 a b c d ",
"; 1 2 e f f f f g h f f g g f i j j k f f f f f l f f f m n o p ",
"  q r s f f t f u v f w x y z j A B j C f D g f E F f f f G o H ",
"> q I g x J K F g L w w J M N j O P j Q R f L S f f L T f U o p ",
"V W X g x Y w f L L Z u ` L  .j ..+.j @.#.$.$.g f %.L u f U &.H ",
"*.1 I =.f f f w -.f g g f ;.>.j ,.'.j ).!.$.f f L ~.f $.f U o {.",
"; q ].g g f f ^./.f D $.(._.j :.'.<.[.j }.|.L L w f f 1.f G o 2.",
"3.4.I =.f f F 5.6.7.$.w  .8.9.0.<.,.'.a.j b.$.$.$.L w c.f U &.H ",
"; q I d.f e.f.e.e.g.f.e.}.j [.,.,.,.,.h.j i.e.j.f.e.e.k.e.G l.m.",
"  4.n.D f o.j p.j j j j j q.,.<.r.,.,.s.t.j j j j j j j j U &.2.",
"> u.v.d. .j w.x.w.y.x.z.'.,.A.B.C.,.D.E.C.F.G.w.w.w.w.w.j H.l.I.",
"J.q n.D i.j K.L.+.M.'.,.,.,.N.j <.,.j O.<.,.C.P.s.s.Q.R.j S.l.p ",
"> 1 ].D i.T.U.V.s.,.,.,.,.,.W.X.,.Y.X.Z.,.,.r.r.,.'.`. +j .+++p ",
"; @+].g w N #+$+`.'.,.,.<.,.%+j '.P.j &+,.,.,.,.'.G.*+j =+-+&.{.",
"> @+2 =.w ;+>+#+,+V.'.,.,.<.'+j '.,.j &+<.<.,.s.V.)+j !+w G o H ",
"  q ].g ~+{+f >+j ]+^+s.'./+%+j '.,.j (+,.,.,._+:+j <+Z $.G [+2.",
"V }+|+=.1+2+w 3+j j 4+q.'.'.5+6+'.'.7+8+<.s.q.9+j j f $.0+G &.p ",
"; q n.=.$.a+L $.=.b+j c+L.'.<.,.,.s.'.,.,.s.d+j  .e.L f 3+G &.{.",
"> e+n.g $.w f+w L g+j q.'.,.,.<.s.,.,.s.<.s.q.j >+f L Z $.h+[+2.",
"> 4.i+d.f L ;+L j+j k+'.r.,.,.,.,.,.<.,.,.s.s.l+j m+$.$.f n+++I.",
"> }+o+g f L p+f j+j q+s.r+,.<.s.s.s.<.<.<.s.s.s+j t+$.f u+v+w+x+",
"  q r D Z D y+w j z+A+s.'.<.s.s.B+C+s.D+P.s.s.E+F+j f $.G+H+I+J+",
"> K+].s 3+L+S w j M+r+s.<.<.N+O+j j P+Q+D+s.R+s.S+j w f f T+I+H ",
"  q n.s x U+D V+W+X+'.'.Y+Z+j j `+ @j j .@+@L.s.X+@@j f $.#@$@%@",
"V &@|+d.w L w j *@=@-@;@>@j j ,@f '@)@j j !@;@~@c+{@T.;+$.n+&.H ",
"V ]@^@=.L f+Z j ]+/@(@j j _@:@f L f ;+<@_@j j [@Q+}@T.w f h+$@x+",
"; |@1@=.f w L j j j j 2@3@L L w w f 4@u 5@6@,@j j j j $.7@#@++p ",
"V |@1@8@f f w 9@9@9@9@0@L a+L ;+L f a@D f b@c@d@d@d@9@$.e@f@g@d ",
"h@i@j@k@l@m@m@m@n@o@p@q@r@s@o@p@p@t@t@t@u@p@p@p@v@q@v@q@w@x@[+H ",
"h@y@z@z@A@z@z@z@z@B@C@C@A@A@A@z@B@z@C@B@A@C@A@A@B@D@E@z@z@z@A@F@"};
