/* XPM */
static char * collectible_xpm_xpm[] = {
"32 32 388 2",
"  	c #000000",
". 	c #301400",
"+ 	c #301300",
"@ 	c #311400",
"# 	c #321500",
"$ 	c #311500",
"% 	c #180900",
"& 	c #010000",
"* 	c #893800",
"= 	c #7F3300",
"- 	c #803800",
"; 	c #813800",
"> 	c #803600",
", 	c #813600",
"' 	c #813900",
") 	c #823900",
"! 	c #813500",
"~ 	c #803500",
"{ 	c #803900",
"] 	c #7F3800",
"^ 	c #7E3800",
"/ 	c #803700",
"( 	c #7F3700",
"_ 	c #401A00",
": 	c #020000",
"< 	c #883800",
"[ 	c #421900",
"} 	c #4B1C00",
"| 	c #4F1F00",
"1 	c #4E1F00",
"2 	c #4F2000",
"3 	c #502000",
"4 	c #4E1D00",
"5 	c #4C1C00",
"6 	c #3E1700",
"7 	c #772600",
"8 	c #8D3B00",
"9 	c #8D3A00",
"0 	c #9B4200",
"a 	c #923D00",
"b 	c #893900",
"c 	c #994200",
"d 	c #833100",
"e 	c #752500",
"f 	c #401800",
"g 	c #883900",
"h 	c #431A00",
"i 	c #8C3A00",
"j 	c #984000",
"k 	c #8E3900",
"l 	c #DB6300",
"m 	c #8E3B00",
"n 	c #8D3900",
"o 	c #9A3F00",
"p 	c #7C3301",
"q 	c #531D04",
"r 	c #371203",
"s 	c #7D3201",
"t 	c #8E3E00",
"u 	c #8E3C00",
"v 	c #813100",
"w 	c #421A00",
"x 	c #963D00",
"y 	c #DF6400",
"z 	c #8E3A00",
"A 	c #D45400",
"B 	c #3A1402",
"C 	c #B89500",
"D 	c #AF8F00",
"E 	c #1D0600",
"F 	c #823500",
"G 	c #953D00",
"H 	c #8C3800",
"I 	c #8D3800",
"J 	c #803100",
"K 	c #010100",
"L 	c #411900",
"M 	c #C54F00",
"N 	c #C54E00",
"O 	c #813401",
"P 	c #422900",
"Q 	c #EECC00",
"R 	c #EECD00",
"S 	c #1E1200",
"T 	c #7D3300",
"U 	c #CE5300",
"V 	c #E06600",
"W 	c #943D00",
"X 	c #3F1800",
"Y 	c #8B3A00",
"Z 	c #8C3B00",
"` 	c #381301",
" .	c #F2D400",
"..	c #9A7B00",
"+.	c #4B1A01",
"@.	c #C85200",
"#.	c #C75000",
"$.	c #8D3D00",
"%.	c #933D00",
"&.	c #CB5200",
"*.	c #783102",
"=.	c #201300",
"-.	c #E5C400",
";.	c #F3D500",
">.	c #F3D400",
",.	c #B89D00",
"'.	c #110B00",
").	c #662801",
"!.	c #020100",
"~.	c #823600",
"{.	c #833600",
"].	c #853700",
"^.	c #E06400",
"/.	c #993E00",
"(.	c #A84400",
"_.	c #7B3200",
":.	c #2E0E03",
"<.	c #BE9500",
"[.	c #BB9400",
"}.	c #280B04",
"|.	c #7A3100",
"1.	c #E76900",
"2.	c #3D1800",
"3.	c #5A2300",
"4.	c #341101",
"5.	c #15040A",
"6.	c #1B060E",
"7.	c #21080E",
"8.	c #080104",
"9.	c #190500",
"0.	c #211200",
"a.	c #3B2300",
"b.	c #996F00",
"c.	c #F0CE00",
"d.	c #F2D500",
"e.	c #F1D600",
"f.	c #EFCD00",
"g.	c #7C5A00",
"h.	c #100700",
"i.	c #251600",
"j.	c #301000",
"k.	c #230710",
"l.	c #260A10",
"m.	c #531F03",
"n.	c #873800",
"o.	c #863900",
"p.	c #391600",
"q.	c #341100",
"r.	c #020200",
"s.	c #4F3B00",
"t.	c #B69C00",
"u.	c #B79C00",
"v.	c #B69D00",
"w.	c #AF9400",
"x.	c #DDBA00",
"y.	c #ECCA00",
"z.	c #F4D600",
"A.	c #F3D700",
"B.	c #E2C000",
"C.	c #AA8D00",
"D.	c #E7C300",
"E.	c #C1A400",
"F.	c #4F3D00",
"G.	c #311800",
"H.	c #7D3301",
"I.	c #863800",
"J.	c #391500",
"K.	c #3B1400",
"L.	c #0B0300",
"M.	c #533B00",
"N.	c #DBB800",
"O.	c #EECF00",
"P.	c #D0B600",
"Q.	c #D6B900",
"R.	c #F4D500",
"S.	c #D4B800",
"T.	c #D6BB00",
"U.	c #F4D700",
"V.	c #E9C500",
"W.	c #8A6600",
"X.	c #411D00",
"Y.	c #803501",
"Z.	c #3E1900",
"`.	c #692900",
" +	c #4D1D00",
".+	c #231000",
"++	c #AE8400",
"@+	c #E9C600",
"#+	c #F5D600",
"$+	c #DAC000",
"%+	c #6C3800",
"&+	c #DDB400",
"*+	c #8C3900",
"=+	c #773600",
"-+	c #F2D600",
";+	c #F1D700",
">+	c #F5D700",
",+	c #9A7600",
"'+	c #170900",
")+	c #793201",
"!+	c #903C00",
"~+	c #431B00",
"{+	c #6F2D00",
"]+	c #642701",
"^+	c #481A05",
"/+	c #B98A00",
"(+	c #E1B800",
"_+	c #663700",
":+	c #8B3800",
"<+	c #CB9C00",
"[+	c #503100",
"}+	c #F2D700",
"|+	c #F3D600",
"1+	c #E4B900",
"2+	c #BB8A00",
"3+	c #290B01",
"4+	c #7B3201",
"5+	c #EA6900",
"6+	c #813200",
"7+	c #401900",
"8+	c #843600",
"9+	c #732F02",
"0+	c #5B3600",
"a+	c #BD8D00",
"b+	c #E7C100",
"c+	c #4D2600",
"d+	c #431700",
"e+	c #E3BE00",
"f+	c #F0D200",
"g+	c #512000",
"h+	c #3E3600",
"i+	c #9D7500",
"j+	c #261600",
"k+	c #763002",
"l+	c #8F3D00",
"m+	c #8F3C00",
"n+	c #803000",
"o+	c #7C3300",
"p+	c #2B0C0A",
"q+	c #D39F00",
"r+	c #E2B900",
"s+	c #5B4500",
"t+	c #2F1000",
"u+	c #D8AE00",
"v+	c #E0C300",
"w+	c #281D00",
"x+	c #6E5E00",
"y+	c #E2BA00",
"z+	c #D4A000",
"A+	c #2B0C09",
"B+	c #CA5200",
"C+	c #432000",
"D+	c #7F3200",
"E+	c #482500",
"F+	c #C69100",
"G+	c #F7D800",
"H+	c #C9B200",
"I+	c #C29000",
"J+	c #2F1600",
"K+	c #772F01",
"L+	c #E96900",
"M+	c #1F070C",
"N+	c #7A5900",
"O+	c #A27600",
"P+	c #1F060C",
"Q+	c #8F3B00",
"R+	c #702D00",
"S+	c #402800",
"T+	c #DFBF00",
"U+	c #C8A900",
"V+	c #281800",
"W+	c #E26400",
"X+	c #030000",
"Y+	c #863A00",
"Z+	c #5A2201",
"`+	c #624100",
" @	c #E2B800",
".@	c #EFCC00",
"+@	c #221800",
"@@	c #722E01",
"#@	c #441B00",
"$@	c #391301",
"%@	c #907500",
"&@	c #F2D200",
"*@	c #EFCE00",
"=@	c #C59700",
"-@	c #6D4E00",
";@	c #4C3700",
">@	c #C69700",
",@	c #E2BB00",
"'@	c #EDD000",
")@	c #F0D500",
"!@	c #D7AD00",
"~@	c #250A01",
"{@	c #B74F00",
"]@	c #823100",
"^@	c #3F1900",
"/@	c #883A00",
"(@	c #863300",
"_@	c #501E00",
":@	c #351101",
"<@	c #E3BA00",
"[@	c #CF9C00",
"}@	c #5C4500",
"|@	c #2C0D02",
"1@	c #3D1501",
"2@	c #3A1401",
"3@	c #300F02",
"4@	c #6C4F00",
"5@	c #AC8300",
"6@	c #E4BB00",
"7@	c #290C01",
"8@	c #8A3A02",
"9@	c #C65700",
"0@	c #B55000",
"a@	c #823200",
"b@	c #772900",
"c@	c #2A0C00",
"d@	c #1F0602",
"e@	c #DDAC00",
"f@	c #E3B700",
"g@	c #735400",
"h@	c #301C00",
"i@	c #431801",
"j@	c #6B2A01",
"k@	c #8A3900",
"l@	c #682A00",
"m@	c #201200",
"n@	c #6C4C00",
"o@	c #BE9A00",
"p@	c #DDAE00",
"q@	c #2F0D05",
"r@	c #521E00",
"s@	c #8A3800",
"t@	c #C65900",
"u@	c #B44E00",
"v@	c #672700",
"w@	c #290B00",
"x@	c #8D6500",
"y@	c #C79600",
"z@	c #352100",
"A@	c #2B0E00",
"B@	c #873A00",
"C@	c #833500",
"D@	c #602500",
"E@	c #3B1700",
"F@	c #1D1100",
"G@	c #6B5100",
"H@	c #886200",
"I@	c #341001",
"J@	c #C55900",
"K@	c #803400",
"L@	c #150400",
"M@	c #290C00",
"N@	c #843501",
"O@	c #C55700",
"P@	c #DE6400",
"Q@	c #CB5300",
"R@	c #7E3300",
"S@	c #5F2400",
"T@	c #3D1500",
"U@	c #2E0E00",
"V@	c #8B3900",
"W@	c #C65000",
"X@	c #813000",
"Y@	c #3F1700",
"Z@	c #722E00",
"`@	c #C45800",
" #	c #B84A00",
".#	c #813400",
"+#	c #7D3200",
"@#	c #8A3A00",
"##	c #9D4300",
"$#	c #7D2800",
"%#	c #8F3A00",
"&#	c #DD6300",
"*#	c #7A2800",
"=#	c #8E3D00",
"-#	c #893700",
";#	c #9E4300",
">#	c #8B3B00",
",#	c #4D1F00",
"'#	c #502100",
")#	c #512100",
"!#	c #4E1E00",
"~#	c #170800",
"{#	c #190900",
"]#	c #190A00",
"  . + @ @ @ @ + @ . @ @ # @ @ @ + $ $ . $ . @ . @ # . . + @ % & ",
"& * = - ; ; ; > , - ' ) , ! ~ { > ] ~ ~ ^ { - ' > { { - / ( _ : ",
"  < [ } | 1 | | | 2 2 3 3 | 2 | | | 2 2 3 3 | 1 | 3 | | 4 5 6 & ",
"& < [ 7 8 8 8 8 9 0 8 8 9 9 8 a b 9 8 8 8 8 8 8 c 8 8 8 d e f & ",
"  g h i 8 8 j 8 k l 8 m n o p q r s t 9 8 9 9 8 l u 8 8 8 v f & ",
"& g w 9 n x y u 9 z m m x A B C D E F G j 8 z H 8 8 z I 8 J f & ",
"K < L 9 n M m 8 z z z k N O P Q R S T U V 8 t 9 8 W z k 8 J X & ",
"K < w Y 8 8 8 m a 8 9 9 Z ` C  . ...+.@.u 8 8 8 z #.8 $.8 J f : ",
"& g h 9 9 8 8 %.&.8 9 8 *.=.-.;.>.,.'.).i z z z m 8 8 a 8 v f !.",
"K g L ~.{.].u ^./.(.~ _.:.<.;.;.;.;.[.}.|.n 8 8 8 z m 1.8 J X & ",
"& g 2.3.4.5.6.7.8.9.0.a.b.c.;.d.e.d.f.g.h.i.j.k.l.l.l.m.n.v f : ",
"  o.p.q.r.s.t.u.v.w.x.x.y.d.z.;.A.;.;.B.C.D.E.u.v.t.F.G.H.J X !.",
"& I.J.K.L.M.N. .>. .>.;.O.P.Q.;.R.S.T.;.U.;.d.;.>.V.W.X.Y.v f : ",
"& I.Z.`. +.+++@+ .#+;.;.$+%+Y &+ .*+=+-+;+d.A.>+V.,+'+)+!+J f & ",
"& < ~+{.{+]+^+/+(+#+;.;+e._+:+<+>.g [+}+;+}+|+1+2+3+4+m 5+6+7+& ",
"& g h < 8+8+9+0+a+b+}+;+}+c+d+e+f+g+h+;+;+}+D.i+j+k+l+8 m+n+X : ",
"& g [ Y m m 8 o+p+q+r+|+;.s+t+u+v+w+x+d.-+y+z+A+4+u B+m 8 v f & ",
"  g C+9 5+5+9 8 D+E+F+d.;.G+H+d.d.-+G+;+}+I+J+K+z 8 m z 8 v X !.",
"K g w Y z L+z 9 8 M+N+d.;.;.;.;.-+;+;+;+;+O+P+Z 8 8 8 $.8 v X & ",
"& g w Y 8 Q+z 8 R+S+T+;.|+;.;.d.;+}+}+}+;+U+V+W+8 8 z 8 9 v X X+",
"& Y+w 9 8 m z 8+Z+`+;.;.d.;.y. @ @.@;+;+;+;++@@@8 8 z z 8 v X !.",
"& g #@Y 8 z m |.$@%@;.&@*@ @=@-@;@>@,@'@)@;+!@~@{.{@8 8 8 ]@^@: ",
"& /@#@9 8 z (@_@:@ @>.<@[@}@|@1@2@3@4@5@6@;.y+7@8@9@8 8 0@a@[ : ",
"  g h 9 z 9 b@c@d@e@f@g@h@i@j@k@8 l@2@m@n@o@p@q@r@s@8 8 t@d L !.",
"& n.~+i 9 u@v@w@x@y@z@A@B@*+z z z z C@D@E@F@G@H@I@~ z 8 8 v L & ",
"  g w i n J@K@w@L@M@r@N@O@9 m 8 u P@Q@z R@S@T@~@U@V@W@8 8 X@Y@& ",
"K n.w Y z z m z :+Z@T 8+9 9 9 z 8 `@ #8 z :+.#+#|.m G m 8 ]@X & ",
"K /@~+Y z z z z z u y u z z m 8 z 8 m 8 z z z Q+m z z z 8 v Y@: ",
"& @##@Y 8 z z 8 z z ##z m z z z m 8 $#k %#&#z z z z m 8 $#X@7+& ",
"K @##@*#t 8 z l+=#z z l+z Q+z m z 8 -#9 t ;#t m m 8 =#t >#C@7+& ",
"  ,#7+5 '#3 3 3 3 )#)#)#)#)#)#)#)#3 3 3 )#)#)#)#)#)#)#)#3 !#X & ",
"  ~#% % % % % % % {#{#{#% % % % {#% {#{#% {#% % {#% ]#% % % % & "};
