/* XPM */
static char * collectible_right_xpm[] = {
"32 32 383 2",
"  	c #192201",
". 	c #493819",
"+ 	c #493719",
"@ 	c #4A3819",
"# 	c #483519",
"$ 	c #4A3818",
"% 	c #4B3519",
"& 	c #493D18",
"* 	c #493818",
"= 	c #473519",
"- 	c #493718",
"; 	c #2A2808",
"> 	c #192200",
", 	c #131C00",
"' 	c #A06331",
") 	c #965C2E",
"! 	c #975B2D",
"~ 	c #975D2D",
"{ 	c #985D2D",
"] 	c #965D2C",
"^ 	c #975D2C",
"/ 	c #985D2C",
"( 	c #985C2C",
"_ 	c #965B2C",
": 	c #965D2D",
"< 	c #955D2D",
"[ 	c #965C2C",
"} 	c #563C19",
"| 	c #1A2201",
"1 	c #131D01",
"2 	c #9F5F32",
"3 	c #563417",
"4 	c #613C1A",
"5 	c #663E20",
"6 	c #653D21",
"7 	c #653C20",
"8 	c #5D361C",
"9 	c #5D361D",
"0 	c #5D371D",
"a 	c #643B1F",
"b 	c #653E20",
"c 	c #653C1F",
"d 	c #65401F",
"e 	c #663E1F",
"f 	c #674020",
"g 	c #654020",
"h 	c #64411D",
"i 	c #613E1A",
"j 	c #553B1A",
"k 	c #0C1600",
"l 	c #532E17",
"m 	c #8A4624",
"n 	c #A36131",
"o 	c #A36132",
"p 	c #B16C39",
"q 	c #A16030",
"r 	c #000000",
"s 	c #93572B",
"t 	c #A36231",
"u 	c #B06C39",
"v 	c #985A2A",
"w 	c #874721",
"x 	c #563B19",
"y 	c #141D01",
"z 	c #9F6032",
"A 	c #532F16",
"B 	c #A36233",
"C 	c #AF6B39",
"D 	c #A46032",
"E 	c #E4914C",
"F 	c #985A2D",
"G 	c #72550B",
"H 	c #B4930B",
"I 	c #9C5C2F",
"J 	c #A36232",
"K 	c #E5934E",
"L 	c #A36130",
"M 	c #A36431",
"N 	c #A36530",
"O 	c #965828",
"P 	c #553819",
"Q 	c #9F6132",
"R 	c #522E16",
"S 	c #A36032",
"T 	c #AB6433",
"U 	c #E9954F",
"V 	c #9D5C2F",
"W 	c #0A0500",
"X 	c #50340B",
"Y 	c #C8A204",
"Z 	c #E9C601",
"` 	c #BA920B",
" .	c #AA6433",
"..	c #AE6937",
"+.	c #A46031",
"@.	c #A36033",
"#.	c #A46033",
"$.	c #945729",
"%.	c #131D00",
"&.	c #522E17",
"*.	c #D2773A",
"=.	c #A46131",
"-.	c #241602",
";.	c #412D07",
">.	c #DDBF05",
",.	c #F5D600",
"'.	c #CCAB0E",
").	c #A96632",
"!.	c #D87A3A",
"~.	c #E99650",
"{.	c #A96433",
"].	c #A36630",
"^.	c #955828",
"/.	c #543819",
"(.	c #0C1700",
"_.	c #A06032",
":.	c #543116",
"<.	c #A26132",
"[.	c #A46231",
"}.	c #A56231",
"|.	c #95592C",
"1.	c #64490B",
"2.	c #E1C205",
"3.	c #F5D701",
"4.	c #D2B20C",
"5.	c #B2642F",
"6.	c #D57B3A",
"7.	c #A36230",
"8.	c #D4793A",
"9.	c #A06132",
"0.	c #532E16",
"a.	c #A86332",
"b.	c #CD7337",
"c.	c #CCA209",
"d.	c #F3D201",
"e.	c #F5D601",
"f.	c #F0CE02",
"g.	c #BE970B",
"h.	c #9C5D2F",
"i.	c #A86533",
"j.	c #1A2200",
"k.	c #ED9852",
"l.	c #563C0C",
"m.	c #E8C511",
"n.	c #D6B60C",
"o.	c #71401F",
"p.	c #EE9B53",
"q.	c #553B19",
"r.	c #9D5F31",
"s.	c #4F2C15",
"t.	c #9C5D30",
"u.	c #9D5D2F",
"v.	c #50360C",
"w.	c #DAB007",
"x.	c #F4D402",
"y.	c #F0CF02",
"z.	c #C5A006",
"A.	c #9D5C30",
"B.	c #8D4B24",
"C.	c #A05F30",
"D.	c #0C1701",
"E.	c #8E562C",
"F.	c #D7AF02",
"G.	c #F6D800",
"H.	c #F6D701",
"I.	c #F0CF01",
"J.	c #C39E02",
"K.	c #503412",
"L.	c #392606",
"M.	c #362305",
"N.	c #3A2607",
"O.	c #3C2608",
"P.	c #885028",
"Q.	c #A36432",
"R.	c #141D00",
"S.	c #8E552C",
"T.	c #D8AF01",
"U.	c #DAB101",
"V.	c #DEB702",
"W.	c #F5D502",
"X.	c #F6D700",
"Y.	c #E5C30D",
"Z.	c #F3D304",
"`.	c #F0D006",
" +	c #E6C40B",
".+	c #F4D601",
"++	c #F0D103",
"@+	c #D9B001",
"#+	c #D3A707",
"$+	c #060200",
"%+	c #A36031",
"&+	c #955729",
"*+	c #DBB407",
"=+	c #F4D501",
"-+	c #F6D702",
";+	c #DCBF05",
">+	c #DEBF04",
",+	c #F2D102",
"'+	c #CC9F0B",
")+	c #2E1808",
"!+	c #A26131",
"~+	c #A5652F",
"{+	c #171600",
"]+	c #73570A",
"^+	c #F6D601",
"/+	c #FFFFFF",
"(+	c #DEB619",
"_+	c #F3D204",
":+	c #D0A30C",
"<+	c #1A0B03",
"[+	c #6B3E1D",
"}+	c #F09B52",
"|+	c #955728",
"1+	c #543818",
"2+	c #4A2912",
"3+	c #6B5304",
"4+	c #DAB405",
"5+	c #F1D101",
"6+	c #CA9F0B",
"7+	c #A4652F",
"8+	c #945329",
"9+	c #141301",
"0+	c #050F00",
"a+	c #533417",
"b+	c #92572C",
"c+	c #624B07",
"d+	c #F4D701",
"e+	c #DEBF05",
"f+	c #F1D202",
"g+	c #C99E09",
"h+	c #291506",
"i+	c #D5793A",
"j+	c #D98A4A",
"k+	c #674E0B",
"l+	c #E1BD01",
"m+	c #F1D001",
"n+	c #C79C07",
"o+	c #A46132",
"p+	c #543419",
"q+	c #553317",
"r+	c #DB8B4A",
"s+	c #D4AB01",
"t+	c #DDB600",
"u+	c #A38B08",
"v+	c #E7C804",
"w+	c #B29B05",
"x+	c #C79E04",
"y+	c #1E1302",
"z+	c #A36331",
"A+	c #A46531",
"B+	c #553217",
"C+	c #A36030",
"D+	c #98592D",
"E+	c #5D410C",
"F+	c #DCB600",
"G+	c #C69D04",
"H+	c #F09A54",
"I+	c #151D01",
"J+	c #9E6133",
"K+	c #532F17",
"L+	c #694714",
"M+	c #EFCF01",
"N+	c #C49C05",
"O+	c #975929",
"P+	c #553215",
"Q+	c #97582C",
"R+	c #CDA603",
"S+	c #F5D700",
"T+	c #EACA02",
"U+	c #B58B0B",
"V+	c #C97B40",
"W+	c #975828",
"X+	c #533818",
"Y+	c #100F00",
"Z+	c #532F15",
"`+	c #96582C",
" @	c #DEB701",
".@	c #F1D102",
"+@	c #C89E06",
"@@	c #D68647",
"#@	c #A46431",
"$@	c #C67E3E",
"%@	c #975928",
"&@	c #563818",
"*@	c #6C550C",
"=@	c #F5D800",
"-@	c #E3BE02",
";@	c #DFB701",
">@	c #E4C002",
",@	c #F4D702",
"'@	c #B38A0B",
")@	c #D58A47",
"!@	c #975729",
"~@	c #543717",
"{@	c #9F6033",
"]@	c #93562B",
"^@	c #6E560C",
"/@	c #E0BA01",
"(@	c #866807",
"_@	c #E3BE01",
":@	c #F1D201",
"<@	c #C99E07",
"[@	c #553A17",
"}@	c #533017",
"|@	c #96592E",
"1@	c #785B0A",
"2@	c #C9A308",
"3@	c #F3D501",
"4@	c #DFB801",
"5@	c #DEB802",
"6@	c #96592C",
"7@	c #E3BD01",
"8@	c #E8C903",
"9@	c #A46530",
"0@	c #D27637",
"a@	c #975829",
"b@	c #553A19",
"c@	c #101000",
"d@	c #654E06",
"e@	c #E0B901",
"f@	c #F2D301",
"g@	c #D7AF08",
"h@	c #A15F30",
"i@	c #9D5C2E",
"j@	c #73441F",
"k@	c #7C5F09",
"l@	c #E2BC01",
"m@	c #F0D101",
"n@	c #A96633",
"o@	c #0C0C00",
"p@	c #A06133",
"q@	c #553316",
"r@	c #CFAC02",
"s@	c #995B2D",
"t@	c #9A5A2D",
"u@	c #9C5B2E",
"v@	c #92572B",
"w@	c #050301",
"x@	c #A46430",
"y@	c #A16133",
"z@	c #543016",
"A@	c #A66534",
"B@	c #A06030",
"C@	c #844021",
"D@	c #7A4722",
"E@	c #050200",
"F@	c #1F1203",
"G@	c #8D5229",
"H@	c #8F4C24",
"I@	c #553B18",
"J@	c #563216",
"K@	c #884422",
"L@	c #95582C",
"M@	c #99592D",
"N@	c #A46230",
"O@	c #A56331",
"P@	c #9E5C2E",
"Q@	c #9A5B2F",
"R@	c #A56434",
"S@	c #9F612D",
"T@	c #101901",
"U@	c #654021",
"V@	c #60371A",
"W@	c #684520",
"X@	c #664120",
"Y@	c #674320",
"Z@	c #67431F",
"`@	c #67401F",
" #	c #68411F",
".#	c #68451F",
"+#	c #674120",
"@#	c #66411F",
"##	c #68431F",
"$#	c #64441D",
"%#	c #111901",
"&#	c #161E01",
"*#	c #29250A",
"=#	c #292509",
"-#	c #262109",
";#	c #2A2509",
">#	c #2A2109",
",#	c #292508",
"'#	c #171E01",
"  . + @ @ @ # + @ . # @ $ % @ @ + & * . * . # = - $ = . + @ ; > ",
", ' ) ! ~ ~ { ] ^ ~ / ( / { ~ ^ ^ _ : : < ] : ^ ] ] ^ [ ^ ] } | ",
"1 2 3 4 5 6 5 7 5 7 7 8 8 9 0 9 a 5 b 7 c d 5 6 7 e f g h i j | ",
"k 2 l m n n n n o p q r r r r r s o n n t n n n u n n n v w x y ",
"1 z A B n n C n D E F r r r G H r I n o n o J t K L M t N O P | ",
"k Q R o S T U L o V W r r X Y Z ` r o  ...n +.@.n t +.#.N $.x y ",
"%.2 &.o o *.=.n +.V -.r r ;.>.,.'.r ).!.~.n n J n {.+.D ].^./.| ",
"(._.:.<.n n n [.}.|.r r r 1.2.3.4.r 5.6.7.t n n +.8.t t ].^.x | ",
", 9.0.o o t n a.b.r r r r c.d.e.f.g.r h.=.+.+.+.=.n n i.].O x j.",
"(.9.R J t n L k.r r r r l.m.e.3.3.n.r o.+.S n n n =.[.p.N $.q.| ",
"k r.s.t.u.r r r r r r v.w.x.3.e.e.y.z.r A.u.u.B.u.u.C.o N O P | ",
"D.E.r r r r r r r r r F.3.3.G.e.H.3.I.J.K.L.L.M.N.O.P.Q.N ^./.R.",
", S.r r r T.U.U.U.V.W.X.e.Y.Z.3.`. +e..+++U.T.@+@+#+$+%+N &+P y ",
", S.r r r *+=+.+e.-+X.e.3.r ;+e.e.r >+e.e.e.H.-+,+'+)+!+~+$.P | ",
"{+S.r r r ]+*+3.e.^+X.X.e./+(+G.e./+(+e.e.e.^+_+:+<+[+[+}+|+1+y ",
", Q 2+r r r 3+4+.+X.X.X.e.r >+X.e.r >+e.e.e.5+6+r [+[+t 7+8+/.9+",
"0+Q a+b+r r r c+4+3.G.X.d+r e+X.e.r >+e.e.f+g+h+[+[+i+[.N O P y ",
"D.z 0.t j+r r r k+l+3.X.e.r >.e.e.r >+e.m+n+r [+[+n =.o+].&+p+j.",
"(.9.q+<.n r+r r r s+t+.+3.u+v+e.e.w+.+m+x+y+r [+t z+M A+N O /.y ",
"k _.B+<.n C+D+r r E+F+e.e.e.X.e.e.e.e.I.G+r [+H+z+z++.n N O /.I+",
", J+K+o n F r r r L+F+.+3.3..+e.e.e.d+M+N+r [+C+t n +.o+].O+q.j.",
"k z P+<.t Q+r r r R+5+X.S+e.e.3.d+e..+=+T+U+r [+N V+n n ].W+X+y ",
"Y+Q Z+J t `+r r r  @X.e.3.X..+e..+d+d+d+.@+@r [+z+@@t #@$@%@&@| ",
"D.z 0.o D+r r r *@5+d+=@S+d+-@;@>@d+d+d+,@T+'@r M o n t )@!@~@| ",
"k {@A B ]@r r r ^@.+d+.+3./@r r (@_@.+d+d+:@<@r [+=.+.n N &+[@| ",
"D.9.}@|@r r r 1@2@d+3@4@5@r 6@[+r r  @7@=+3@8@r [+9@0@t ].a@b@| ",
"c@{@}@b+r r r d@e@f@g@r r F h@i@j@r r k@4@l@m@r [+9@n@=.].W+q.y ",
"o@p@q@b+r r r r F+r@r s@t@C+[.n u@v@w@r r r /@r [+x@=.=.].O+b@| ",
"k y@z@b+r r r r r r A@=.[.+.=.+.=.B@C@D@E@F@r r G@x@[.n H@a@I@| ",
"(.y@J@K@L@L@`+`+`+M@+.+.+.N@[.=.O@n P@Q@L@R@L@6@u.n n t S@W+1+| ",
"T@U@1+V@f W@X@W@Y@Z@Z@Z@`@ # #Z@.#+#+#Y@.#Z@ #Z@@#Z@`@Z@##$#q.%#",
"&#*#=#-#=#=#=#=#-#;#;#;#=#=#=#=#;#=#;#;#=#;#>#-#;#=#,#=#=#=#=#'#"};
