/* XPM */
static char *coffee[] = {
"32 32 5 1",
"  c None",
"W c #FFFFFF", /* Tasse blanche */
"B c #654321", /* Café marron */
"G c #AAAAAA", /* Vapeur grise */
". c #000000", /* Contour */
"                                ",
"             G      G           ",
"            G      G            ",
"             G    G             ",
"              G  G              ",
"            ......              ",
"           .WWWWWW.             ",
"          .WBBBBBBW.            ",
"          .WBBBBBBW.            ",
"          .WWWWWWWW.            ",
"          .WWWWWWWW.            ",
"          .WWWWWWWW.            ",
"          .WWWWWWWW......       ",
"          .WWWWWWWW.WWWW.       ",
"          .WWWWWWWW.WWWW.       ",
"          .WWWWWWWW.WWWW.       ",
"          .WWWWWWWW.WWWW.       ",
"          .WWWWWWWW.WWWW.       ",
"          .WWWWWWWW......       ",
"          .WWWWWWWW.            ",
"           .WWWWWW.             ",
"            ......              ",
"                                ",
"                                ",
"                                ",
"                                ",
"                                ",
"                                ",
"                                ",
"                                ",
"                                ",
"                                "
};