/* XPM */
static char * enemie_xpm[] = {
"32 32 629 2",
"  	c #000000",
". 	c #301400",
"+ 	c #301300",
"@ 	c #311400",
"# 	c #321500",
"$ 	c #311500",
"% 	c #180900",
"& 	c #010000",
"* 	c #893800",
"= 	c #7F3300",
"- 	c #803400",
"; 	c #813500",
"> 	c #803600",
", 	c #813600",
"' 	c #803500",
") 	c #7D3500",
"! 	c #803800",
"~ 	c #7E3500",
"{ 	c #803300",
"] 	c #7E3300",
"^ 	c #401A00",
"/ 	c #020000",
"( 	c #883800",
"_ 	c #421900",
": 	c #4B1C00",
"< 	c #4F1F00",
"[ 	c #4E1F00",
"} 	c #4F2000",
"| 	c #4F2100",
"1 	c #491D00",
"2 	c #481400",
"3 	c #491C00",
"4 	c #681700",
"5 	c #471B00",
"6 	c #502000",
"7 	c #4E1D00",
"8 	c #4C1C00",
"9 	c #3E1700",
"0 	c #772600",
"a 	c #8D3B00",
"b 	c #8D3A00",
"c 	c #9B4200",
"d 	c #8C3B00",
"e 	c #7D3D00",
"f 	c #7C3200",
"g 	c #5F2300",
"h 	c #921D00",
"i 	c #C01E00",
"j 	c #E32800",
"k 	c #AF1A00",
"l 	c #7A3200",
"m 	c #803501",
"n 	c #7C3300",
"o 	c #7C3D00",
"p 	c #8C3B04",
"q 	c #994200",
"r 	c #833100",
"s 	c #752500",
"t 	c #401800",
"u 	c #883900",
"v 	c #431A00",
"w 	c #8C3A00",
"x 	c #984000",
"y 	c #863800",
"z 	c #8C3800",
"A 	c #DB6300",
"B 	c #823600",
"C 	c #B47700",
"D 	c #782F00",
"E 	c #873601",
"F 	c #B51D00",
"G 	c #E72A00",
"H 	c #F22B00",
"I 	c #EC2700",
"J 	c #9F0E00",
"K 	c #A60600",
"L 	c #762F00",
"M 	c #783000",
"N 	c #813100",
"O 	c #421A00",
"P 	c #8D3900",
"Q 	c #963D00",
"R 	c #DF6400",
"S 	c #743D00",
"T 	c #7B4200",
"U 	c #7A3100",
"V 	c #C07F00",
"W 	c #824900",
"X 	c #8F3800",
"Y 	c #C31600",
"Z 	c #D61E00",
"` 	c #E02200",
" .	c #B50800",
"..	c #C01200",
"+.	c #642900",
"@.	c #7D4800",
"#.	c #C08100",
"$.	c #772F00",
"%.	c #733D00",
"&.	c #8E3B00",
"*.	c #803100",
"=.	c #0E0E00",
"-.	c #411900",
";.	c #C54F00",
">.	c #713200",
",.	c #C98800",
"'.	c #8D4500",
").	c #4F2800",
"!.	c #9C6000",
"~.	c #BF7200",
"{.	c #912400",
"].	c #6C2300",
"^.	c #4D4200",
"/.	c #B21300",
"(.	c #AD0D00",
"_.	c #732600",
":.	c #982A00",
"<.	c #AD6F00",
"[.	c #9A5F00",
"}.	c #4E2700",
"|.	c #8C4700",
"1.	c #CB8700",
"2.	c #723100",
"3.	c #8E3900",
"4.	c #3F1800",
"5.	c #8B3A00",
"6.	c #793200",
"7.	c #954B00",
"8.	c #586300",
"9.	c #408E00",
"0.	c #494800",
"a.	c #8A3400",
"b.	c #B71600",
"c.	c #DE2800",
"d.	c #476C00",
"e.	c #3D8900",
"f.	c #3D8800",
"g.	c #596E00",
"h.	c #E22900",
"i.	c #B41600",
"j.	c #8A3100",
"k.	c #484700",
"l.	c #3F9000",
"m.	c #586100",
"n.	c #A04E00",
"o.	c #773100",
"p.	c #8D3D00",
"q.	c #8E3E00",
"r.	c #6A2C00",
"s.	c #4F4A00",
"t.	c #387202",
"u.	c #405A0D",
"v.	c #733508",
"w.	c #354000",
"x.	c #5A2900",
"y.	c #AE1A00",
"z.	c #B33400",
"A.	c #3F8700",
"B.	c #B23300",
"C.	c #5B2900",
"D.	c #364000",
"E.	c #743606",
"F.	c #41590C",
"G.	c #387401",
"H.	c #364600",
"I.	c #662B00",
"J.	c #934000",
"K.	c #020100",
"L.	c #010100",
"M.	c #A14A04",
"N.	c #9E4202",
"O.	c #944104",
"P.	c #7F3804",
"Q.	c #7D3402",
"R.	c #365F00",
"S.	c #9C4D00",
"T.	c #7E2D00",
"U.	c #761000",
"V.	c #3A6900",
"W.	c #396800",
"X.	c #781000",
"Y.	c #802D00",
"Z.	c #723B00",
"`.	c #356100",
" +	c #7D3401",
".+	c #743603",
"++	c #843701",
"@+	c #662F04",
"#+	c #582E00",
"$+	c #966200",
"%+	c #5D2700",
"&+	c #8A3A00",
"*+	c #843903",
"=+	c #A64402",
"-+	c #833700",
";+	c #925B00",
">+	c #B97F00",
",+	c #706D00",
"'+	c #474D00",
")+	c #7A4700",
"!+	c #986500",
"~+	c #7B4900",
"{+	c #464A00",
"]+	c #636A00",
"^+	c #BB7E00",
"/+	c #925C00",
"(+	c #772D01",
"_+	c #8A3A01",
":+	c #843A05",
"<+	c #5E2700",
"[+	c #956100",
"}+	c #542C00",
"|+	c #863900",
"1+	c #874600",
"2+	c #7C3301",
"3+	c #743308",
"4+	c #452100",
"5+	c #663100",
"6+	c #532500",
"7+	c #C28100",
"8+	c #C68600",
"9+	c #B87A00",
"0+	c #CB8100",
"a+	c #B57300",
"b+	c #BD7700",
"c+	c #B27400",
"d+	c #B67700",
"e+	c #BE7E00",
"f+	c #C97E00",
"g+	c #C68700",
"h+	c #C18100",
"i+	c #4E2000",
"j+	c #653200",
"k+	c #462100",
"l+	c #753306",
"m+	c #7B3200",
"n+	c #743F00",
"o+	c #742C00",
"p+	c #9A4200",
"q+	c #702F04",
"r+	c #4D2100",
"s+	c #DAA800",
"t+	c #E4A100",
"u+	c #A06600",
"v+	c #AD6B00",
"w+	c #885000",
"x+	c #D58E00",
"y+	c #C28400",
"z+	c #D08A00",
"A+	c #C88700",
"B+	c #C28200",
"C+	c #CC8D00",
"D+	c #CF8600",
"E+	c #895000",
"F+	c #AB6B00",
"G+	c #9F6400",
"H+	c #D9A800",
"I+	c #712F04",
"J+	c #783100",
"K+	c #3A1704",
"L+	c #582301",
"M+	c #784800",
"N+	c #F2C000",
"O+	c #D99300",
"P+	c #6C3D00",
"Q+	c #894B00",
"R+	c #6E4100",
"S+	c #B37600",
"T+	c #BF8000",
"U+	c #855100",
"V+	c #B27600",
"W+	c #6E4200",
"X+	c #733E00",
"Y+	c #DC9500",
"Z+	c #F3C000",
"`+	c #7A4A00",
" @	c #572201",
".@	c #3B1703",
"+@	c #7F3400",
"@@	c #431B00",
"#@	c #853700",
"$@	c #935D00",
"%@	c #BC8A00",
"&@	c #4D1F00",
"*@	c #381605",
"=@	c #845600",
"-@	c #D78E00",
";@	c #885200",
">@	c #673100",
",@	c #7B4300",
"'@	c #612500",
")@	c #491400",
"!@	c #7C0509",
"~@	c #7C050A",
"{@	c #4B1700",
"]@	c #612600",
"^@	c #673200",
"/@	c #8A5400",
"(@	c #D88F00",
"_@	c #835600",
":@	c #3A1603",
"<@	c #BB8900",
"[@	c #B06700",
"}@	c #7A2F00",
"|@	c #401900",
"1@	c #8A3900",
"2@	c #814B00",
"3@	c #F6C800",
"4@	c #FBCC00",
"5@	c #B98B00",
"6@	c #5C2500",
"7@	c #4C2007",
"8@	c #633C00",
"9@	c #B07000",
"0@	c #542500",
"a@	c #945400",
"b@	c #522200",
"c@	c #672900",
"d@	c #8E2700",
"e@	c #9E3400",
"f@	c #682900",
"g@	c #AF6F00",
"h@	c #643B00",
"i@	c #4D2005",
"j@	c #B78B00",
"k@	c #FACC00",
"l@	c #F7C800",
"m@	c #7F4A00",
"n@	c #E7B300",
"o@	c #FBCD00",
"p@	c #F8C900",
"q@	c #EDB400",
"r@	c #B57600",
"s@	c #381604",
"t@	c #451C00",
"u@	c #DF9500",
"v@	c #925700",
"w@	c #835000",
"x@	c #B07100",
"y@	c #BA7C00",
"z@	c #C68400",
"A@	c #BB7C00",
"B@	c #AE7100",
"C@	c #824E00",
"D@	c #925600",
"E@	c #DE9400",
"F@	c #381503",
"G@	c #FBCE00",
"H@	c #E5B200",
"I@	c #381500",
"J@	c #0E0D00",
"K@	c #672A00",
"L@	c #A66B00",
"M@	c #AA6A00",
"N@	c #C99C00",
"O@	c #E8B600",
"P@	c #B57400",
"Q@	c #331700",
"R@	c #A56A00",
"S@	c #CA8400",
"T@	c #AD6C00",
"U@	c #935300",
"V@	c #AF7000",
"W@	c #905900",
"X@	c #915800",
"Y@	c #E38E00",
"Z@	c #AC6B00",
"`@	c #C98300",
" #	c #A46B00",
".#	c #B77500",
"+#	c #EAB700",
"@#	c #C89C00",
"##	c #8B5F00",
"$#	c #8B6100",
"%#	c #341500",
"&#	c #331301",
"*#	c #612701",
"=#	c #401803",
"-#	c #7D3707",
";#	c #4F1E01",
">#	c #5F2900",
",#	c #502600",
"'#	c #462906",
")#	c #C68100",
"!#	c #B26B00",
"~#	c #A56500",
"{#	c #A26400",
"]#	c #855000",
"^#	c #8A5500",
"/#	c #A26500",
"(#	c #8B5300",
"_#	c #845000",
":#	c #A66500",
"<#	c #B16B00",
"[#	c #C48200",
"}#	c #462908",
"|#	c #5F2A00",
"1#	c #4F1F01",
"2#	c #4E2106",
"3#	c #3B1402",
"4#	c #2C1103",
"5#	c #331300",
"6#	c #8C6300",
"7#	c #E0B700",
"8#	c #DAAE00",
"9#	c #9C6600",
"0#	c #622D0B",
"a#	c #472806",
"b#	c #CB8600",
"c#	c #AD6500",
"d#	c #C07E00",
"e#	c #AB6A00",
"f#	c #A16100",
"g#	c #A26300",
"h#	c #A26200",
"i#	c #AA6B00",
"j#	c #B57500",
"k#	c #C17D00",
"l#	c #AC6600",
"m#	c #CA8600",
"n#	c #612E0B",
"o#	c #9F6900",
"p#	c #DBAE00",
"q#	c #DFB600",
"r#	c #8A6200",
"s#	c #863A00",
"t#	c #F1C300",
"u#	c #FBCF00",
"v#	c #D2A100",
"w#	c #5C2700",
"x#	c #7D3907",
"y#	c #BE7C00",
"z#	c #A56100",
"A#	c #B37100",
"B#	c #CB8B00",
"C#	c #CB8C00",
"D#	c #E19200",
"E#	c #B67600",
"F#	c #B37000",
"G#	c #BC7D00",
"H#	c #4F2906",
"I#	c #5B2700",
"J#	c #D1A000",
"K#	c #F2C200",
"L#	c #080400",
"M#	c #663000",
"N#	c #FCCE00",
"O#	c #D9AB00",
"P#	c #F8CA00",
"Q#	c #694000",
"R#	c #A17200",
"S#	c #C18400",
"T#	c #B67100",
"U#	c #BD7600",
"V#	c #CB8900",
"W#	c #B77700",
"X#	c #B77600",
"Y#	c #CA8900",
"Z#	c #B47200",
"`#	c #B56F00",
" $	c #BF8200",
".$	c #A07200",
"+$	c #774400",
"@$	c #F8CB00",
"#$	c #D8AB00",
"$$	c #FCCF00",
"%$	c #582A00",
"&$	c #883A00",
"*$	c #602C00",
"=$	c #DDAD00",
"-$	c #F8CC00",
";$	c #663700",
">$	c #945200",
",$	c #986B00",
"'$	c #F7C900",
")$	c #F9C800",
"!$	c #CF8700",
"~$	c #A86000",
"{$	c #AA6900",
"]$	c #C27E00",
"^$	c #C58300",
"/$	c #C68500",
"($	c #C48500",
"_$	c #C17F00",
":$	c #B66E00",
"<$	c #9F5E00",
"[$	c #F9C900",
"}$	c #9F6C00",
"|$	c #663600",
"1$	c #F9CD00",
"2$	c #DEAF00",
"3$	c #E5B500",
"4$	c #552700",
"5$	c #3A1600",
"6$	c #B47900",
"7$	c #D19700",
"8$	c #CB9100",
"9$	c #C37E00",
"0$	c #5A2E00",
"a$	c #EDBD00",
"b$	c #F0B800",
"c$	c #B56E00",
"d$	c #A86A00",
"e$	c #AF6D00",
"f$	c #B67400",
"g$	c #AE6D00",
"h$	c #B46E00",
"i$	c #EFB800",
"j$	c #F0C000",
"k$	c #5B2E00",
"l$	c #C57D00",
"m$	c #CD9100",
"n$	c #D09600",
"o$	c #B07800",
"p$	c #060300",
"q$	c #873800",
"r$	c #441E00",
"s$	c #702E00",
"t$	c #854D00",
"u$	c #6E3100",
"v$	c #672800",
"w$	c #FACE00",
"x$	c #A56200",
"y$	c #9B5D00",
"z$	c #A06100",
"A$	c #A06200",
"B$	c #A06300",
"C$	c #A56300",
"D$	c #D89000",
"E$	c #BA7E00",
"F$	c #682B00",
"G$	c #5E2A00",
"H$	c #834C00",
"I$	c #381600",
"J$	c #863600",
"K$	c #BA5400",
"L$	c #853600",
"M$	c #CF9500",
"N$	c #F7C600",
"O$	c #F4C200",
"P$	c #F6C500",
"Q$	c #E9A900",
"R$	c #DF9400",
"S$	c #D38A00",
"T$	c #7E4400",
"U$	c #8B5000",
"V$	c #A35E00",
"W$	c #995400",
"X$	c #7F4400",
"Y$	c #D48B00",
"Z$	c #E09300",
"`$	c #F7C500",
" %	c #CE9300",
".%	c #7B2D00",
"+%	c #3F1700",
"@%	c #8E3A00",
"#%	c #893900",
"$%	c #9F5900",
"%%	c #EAAE00",
"&%	c #E7A600",
"*%	c #E19600",
"=%	c #7F4D00",
"-%	c #793100",
";%	c #722E00",
">%	c #722F00",
",%	c #9B4400",
"'%	c #943A00",
")%	c #783200",
"!%	c #B77400",
"~%	c #E19700",
"{%	c #E7A500",
"]%	c #ECAF00",
"^%	c #A05900",
"/%	c #823100",
"(%	c #6C2D00",
"_%	c #DC9400",
":%	c #E29300",
"<%	c #DF9300",
"[%	c #9A6000",
"}%	c #995E00",
"|%	c #E19300",
"1%	c #6C2C00",
"2%	c #8F3D00",
"3%	c #441B00",
"4%	c #C59400",
"5%	c #F2C300",
"6%	c #EFBE00",
"7%	c #F6C700",
"8%	c #E5A200",
"9%	c #D98D00",
"0%	c #7D3200",
"a%	c #7D2800",
"b%	c #7D3100",
"c%	c #D58C00",
"d%	c #E6A300",
"e%	c #F5C500",
"f%	c #F3C400",
"g%	c #C39300",
"h%	c #813000",
"i%	c #7A2800",
"j%	c #742E00",
"k%	c #7B3B00",
"l%	c #9E5D00",
"m%	c #803C00",
"n%	c #A56400",
"o%	c #EEB700",
"p%	c #D58B00",
"q%	c #A46400",
"r%	c #843600",
"s%	c #893700",
"t%	c #A46500",
"u%	c #D78C00",
"v%	c #EDBA00",
"w%	c #813D00",
"x%	c #7C3B00",
"y%	c #732F00",
"z%	c #8A3B00",
"A%	c #502100",
"B%	c #481C00",
"C%	c #451A00",
"D%	c #451B00",
"E%	c #4C1F00",
"F%	c #512100",
"G%	c #461B00",
"H%	c #522500",
"I%	c #4E1E00",
"J%	c #170800",
"K%	c #190900",
"L%	c #190A00",
"  . + @ @ @ @ + @ . @ @ # @ @ @ + $ $ . $ . @ . @ # . . + @ % & ",
"& * = - ; ; ; > , ' , , , ; ' > ) ! ' ' ~ > ' , > > > ' { ] ^ / ",
"  ( _ : < [ < < < } } } } < | 1 2 3 4 5 6 } [ [ < 6 < < 7 8 9 & ",
"& ( _ 0 a a a a b c d e f b g h i j k l m n o p q a a a r s t & ",
"  u v w a a x y z A B C D E F G H I J K L M C B A d y a a N t & ",
"& u O b P Q R S T ; U V W X Y Z H `  ...+.@.#.$., T %.&.a *.t & ",
"=.( -.b P ;.&.>.,.'.).!.~.{.].^./.(.^._.:.<.[.}.|.1.2.3.a *.4.& ",
"=.( O 5.a a a 6.7.8.9.0.a.b.c.d.e.f.g.h.i.j.k.l.m.n.o.p.a *.t / ",
"& u v b b a q.r.s.t.u.v.w.x.y.z.A.A.B.y.C.D.E.F.G.H.I.J.a N t K.",
"L.u O 5.a a u M.N.O.P.Q.R.S.T.U.V.W.X.Y.Z.`. +P..+++@+A a *.4.& ",
"& u O 5.#+$+%+&+*+=+-+;+>+,+'+)+!+!+~+{+]+^+/+(+_+:+&+<+[+}+t / ",
"  |+O b ' 1+2+3+4+5+6+7+8+9+0+a+b+c+d+e+f+g+h+i+j+k+l+m+n+o+4.K.",
"& y -.5.a p+q+r+s+t+u+v+w+h+x+y+z+A+B+C+D+E+F+G+t+H+i+I+J+N t / ",
"& y O b a n K+L+M+N+O+P+Q+R+S+T+U+U+V V+W+Q+X+Y+Z+`+ @.@+@*.t & ",
"& ( @@b #@$@%@&@*@=@-@;@>@,@'@)@!@~@{@]@T ^@/@(@_@:@[ <@[@}@|@& ",
"& u v 1@2@3@4@5@6@7@8@9@0@a@b@c@d@e@f@b@a@6+g@h@i@6@j@k@l@m@9 / ",
"& u _ J+n@o@p@q@r@s@t@u@v@w@x@y@8+z@A@B@C@D@E@t@F@r@q@p@G@H@I@J@",
"  u v K@L@M@N@O@P@Q@R@S@T@U@V@7+W@X@Y@V@M+Z@`@ #Q@.#+#@###$#%#=.",
"L.u &#*#=#-#;#>#,#'#)#!#~#{#]#^#/#/#(#_#{#:#<#[#}#,#|#1#2#3#4#& ",
"& u 5#6#7#8#9#4.0#a#b#c#d#r@e#f#g#h#h#i#j#k#l#m#}#n#t o#p#q#r#/ ",
"& s#I@t#u#G@G@v#w#x#y#z#A#d+B#C#C#D#C+C#E#F#z#G#H#I#J#u#G@G@K#L#",
"& u M#u#N#o@O#P#Q#R#S#T#U#V#r@P@E#W#j#X#Y#Z#`# $.$+$@$#$o@o@$$%$",
"& &$*$O@=$-$;$>$,$'$)$!$~${$]$^$/$z@($_$:$<$b#)$[$}$>$|$1$2$3$4$",
"  u 5$6$7$8$9$0$a$N#N#b$c$d$e$Z#f$E#f$g$T#h$i$u#G@j$k$l$m$n$o$p$",
"& q$r$s$t$u$v$A@w$N#N#o@(@x$y$z$z$A$B$y$C$D$o@G@G@G@E$F$G$H$I$& ",
"  u O w J$K$L$M$N$O$P$Q$R$S$T$U$X@V$W$X$Y$Z$Q$`$O$N$ %#@y .%+%& ",
"L.q$O 5.@%@%#%$%%%&%*%Z$.#=%-%;%>%,%'%)%=%!%Z$~%{%]%^%#%a /%4.& ",
"L.&$@@5.@%@%@%(%_%Z$:%Z$<%[%1@a @%a &.#%}%<%Z$|%Z$_%1%2%a N +%/ ",
"& &+3%5.a @%M 4%5%6%7%P$8%9%0%@%&.a a%b%c%d%e%3@6%f%g%o.a%h%|@& ",
"L.&+3%i%a q.j%k%l%m%n%o%p%q%r%&.@%a s%r%t%u%v%t%w%l%x%y%z%/%|@& ",
"  &@|@8 A%6 B%C%@@D%t@v 1 E%F%F%F%6 6 6 E%1 v t@G%3%D%1 H%I%4.& ",
"  J%% % % % % % % K%K%K%% % % % K%% K%K%% K%% % K%% L%% % % % & "};
