/* XPM */
static char *bed[] = {
"32 32 5 1",
"  c None",
"W c #8B4513", /* Bois (Wood) */
"P c #FFFFFF", /* Oreiller (Pillow) */
"B c #0000CD", /* Couverture (Blanket) */
". c #000000", /* Contour */
"                                ",
"                                ",
"                                ",
"                                ",
"                                ",
"      ....................      ",
"     .WWWWWWWWWWWWWWWWWWWW.     ",
"     .WPPPPPPWWWWWWWWWWWWW.     ",
"     .WPPPPPPWWWWWWWWWWWWW.     ",
"     .WPPPPPPWWWWWWWWWWWWW.     ",
"     .WPPPPPPWWWWWWWWWWWWW.     ",
"     .WWWWWWWWBBBBBBBBBBBB.     ",
"     .WWWWWWWBBBBBBBBBBBBB.     ",
"     .WWWWWWBBBBBBBBBBBBBB.     ",
"     .WWWWWBBBBBBBBBBBBBBB.     ",
"     .WWWWBBBBBBBBBBBBBBBB.     ",
"     .WWWBBBBBBBBBBBBBBBBB.     ",
"     .WWBBBBBBBBBBBBBBBBBB.     ",
"     .WBBBBBBBBBBBBBBBBBBB.     ",
"     .BBBBBBBBBBBBBBBBBBBB.     ",
"     .BBBBBBBBBBBBBBBBBBBB.     ",
"     .BBBBBBBBBBBBBBBBBBBB.     ",
"     .BBBBBBBBBBBBBBBBBBBB.     ",
"     .BBBBBBBBBBBBBBBBBBBB.     ",
"      ....................      ",
"      .WW.            .WW.      ",
"      .WW.            .WW.      ",
"      ....            ....      ",
"                                ",
"                                ",
"                                ",
"                                "
};