/* XPM */
static char * exit2_xpm[] = {
"32 32 497 2",
"  	c #061600",
". 	c #301400",
"+ 	c #301B00",
"@ 	c #382200",
"# 	c #311400",
"$ 	c #311C00",
"% 	c #341C00",
"& 	c #301300",
"* 	c #322200",
"= 	c #321C00",
"- 	c #341B00",
"; 	c #311500",
"> 	c #321800",
", 	c #181400",
"' 	c #0E0D00",
") 	c #070600",
"! 	c #893800",
"~ 	c #7F3700",
"{ 	c #803400",
"] 	c #813500",
"^ 	c #813900",
"/ 	c #813600",
"( 	c #803500",
"_ 	c #823900",
": 	c #813800",
"< 	c #803600",
"[ 	c #7F3500",
"} 	c #7E3600",
"| 	c #803700",
"1 	c #803300",
"2 	c #401A00",
"3 	c #020000",
"4 	c #883800",
"5 	c #421F00",
"6 	c #4B2200",
"7 	c #4F2500",
"8 	c #502500",
"9 	c #502900",
"0 	c #4E1F00",
"a 	c #4E2000",
"b 	c #4F2000",
"c 	c #4D2000",
"d 	c #4D1F00",
"e 	c #4F2200",
"f 	c #4E2100",
"g 	c #502100",
"h 	c #4E2300",
"i 	c #4E2200",
"j 	c #411E00",
"k 	c #010D00",
"l 	c #010000",
"m 	c #441F00",
"n 	c #772800",
"o 	c #8D3C00",
"p 	c #8D3E00",
"q 	c #2E1000",
"r 	c #213500",
"s 	c #373F00",
"t 	c #353900",
"u 	c #313600",
"v 	c #343800",
"w 	c #343900",
"x 	c #283900",
"y 	c #2B3900",
"z 	c #2B3D00",
"A 	c #2B3E00",
"B 	c #2F4400",
"C 	c #314800",
"D 	c #1F3B00",
"E 	c #193300",
"F 	c #381300",
"G 	c #833100",
"H 	c #762A00",
"I 	c #411B00",
"J 	c #060600",
"K 	c #883900",
"L 	c #431A00",
"M 	c #8C3B00",
"N 	c #8E3E00",
"O 	c #8D3B00",
"P 	c #984100",
"Q 	c #321300",
"R 	c #316F00",
"S 	c #5A8600",
"T 	c #469800",
"U 	c #5ABC00",
"V 	c #4FAA00",
"W 	c #4C9600",
"X 	c #387D00",
"Y 	c #4D8000",
"Z 	c #377E00",
"` 	c #367800",
" .	c #367900",
"..	c #346F00",
"+.	c #2F6500",
"@.	c #396800",
"#.	c #256200",
"$.	c #2F1100",
"%.	c #813100",
"&.	c #071600",
"*.	c #883F00",
"=.	c #422000",
"-.	c #8D4000",
";.	c #974000",
">.	c #D25E00",
",.	c #2A1100",
"'.	c #2A8600",
").	c #3C9C00",
"!.	c #43A900",
"~.	c #59BE00",
"{.	c #4BA200",
"].	c #61A600",
"^.	c #2C8C00",
"/.	c #2B8C00",
"(.	c #2B8B00",
"_.	c #2E8C00",
":.	c #2B7F00",
"<.	c #298100",
"[.	c #298600",
"}.	c #286900",
"|.	c #255F00",
"1.	c #331300",
"2.	c #8D3900",
"3.	c #452400",
"4.	c #010100",
"5.	c #431F00",
"6.	c #8D3A00",
"7.	c #C55100",
"8.	c #298000",
"9.	c #3FA100",
"0.	c #46AF00",
"a.	c #61A200",
"b.	c #44A700",
"c.	c #2D9200",
"d.	c #2D9300",
"e.	c #2F9300",
"f.	c #439500",
"g.	c #459500",
"h.	c #2D8200",
"i.	c #265F00",
"j.	c #8E3A00",
"k.	c #803100",
"l.	c #3F1800",
"m.	c #070700",
"n.	c #883B00",
"o.	c #421A00",
"p.	c #8B3B00",
"q.	c #8F4100",
"r.	c #2D1200",
"s.	c #2D8C00",
"t.	c #3FA200",
"u.	c #45AE00",
"v.	c #58BE00",
"w.	c #46A200",
"x.	c #43A700",
"y.	c #2E9300",
"z.	c #2D9400",
"A.	c #409400",
"B.	c #409500",
"C.	c #2C8A00",
"D.	c #296900",
"E.	c #356100",
"F.	c #401800",
"G.	c #432000",
"H.	c #893900",
"I.	c #250E00",
"J.	c #429400",
"K.	c #46A100",
"L.	c #2B8A00",
"M.	c #276300",
"N.	c #8E3B00",
"O.	c #813200",
"P.	c #401F00",
"Q.	c #020100",
"R.	c #431D00",
"S.	c #8A3A00",
"T.	c #461D00",
"U.	c #357D00",
"V.	c #488A00",
"W.	c #3F9300",
"X.	c #4E9A00",
"Y.	c #408900",
"Z.	c #529100",
"`.	c #2B8300",
" +	c #2B8400",
".+	c #2C8300",
"++	c #2C8400",
"@+	c #2B7900",
"#+	c #2A7900",
"$+	c #2A7D00",
"%+	c #296800",
"&+	c #301100",
"*+	c #E66900",
"=+	c #893C00",
"-+	c #8B3D00",
";+	c #8D4100",
">+	c #361300",
",+	c #142500",
"'+	c #1C2800",
")+	c #162900",
"!+	c #172900",
"~+	c #172A00",
"{+	c #202900",
"]+	c #1B2D00",
"^+	c #1D3100",
"/+	c #1D3200",
"(+	c #192C00",
"_+	c #1C3300",
":+	c #213600",
"<+	c #1E3300",
"[+	c #1B3200",
"}+	c #1E3400",
"|+	c #122300",
"1+	c #3D1600",
"2+	c #412400",
"3+	c #000D00",
"4+	c #863900",
"5+	c #442000",
"6+	c #C35800",
"7+	c #8E3C00",
"8+	c #4B1C00",
"9+	c #060D01",
"0+	c #1F4213",
"a+	c #22460E",
"b+	c #305106",
"c+	c #345603",
"d+	c #2C450D",
"e+	c #1C3B10",
"f+	c #263E0F",
"g+	c #153211",
"h+	c #153412",
"i+	c #1A3911",
"j+	c #213511",
"k+	c #18360F",
"l+	c #183913",
"m+	c #163912",
"n+	c #061103",
"o+	c #712D00",
"p+	c #863800",
"q+	c #411900",
"r+	c #B74F00",
"s+	c #833700",
"t+	c #4E1D00",
"u+	c #0A1900",
"v+	c #2E6D00",
"w+	c #3A8D00",
"x+	c #47A200",
"y+	c #4EB100",
"z+	c #458C00",
"A+	c #307700",
"B+	c #428600",
"C+	c #276B03",
"D+	c #276B04",
"E+	c #276A04",
"F+	c #2B540D",
"G+	c #2B6401",
"H+	c #1F510D",
"I+	c #1B4708",
"J+	c #031605",
"K+	c #7C3300",
"L+	c #8F3D00",
"M+	c #471A00",
"N+	c #1E2800",
"O+	c #379700",
"P+	c #52B900",
"Q+	c #58C300",
"R+	c #3B9C00",
"S+	c #2E9400",
"T+	c #2E9200",
"U+	c #22590B",
"V+	c #2E7102",
"W+	c #326003",
"X+	c #264700",
"Y+	c #061705",
"Z+	c #7B3200",
"`+	c #903F00",
" @	c #451B00",
".@	c #431800",
"+@	c #2E3900",
"@@	c #369700",
"#@	c #47AE00",
"$@	c #45AD00",
"%@	c #3B9D00",
"&@	c #43A600",
"*@	c #22570B",
"=@	c #325F02",
"-@	c #274C00",
";@	c #081D08",
">@	c #7C3200",
",@	c #E96900",
"'@	c #823600",
")@	c #401900",
"!@	c #904100",
"~@	c #411600",
"{@	c #233900",
"]@	c #52BB00",
"^@	c #3A9D00",
"/@	c #499600",
"(@	c #22580B",
"_@	c #2E7202",
":@	c #225302",
"<@	c #225700",
"[@	c #0E280C",
"}@	c #7B3300",
"|@	c #8E3D00",
"1@	c #914200",
"2@	c #401B00",
"3@	c #171600",
"4@	c #883A00",
"5@	c #8B3A00",
"6@	c #8F3E00",
"7@	c #3A1400",
"8@	c #192A00",
"9@	c #46AE00",
"0@	c #51B900",
"a@	c #3A9C00",
"b@	c #42A600",
"c@	c #23560A",
"d@	c #265F02",
"e@	c #1F5200",
"f@	c #0B240A",
"g@	c #7C3400",
"h@	c #CA5200",
"i@	c #000000",
"j@	c #E96C00",
"k@	c #3F1500",
"l@	c #1C2D00",
"m@	c #4E9800",
"n@	c #84CB00",
"o@	c #46AD00",
"p@	c #499500",
"q@	c #22590C",
"r@	c #2F7202",
"s@	c #275F02",
"t@	c #215100",
"u@	c #0B230A",
"v@	c #823500",
"w@	c #080700",
"x@	c #883C00",
"y@	c #8B4000",
"z@	c #E86B00",
"A@	c #904000",
"B@	c #8D3D00",
"C@	c #441900",
"D@	c #213300",
"E@	c #52BA00",
"F@	c #45AF00",
"G@	c #307001",
"H@	c #285F01",
"I@	c #245900",
"J@	c #0B2008",
"K@	c #8D4300",
"L@	c #442400",
"M@	c #903E00",
"N@	c #3D1500",
"O@	c #253C00",
"P@	c #24570A",
"Q@	c #2F7001",
"R@	c #3D6400",
"S@	c #081B06",
"T@	c #030000",
"U@	c #864000",
"V@	c #331000",
"W@	c #2F3200",
"X@	c #358F00",
"Y@	c #2F9100",
"Z@	c #23580B",
"`@	c #275F01",
" #	c #286700",
".#	c #061907",
"+#	c #0E0E00",
"@#	c #442100",
"##	c #8C3D00",
"$#	c #8A3800",
"%#	c #200800",
"&#	c #172800",
"*#	c #328300",
"=#	c #5FBB00",
"-#	c #58C100",
";#	c #24580B",
">#	c #2F7101",
",#	c #286001",
"'#	c #081906",
")#	c #9F4400",
"!#	c #823100",
"~#	c #441B00",
"{#	c #863300",
"]#	c #300F00",
"^#	c #1D2E00",
"/#	c #318500",
"(#	c #65BA00",
"_#	c #2E580A",
":#	c #295E01",
"<#	c #081806",
"[#	c #AB4B00",
"}#	c #B55000",
"|#	c #833600",
"1#	c #421900",
"2#	c #452000",
"3#	c #3C1400",
"4#	c #152500",
"5#	c #359600",
"6#	c #51BB00",
"7#	c #335A0A",
"8#	c #307101",
"9#	c #C65B00",
"0#	c #833500",
"a#	c #411F00",
"b#	c #873800",
"c#	c #441E00",
"d#	c #8C3800",
"e#	c #813400",
"f#	c #361100",
"g#	c #112000",
"h#	c #63BC00",
"i#	c #296000",
"j#	c #081F09",
"k#	c #8C3A00",
"l#	c #C55900",
"m#	c #8A3700",
"n#	c #431700",
"o#	c #0B1900",
"p#	c #6BBF00",
"q#	c #57C300",
"r#	c #43A500",
"s#	c #469600",
"t#	c #255709",
"u#	c #255A00",
"v#	c #C65200",
"w#	c #813000",
"x#	c #101000",
"y#	c #873B00",
"z#	c #8F3A00",
"A#	c #203100",
"B#	c #369500",
"C#	c #3E9500",
"D#	c #3B9300",
"E#	c #2E9100",
"F#	c #23590C",
"G#	c #0B1F08",
"H#	c #954000",
"I#	c #452100",
"J#	c #1B2C00",
"K#	c #529A00",
"L#	c #3A9E00",
"M#	c #235409",
"N#	c #306F01",
"O#	c #2A6000",
"P#	c #0E250B",
"Q#	c #793100",
"R#	c #3F1700",
"S#	c #8A3B00",
"T#	c #451E00",
"U#	c #893A00",
"V#	c #511E00",
"W#	c #3C2900",
"X#	c #5B5800",
"Y#	c #556C00",
"Z#	c #5D8700",
"`#	c #5F8D00",
" $	c #5A7800",
".$	c #535D00",
"+$	c #546400",
"@$	c #4E4B00",
"#$	c #494C00",
"$$	c #525200",
"%$	c #532E01",
"&$	c #7A4700",
"*$	c #4F2502",
"=$	c #4F2504",
"-$	c #4F2102",
";$	c #7D3100",
">$	c #823400",
",$	c #161600",
"'$	c #7A2C00",
")$	c #8A3900",
"!$	c #843600",
"~$	c #853600",
"{$	c #9E4600",
"]$	c #8E4400",
"^$	c #411C00",
"/$	c #4C1C00",
"($	c #502000",
"_$	c #512200",
":$	c #512100",
"<$	c #522300",
"[$	c #502400",
"}$	c #171300",
"|$	c #180900",
"1$	c #1B0E00",
"2$	c #1B1B00",
"3$	c #191400",
"4$	c #190900",
"5$	c #1C0E00",
"6$	c #1F1500",
"7$	c #190A00",
"8$	c #1E1400",
"  . + @ # $ % & % . $ * = # $ # - ; > % ; % % . $ = . % + # , ' ",
") ! ~ { ] ] ] ^ / ( _ / / : ( ^ < [ : ( } < ( / < | ^ ( 1 ~ 2 3 ",
"  4 5 6 7 8 9 0 0 a a b c 0 a 0 0 0 a a b b 0 d 0 e f g h i j k ",
"l 4 m n o p o q r s t u v w x y x x z A A B B C D E F o G H I l ",
"J K L M N O P Q R S T U V W X Y Z Z ` `  .....+.@.#.$.o o %.I l ",
"&.*.=.-.o ;.>.,.'.).!.~.{.].^./.^.(.(._._.:.<.[.}.|.1.2.p ( 3.k ",
"4.4 5.6.2.7.] & 8.9.0.~.a.b.c.d.d.d.e.f.g.h.'.(.}.i.1.j.O k.l.) ",
"m.n.o.p.q.o [ r.s.t.u.v.w.x.d.y.z.d.A.B.z.h.'.C.D.E.Q p q.] F.3 ",
") K G.-.6.N H.I.J.9.u.~.K.x.d.d.d.d.d.z.z.h.'.L.D.M.1.N.O O.P.Q.",
"4.K R.p.p O S.T.U.V.W.X.Y.Z.`. +.+`. +`.++@+#+$+%+M.&+*+N.k.l.l ",
") =+o.-+p O ;+>+,+'+)+!+~+{+]+^+/+(+r _+:+:+<+[+}+|+1+p N %.2+' ",
"3+4+5+6.O 6+7+7+8+9+0+a+b+c+d+e+f+g+h+i+j+k+l+m+n+o+7+6.O k.l.Q.",
") p+q+p.N r+j.s+t+u+v+w+x+y+z+A+B+C+D+E+F+G+H+I+J+K+L+j.p %.F.' ",
") p+o.-.O O p O M+N+O+0.P+Q+u.R+x.S+z.T+U+V+W+X+Y+Z+O q.`+k.P.l ",
"l 4  @6.O N.N.H..@+@@@#@P+Q+$@%@&@y.d.T+*@V+=@-@;@>@7+N.,@'@)@l ",
"l *.G.-.!@N N 7+~@{@@@#@]@Q+u.^@x./@d.T+(@_@:@<@[@}@|@N 1@{ 2@3@",
"k 4@m 5@N.6@o 7+7@8@@@9@0@Q+u.a@b@d.d.T+c@V+d@e@f@g@h@N.O %.F.l ",
"i@K L O j@,@O ;+k@l@m@#@P+n@o@R+b@y.p@T+q@r@s@t@u@}@6@j.o v@2@w@",
"m.x@5+y@|@z@A@B@C@D@O+9@E@Q+F@^@b@y.y.y.q@G@H@I@J@}@p K@;+] L@' ",
"l K o.p.O M@j.O N@O@@@o@P+Q+$@R+b@y.d.T+P@Q@H@R@S@}@j.O 6.v@2@T@",
"l U@o.6.;+N.|@L+V@W@X@9@]@Q+$@a@&@J.d.Y@Z@r@`@ #.#}@j.j.N %.l.+#",
"&.K @###O |@N $#%#&#*#9@=#-#u.a@x.y.c.y.;#>#,# #'#)#N.N p !#5 3 ",
"l 4@~#O O j.{#H.]#^#/#o@(#-#$@^@x.y.T+T+_#G@:# #<#[#O O }#|#1#3 ",
"J 4@2#|@A@6.: N 3#4#5#9@6#Q+$@^@b@y.T+T+7#8#,# #'#Z+O ;+9#0#a#Q.",
"k b#c###6.}#d#e#f#g#@@u.h#Q+o@a@&@y.y.T+P@8#i#|.j#K+j.N O %.a#l ",
"i@K o.k#2.l#6.m#n#o#@@o@p#q#$@^@r#s#J.T+t#8#i#u#J@K+v#O O w#2 l ",
"x#y#o.##z#L+!@j.N@A#B#$@0@q#$@a@b@C#D#E#F#8#i#u#G#K+H#N p !#L@l ",
"m.4@I#5@N.|@j.$#t+J#K#o@E@Q+$@L#b@y./.^.M#N#O#%+P#Q#j.N.O v@R#3 ",
"l S#T#p.N j.N.U#V#W#X#Y#Z#`# $.$+$@$#$$$%$&$*$=$-$o+6@O ;$>$)@,$",
"&.S#~#'$O N j.|@L+N.$#)$!$~$!$)$)$o -+-.;+{$o 7+]$o 6.;+S#0#^$k ",
"i@d )@/$g ($_$_$($:$:$:$<$<$:$<$<$_$_$_$:$:$:$:$:$:$:$:$($[$l.) ",
"3+}$|$, |$1$2$|$|$3$4$5$2$, 2$1$5$1$5$5$1$5$1$6$5$1$7$|$8$8$, k "};
