/* XPM */
static char * exit_xpm[] = {
"32 32 395 2",
"  	c #000000",
". 	c #301400",
"+ 	c #301300",
"@ 	c #311400",
"# 	c #321500",
"$ 	c #311500",
"% 	c #180900",
"& 	c #010000",
"* 	c #893800",
"= 	c #7F3300",
"- 	c #803400",
"; 	c #813500",
"> 	c #803600",
", 	c #813600",
"' 	c #803500",
") 	c #7F3500",
"! 	c #7E3500",
"~ 	c #803300",
"{ 	c #7E3300",
"] 	c #401A00",
"^ 	c #020000",
"/ 	c #883800",
"( 	c #421900",
"_ 	c #4B1C00",
": 	c #4F1F00",
"< 	c #4E1F00",
"[ 	c #4E1E00",
"} 	c #4C1D00",
"| 	c #4E2002",
"1 	c #4D1F00",
"2 	c #4A1D00",
"3 	c #471B00",
"4 	c #481C00",
"5 	c #4E2000",
"6 	c #4F2000",
"7 	c #4D1E00",
"8 	c #4C1E00",
"9 	c #512500",
"0 	c #4E1D00",
"a 	c #4C1C00",
"b 	c #3E1700",
"c 	c #772600",
"d 	c #8D3B00",
"e 	c #8E3E00",
"f 	c #060100",
"g 	c #2A1F00",
"h 	c #452D00",
"i 	c #432700",
"j 	c #4B2F00",
"k 	c #3D2400",
"l 	c #4E3C00",
"m 	c #463700",
"n 	c #473600",
"o 	c #503E00",
"p 	c #483800",
"q 	c #413100",
"r 	c #4E3D00",
"s 	c #392C00",
"t 	c #2D0E00",
"u 	c #8D3E00",
"v 	c #833100",
"w 	c #752500",
"x 	c #401800",
"y 	c #883900",
"z 	c #431A00",
"A 	c #8C3A00",
"B 	c #943E00",
"C 	c #1F0A00",
"D 	c #7A6500",
"E 	c #C59A00",
"F 	c #C09A00",
"G 	c #A68400",
"H 	c #AF8D00",
"I 	c #E3B800",
"J 	c #A38A00",
"K 	c #A18400",
"L 	c #A28A00",
"M 	c #A28800",
"N 	c #9B8300",
"O 	c #9A8300",
"P 	c #897200",
"Q 	c #9D8300",
"R 	c #AB8E00",
"S 	c #A28500",
"T 	c #2C0F00",
"U 	c #813100",
"V 	c #431F00",
"W 	c #421A00",
"X 	c #8D3A00",
"Y 	c #8D3900",
"Z 	c #963D00",
"` 	c #D86100",
" .	c #C5A500",
"..	c #E5C300",
"+.	c #E3C700",
"@.	c #CDAE00",
"#.	c #E0B500",
"$.	c #F3CC00",
"%.	c #EBC600",
"&.	c #EAC500",
"*.	c #EAC400",
"=.	c #CEAD00",
"-.	c #C4A100",
";.	c #CBA900",
">.	c #A38700",
",.	c #9C8200",
"'.	c #331100",
").	c #8E3B00",
"!.	c #803100",
"~.	c #010100",
"{.	c #411900",
"].	c #C54F00",
"^.	c #8A3A00",
"/.	c #2F1400",
"(.	c #E3BE00",
"_.	c #EAC800",
":.	c #E1C800",
"<.	c #CFAE00",
"[.	c #EAB700",
"}.	c #E7CA00",
"|.	c #FAD000",
"1.	c #F9D000",
"2.	c #D7B300",
"3.	c #CCA700",
"4.	c #D4B000",
"5.	c #A28600",
"6.	c #8F7500",
"7.	c #371400",
"8.	c #8F3C00",
"9.	c #3F1800",
"0.	c #8B3A00",
"a.	c #893A00",
"b.	c #281000",
"c.	c #D9B500",
"d.	c #E0C700",
"e.	c #D0AE00",
"f.	c #DEB400",
"g.	c #F9D100",
"h.	c #F8CF00",
"i.	c #D7B400",
"j.	c #CBA800",
"k.	c #D5B000",
"l.	c #907600",
"m.	c #361400",
"n.	c #8E4000",
"o.	c #230D00",
"p.	c #EFC500",
"q.	c #EAC900",
"r.	c #E0C900",
"s.	c #836B00",
"t.	c #3C1700",
"u.	c #934000",
"v.	c #020100",
"w.	c #8F3F00",
"x.	c #301200",
"y.	c #BF9E00",
"z.	c #C6A400",
"A.	c #BCA200",
"B.	c #9B7B00",
"C.	c #B99300",
"D.	c #C7A800",
"E.	c #BB9C00",
"F.	c #B29300",
"G.	c #AE9100",
"H.	c #957A00",
"I.	c #675500",
"J.	c #3F1900",
"K.	c #E66B00",
"L.	c #833600",
"M.	c #290C00",
"N.	c #291F00",
"O.	c #1D1500",
"P.	c #201800",
"Q.	c #2D2200",
"R.	c #281D00",
"S.	c #291D00",
"T.	c #231B00",
"U.	c #231A00",
"V.	c #261E00",
"W.	c #1C1300",
"X.	c #251B00",
"Y.	c #3A1400",
"Z.	c #8E3D00",
"`.	c #863900",
" +	c #C35600",
".+	c #8A3800",
"++	c #783100",
"@+	c #1F1600",
"#+	c #574500",
"$+	c #997A00",
"%+	c #9E7F00",
"&+	c #9E8200",
"*+	c #9F7C00",
"=+	c #967700",
"-+	c #9C7B00",
";+	c #997900",
">+	c #987800",
",+	c #9D7B00",
"'+	c #9F7E00",
")+	c #3C2E00",
"!+	c #722D00",
"~+	c #8E3A00",
"{+	c #863800",
"]+	c #B74F00",
"^+	c #793100",
"/+	c #423600",
"(+	c #D9B900",
"_+	c #D5B700",
":+	c #D7BD00",
"<+	c #DCBA00",
"[+	c #CDAD00",
"}+	c #D8B600",
"|+	c #CCAA00",
"1+	c #CBAA00",
"2+	c #B19400",
"3+	c #CDAB00",
"4+	c #B49600",
"5+	c #B89900",
"6+	c #322800",
"7+	c #7A3200",
"8+	c #7C3301",
"9+	c #332700",
"0+	c #A98E00",
"a+	c #E2CB00",
"b+	c #D5B900",
"c+	c #D0B000",
"d+	c #E4CB00",
"e+	c #ECC800",
"f+	c #E9CC00",
"g+	c #F7D100",
"h+	c #F7CF00",
"i+	c #D8B500",
"j+	c #C9A700",
"k+	c #A48700",
"l+	c #4C3C00",
"m+	c #793101",
"n+	c #903C00",
"o+	c #431B00",
"p+	c #352900",
"q+	c #D5B200",
"r+	c #E4CA00",
"s+	c #D7B900",
"t+	c #D2B000",
"u+	c #E3CA00",
"v+	c #E8CB00",
"w+	c #F8D000",
"x+	c #F7CE00",
"y+	c #B79800",
"z+	c #D7B500",
"A+	c #CAA600",
"B+	c #766000",
"C+	c #4D3D00",
"D+	c #7A3100",
"E+	c #EA6900",
"F+	c #813200",
"G+	c #401900",
"H+	c #8E3900",
"I+	c #772F00",
"J+	c #392F00",
"K+	c #CAA900",
"L+	c #E9CB00",
"M+	c #B19200",
"N+	c #574600",
"O+	c #793201",
"P+	c #803000",
"Q+	c #773000",
"R+	c #3F3400",
"S+	c #C1A100",
"T+	c #D2B200",
"U+	c #F7D000",
"V+	c #B79900",
"W+	c #A48600",
"X+	c #574700",
"Y+	c #CA5200",
"Z+	c #762E00",
"`+	c #3F3300",
" @	c #C5A100",
".@	c #D8B900",
"+@	c #F5BF00",
"@@	c #F8CE00",
"#@	c #F9CF00",
"$@	c #C19E00",
"%@	c #947800",
"&@	c #793200",
"*@	c #E96900",
"=@	c #712E00",
"-@	c #453900",
";@	c #C1A200",
">@	c #E8CC00",
",@	c #B69800",
"'@	c #C19F00",
")@	c #937800",
"!@	c #8D3D00",
"~@	c #8F3B00",
"{@	c #742E00",
"]@	c #9D8200",
"^@	c #F6CE00",
"/@	c #B69700",
"(@	c #937900",
"_@	c #030000",
":@	c #863A00",
"<@	c #523C00",
"[@	c #B29500",
"}@	c #EACA00",
"|@	c #D8B300",
"1@	c #4E3F00",
"2@	c #441B00",
"3@	c #4B3F00",
"4@	c #E3CB00",
"5@	c #DEBA00",
"6@	c #B79700",
"7@	c #A08400",
"8@	c #4D3F00",
"9@	c #9C4200",
"0@	c #823100",
"a@	c #883A00",
"b@	c #863300",
"c@	c #D2AE00",
"d@	c #E4C900",
"e@	c #E2BC00",
"f@	c #D2B100",
"g@	c #E7CB00",
"h@	c #B79A00",
"i@	c #CBA600",
"j@	c #483900",
"k@	c #AC4B00",
"l@	c #B55000",
"m@	c #823200",
"n@	c #802D00",
"o@	c #7D3200",
"p@	c #393000",
"q@	c #E2CA00",
"r@	c #E8CA00",
"s@	c #CBA700",
"t@	c #453500",
"u@	c #7C3200",
"v@	c #C65900",
"w@	c #873800",
"x@	c #B44E00",
"y@	c #8C3800",
"z@	c #DCB800",
"A@	c #B89700",
"B@	c #7D3301",
"C@	c #C55900",
"D@	c #6A2900",
"E@	c #DBB800",
"F@	c #E8C000",
"G@	c #EACC00",
"H@	c #FACF00",
"I@	c #F9CE00",
"J@	c #7D3300",
"K@	c #C65000",
"L@	c #813000",
"M@	c #3F1700",
"N@	c #403400",
"O@	c #E6C000",
"P@	c #E4CC00",
"Q@	c #E9CD00",
"R@	c #B99900",
"S@	c #392D00",
"T@	c #953D00",
"U@	c #6D2B00",
"V@	c #6B5B00",
"W@	c #ECC200",
"X@	c #423400",
"Y@	c #783000",
"Z@	c #896700",
"`@	c #DBA700",
" #	c #C7A300",
".#	c #D5AA00",
"+#	c #D5AF00",
"@#	c #D9A400",
"##	c #D49F00",
"$#	c #D9A300",
"%#	c #996900",
"&#	c #D39100",
"*#	c #895800",
"=#	c #8B5A00",
"-#	c #744200",
";#	c #813400",
">#	c #7D2800",
",#	c #7A2800",
"'#	c #8F3D00",
")#	c #903E00",
"!#	c #8F3E00",
"~#	c #893700",
"{#	c #9F4600",
"]#	c #502100",
"^#	c #502000",
"/#	c #512100",
"(#	c #522500",
"_#	c #170800",
":#	c #190900",
"<#	c #1F1400",
"[#	c #190A00",
"  . + @ @ @ @ + @ . @ @ # @ @ @ + $ $ . $ . @ . @ # . . + @ % & ",
"& * = - ; ; ; > , ' , , , ; ' > > ) ' ' ! > ' , > > > ' ~ { ] ^ ",
"  / ( _ : < : [ } | < 1 1 } 2 3 4 < 5 5 6 : [ 7 [ : 8 9 0 a b & ",
"& / ( c d d e f g h i j j k l m n o p p p p q p r s t u v w x & ",
"  y z A d d B C D E F G H I J K L M N O N N P Q R S T e d U V & ",
"& y W X Y Z ` +  ...+.@.#.$.%.&.&.&.*.&.&.=.-.;.>.,.'.).d !.x & ",
"~./ {.X Y ].^./.(._.:.<.[.}.|.|.1.|.|.1.1.2.3.4.5.6.7.8.d !.9.& ",
"~./ W 0.d d a.b.c._.d.e.f.}.|.g.1.|.g.1.h.i.j.k.>.l.m.n.d !.x ^ ",
"& y z X X d a.o.p.q.r.<.f.}.|.|.1.1.1.g.h.i.j.k.>.s.t.u.d U x v.",
"~.y W 0.d d w.x.y.z.A.B.C.D.e.e.<.<.<.e.<.E.F.G.H.I.J.K.d !.9.& ",
"& y W 0.d d L.M.N.O.P.Q.R.S.R.R.R.T.U.U.U.U.T.V.W.X.Y.Z.d U x ^ ",
"  `.W X d  +)..+++@+#+$+%+&+*+=+-+;+;+>+,+'+>+>+)+!+~+X d !.9.v.",
"& {+{.0.d ]+~+d ^+/+5.(+_+:+<+[+}+|+|+1+2+3+4+5+6+7+~+~+d U x ^ ",
"& {+W X d d d d 8+9+0+a+b+c+d+e+f+g+h+h+5+i+j+k+l+m+d d n+!.x & ",
"& / o+X d ).~+d ^+p+q+r+s+t+u+e+v+w+h+x+y+z+A+B+C+D+).).E+F+G+& ",
"& y z X ).).d H+I+J+K+r+s+t+d+_.L+|.h+x+y+z+M+k+N+O+~+d 8.P+9.^ ",
"& y ( 0.).).d ).Q+R+S+r+s+T+r+e+f+U+h+h+V+i+M+W+X+7+Y+).d U x & ",
"  y z X E+E+X d Z+`+ @r+.@+@r+e+L+@@#@h+V+z+$@%@N+&@).~+d U 9.v.",
"~.y W 0.~+*@~+X =@-@;@d+.@T+d+e+>@h.U+x+,@i.'@)@X+&@d !@d U 9.& ",
"& y W 0.d ~@~+d {@`+]@d+.@T+d+e+L+@@^@x+/@2.$@(@N+^+~+d X U 9._@",
"& :@W X d ).~+~+{@<@[@r+.@T+r+e+}@#@x+x+/@|@$@K 1@&@~+~+d U 9.v.",
"& y 2@0.d ~+).~+{@3@0+4@5@T+d+e+L+h.@@@@6@2.'@7@8@9@d d d 0@J.^ ",
"& a@2@X d ~+b@d {@J+c@d@e@f@r+e+g@@@@@@@h@2.i@(@j@k@d d l@m@( ^ ",
"  y z X ~+X n@).o@p@5+q@.@f@d+e+r@g.@@U+6@2.s@K t@u@d d v@v {.v.",
"& w@o+A X x@y@~+!+J+z@q@(.f@d+e+>@1.@@@@A@|@s@%@C+B@~+d d U {.& ",
"  y W A Y C@X H+D@-@E@d@F@f@4@e+G@|.H@I@6@2.A+%@C+J@K@d d L@M@& ",
"~.w@W 0.~+~+).~+D@N@O@4@.@T+P@e+Q@|.#@@@y+|@s@R@S@J@T@).d 0@9.& ",
"~.a@o+0.~+~+~+~+U@V@W@d+.@T+d+e+G@I@I@@@A@2.3.c@X@o@~+~+d U M@^ ",
"& ^.2@0.d ~+~+d Y@Z@`@T+j. #f@.#+#@###$#%#&#*#=#-#;#).d >#L@G+& ",
"~.^.2@,#d d ~+~+~+'#'#'#'#)#'#!#'#e ~#Z.e {#e !#!#e X d .+0@G+& ",
"  1 G+a ]#^#^#^#^#/#/#/#/#/#/#/#/#^#^#(#/#/#/#/#/#/#/#/#^#[ 9.& ",
"  _#% % % % % % % :#:#:#% % % % :#% :#<#% :#% % :#% [#% % % % & "};
