/* XPM */
static char *floor[] = {
"32 32 3 1",
"G c #888888", /* Sol gris */
"D c #666666", /* Détails sol */
"B c #000000", /* Câbles noirs */
"GGGGGGGGGGGGGGGGGGGGGGGGGGGGGGGG",
"GDGDGDGDGDGDGDGDGDGDGDGDGDGDGDGD",
"GGGGGGGGGGGGGGGGGGGGGGGGGGGGGGGG",
"GDGDGDGDGDGDGDGDGDGDGDGDGDGDGDGD",
"GGGGGGGGGGGBBBGGGGGGGGGGGGGGGGGG",
"GDGDGDGDGDGBBBGDGDGDGDGDGDGDGDGD",
"GGGGGGGGGGGBBBGGGGGGGGGGGGGGGGGG",
"GDGDGDGDGDGBBBGDGDGDGDGDGDGDGDGD",
"GGGGGGGGGGGBBBGGGGGGGGGGGGGGGGGG",
"GDGDGDGDGDGBBBGDGDGDGDGDGDGDGDGD",
"GGGGGGGGGGGBBBGGGGGGGGGGGGGGGGGG",
"GDGDGDGDGDGBBBGDGDGDGDGDGDGDGDGD",
"GGGGGGGGGGBBBBBBBBBBBGGGGGGGGGGG",
"GDGDGDGDGDGBBBBBBBBBBGDGDGDGDGDD",
"GGGGGGGGGGBBBBBBBBBBBGGGGGGGGGGG",
"GDGDGDGDGDGBBBGDGDGDGDGDGDGDGDGD",
"GGGGGGGGGGGBBBGGGGGGGGGGGGGGGGGG",
"GDGDGDGDGDGBBBGDGDGDGDGDGDGDGDGD",
"GGGGGGGGGGGBBBGGGGGGGGGGGGGGGGGG",
"GDGDGDGDGDGBBBGDGDGDGDGDGDGDGDGD",
"GGGGGGGGGGGBBBGGGGGGGGGGGGGGGGGG",
"GDGDGDGDGDGBBBGDGDGDGDGDGDGDGDGD",
"GGGGGGGGGGGBBBGGGGGGGGGGGGGGGGGG",
"GDGDGDGDGDGDGDGDGDGDGDGDGDGDGDGD",
"GGGGGGGGGGGGGGGGGGGGGGGGGGGGGGGG",
"GDGDGDGDGDGDGDGDGDGDGDGDGDGDGDGD",
"GGGGGGGGGGGGGGGGGGGGGGGGGGGGGGGG",
"GDGDGDGDGDGDGDGDGDGDGDGDGDGDGDGD",
"GGGGGGGGGGGGGGGGGGGGGGGGGGGGGGGG",
"GDGDGDGDGDGDGDGDGDGDGDGDGDGDGDGD",
"GGGGGGGGGGGGGGGGGGGGGGGGGGGGGGGG",
"GGGGGGGGGGGGGGGGGGGGGGGGGGGGGGGG"
};