/* XPM */
static char * floor2_xpm[] = {
"32 32 180 2",
"  	c #010101",
". 	c #442B19",
"+ 	c #442A19",
"@ 	c #452B19",
"# 	c #452B18",
"$ 	c #442B18",
"% 	c #442A18",
"& 	c #1F1108",
"* 	c #010000",
"= 	c #A05F32",
"- 	c #96582E",
"; 	c #96582D",
"> 	c #97592D",
", 	c #96592C",
"' 	c #97592C",
") 	c #96592D",
"! 	c #95582C",
"~ 	c #95592D",
"{ 	c #96582C",
"] 	c #96572D",
"^ 	c #95572D",
"/ 	c #533019",
"( 	c #030101",
"_ 	c #9F5F32",
": 	c #532E17",
"< 	c #5D331A",
"[ 	c #653B20",
"} 	c #653C21",
"| 	c #653C20",
"1 	c #653B1F",
"2 	c #62371D",
"3 	c #5E331A",
"4 	c #522F1A",
"5 	c #020101",
"6 	c #8A4524",
"7 	c #A36131",
"8 	c #A36132",
"9 	c #B16C39",
"0 	c #AC6634",
"a 	c #B06C39",
"b 	c #98542B",
"c 	c #874121",
"d 	c #532F19",
"e 	c #9F6032",
"f 	c #532E16",
"g 	c #A36133",
"h 	c #AF6B39",
"i 	c #A46032",
"j 	c #E6924D",
"k 	c #A46131",
"l 	c #A36032",
"m 	c #AF6735",
"n 	c #A46130",
"o 	c #D07638",
"p 	c #A46132",
"q 	c #E6934E",
"r 	c #A36130",
"s 	c #955229",
"t 	c #522E16",
"u 	c #AB6433",
"v 	c #E9944F",
"w 	c #A46031",
"x 	c #E48241",
"y 	c #AA6433",
"z 	c #AE6937",
"A 	c #A36033",
"B 	c #A46033",
"C 	c #945229",
"D 	c #010100",
"E 	c #522E17",
"F 	c #D2773A",
"G 	c #D2763A",
"H 	c #A96432",
"I 	c #D97A3A",
"J 	c #EA9650",
"K 	c #A96433",
"L 	c #522F19",
"M 	c #A26132",
"N 	c #A76332",
"O 	c #D5793A",
"P 	c #D4783A",
"Q 	c #A36231",
"R 	c #A86332",
"S 	c #D7793A",
"T 	c #A36031",
"U 	c #A86433",
"V 	c #020100",
"W 	c #EE9852",
"X 	c #BC6B33",
"Y 	c #C47137",
"Z 	c #D58647",
"` 	c #EF9A53",
" .	c #BB6B34",
"..	c #C87B3F",
"+.	c #934E26",
"@.	c #9E6032",
"#.	c #532F17",
"$.	c #D48547",
"%.	c #C27037",
"&.	c #C37037",
"*.	c #D48648",
"=.	c #98552B",
"-.	c #9E5F32",
";.	c #C97B40",
">.	c #C87C40",
",.	c #D48446",
"'.	c #C57138",
").	c #D48546",
"!.	c #A56130",
"~.	c #532F16",
"{.	c #CC7E41",
"].	c #BF6E34",
"^.	c #F19A53",
"/.	c #955228",
"(.	c #522F18",
"_.	c #F09952",
":.	c #945129",
"<.	c #A36030",
"[.	c #A26030",
"}.	c #D6793A",
"|.	c #F19952",
"1.	c #A46030",
"2.	c #D87A3B",
"3.	c #F19A52",
"4.	c #F19851",
"5.	c #F19A54",
"6.	c #040101",
"7.	c #9E6133",
"8.	c #EC8D49",
"9.	c #D67A3B",
"0.	c #96532A",
"a.	c #532E15",
"b.	c #954F26",
"c.	c #BA6B34",
"d.	c #965229",
"e.	c #512F18",
"f.	c #9F6132",
"g.	c #9A552B",
"h.	c #C47138",
"i.	c #C77B40",
"j.	c #D68647",
"k.	c #C77B3F",
"l.	c #965329",
"m.	c #542F18",
"n.	c #944E28",
"o.	c #D68748",
"p.	c #D68848",
"q.	c #975229",
"r.	c #030201",
"s.	c #9F6033",
"t.	c #C77B41",
"u.	c #D58747",
"v.	c #E8934D",
"w.	c #D67837",
"x.	c #D27637",
"y.	c #96522A",
"z.	c #522E19",
"A.	c #D48545",
"B.	c #C77035",
"C.	c #A06133",
"D.	c #E9934D",
"E.	c #A16133",
"F.	c #542F16",
"G.	c #B36D39",
"H.	c #8F4624",
"I.	c #A56132",
"J.	c #E7904A",
"K.	c #8D4624",
"L.	c #9E5B2E",
"M.	c #B46E3A",
"N.	c #9F5C2E",
"O.	c #643C21",
"P.	c #663D20",
"Q.	c #663C20",
"R.	c #663C1F",
"S.	c #62381D",
"T.	c #20120A",
"U.	c #201209",
"V.	c #211209",
"W.	c #201208",
"  . + @ @ @ @ + @ . @ @ # @ @ @ + $ $ . $ . @ . % # . . + @ & * ",
"* = - ; > > > , ' ) ' ' ' > ) , , ! ) ) ~ , ) ' , , , { ] ^ / ( ",
"  _ : < [ } [ [ [ | | 1 1 [ | [ [ [ | | 1 1 [ } [ 1 [ [ 2 3 4 5 ",
"* _ : 6 7 7 7 7 8 9 7 7 8 8 7 0 7 8 7 7 7 7 7 7 a 7 7 7 b c d 5 ",
"  e f g 7 7 h 7 i j 7 k l m n o p l 7 8 7 8 8 7 q r 7 7 7 s d 5 ",
"* e t 8 l u v r 8 w k k u x k 7 w w 8 y z 7 w A 7 7 w B 7 C d 5 ",
"D _ E 8 l F k 7 w w p i G w 7 7 w w H I J 7 7 8 7 K w i 7 C L 5 ",
"D _ t M 7 7 7 k N 7 8 8 7 7 7 7 k 7 O O r 7 7 7 w P 7 Q 7 C d ( ",
"* e f 8 8 7 7 R S 7 8 7 7 7 i T 7 7 7 8 k w w w k 7 7 U 7 s d V ",
"D e t M 7 7 r W X Y 7 k 7 Z 7 7 w k k w w l 7 7 7 w k ` 7 C L 5 ",
"* e t M 7 7 7 7 7  .7 7 T ..7 7 7 7 T w l 7 7 +.7 7 7 8 7 s d ( ",
"  @.#.8 7 $.k w 7 7 7 w w 7 %.n &.7 7 7 *.7 7 =.7 w p 8 7 C L V ",
"* -.E M 7 ;.w 7 7 7 7 k 7 7  .7  .7 7 7 >.7 7 w 8 k p w 7 s d ( ",
"* -.#.8 7 7 7 7 7 ,.7 7 7 7 7 7 i w w k 7 w '.).7 8 7 7 !.C d 5 ",
"* _ ~.8 7 k w 7 7 {.7 w w k w w w n 7 w l i ].{.k w k k ^./.(.5 ",
"* e f 8 k k 7 i w k T w w w w 8 T _.k w 7 k 7 7 7 7 w 7 n :.L ( ",
"* e : M k k 7 k k 7 7 7 7 <.7 7 7 [.<.7 8 7 7 7 7 r }.k 7 s d 5 ",
"  e f 8 ^.|.T 7 i 1.2.1.r 3.n w 7 k 4.r k w w w w 7 k p 7 s L V ",
"D e #.M w _.w T 7 7 r w w w k k k 8 k k k w k 7 7 7 7 Q 7 s L 5 ",
"* e #.M 7 1.w 7 8 w 7 i w i w w w 7 l k k p i 5.7 7 w 7 T s L 6.",
"* 7.#.8 7 k p w w 8.w i k w w i w 9.7 k 8 w l <.7 7 w p 7 0.L V ",
"* e a.M 7 w k w 8 b.i w c.w w i p n 7 w w 7 k 8 7 ;.7 7 7 d.e.( ",
"* f.a.8 7 w g.7 8 7 7 7 h.w k k 7 7 7 k i.T w 7 7 j.7 7 k.l.m.( ",
"  e f 8 p 8 n.k p k 8 k 7 k p 7 7 7 7 l o.7 k w T 8 7 7 p.q.E r.",
"* s.~.g T t.A w w k p 7 i.w w w w p w w 7 k p w p k w 7 7 s E 5 ",
"  e #.g l u.8 i p p w w Z 8 k 7 r v.w.w w p p k 7 k x.7 7 y.z.5 ",
"D s.#.M w w k p w k 7 w T T T w 7 A.B.7 w w w w w k y k 7 d.L 5 ",
"D C.~.M w p p w w r D.r w w k 7 w 7 k 7 w w w 1.k w w w 7 0.z.( ",
"* E.F.M 7 w w 7 w w G.w k w w w k 7 H.i I.J.w w w w k 7 H.y.(.5 ",
"D E.F.K.7 7 w w w w w w w 1.w k w 7 L.8 7 M.7 k k 7 T 7 N.d.(.5 ",
"  O.(.3 P.Q.Q.Q.Q.R.R.R.R.R.R.R.R.Q.Q.Q.R.R.R.R.R.R.R.R.Q.S.L 5 ",
"  T.U.U.U.U.U.U.U.V.V.V.U.U.U.U.V.U.V.V.U.V.U.U.V.U.W.U.U.U.U.5 "};
