/* XPM */
static char * mario_top_xpm[] = {
"32 32 420 2",
"  	c #010101",
". 	c #442B19",
"+ 	c #442A19",
"@ 	c #452B19",
"# 	c #452B18",
"$ 	c #000000",
"% 	c #442B18",
"& 	c #442A18",
"* 	c #1F1108",
"= 	c #010000",
"- 	c #A05F32",
"; 	c #96582E",
"> 	c #96582D",
", 	c #97592D",
"' 	c #96592C",
") 	c #97592C",
"! 	c #96592D",
"~ 	c #7A111B",
"{ 	c #A51921",
"] 	c #CC2B27",
"^ 	c #A61920",
"/ 	c #7B111B",
"( 	c #96582C",
"_ 	c #96572D",
": 	c #95572D",
"< 	c #533019",
"[ 	c #030101",
"} 	c #9F5F32",
"| 	c #532E17",
"1 	c #5D331A",
"2 	c #653B20",
"3 	c #653C21",
"4 	c #653C20",
"5 	c #750C16",
"6 	c #B81C21",
"7 	c #D92A28",
"8 	c #E72F28",
"9 	c #E62E28",
"0 	c #D92927",
"a 	c #B81C22",
"b 	c #750B17",
"c 	c #653B1F",
"d 	c #62371D",
"e 	c #5E331A",
"f 	c #522F1A",
"g 	c #020101",
"h 	c #8A4524",
"i 	c #A36131",
"j 	c #A36132",
"k 	c #8C111F",
"l 	c #C62125",
"m 	c #E42D27",
"n 	c #E62D28",
"o 	c #E72E28",
"p 	c #E42C27",
"q 	c #C52125",
"r 	c #8B101F",
"s 	c #B06C39",
"t 	c #98542B",
"u 	c #874121",
"v 	c #532F19",
"w 	c #9F6032",
"x 	c #532E16",
"y 	c #A36133",
"z 	c #AF6B39",
"A 	c #8A0F1E",
"B 	c #C92428",
"C 	c #E62D27",
"D 	c #E62D29",
"E 	c #E52E28",
"F 	c #C82328",
"G 	c #E6934E",
"H 	c #A36130",
"I 	c #955229",
"J 	c #522E16",
"K 	c #A36032",
"L 	c #AB6433",
"M 	c #E9944F",
"N 	c #BD1D25",
"O 	c #E42D28",
"P 	c #E52D28",
"Q 	c #E42C28",
"R 	c #BD1D24",
"S 	c #A46031",
"T 	c #A46033",
"U 	c #945229",
"V 	c #010100",
"W 	c #522E17",
"X 	c #D2773A",
"Y 	c #A46131",
"Z 	c #8B0D1C",
"` 	c #D92928",
" .	c #D82927",
"..	c #8A0E1C",
"+.	c #A96433",
"@.	c #A46032",
"#.	c #522F19",
"$.	c #A26132",
"%.	c #600C17",
"&.	c #A51023",
"*.	c #E72D27",
"=.	c #A41023",
"-.	c #600C16",
";.	c #A36231",
">.	c #610C17",
",.	c #A61023",
"'.	c #E42E29",
").	c #E52E29",
"!.	c #600B16",
"~.	c #A86433",
"{.	c #020100",
"].	c #620C17",
"^.	c #D32727",
"/.	c #C72225",
"(.	c #C11F24",
"_.	c #C21F25",
":.	c #C11F25",
"<.	c #D32726",
"[.	c #E62F27",
"}.	c #D92926",
"|.	c #610B16",
"1.	c #EF9A53",
"2.	c #930E1F",
"3.	c #AC1424",
"4.	c #D52725",
"5.	c #CF2526",
"6.	c #D52826",
"7.	c #E12C28",
"8.	c #E52E27",
"9.	c #E62E27",
"0.	c #E12C27",
"a.	c #D42726",
"b.	c #D02526",
"c.	c #AB1424",
"d.	c #920E1E",
"e.	c #9E6032",
"f.	c #532F17",
"g.	c #D48547",
"h.	c #620914",
"i.	c #A41124",
"j.	c #A51024",
"k.	c #B71B25",
"l.	c #D22727",
"m.	c #E62F28",
"n.	c #D12727",
"o.	c #B71A24",
"p.	c #A41024",
"q.	c #610A14",
"r.	c #A46132",
"s.	c #9E5F32",
"t.	c #C97B40",
"u.	c #9F877A",
"v.	c #996E52",
"w.	c #7C0F1B",
"x.	c #9B1021",
"y.	c #A81224",
"z.	c #B31926",
"A.	c #D92A29",
"B.	c #DA2927",
"C.	c #A71224",
"D.	c #9B1022",
"E.	c #7D0F1B",
"F.	c #986D51",
"G.	c #A0887A",
"H.	c #9E846D",
"I.	c #E9AD84",
"J.	c #251108",
"K.	c #430F0E",
"L.	c #6D0814",
"M.	c #9B0F21",
"N.	c #A51124",
"O.	c #6D0815",
"P.	c #420E0E",
"Q.	c #251008",
"R.	c #E9AD83",
"S.	c #9F856E",
"T.	c #A56130",
"U.	c #532F16",
"V.	c #9A7C65",
"W.	c #E7A87E",
"X.	c #30160B",
"Y.	c #572C19",
"Z.	c #532B18",
"`.	c #34160D",
" +	c #2B0F08",
".+	c #2B0E08",
"++	c #33160D",
"@+	c #9C7E67",
"#+	c #F19A53",
"$+	c #955228",
"%+	c #522F18",
"&+	c #C4845C",
"*+	c #8E5D40",
"=+	c #61331D",
"-+	c #793F23",
";+	c #68361D",
">+	c #4D2616",
",+	c #4D2717",
"'+	c #4D2617",
")+	c #4D2716",
"!+	c #4E2616",
"~+	c #4E2617",
"{+	c #68371E",
"]+	c #794023",
"^+	c #8E5E41",
"/+	c #C4835C",
"(+	c #A46130",
"_+	c #945129",
":+	c #3B2013",
"<+	c #7F4424",
"[+	c #743D21",
"}+	c #7F4425",
"|+	c #7E4325",
"1+	c #7D4224",
"2+	c #7E4324",
"3+	c #7E4425",
"4+	c #753E21",
"5+	c #3A2013",
"6+	c #D6793A",
"7+	c #F19952",
"8+	c #A36031",
"9+	c #5A331F",
"0+	c #82492B",
"a+	c #522A18",
"b+	c #733C20",
"c+	c #69371F",
"d+	c #7E4323",
"e+	c #59321E",
"f+	c #F09952",
"g+	c #350A0A",
"h+	c #3C1E11",
"i+	c #282147",
"j+	c #744226",
"k+	c #2F170C",
"l+	c #2F170D",
"m+	c #272147",
"n+	c #3C1E10",
"o+	c #340A09",
"p+	c #A46030",
"q+	c #BE2124",
"r+	c #9D141D",
"s+	c #16265D",
"t+	c #273E90",
"u+	c #212353",
"v+	c #4C1212",
"w+	c #8A161C",
"x+	c #4D1212",
"y+	c #283F90",
"z+	c #15265D",
"A+	c #9C141D",
"B+	c #BC2124",
"C+	c #040101",
"D+	c #9E6133",
"E+	c #B31D22",
"F+	c #D92925",
"G+	c #9F111E",
"H+	c #203C83",
"I+	c #AEA5A2",
"J+	c #7F6F7E",
"K+	c #690C1E",
"L+	c #8D1615",
"M+	c #8C1614",
"N+	c #6A0B1C",
"O+	c #828189",
"P+	c #AD9996",
"Q+	c #1F3B81",
"R+	c #9E121F",
"S+	c #DA2A26",
"T+	c #B31D21",
"U+	c #96532A",
"V+	c #532E15",
"W+	c #911D1D",
"X+	c #E22B27",
"Y+	c #B02120",
"Z+	c #761123",
"`+	c #233F8C",
" @	c #CCA66E",
".@	c #99849C",
"+@	c #2E53B4",
"@@	c #2D53B3",
"#@	c #9A8A9F",
"$@	c #CCA26B",
"%@	c #223E8A",
"&@	c #750F21",
"*@	c #AF2120",
"=@	c #E12B27",
"-@	c #965229",
";@	c #512F18",
">@	c #9F6132",
",@	c #A3A4A5",
"'@	c #90171F",
")@	c #C12026",
"!@	c #52050E",
"~@	c #1F3170",
"{@	c #3056BA",
"]@	c #3053B5",
"^@	c #3157BD",
"/@	c #335CC5",
"(@	c #3158BD",
"_@	c #2F53B4",
":@	c #1F326F",
"<@	c #8F171F",
"[@	c #A2A4A5",
"}@	c #C77B3F",
"|@	c #965329",
"1@	c #542F18",
"2@	c #C9CACA",
"3@	c #BFC0C1",
"4@	c #E0E0E0",
"5@	c #919292",
"6@	c #172458",
"7@	c #3357BA",
"8@	c #3256B8",
"9@	c #182557",
"0@	c #BFC0C2",
"a@	c #C9C9CA",
"b@	c #D68848",
"c@	c #975229",
"d@	c #030201",
"e@	c #9F6033",
"f@	c #AFB1B3",
"g@	c #E2E3E4",
"h@	c #DFE1E2",
"i@	c #BEC1C4",
"j@	c #16245A",
"k@	c #3357B9",
"l@	c #17255A",
"m@	c #BFC2C4",
"n@	c #DFE2E3",
"o@	c #E3E3E4",
"p@	c #AEB0B1",
"q@	c #AAAAAA",
"r@	c #E8E8E7",
"s@	c #FFFFFF",
"t@	c #B7B8B9",
"u@	c #9A9DA0",
"v@	c #284093",
"w@	c #284092",
"x@	c #172459",
"y@	c #989C9D",
"z@	c #B7B7B8",
"A@	c #FFFFFE",
"B@	c #E7E7E7",
"C@	c #A9A9A9",
"D@	c #96522A",
"E@	c #522E19",
"F@	c #BBBBBB",
"G@	c #D8D8D8",
"H@	c #C3C4C4",
"I@	c #7C7D80",
"J@	c #8F9192",
"K@	c #233781",
"L@	c #263F92",
"M@	c #28449A",
"N@	c #2D4FAE",
"O@	c #3057BC",
"P@	c #3057BD",
"Q@	c #2D4FAF",
"R@	c #274093",
"S@	c #223780",
"T@	c #7D7F80",
"U@	c #C3C3C3",
"V@	c #A06133",
"W@	c #B7B8B8",
"X@	c #9C9D9F",
"Y@	c #87898A",
"Z@	c #565D81",
"`@	c #2A469C",
" #	c #263C8C",
".#	c #213378",
"+#	c #263C89",
"@#	c #253C8C",
"##	c #253D8D",
"$#	c #263C8A",
"%#	c #213479",
"&#	c #565D80",
"*#	c #888A8B",
"=#	c #9B9E9F",
"-#	c #B4B5B5",
";#	c #A16133",
">#	c #542F16",
",#	c #7D7F88",
"'#	c #3055B5",
")#	c #253B89",
"!#	c #3D3F53",
"~#	c #3D4052",
"{#	c #253B8B",
"]#	c #8F4624",
"^#	c #8D4624",
"/#	c #745C55",
"(#	c #4A375A",
"_#	c #1F3A80",
":#	c #1A2F6D",
"<#	c #1B2F6E",
"[#	c #203A81",
"}#	c #4A3759",
"|#	c #735C54",
"1#	c #9F5C2E",
"2#	c #643C21",
"3#	c #663D20",
"4#	c #663C20",
"5#	c #523326",
"6#	c #945631",
"7#	c #7A4225",
"8#	c #764126",
"9#	c #723F25",
"0#	c #663C1F",
"a#	c #774126",
"b#	c #794225",
"c#	c #955631",
"d#	c #62381D",
"e#	c #20120A",
"f#	c #201209",
"g#	c #4E2A17",
"h#	c #4D2917",
"i#	c #3E1F11",
"j#	c #211209",
"k#	c #3E2011",
"l#	c #4E2917",
"m#	c #201208",
"  . + @ @ @ @ + @ . @ @ # $ $ $ $ $ $ . % . @ . & # . . + @ * = ",
"= - ; > , , , ' ) ! ) $ $ ~ { ] ] ^ / $ $ ' ! ) ' ' ' ( _ : < [ ",
"  } | 1 2 3 2 2 2 4 $ 5 6 7 8 8 9 9 0 a b $ 2 3 2 c 2 2 d e f g ",
"= } | h i i i i j $ k l m n o 8 o 9 n p q r $ i s i i i t u v g ",
"  w x y i i z i $ A B 9 n C C 9 9 D n 9 E F A $ G H i i i I v g ",
"= w J j K L M H $ N O 9 n n n n P n n n 9 Q R $ $ i S T i U v g ",
"V } W j K X Y $ Z ` n 9 n n 9 n n C n n n n  ...$ +.S @.i U #.g ",
"V } J $.i i $ %.&.9 n *.n E 9 n 9 n n n 9 n 9 =.-.$ i ;.i U v [ ",
"= w x j j i $ >.,.P 9 n n P '.).).'.D n D n 9 ,.!.$ i ~.i I v {.",
"V w J $.i i $ ].=.0 9 9 ^./.(._._.:./.<.9 [.}.=.|.$ Y 1.i U #.g ",
"= w J $.i i i $ 2.3.4.5.6.7.8.P n 9.0.a.b.4.c.d.$ i i j i I v [ ",
"  e.f.j i g.Y $ h.i.j.k.l.P m.9 P C [.n.o.j.p.q.$ S r.j i U #.{.",
"= s.W $.i t.$ u.v.w.x.j.y.z.A.B.B.A.z.C.p.D.E.F.G.$ r.S i I v [ ",
"= s.f.j i i $ H.I.J.K.L.M.j.N.j.j.j.p.D.O.P.Q.R.S.$ i i T.U v g ",
"= } U.j i Y $ V.W.X.Y.Z.`. +.+ +.+.+.+++Z.Y.X.W.@+$ Y Y #+$+%+g ",
"= w x j Y Y i $ &+*+=+-+;+>+,+'+)+!+~+{+]+=+^+/+$ i S i (+_+#.[ ",
"= w | $.Y Y i Y $ $ :+<+[+}+|+1+2+2+3+4+<+5+$ $ i H 6+Y i I v g ",
"  w x j #+7+8+i @.$ 9+0+a+b+2+{+c+d+b+a+0+e+$ S S i Y r.i I #.{.",
"V w f.$.S f+S 8+i $ g+h+i+j+{+k+l+c+j+m+n+o+$ i i i i ;.i I #.g ",
"= w f.$.i p+S i $ q+r+s+t+u+v+w+w+x+u+y+z+A+B+$ i i S i 8+I #.C+",
"= D+f.j i Y r.$ E+F+G+H+I+J+K+L+M+N+O+P+Q+R+S+T+$ i S r.i U+#.{.",
"= w V+$.i S $ W+X+Y+Z+`+ @.@+@@@@@@@#@$@%@&@*@=@W+$ i i i -@;@[ ",
"= >@V+j i $ ,@'@)@!@~@{@]@^@/@/@/@/@(@_@{@:@!@)@<@[@$ i }@|@1@[ ",
"  w x j $ 2@3@4@5@6@7@/@/@/@/@/@/@/@/@/@/@8@9@5@4@0@a@$ b@c@W d@",
"= e@U.y $ f@g@h@i@j@7@/@/@/@/@/@/@/@/@/@/@k@l@m@n@o@p@$ i I W g ",
"  w f.$ q@r@s@t@u@j@v@{@/@/@/@/@/@/@/@/@{@w@x@y@z@A@B@C@$ D@E@g ",
"V e@f.$ F@G@H@I@J@$ K@L@M@N@O@O@P@O@Q@M@R@S@$ J@T@U@G@F@$ -@#.g ",
"V V@U.$.$ W@X@Y@$ $ Z@`@ #.#+#@###$#%#@#`@&#$ $ *#=#-#$ i U+E@[ ",
"= ;#>#$.i $ $ $ S $ ,#'#_@)#!#$ $ ~#{#]@'#,#$ S $ $ $ i ]#D@%+g ",
"V ;#>#^#i i S S S $ /#(#_#:#$ Y S $ <#[#}#|#$ Y Y i 8+i 1#-@%+g ",
"  2#%+e 3#4#4#4#$ 5#6#7#8#9#$ 0#0#$ 9#a#b#c#5#$ 0#0#0#0#4#d##.g ",
"  e#f#f#f#f#f#f#$ $ g#h#h#i#$ f#j#$ k#g#h#l#$ $ j#f#m#f#f#f#f#g "};
