/* XPM */
static char * mario_bottom_xpm[] = {
"32 32 504 2",
"  	c #010101",
". 	c #442B19",
"+ 	c #442A19",
"@ 	c #452B19",
"# 	c #000000",
"$ 	c #442A18",
"% 	c #452B18",
"& 	c #1F1108",
"* 	c #010000",
"= 	c #A05F32",
"- 	c #96582E",
"; 	c #96582D",
"> 	c #97592D",
", 	c #96592C",
"' 	c #97592C",
") 	c #96592D",
"! 	c #AF6B39",
"~ 	c #B61313",
"{ 	c #CD1311",
"] 	c #D21417",
"^ 	c #C01720",
"/ 	c #C01822",
"( 	c #D11418",
"_ 	c #CE1211",
": 	c #B61312",
"< 	c #96582C",
"[ 	c #96572D",
"} 	c #95572D",
"| 	c #533019",
"1 	c #030101",
"2 	c #9F5F32",
"3 	c #532E17",
"4 	c #5D331A",
"5 	c #653B20",
"6 	c #653C21",
"7 	c #D81212",
"8 	c #D91210",
"9 	c #DA1111",
"0 	c #E5D0D1",
"a 	c #F7EBEB",
"b 	c #F7ECEB",
"c 	c #E4D0D2",
"d 	c #DB1211",
"e 	c #D91212",
"f 	c #653B1F",
"g 	c #62371D",
"h 	c #5E331A",
"i 	c #522F1A",
"j 	c #020101",
"k 	c #8A4524",
"l 	c #A36131",
"m 	c #DA1210",
"n 	c #DC1211",
"o 	c #D31015",
"p 	c #DFD2D3",
"q 	c #E6A9A8",
"r 	c #E6A9A7",
"s 	c #DFD2D2",
"t 	c #DB1210",
"u 	c #B06C39",
"v 	c #98542B",
"w 	c #874121",
"x 	c #532F19",
"y 	c #9F6032",
"z 	c #532E16",
"A 	c #A36133",
"B 	c #DA1311",
"C 	c #CF1016",
"D 	c #E4D5D5",
"E 	c #F5E3E2",
"F 	c #F5E4E3",
"G 	c #E3D5D5",
"H 	c #D01016",
"I 	c #DC1212",
"J 	c #A36130",
"K 	c #955229",
"L 	c #522E16",
"M 	c #A36132",
"N 	c #A36032",
"O 	c #AB6433",
"P 	c #C90F13",
"Q 	c #DA1211",
"R 	c #D91111",
"S 	c #C41017",
"T 	c #AC7E85",
"U 	c #BF9599",
"V 	c #BFC1C6",
"W 	c #BF9498",
"X 	c #AD7F86",
"Y 	c #C51018",
"Z 	c #A46031",
"` 	c #A46033",
" .	c #945229",
"..	c #010100",
"+.	c #522E17",
"@.	c #D2773A",
"#.	c #BB0F19",
"$.	c #9A091B",
"%.	c #AF0C19",
"&.	c #BC0D17",
"*.	c #BC0E17",
"=.	c #AE0C19",
"-.	c #9A081C",
";.	c #BC101A",
">.	c #DB1212",
",.	c #A96433",
"'.	c #A46032",
").	c #522F19",
"!.	c #A26132",
"~.	c #A50F26",
"{.	c #C91019",
"].	c #9D0A1C",
"^.	c #BE161B",
"/.	c #BD1D1A",
"(.	c #B32420",
"_.	c #9E2D29",
":.	c #9E2D28",
"<.	c #9D2C28",
"[.	c #BD1E19",
"}.	c #BE151B",
"|.	c #C91018",
"1.	c #A51126",
"2.	c #A36231",
"3.	c #9F0D29",
"4.	c #970A25",
"5.	c #B91219",
"6.	c #9C2924",
"7.	c #844E34",
"8.	c #F08A56",
"9.	c #F58B54",
"0.	c #F58B55",
"a.	c #EF8A56",
"b.	c #844F35",
"c.	c #B81119",
"d.	c #980A26",
"e.	c #9E0E28",
"f.	c #A86433",
"g.	c #020100",
"h.	c #930B24",
"i.	c #870821",
"j.	c #803E28",
"k.	c #B46A45",
"l.	c #AC6642",
"m.	c #D2845E",
"n.	c #A76E50",
"o.	c #8D5837",
"p.	c #F7A26A",
"q.	c #8E5837",
"r.	c #A56B4D",
"s.	c #D1835D",
"t.	c #AC6743",
"u.	c #B26A46",
"v.	c #813D27",
"w.	c #940C24",
"x.	c #A46131",
"y.	c #EF9A53",
"z.	c #5C1913",
"A.	c #AE6841",
"B.	c #EF925D",
"C.	c #ECC6B8",
"D.	c #DAE4F0",
"E.	c #C1C2D0",
"F.	c #E2AF81",
"G.	c #FBBD82",
"H.	c #FBBD83",
"I.	c #E3B081",
"J.	c #C2C3D1",
"K.	c #D9E4F0",
"L.	c #EBC6B9",
"M.	c #EE925E",
"N.	c #AF6941",
"O.	c #5C1813",
"P.	c #9E6032",
"Q.	c #532F17",
"R.	c #D48547",
"S.	c #DEA470",
"T.	c #825A3C",
"U.	c #A97A52",
"V.	c #F7B77D",
"W.	c #FCEEE8",
"X.	c #79A1CE",
"Y.	c #EEB884",
"Z.	c #FBBE83",
"`.	c #FBBF84",
" +	c #F1BB87",
".+	c #FCEDE7",
"++	c #F7B77C",
"@+	c #AA7B52",
"#+	c #825A3D",
"$+	c #DDA370",
"%+	c #A46132",
"&+	c #9E5F32",
"*+	c #C59365",
"=+	c #E3915B",
"-+	c #9A613D",
";+	c #633112",
">+	c #F7B67C",
",+	c #C1865D",
"'+	c #C2865D",
")+	c #C38960",
"!+	c #FCEDE8",
"~+	c #F8B67C",
"{+	c #673619",
"]+	c #9B613E",
"^+	c #E3925C",
"/+	c #C69265",
"(+	c #C69467",
"_+	c #EFAC74",
":+	c #9B5935",
"<+	c #C1875C",
"[+	c #E8AE7A",
"}+	c #F8DAC9",
"|+	c #946363",
"1+	c #F0B987",
"2+	c #FBD2AB",
"3+	c #FBBF83",
"4+	c #F1B47B",
"5+	c #966465",
"6+	c #E9AE79",
"7+	c #C0865C",
"8+	c #9A5833",
"9+	c #F0AC74",
"0+	c #C69366",
"a+	c #A56130",
"b+	c #532F16",
"c+	c #A7928A",
"d+	c #F8B27B",
"e+	c #BC7F57",
"f+	c #F2BA85",
"g+	c #3C2211",
"h+	c #B1835C",
"i+	c #CB9E78",
"j+	c #D38151",
"k+	c #FBBF85",
"l+	c #FAC087",
"m+	c #D38152",
"n+	c #CC9F7A",
"o+	c #B1825B",
"p+	c #3C2111",
"q+	c #F0B983",
"r+	c #BC7E56",
"s+	c #F8B37A",
"t+	c #F19A53",
"u+	c #955228",
"v+	c #522F18",
"w+	c #8B7770",
"x+	c #7B472E",
"y+	c #F6B67F",
"z+	c #57321D",
"A+	c #67360F",
"B+	c #5B310E",
"C+	c #6D3B23",
"D+	c #F1A36B",
"E+	c #F7AE74",
"F+	c #F6AE74",
"G+	c #F1A46C",
"H+	c #6F3E25",
"I+	c #66360E",
"J+	c #F4B37D",
"K+	c #7A462E",
"L+	c #A46130",
"M+	c #945129",
"N+	c #B2B2B2",
"O+	c #E6915D",
"P+	c #E4A36E",
"Q+	c #683B21",
"R+	c #69380F",
"S+	c #653710",
"T+	c #522C14",
"U+	c #6D3620",
"V+	c #6C3721",
"W+	c #522B13",
"X+	c #6A390F",
"Y+	c #683A1F",
"Z+	c #E68F5C",
"`+	c #D6793A",
" @	c #F19952",
".@	c #A36031",
"+@	c #955E44",
"@@	c #F5A269",
"#@	c #E3A372",
"$@	c #A16440",
"%@	c #6E4229",
"&@	c #592F0D",
"*@	c #693D27",
"=@	c #6A3F28",
"-@	c #59300D",
";@	c #6E4228",
">@	c #A0633F",
",@	c #E3A371",
"'@	c #F4A168",
")@	c #945C40",
"!@	c #F09952",
"~@	c #8F6B5D",
"{@	c #C9794C",
"]@	c #F5A86E",
"^@	c #F1AF76",
"/@	c #E2A976",
"(@	c #EFA16B",
"_@	c #F0A26B",
":@	c #E1A976",
"<@	c #F1B076",
"[@	c #F5A76E",
"}@	c #CA794C",
"|@	c #8E6A5C",
"1@	c #A46030",
"2@	c #A09A9A",
"3@	c #723A40",
"4@	c #442765",
"5@	c #784649",
"6@	c #BF6F4D",
"7@	c #DF905D",
"8@	c #E29965",
"9@	c #BF704D",
"0@	c #774548",
"a@	c #472866",
"b@	c #713A3F",
"c@	c #A0999A",
"d@	c #040101",
"e@	c #9E6133",
"f@	c #8F7979",
"g@	c #C51414",
"h@	c #B6132C",
"i@	c #1E419C",
"j@	c #1E4BAA",
"k@	c #571954",
"l@	c #71091A",
"m@	c #710819",
"n@	c #72091A",
"o@	c #571A54",
"p@	c #1F4BAA",
"q@	c #1D419C",
"r@	c #B8132C",
"s@	c #C51314",
"t@	c #8E7878",
"u@	c #96532A",
"v@	c #532E15",
"w@	c #8D8787",
"x@	c #BF1112",
"y@	c #D41416",
"z@	c #A3122D",
"A@	c #565C95",
"B@	c #7379AB",
"C@	c #8B215D",
"D@	c #B5193E",
"E@	c #B5183D",
"F@	c #8E205D",
"G@	c #7379AA",
"H@	c #575C96",
"I@	c #A5112B",
"J@	c #D51416",
"K@	c #BF1113",
"L@	c #8C8787",
"M@	c #965229",
"N@	c #512F18",
"O@	c #9F6132",
"P@	c #877576",
"Q@	c #BA6164",
"R@	c #A40F1E",
"S@	c #441F63",
"T@	c #DFCD90",
"U@	c #FBD751",
"V@	c #6B6EA0",
"W@	c #2353B6",
"X@	c #2253B6",
"Y@	c #63689D",
"Z@	c #F9E39B",
"`@	c #E0BD3D",
" #	c #441F62",
".#	c #A30F1F",
"+#	c #B96164",
"@#	c #877577",
"##	c #C77B3F",
"$#	c #965329",
"%#	c #542F18",
"&#	c #8C9193",
"*#	c #FEFEFD",
"=#	c #899298",
"-#	c #1A3989",
";#	c #A47C78",
">#	c #C08554",
",#	c #4865C0",
"'#	c #2866D3",
")#	c #4364BE",
"!#	c #BF8555",
"~#	c #A57A75",
"{#	c #193989",
"]#	c #8A8F91",
"^#	c #D68848",
"/#	c #975229",
"(#	c #030201",
"_#	c #9F6033",
":#	c #D0D4D6",
"<#	c #9DA4A7",
"[#	c #1A4093",
"}#	c #2860C8",
"|#	c #2358BE",
"1#	c #2865D3",
"2#	c #2458BE",
"3#	c #285FC6",
"4#	c #1B4194",
"5#	c #9CA3A7",
"6#	c #D1D6D7",
"7#	c #D4DADC",
"8#	c #DADEDE",
"9#	c #BEC8CB",
"0#	c #A3ADB0",
"a#	c #153789",
"b#	c #1B4AAA",
"c#	c #2763CC",
"d#	c #2866D2",
"e#	c #2763CD",
"f#	c #1B49AA",
"g#	c #A4AEB1",
"h#	c #BEC8CC",
"i#	c #DBDFDF",
"j#	c #96522A",
"k#	c #522E19",
"l#	c #878E91",
"m#	c #B1BBBF",
"n#	c #8C999E",
"o#	c #465270",
"p#	c #2357B8",
"q#	c #1E4CAC",
"r#	c #183F9B",
"s#	c #19419A",
"t#	c #174197",
"u#	c #164198",
"v#	c #174199",
"w#	c #174097",
"x#	c #183E9B",
"y#	c #2256B7",
"z#	c #475371",
"A#	c #8B989D",
"B#	c #B1BCBF",
"C#	c #A06133",
"D#	c #D0D0CF",
"E#	c #0C245F",
"F#	c #2660C8",
"G#	c #2867D2",
"H#	c #245CC2",
"I#	c #163D99",
"J#	c #122F75",
"K#	c #858586",
"L#	c #868685",
"M#	c #162F75",
"N#	c #245CC3",
"O#	c #265FC7",
"P#	c #0E235F",
"Q#	c #A16133",
"R#	c #542F16",
"S#	c #331D28",
"T#	c #363156",
"U#	c #2C3A78",
"V#	c #184097",
"W#	c #163C99",
"X#	c #72747F",
"Y#	c #153C9A",
"Z#	c #194198",
"`#	c #2C3B79",
" $	c #363155",
".$	c #331E29",
"+$	c #8F4624",
"@$	c #8D4624",
"#$	c #62340E",
"$$	c #9D5F2B",
"%$	c #733D0F",
"&$	c #683811",
"*$	c #4E291C",
"=$	c #3F2238",
"-$	c #402338",
";$	c #4F291B",
">$	c #683810",
",$	c #723D0E",
"'$	c #9D5E2B",
")$	c #60340D",
"!$	c #9F5C2E",
"~$	c #643C21",
"{$	c #663D20",
"]$	c #663C20",
"^$	c #794418",
"/$	c #844A19",
"($	c #824918",
"_$	c #653719",
":$	c #6C381B",
"<$	c #663C1F",
"[$	c #643719",
"}$	c #824919",
"|$	c #784317",
"1$	c #62381D",
"2$	c #20120A",
"3$	c #201209",
"4$	c #59381B",
"5$	c #704723",
"6$	c #714723",
"7$	c #714722",
"8$	c #462C17",
"9$	c #6D4421",
"0$	c #211209",
"a$	c #6C4320",
"b$	c #472C17",
"c$	c #704623",
"d$	c #58361A",
"e$	c #201208",
"  . + @ @ @ @ + @ . @ . # # # # # # # # . . @ . $ % . . + @ & * ",
"* = - ; > > > , ' ) ! # ~ { ] ^ / ( _ : # ! ) ' , , , < [ } | 1 ",
"  2 3 4 5 6 5 5 5 . # 7 8 9 0 a b c 9 d e # . 6 5 f 5 5 g h i j ",
"* 2 3 k l l l l ! # m n o p q 9 9 r s o n t # ! u l l l v w x j ",
"  y z A l l ! ! # B n d C D 9 E F 9 G H I n d # ! J l l l K x j ",
"* y L M N O ! # P Q n R S T U V V W X Y 9 d d # ! l Z ` l  .x j ",
"..2 +.M N @.! # e Q #.$.%.&.&.&.*.&.&.=.-.;.>.t # ,.Z '.l  .).j ",
"..2 L !.l l # ~.{.].^./.(._.:.:.:.<.<.(.[.}.].|.1.# l 2.l  .x 1 ",
"* y z M M l # 3.4.5.6.# # 7.8.9.0.a.b.# # 6.c.d.e.# l f.l K x g.",
"..y L !.l l # h.i.j.k.l.m.n.o.p.p.q.r.s.t.u.v.i.w.# x.y.l  .).j ",
"* y L !.l l l # z.A.B.C.D.E.F.G.H.I.J.K.L.M.N.O.# l l M l K x 1 ",
"  P.Q.M l R.# S.T.U.V.W.X.X.Y.Z.`. +X.X..+++@+#+$+# %+M l  .).g.",
"* &++.!.l # *+=+-+;+>+W.X.# ,+'+'+)+# X.!+~+{+]+^+/+# Z l K x 1 ",
"* &+Q.M l # (+_+:+<+[+}+X.|+1+2+3+4+5+X.}+6+7+8+9+0+# l a+ .x j ",
"* 2 b+M l # c+d+e+f+g+h+i+j+k+l+3+3+m+n+o+p+q+r+s+# x.x.t+u+v+j ",
"* y z M x.x.# w+x+y+z+A+B+C+D+E+F+G+H+B+I+z+J+K+# l Z l L+M+).1 ",
"* y 3 !.x.x.l # N+O+P+Q+R+S+T+U+V+W+S+X+Y+P+Z+# l J `+x.l K x j ",
"  y z M t+ @.@l # +@@@#@$@%@&@*@=@-@;@>@,@'@)@# Z l x.%+l K ).g.",
"..y Q.!.Z !@Z .@l # ~@{@]@^@/@(@_@:@<@[@}@|@# l l l l 2.l K ).j ",
"* y Q.!.l 1@Z l # 2@3@4@5@6@7@8@8@7@9@0@a@b@c@# l l Z l .@K ).d@",
"* e@Q.M l x.%+# f@g@h@i@j@k@l@m@l@n@o@p@q@r@s@t@# l Z %+l u@).g.",
"* y v@!.l Z # w@x@y@z@A@B@C@D@E@E@D@F@G@H@I@J@K@L@# l l l M@N@1 ",
"* O@v@M l Z # P@Q@R@S@T@U@V@W@X@X@W@Y@Z@`@ #.#+#@## l l ##$#%#1 ",
"  y z M %+# &#*#*#=#-#;#>#,#'#'#'#'#)#!#~#{#=#*#*#]## l ^#/#+.(#",
"* _#b+A .@# :#*#*#<#[#}#|#1#'#'#'#'#'#2#3#4#5#*#*#6## l l K +.j ",
"  y Q.A N # 7#8#9#0#a#b#c#d#d#'#'#'#d#e#f#a#g#h#i#7## l l j#k#j ",
".._#Q.!.Z # l#m#n#o#p#q#r#s#t#u#v#w#s#x#q#y#z#A#B## # x.l M@).j ",
"..C#b+!.Z %+# # D#E#F#G#H#I#J#K#L#M#I#N#'#O#P#D## # Z Z l u@k#1 ",
"* Q#R#!.l Z Z l # S#T#U#V#W#X## # X#Y#Z#`# $.$# Z Z x.l +$j#v+j ",
"..Q#R#@$l l Z # #$$$%$&$*$=$# x.Z # -$;$>$,$'$)$# l .@l !$M@v+j ",
"  ~$v+h {$]$]$# ^$/$($($_$:$# <$<$# :$[$($}$/$|$# <$<$<$]$1$).j ",
"  2$3$3$3$3$3$# 4$5$6$7$8$9$# 3$0$# a$b$6$6$c$d$# 3$e$3$3$3$3$j "};
