/* XPM */
static char * mario_right_xpm[] = {
"32 32 425 2",
"  	c #010101",
". 	c #442B19",
"+ 	c #442A19",
"@ 	c #452B19",
"# 	c #452B18",
"$ 	c #000000",
"% 	c #442A18",
"& 	c #1F1108",
"* 	c #010000",
"= 	c #A05F32",
"- 	c #96582E",
"; 	c #96582D",
"> 	c #97592D",
", 	c #96592C",
"' 	c #97592C",
") 	c #96592D",
"! 	c #AF1A25",
"~ 	c #DF2C28",
"{ 	c #DE2C28",
"] 	c #B01B27",
"^ 	c #96582C",
"/ 	c #96572D",
"( 	c #95572D",
"_ 	c #533019",
": 	c #030101",
"< 	c #9F5F32",
"[ 	c #532E17",
"} 	c #5D331A",
"| 	c #653B20",
"1 	c #653C21",
"2 	c #653C20",
"3 	c #653B1F",
"4 	c #531312",
"5 	c #B01A26",
"6 	c #DF2D29",
"7 	c #DF2D28",
"8 	c #DE2D2A",
"9 	c #B66A70",
"0 	c #070606",
"a 	c #62371D",
"b 	c #5E331A",
"c 	c #522F1A",
"d 	c #020101",
"e 	c #8A4524",
"f 	c #A36131",
"g 	c #A36132",
"h 	c #B16C39",
"i 	c #AE1926",
"j 	c #DE2C29",
"k 	c #D12927",
"l 	c #FEFDFD",
"m 	c #050605",
"n 	c #B06C39",
"o 	c #98542B",
"p 	c #874121",
"q 	c #532F19",
"r 	c #9F6032",
"s 	c #532E16",
"t 	c #A36133",
"u 	c #AF6B39",
"v 	c #A46032",
"w 	c #E6924D",
"x 	c #AB1925",
"y 	c #A21423",
"z 	c #F5F5F6",
"A 	c #E6934E",
"B 	c #A36130",
"C 	c #955229",
"D 	c #522E16",
"E 	c #A36032",
"F 	c #AB6433",
"G 	c #E9944F",
"H 	c #040101",
"I 	c #AB1825",
"J 	c #DF2C29",
"K 	c #D92B29",
"L 	c #981223",
"M 	c #ADAFB3",
"N 	c #050505",
"O 	c #A36033",
"P 	c #A46031",
"Q 	c #A46033",
"R 	c #945229",
"S 	c #010100",
"T 	c #522E17",
"U 	c #D2773A",
"V 	c #A46131",
"W 	c #280507",
"X 	c #DD2D29",
"Y 	c #E02D29",
"Z 	c #D82A28",
"` 	c #D02C29",
" .	c #961322",
"..	c #260507",
"+.	c #3A0E0D",
"@.	c #380E0D",
"#.	c #2B0A0C",
"$.	c #522F19",
"%.	c #A26132",
"&.	c #A81725",
"*.	c #DD2D2A",
"=.	c #AA1523",
"-.	c #DB2B28",
";.	c #D92B2A",
">.	c #981624",
",.	c #230406",
"'.	c #330B0A",
").	c #D32E2B",
"!.	c #D32E2A",
"~.	c #D42E2A",
"{.	c #D42E2B",
"].	c #9A1524",
"^.	c #060504",
"/.	c #A36231",
"(.	c #A41324",
"_.	c #DA2C2A",
":.	c #DD2C28",
"<.	c #DB2B29",
"[.	c #DC2C29",
"}.	c #DC2B29",
"|.	c #DB2C2B",
"1.	c #9D1423",
"2.	c #981524",
"3.	c #060101",
"4.	c #9B1423",
"5.	c #D22F2A",
"6.	c #CD302C",
"7.	c #291D17",
"8.	c #010201",
"9.	c #363636",
"0.	c #353535",
"a.	c #A86433",
"b.	c #020100",
"c.	c #030102",
"d.	c #A21325",
"e.	c #A51224",
"f.	c #DB2E2B",
"g.	c #DC2D2B",
"h.	c #DA2D2A",
"i.	c #9F1424",
"j.	c #9E1424",
"k.	c #9D1424",
"l.	c #9A1726",
"m.	c #0B0302",
"n.	c #1D120C",
"o.	c #1C110C",
"p.	c #222222",
"q.	c #232221",
"r.	c #D79367",
"s.	c #060606",
"t.	c #EF9A53",
"u.	c #A31325",
"v.	c #A51225",
"w.	c #9C1626",
"x.	c #150D0A",
"y.	c #130C09",
"z.	c #140D09",
"A.	c #552B1A",
"B.	c #060403",
"C.	c #D89164",
"D.	c #D59164",
"E.	c #FEFEFE",
"F.	c #FCFCFA",
"G.	c #D79468",
"H.	c #060506",
"I.	c #934E26",
"J.	c #9E6032",
"K.	c #532F17",
"L.	c #9E1727",
"M.	c #A11626",
"N.	c #9E1726",
"O.	c #060302",
"P.	c #F2BB8E",
"Q.	c #F3BB8F",
"R.	c #F1BA90",
"S.	c #7E4628",
"T.	c #EFB98F",
"U.	c #EEBA8E",
"V.	c #FEFEFD",
"W.	c #F2BD92",
"X.	c #000202",
"Y.	c #A46132",
"Z.	c #9E5F32",
"`.	c #C97B40",
" +	c #9E1828",
".+	c #030000",
"++	c #020000",
"@+	c #050302",
"#+	c #F2BA8E",
"$+	c #D89061",
"%+	c #7F4427",
"&+	c #7C4629",
"*+	c #090604",
"=+	c #EEB88C",
"-+	c #FEFDFB",
";+	c #F3BA8E",
">+	c #F3BB8E",
",+	c #000001",
"'+	c #542D1C",
")+	c #572E1B",
"!+	c #7D4729",
"~+	c #532D1C",
"{+	c #080302",
"]+	c #EFB98D",
"^+	c #F1BA8D",
"/+	c #F3B98C",
"(+	c #F3BA8D",
"_+	c #F1BA8F",
":+	c #040404",
"<+	c #A56130",
"[+	c #532F16",
"}+	c #7C4528",
"|+	c #D78F61",
"1+	c #F2BB91",
"2+	c #040201",
"3+	c #0A0605",
"4+	c #F0BB91",
"5+	c #040202",
"6+	c #A67E5F",
"7+	c #D69062",
"8+	c #F3BA8C",
"9+	c #F1BB8F",
"0+	c #F19A53",
"a+	c #955228",
"b+	c #522F18",
"c+	c #7E4527",
"d+	c #7B4529",
"e+	c #F1BA8E",
"f+	c #F1B98D",
"g+	c #F2BA8D",
"h+	c #F1BB90",
"i+	c #552B19",
"j+	c #D79165",
"k+	c #D89265",
"l+	c #D69266",
"m+	c #A46130",
"n+	c #945129",
"o+	c #7C4628",
"p+	c #7D4527",
"q+	c #582D19",
"r+	c #572D1B",
"s+	c #552D1B",
"t+	c #070402",
"u+	c #D69164",
"v+	c #F3BA8B",
"w+	c #F3BB8C",
"x+	c #F2BC8F",
"y+	c #D6793A",
"z+	c #F19952",
"A+	c #A36031",
"B+	c #562D1B",
"C+	c #010102",
"D+	c #D79163",
"E+	c #D79264",
"F+	c #F2BB90",
"G+	c #F4B98D",
"H+	c #F4BB8F",
"I+	c #956344",
"J+	c #926246",
"K+	c #010001",
"L+	c #030303",
"M+	c #F09952",
"N+	c #010103",
"O+	c #2B3E86",
"P+	c #2D3E83",
"Q+	c #000102",
"R+	c #030100",
"S+	c #050201",
"T+	c #D89163",
"U+	c #D69064",
"V+	c #0A0808",
"W+	c #A46030",
"X+	c #202C61",
"Y+	c #2B3F86",
"Z+	c #050003",
"`+	c #D82F2B",
" @	c #D7302E",
".@	c #020103",
"+@	c #2D3F85",
"@@	c #020506",
"#@	c #F19A54",
"$@	c #9E6133",
"%@	c #EC8D49",
"&@	c #2C3F86",
"*@	c #040002",
"=@	c #9F1524",
"-@	c #DE2E2B",
";@	c #D2312D",
">@	c #010106",
",@	c #334C9B",
"'@	c #060103",
")@	c #9B1926",
"!@	c #A36030",
"~@	c #96532A",
"{@	c #532E15",
"]@	c #954F26",
"^@	c #111A3F",
"/@	c #2C3E87",
"(@	c #060102",
"_@	c #A51323",
":@	c #DB2F2C",
"<@	c #140101",
"[@	c #010205",
"}@	c #3A5BB6",
"|@	c #A69087",
"1@	c #0F0102",
"2@	c #070808",
"3@	c #965229",
"4@	c #512F18",
"5@	c #9F6132",
"6@	c #9A552B",
"7@	c #1E2C62",
"8@	c #2B3E88",
"9@	c #A01424",
"0@	c #270605",
"a@	c #260605",
"b@	c #010204",
"c@	c #3A59B1",
"d@	c #F0C343",
"e@	c #385AB3",
"f@	c #3959B1",
"g@	c #050506",
"h@	c #D68647",
"i@	c #C77B3F",
"j@	c #965329",
"k@	c #542F18",
"l@	c #944E28",
"m@	c #1E2C63",
"n@	c #1F0708",
"o@	c #B0B5B8",
"p@	c #F5F6F5",
"q@	c #D2D3D5",
"r@	c #A8A9A9",
"s@	c #2C4892",
"t@	c #454D81",
"u@	c #365BBC",
"v@	c #375BBB",
"w@	c #D68848",
"x@	c #975229",
"y@	c #030201",
"z@	c #9F6033",
"A@	c #C77B41",
"B@	c #030405",
"C@	c #AEB2B6",
"D@	c #F9F9FA",
"E@	c #FFFFFF",
"F@	c #E4E5E7",
"G@	c #3659B8",
"H@	c #355BBD",
"I@	c #375BBA",
"J@	c #D58747",
"K@	c #2B3E87",
"L@	c #040405",
"M@	c #B5BABE",
"N@	c #FFFFFE",
"O@	c #D6D8DA",
"P@	c #020306",
"Q@	c #355ABC",
"R@	c #375BB9",
"S@	c #050606",
"T@	c #D27637",
"U@	c #96522A",
"V@	c #522E19",
"W@	c #222F66",
"X@	c #1C2752",
"Y@	c #909397",
"Z@	c #CBCBCB",
"`@	c #CBCACA",
" #	c #1B2757",
".#	c #2D4291",
"+#	c #2D428E",
"@#	c #182039",
"##	c #AA6433",
"$#	c #A06133",
"%#	c #E9934D",
"&#	c #212F69",
"*#	c #1A2756",
"=#	c #192656",
"-#	c #233A78",
";#	c #243A76",
">#	c #202E67",
",#	c #202F6A",
"'#	c #223069",
")#	c #A16133",
"!#	c #542F16",
"~#	c #B36D39",
"{#	c #020204",
"]#	c #20306C",
"^#	c #1F2F6C",
"/#	c #1F2F6E",
"(#	c #294695",
"_#	c #2B4794",
":#	c #E7904A",
"<#	c #8F4624",
"[#	c #8D4624",
"}#	c #351B11",
"|#	c #492A1A",
"1#	c #4A2A19",
"2#	c #4A2A1A",
"3#	c #4C2A1A",
"4#	c #69432B",
"5#	c #4A2B1C",
"6#	c #B46E3A",
"7#	c #9F5C2E",
"8#	c #643C21",
"9#	c #663D20",
"0#	c #663C20",
"a#	c #663C1F",
"b#	c #542A1A",
"c#	c #7A4325",
"d#	c #7A4224",
"e#	c #965B34",
"f#	c #784426",
"g#	c #070707",
"h#	c #62381D",
"i#	c #20120A",
"j#	c #201209",
"k#	c #211209",
"l#	c #22110A",
"m#	c #321B10",
"n#	c #331C10",
"o#	c #321C10",
"p#	c #321C11",
"q#	c #080808",
"r#	c #201208",
"  . + @ @ @ @ + @ . @ @ # @ @ @ $ $ $ $ $ . @ . % # . . + @ & * ",
"* = - ; > > > , ' ) ' ' ' $ $ $ ! ~ ~ { ] $ ) ' , , , ^ / ( _ : ",
"  < [ } | 1 | | | 2 2 3 $ 4 5 ~ ~ 6 6 7 8 9 0 1 | 3 | | a b c d ",
"* < [ e f f f f g h f $ i j 6 ~ ~ 6 6 ~ k l m f n f f f o p q d ",
"  r s t f f u f v w $ x j ~ 7 7 ~ 6 6 8 y z m f A B f f f C q d ",
"* r D g E F G B g H I J 7 6 ~ ~ 7 6 J K L M N O f f P Q f R q d ",
"S < T g E U V $ $ W X 6 Y 6 Y 6 ~ Z `  ...+.+.+.@.#.P v f R $.d ",
"S < D %.f f $ &.*.=.j 6 7 7 ~ -.;.>.,.'.=.).!.~.{.].^./.f R q : ",
"* r s g g d (._.:.{ ~ <.[.}.|.1.2.3.4.5.6.7.8.9.0.9.9.a.f C q b.",
"S r D %.f c.d.e.f.g.h.i.j.k.l.m.  n.o.p.q.r.s.f f P V t.f R $.d ",
"* r D %.f d u.e.e.v.w.x.y.z.: A.B.C.D.E.F.G.H.I.f f f g f C q : ",
"  J.K.g f $ L.e.M.N.O.P.Q.R.d S.B.T.U.V.B.W.$ $ X.P Y.g f R $.b.",
"* Z.T %.f `.$  +.+++@+#+$+#+d %+&+*+=+-+$ ;+>+;+R.,+Y.P f C q : ",
"* Z.K.g f f f ++'+)+B.#+$+C..+!+~+{+T.]+^+/+(+(+(+_+:+f <+R q d ",
"* < [+g f V P f : }+O._+>+|+1+2+3+4+* 5+6+7+Q.8+/+9+N V 0+a+b+d ",
"* r s g V V f v d c+d+d e+f+/+g+#+h+* ++  : i+j+k+l+N f m+n+$.: ",
"* r [ %.V V f : o+p+q+r+s+t+u+;+v+w+x+l+S   d d   0 y+V f C q d ",
"  r s g 0+z+A+S s+s+B+'+d C+{+D+E+F+G+H+I+J+K+L+P f V Y.f C $.b.",
"S r K.%.P M+P A+* S d N+O+P+Q+R+.+S+T+T+U+V+V f f f f /.f C $.d ",
"* r K.%.f W+P f g P f X+Y+Z+`+ @.@+@$ $ @@Y.v #@f f P f A+C $.H ",
"* $@K.g f V Y.P P %@$ &@*@=@-@X ;@>@,@'@)@L+E !@f f P Y.f ~@$.b.",
"* r {@%.f P V P g ]@^@/@(@_@-@:@<@[@}@|@1@2@V g f `.f f f 3@4@: ",
"* 5@{@g f P 6@f g $ 7@8@(@9@0@a@  b@c@d@e@f@g@f f h@f f i@j@k@: ",
"  r s g Y.g l@V Y.$ m@8@C+n@o@p@q@r@s@t@u@v@g@P A+g f f w@x@T y@",
"* z@[+t A+A@O P P $ m@8@B@C@D@E@E@F@[@G@H@I@N P Y.V P f f C T d ",
"  r K.t E J@g v Y.$ 7@K@L@M@N@E@E@O@P@Q@Q@R@S@V f V T@f f U@V@d ",
"S z@K.%.P P V Y.P V $ W@X@Y@Z@Z@Z@`@ #.#+#@#$ P P V ##V f 3@$.d ",
"S $#[+%.P Y.Y.P P B %#$ &# #*#=#-#;#>#,#'#$ P W+V P P P f ~@V@: ",
"* )#!#%.f P P f P P ~#$ {#]#^#/#(#_#  L+$ :#P P P P V f <#U@b+d ",
"S )#!#[#f f P P P P P P   }#|#1#2#3#4#5#f 6#f V V f A+f 7#3@b+d ",
"  8#b+b 9#0#0#0#0#a#a#a#d b#c#c#c#d#e#f#g#a#a#a#a#a#a#a#0#h#$.d ",
"  i#j#j#j#j#j#j#j#k#k#k#  l#m#n#o#o#o#p#q#k#j#j#k#j#r#j#j#j#j#d "};
