/* XPM */
static char * mario_left_xpm[] = {
"32 32 434 2",
"  	c #010101",
". 	c #442B19",
"+ 	c #442A19",
"@ 	c #452B19",
"# 	c #000000",
"$ 	c #460C0F",
"% 	c #5D1514",
"& 	c #5C1514",
"* 	c #561313",
"= 	c #442B18",
"- 	c #442A18",
"; 	c #452B18",
"> 	c #1F1108",
", 	c #010000",
"' 	c #A05F32",
") 	c #96582E",
"! 	c #96582D",
"~ 	c #97592D",
"{ 	c #96592C",
"] 	c #97592C",
"^ 	c #6C1118",
"/ 	c #BF1F26",
"( 	c #DF2C28",
"_ 	c #D52828",
": 	c #A01A24",
"< 	c #35070B",
"[ 	c #96592D",
"} 	c #95592D",
"| 	c #96582C",
"1 	c #96572D",
"2 	c #95572D",
"3 	c #533019",
"4 	c #030101",
"5 	c #9F5F32",
"6 	c #532E17",
"7 	c #5D331A",
"8 	c #653B20",
"9 	c #653C21",
"0 	c #663C3F",
"a 	c #C55A5E",
"b 	c #DF2D28",
"c 	c #D62927",
"d 	c #A21923",
"e 	c #4E1111",
"f 	c #653B1F",
"g 	c #62371D",
"h 	c #5E331A",
"i 	c #522F1A",
"j 	c #020101",
"k 	c #8A4524",
"l 	c #A36131",
"m 	c #8F8F8F",
"n 	c #FEFEFE",
"o 	c #D82927",
"p 	c #9F1723",
"q 	c #B06C39",
"r 	c #98542B",
"s 	c #874121",
"t 	c #532F19",
"u 	c #9F6032",
"v 	c #532E16",
"w 	c #A36133",
"x 	c #AF6B39",
"y 	c #8A8B8B",
"z 	c #B71B25",
"A 	c #DF2D29",
"B 	c #D62A27",
"C 	c #9C1622",
"D 	c #A36132",
"E 	c #E6934E",
"F 	c #A36130",
"G 	c #955229",
"H 	c #522E16",
"I 	c #A36032",
"J 	c #AB6433",
"K 	c #5E6062",
"L 	c #A79197",
"M 	c #AF1B24",
"N 	c #DA2B28",
"O 	c #D62827",
"P 	c #9B1420",
"Q 	c #A36033",
"R 	c #A46031",
"S 	c #A46033",
"T 	c #945229",
"U 	c #010100",
"V 	c #522E17",
"W 	c #30090A",
"X 	c #3A0E0D",
"Y 	c #340B0C",
"Z 	c #540A12",
"` 	c #AA1923",
" .	c #D32B28",
"..	c #DE2C28",
"+.	c #CA2724",
"@.	c #2A0609",
"#.	c #A96433",
"$.	c #A46032",
"%.	c #522F19",
"&.	c #A26132",
"*.	c #620B15",
"=.	c #B52228",
"-.	c #D42D2A",
";.	c #D32E2A",
">.	c #D42E2A",
",.	c #C82829",
"'.	c #91131F",
").	c #2E0909",
"!.	c #500A11",
"~.	c #AC1A24",
"{.	c #DA2A28",
"].	c #DC2C29",
"^.	c #B31B26",
"/.	c #D72A27",
"(.	c #9E1522",
"_.	c #A36231",
":.	c #363636",
"<.	c #292929",
"[.	c #130D0A",
"}.	c #772520",
"|.	c #D22E29",
"1.	c #C72A29",
"2.	c #861320",
"3.	c #48060C",
"4.	c #9B1323",
"5.	c #AA1B25",
"6.	c #DB2C29",
"7.	c #DC2C2A",
"8.	c #DC2D28",
"9.	c #D52A29",
"0.	c #9B1223",
"a.	c #A86433",
"b.	c #020100",
"c.	c #EE9852",
"d.	c #BC6B33",
"e.	c #785137",
"f.	c #B67C57",
"g.	c #202021",
"h.	c #221F1F",
"i.	c #1C110B",
"j.	c #190F0A",
"k.	c #480A0F",
"l.	c #9E1424",
"m.	c #9D1524",
"n.	c #9D1424",
"o.	c #AA1B27",
"p.	c #DB2D2A",
"q.	c #D42A28",
"r.	c #A51224",
"s.	c #EF9A53",
"t.	c #795139",
"u.	c #E2BAA3",
"v.	c #FDFDFC",
"w.	c #F6E9E3",
"x.	c #D89062",
"y.	c #C1835C",
"z.	c #4D2716",
"A.	c #070504",
"B.	c #140D0A",
"C.	c #120C09",
"D.	c #401113",
"E.	c #A11425",
"F.	c #A41124",
"G.	c #A41123",
"H.	c #9C1323",
"I.	c #9E6032",
"J.	c #532F17",
"K.	c #D48547",
"L.	c #866850",
"M.	c #CB9E7A",
"N.	c #878686",
"O.	c #FBF0E8",
"P.	c #F1BA8E",
"Q.	c #D6A782",
"R.	c #703D23",
"S.	c #F3BA8D",
"T.	c #F3BA8E",
"U.	c #DCA880",
"V.	c #38090D",
"W.	c #A11525",
"X.	c #A41225",
"Y.	c #961625",
"Z.	c #9E5F32",
"`.	c #9E7B60",
" +	c #F3BB8E",
".+	c #F2BA8E",
"++	c #CB9D79",
"@+	c #868585",
"#+	c #FCEFE4",
"$+	c #D5A680",
"%+	c #7D4527",
"&+	c #703E24",
"*+	c #EEB184",
"=+	c #DE996B",
"-+	c #DCA981",
";+	c #30060A",
">+	c #971323",
",+	c #A46132",
"'+	c #9F7B5F",
")+	c #F2BB8E",
"!+	c #F2B98C",
"~+	c #F0B98C",
"{+	c #EFB98D",
"]+	c #D4A783",
"^+	c #5E321D",
"/+	c #724026",
"(+	c #D99060",
"_+	c #DE9A6C",
":+	c #DDAA80",
"<+	c #1C0E09",
"[+	c #582C19",
"}+	c #4E2918",
"|+	c #A56130",
"1+	c #532F16",
"2+	c #A07C61",
"3+	c #F3B98C",
"4+	c #EAAF83",
"5+	c #C88961",
"6+	c #8E6D53",
"7+	c #775C46",
"8+	c #D8A882",
"9+	c #030201",
"0+	c #EDB285",
"a+	c #F3BB8F",
"b+	c #DBAA81",
"c+	c #2E1B12",
"d+	c #733F23",
"e+	c #A46131",
"f+	c #F19A53",
"g+	c #955228",
"h+	c #522F18",
"i+	c #8D6044",
"j+	c #D89265",
"k+	c #D89166",
"l+	c #B57651",
"m+	c #482415",
"n+	c #775B45",
"o+	c #F2BA8D",
"p+	c #F1B98C",
"q+	c #DBA980",
"r+	c #311C12",
"s+	c #7B4427",
"t+	c #733E23",
"u+	c #A46130",
"v+	c #945129",
"w+	c #714C34",
"x+	c #DE9D71",
"y+	c #F3BB8C",
"z+	c #EEB488",
"A+	c #C3825A",
"B+	c #24130C",
"C+	c #552D1A",
"D+	c #562D1B",
"E+	c #5E321C",
"F+	c #7C4426",
"G+	c #713F24",
"H+	c #D6793A",
"I+	c #F19952",
"J+	c #A36031",
"K+	c #503524",
"L+	c #936142",
"M+	c #B2825F",
"N+	c #F4BA8C",
"O+	c #EDB489",
"P+	c #D89163",
"Q+	c #C2835B",
"R+	c #030102",
"S+	c #010001",
"T+	c #21110A",
"U+	c #552D1B",
"V+	c #542D1B",
"W+	c #552C1A",
"X+	c #4F2818",
"Y+	c #F09952",
"Z+	c #D88F61",
"`+	c #D89164",
" @	c #BE825A",
".@	c #030000",
"+@	c #121A3B",
"@@	c #2B3E86",
"#@	c #263779",
"$@	c #A46030",
"%@	c #0E1A41",
"&@	c #283777",
"*@	c #661413",
"=@	c #DC302C",
"-@	c #C32B27",
";@	c #121A3A",
">@	c #2A3D89",
",@	c #F19A54",
"'@	c #040101",
")@	c #9E6133",
"!@	c #54060E",
"~@	c #85111F",
"{@	c #15224C",
"]@	c #2B4286",
"^@	c #661512",
"/@	c #D72F2B",
"(@	c #DE2D29",
"_@	c #D42A29",
":@	c #8D131F",
"<@	c #111A3B",
"[@	c #26377B",
"}@	c #A36030",
"|@	c #96532A",
"1@	c #532E15",
"2@	c #060102",
"3@	c #574A43",
"4@	c #938796",
"5@	c #3350A2",
"6@	c #050101",
"7@	c #6A1412",
"8@	c #DF2E29",
"9@	c #93101F",
"0@	c #111939",
"a@	c #283A83",
"b@	c #C97B40",
"c@	c #965229",
"d@	c #512F18",
"e@	c #9F6132",
"f@	c #9A552B",
"g@	c #1C2F61",
"h@	c #3659B5",
"i@	c #88809B",
"j@	c #D4AF6A",
"k@	c #0C0202",
"l@	c #250505",
"m@	c #500A10",
"n@	c #92101F",
"o@	c #111A3A",
"p@	c #1A2553",
"q@	c #D68647",
"r@	c #C77B3F",
"s@	c #965329",
"t@	c #542F18",
"u@	c #944E28",
"v@	c #1C3168",
"w@	c #345BBE",
"x@	c #3A57AE",
"y@	c #3F4C87",
"z@	c #5B6693",
"A@	c #B2B3B3",
"B@	c #D9DADC",
"C@	c #A1A4A8",
"D@	c #1B0304",
"E@	c #2A3D8A",
"F@	c #1A2654",
"G@	c #D68848",
"H@	c #975229",
"I@	c #9F6033",
"J@	c #C77B41",
"K@	c #1C3067",
"L@	c #355BBE",
"M@	c #345ABC",
"N@	c #2F4D9F",
"O@	c #717172",
"P@	c #EAEBEC",
"Q@	c #9DA0A4",
"R@	c #101939",
"S@	c #1A2554",
"T@	c #D58747",
"U@	c #355ABD",
"V@	c #345ABD",
"W@	c #304EA2",
"X@	c #6B6C6D",
"Y@	c #DFE1E2",
"Z@	c #A3A8AB",
"`@	c #101938",
" #	c #D27637",
".#	c #96522A",
"+#	c #522E19",
"@#	c #1D2B5B",
"##	c #2C4291",
"$#	c #293C84",
"%#	c #676A7B",
"&#	c #CBCBCB",
"*#	c #C1C2C2",
"=#	c #83868C",
"-#	c #1F2B60",
";#	c #1D2859",
">#	c #AA6433",
",#	c #A06133",
"'#	c #1F2E6B",
")#	c #202E6A",
"!#	c #213169",
"~#	c #223A78",
"{#	c #223773",
"]#	c #1A2555",
"^#	c #1B2656",
"/#	c #1D2A5A",
"(#	c #202F6A",
"_#	c #A16133",
":#	c #542F16",
"<#	c #B36D39",
"[#	c #111F48",
"}#	c #284696",
"|#	c #28428E",
"1#	c #20306E",
"2#	c #202F6C",
"3#	c #1D2B62",
"4#	c #A56132",
"5#	c #E7904A",
"6#	c #8F4624",
"7#	c #8D4624",
"8#	c #502F1E",
"9#	c #643F28",
"0#	c #4A2A19",
"a#	c #4A2A1A",
"b#	c #472819",
"c#	c #2E180E",
"d#	c #B46E3A",
"e#	c #9F5C2E",
"f#	c #643C21",
"g#	c #663D20",
"h#	c #663C20",
"i#	c #663C1F",
"j#	c #3E2112",
"k#	c #824928",
"l#	c #8F5530",
"m#	c #794324",
"n#	c #794224",
"o#	c #7A4324",
"p#	c #743F23",
"q#	c #4A2616",
"r#	c #62381D",
"s#	c #20120A",
"t#	c #201209",
"u#	c #211209",
"v#	c #150B06",
"w#	c #321C10",
"x#	c #321C0F",
"y#	c #2F1A0F",
"z#	c #1E0F08",
"A#	c #201208",
"  . + @ @ @ @ + @ . # $ % & * # # = = . = . @ . - ; . . + @ > , ",
", ' ) ! ~ ~ ~ { ] # ^ / ( ( _ : * < # [ } { [ ] { { { | 1 2 3 4 ",
"  5 6 7 8 9 8 8 # 0 a ( ( b b ( c d e # f f 8 9 8 f 8 8 g h i j ",
", 5 6 k l l l l # m n o ( ( ( ( ( ( c p # l l l q l l l r s t j ",
"  u v w l l x l # y n z A A A A ( ( ( B C # D l E F l l l G t j ",
", u H D I J # # # K L M N ( ( ( ( ( b ( O P # Q l l R S l T t j ",
"U 5 V D I # W X X X Y Z `  .N ( ( A A ( ..+.@.# # #.R $.l T %.j ",
"U 5 H &.# *.=.-.;.>.,.'.).!.~.{.].A A b ..c ^./.(.# l _.l T t 4 ",
", u v D # :.:.:.<.[.}.|.1.2.3.4.5.6.].7.].....8.9.0.# a.l G t b.",
"U u H &.l l F c.d.e.f.g.h.i.j.# k.l.m.n.o.7.p.q.r.4.# s.l T %.j ",
", u H &.l l l l l t.u.v.w.x.y.# z.A.B.C.D.E.F.G.F.H.# D l G t 4 ",
"  I.J.D l K.# # # L.M.N.O.P.Q.# R.# S.T.U.V.W.W.X.Y.# D l T %.b.",
", Z.V &.l # `. +T..+++@+#+$+# %+&+# *+=+-+, b.;+>+# ,+R l G t 4 ",
", Z.J.D # '+)+S.S.S.!+~+{+]+# ^+/+# (+_+:+<+[+}+# D l l |+T t j ",
", 5 1+D # 2+S.3+T.4+5+6+  7+8+9+# 0+=+a+b+c+d+# e+R e+e+f+g+h+j ",
", u v D # i+j+k+l+m+    , n+S.o+o+3+p+q+r+s+t+# l l R l u+v+%.4 ",
", u 6 &.e+# j j j     w+x+)+y+3+z+A+B+C+D+E+F+G+# F H+e+l G t j ",
"  u v D f+I+J+l # K+L+M+N+S.O+P+Q+R+S+T+U+V+W+X+# l e+,+l G %.b.",
"U u J.&.R Y+R J+l # t.Z+`+ @# .@, +@@@#@# # # # l l l _.l G %.j ",
", u J.&.l $@R l D R # # # %@&@*@=@-@;@>@# ,+$.,@l l R l J+G %.'@",
", )@J.D l e+,+R R # !@~@{@]@^@/@(@_@:@<@[@# I }@l l R ,+l |@%.b.",
", u 1@&.l R e+R D # 2@3@4@5@6@7@8@9.9@0@a@# e+D l b@l l l c@d@4 ",
", e@1@D l R f@l # g@h@i@j@5@  k@l@m@n@o@>@p@# l l q@l l r@s@t@4 ",
"  u v D ,+D u@e+# v@w@x@y@z@A@B@n C@D@0@E@F@# R J+D l l G@H@V 9+",
", I@1+w J+J@Q R # K@L@M@N@O@P@n n n Q@R@E@S@# R ,+e+R l l G V j ",
"  u J.w I T@D $.# v@U@V@W@X@Y@n n n Z@`@E@S@# e+l e+ #l l .#+#j ",
"U I@J.&.R R e+,+R # @###$#%#&#&#&#*#=#-#;## R R R e+>#e+l c@%.j ",
"U ,#1+&.R ,+,+R R F # '#)#!#~#{#]#^#/#(## R R $@e+R R R l |@+#4 ",
", _#:#&.l R R l R R <##   [#}#|#1#2#3## 4#5#R R R R e+l 6#.#h+j ",
"U _#:#7#l l R R R R R # 8#9#0#0#a#b#c## l d#l e+e+l J+l e#c@h+j ",
"  f#h+h g#h#h#h#h#i## j#k#l#m#n#o#p#q## i#i#i#i#i#i#i#i#h#r#%.j ",
"  s#t#t#t#t#t#t#t#u## v#w#x#w#w#w#y#z## t#u#t#t#u#t#A#t#t#t#t#j "};
