/* XPM */
static char * player_left_xpm[] = {
"32 32 504 2",
"  	c #000000",
". 	c #301C00",
"+ 	c #301300",
"@ 	c #311400",
"# 	c #311C00",
"$ 	c #2F1400",
"% 	c #2A1000",
"& 	c #3D0103",
"* 	c #4D0300",
"= 	c #4C0300",
"- 	c #470200",
"; 	c #230A01",
"> 	c #2D1200",
", 	c #2E1400",
"' 	c #341C00",
") 	c #301C0E",
"! 	c #321500",
"~ 	c #301B00",
"{ 	c #180900",
"] 	c #010000",
"^ 	c #0E0D00",
"/ 	c #893800",
"( 	c #7F3300",
"_ 	c #803400",
": 	c #813500",
"< 	c #803600",
"[ 	c #7E3500",
"} 	c #6E2C00",
"| 	c #640708",
"1 	c #B10C07",
"2 	c #D01200",
"3 	c #C50F00",
"4 	c #930A0A",
"5 	c #4D0800",
"6 	c #330304",
"7 	c #511F00",
"8 	c #7A3200",
"9 	c #803500",
"0 	c #813600",
"a 	c #803300",
"b 	c #7E3300",
"c 	c #401A00",
"d 	c #020000",
"e 	c #883800",
"f 	c #421900",
"g 	c #4B1C00",
"h 	c #4F1F00",
"i 	c #4E1F00",
"j 	c #461B00",
"k 	c #3D0A03",
"l 	c #900F04",
"m 	c #CD0B00",
"n 	c #CD0C00",
"o 	c #C40800",
"p 	c #93040A",
"q 	c #420300",
"r 	c #341100",
"s 	c #4C1E00",
"t 	c #502000",
"u 	c #4E1D00",
"v 	c #4C1C00",
"w 	c #3E1700",
"x 	c #772600",
"y 	c #8D3B00",
"z 	c #7D3300",
"A 	c #702E00",
"B 	c #923500",
"C 	c #CA1200",
"D 	c #D11400",
"E 	c #D21500",
"F 	c #C81200",
"G 	c #940B0C",
"H 	c #592200",
"I 	c #873800",
"J 	c #994200",
"K 	c #833100",
"L 	c #752500",
"M 	c #401800",
"N 	c #010D00",
"O 	c #883900",
"P 	c #431A00",
"Q 	c #8C3A00",
"R 	c #984000",
"S 	c #7E3200",
"T 	c #994301",
"U 	c #843401",
"V 	c #AC0C0A",
"W 	c #D21600",
"X 	c #D11500",
"Y 	c #D61C00",
"Z 	c #D11300",
"` 	c #C81300",
" .	c #930A0C",
"..	c #582100",
"+.	c #883700",
"@.	c #DB6300",
"#.	c #8E3C00",
"$.	c #813100",
"%.	c #421A00",
"&.	c #8D3A00",
"*.	c #8D3900",
"=.	c #943C00",
"-.	c #D55F00",
";.	c #783000",
">.	c #532004",
",.	c #6E2907",
"'.	c #A40C09",
").	c #CC1400",
"!.	c #D91E00",
"~.	c #C91300",
"{.	c #92090C",
"].	c #521E00",
"^.	c #863500",
"/.	c #8E3A00",
"(.	c #8D3800",
"_.	c #803100",
":.	c #010100",
"<.	c #411900",
"[.	c #8B3800",
"}.	c #A84200",
"|.	c #2F0401",
"1.	c #370700",
"2.	c #330501",
"3.	c #500408",
"4.	c #A4120A",
"5.	c #C41300",
"6.	c #D81D00",
"7.	c #D92200",
"8.	c #BC1200",
"9.	c #2A0303",
"0.	c #360700",
"a.	c #501E00",
"b.	c #8F3B00",
"c.	c #8E3900",
"d.	c #3F1800",
"e.	c #8B3A00",
"f.	c #7C3300",
"g.	c #5D050A",
"h.	c #A70F06",
"i.	c #C51400",
"j.	c #C41500",
"k.	c #C51500",
"l.	c #B91101",
"m.	c #88080C",
"n.	c #2D0400",
"o.	c #4C0507",
"p.	c #A10C0A",
"q.	c #CC1200",
"r.	c #CD1400",
"s.	c #D71D00",
"t.	c #D01500",
"u.	c #A80C0B",
"v.	c #95090D",
"w.	c #622300",
"x.	c #8A3A00",
"y.	c #8D3D00",
"z.	c #3E1600",
"A.	c #401600",
"B.	c #4E1B00",
"C.	c #1B0800",
"D.	c #681200",
"E.	c #C21500",
"F.	c #B71200",
"G.	c #7D090D",
"H.	c #460306",
"I.	c #930910",
"J.	c #9E0C0A",
"K.	c #CD1300",
"L.	c #D01400",
"M.	c #C61200",
"N.	c #930811",
"O.	c #361201",
"P.	c #934000",
"Q.	c #0E0E00",
"R.	c #E66700",
"S.	c #983D00",
"T.	c #6D2B00",
"U.	c #8F3900",
"V.	c #2F0E01",
"W.	c #2E0E00",
"X.	c #2A0F00",
"Y.	c #1F0900",
"Z.	c #050000",
"`.	c #450405",
" +	c #960910",
".+	c #940A0F",
"++	c #950910",
"@+	c #9F0C0C",
"#+	c #CD1200",
"$+	c #C51200",
"%+	c #9D0812",
"&+	c #E76B00",
"*+	c #8C3B00",
"=+	c #6A2900",
"-+	c #9C3D00",
";+	c #923A00",
">+	c #BD4D00",
",+	c #993C00",
"'+	c #240C00",
")+	c #461800",
"!+	c #0E0300",
"~+	c #1C0700",
"{+	c #1A0700",
"]+	c #3C0702",
"^+	c #980911",
"/+	c #9D0813",
"(+	c #9C0512",
"_+	c #940910",
":+	c #863900",
"<+	c #C35600",
"[+	c #652B00",
"}+	c #954100",
"|+	c #642700",
"1+	c #983E00",
"2+	c #BC5200",
"3+	c #AE4A00",
"4+	c #381400",
"5+	c #682500",
"6+	c #5A2600",
"7+	c #BF5300",
"8+	c #BF5200",
"9+	c #BD5300",
"0+	c #360404",
"a+	c #980A10",
"b+	c #980810",
"c+	c #9C0813",
"d+	c #8C0A0F",
"e+	c #351101",
"f+	c #8E3D00",
"g+	c #020100",
"h+	c #863800",
"i+	c #9F4401",
"j+	c #733000",
"k+	c #BF5400",
"l+	c #BD5200",
"m+	c #964100",
"n+	c #9C4300",
"o+	c #9E4500",
"p+	c #3C1500",
"q+	c #6C2700",
"r+	c #662500",
"s+	c #592600",
"t+	c #BD4F00",
"u+	c #B44800",
"v+	c #B75100",
"w+	c #2F0304",
"x+	c #8F0810",
"y+	c #441900",
"z+	c #743200",
"A+	c #BD5400",
"B+	c #D65E00",
"C+	c #BE5300",
"D+	c #BC5300",
"E+	c #B95100",
"F+	c #9C4400",
"G+	c #521D00",
"H+	c #562100",
"I+	c #B34700",
"J+	c #B44900",
"K+	c #A84A00",
"L+	c #200900",
"M+	c #561D00",
"N+	c #903C00",
"O+	c #431B00",
"P+	c #753200",
"Q+	c #C95700",
"R+	c #9E3F00",
"S+	c #6A2D00",
"T+	c #030000",
"U+	c #5C2700",
"V+	c #A14600",
"W+	c #050100",
"X+	c #BB5000",
"Y+	c #A54900",
"Z+	c #2E1000",
"`+	c #6A2700",
" @	c #672A01",
".@	c #8E3B00",
"+@	c #EA6900",
"@@	c #813200",
"#@	c #401900",
"$@	c #6F2C00",
"%@	c #AF4600",
"&@	c #AF4300",
"*@	c #923700",
"=@	c #421600",
"-@	c #5C2600",
";@	c #E66600",
">@	c #A64800",
",@	c #301100",
"'@	c #6A2600",
")@	c #642300",
"!@	c #4E1D01",
"~@	c #8E3E00",
"{@	c #8F3C00",
"]@	c #803000",
"^@	c #040000",
"/@	c #5C2500",
"(@	c #B14800",
"_@	c #BE5400",
":@	c #BF5500",
"<@	c #BB4F00",
"[@	c #260C00",
"}@	c #4C1A00",
"|@	c #531E00",
"1@	c #6B2700",
"2@	c #622400",
"3@	c #8E3F00",
"4@	c #CA5200",
"5@	c #461C00",
"6@	c #893500",
"7@	c #C15400",
"8@	c #E76700",
"9@	c #B94F00",
"0@	c #B04600",
"a@	c #9A3D00",
"b@	c #050001",
"c@	c #010001",
"d@	c #240B00",
"e@	c #4B1A00",
"f@	c #4C1900",
"g@	c #481800",
"h@	c #521F00",
"i@	c #020E00",
"j@	c #E96900",
"k@	c #7F3400",
"l@	c #612600",
"m@	c #B14500",
"n@	c #B04500",
"o@	c #973D00",
"p@	c #21102B",
"q@	c #371F65",
"r@	c #331C5C",
"s@	c #4F1E00",
"t@	c #8D3C00",
"u@	c #1D1135",
"v@	c #351B58",
"w@	c #5E0900",
"x@	c #CD1500",
"y@	c #B31400",
"z@	c #210F2A",
"A@	c #361F6A",
"B@	c #5B241B",
"C@	c #E96700",
"D@	c #863A00",
"E@	c #CC5400",
"F@	c #520308",
"G@	c #7D070E",
"H@	c #25143A",
"I@	c #372265",
"J@	c #5E0B00",
"K@	c #C81400",
"L@	c #CC1B00",
"M@	c #85090C",
"N@	c #20102C",
"O@	c #331C5E",
"P@	c #441B00",
"Q@	c #873700",
"R@	c #080001",
"S@	c #4A1C00",
"T@	c #792F15",
"U@	c #3C2980",
"V@	c #070000",
"W@	c #620A00",
"X@	c #C61300",
"Y@	c #8C070F",
"Z@	c #200F2A",
"`@	c #351D65",
" #	c #4F1E0E",
".#	c #B74F00",
"+#	c #823100",
"@#	c #3F1900",
"##	c #883A00",
"$#	c #863300",
"%#	c #2B1B4A",
"&#	c #3E2F93",
"*#	c #622627",
"=#	c #B46900",
"-#	c #0F0100",
";#	c #260200",
">#	c #4C0506",
",#	c #8B070F",
"'#	c #20102B",
")#	c #45246B",
"!#	c #29143C",
"~#	c #7D3200",
"{#	c #C65700",
"]#	c #B55000",
"^#	c #823200",
"/#	c #802D00",
"(#	c #2B1D51",
"_#	c #3C339F",
":#	c #402B88",
"<#	c #431F56",
"[#	c #522449",
"}#	c #742E01",
"|#	c #813604",
"1#	c #863801",
"2#	c #6E2D09",
"3#	c #1C0101",
"4#	c #4B266C",
"5#	c #29153E",
"6#	c #C65900",
"7#	c #B44E00",
"8#	c #8C3800",
"9#	c #2B1B50",
"0#	c #3D329F",
"a#	c #3C329D",
"b#	c #492E7F",
"c#	c #5C2301",
"d#	c #873703",
"e#	c #883703",
"f#	c #6D2C09",
"g#	c #1F102B",
"h#	c #361F6B",
"i#	c #2A143E",
"j#	c #C55900",
"k#	c #3D319E",
"l#	c #3D329E",
"m#	c #503082",
"n#	c #582202",
"o#	c #843705",
"p#	c #D76102",
"q#	c #9F410B",
"r#	c #1F102A",
"s#	c #361E6B",
"t#	c #29143E",
"u#	c #C65000",
"v#	c #813000",
"w#	c #3F1700",
"x#	c #8C3900",
"y#	c #7B3201",
"z#	c #2C1743",
"A#	c #382171",
"B#	c #351E65",
"C#	c #57221A",
"D#	c #7C3200",
"E#	c #A64A01",
"F#	c #81320C",
"G#	c #2E1746",
"H#	c #2C1541",
"I#	c #793000",
"J#	c #8B3900",
"K#	c #953D00",
"L#	c #9F460B",
"M#	c #2E1953",
"N#	c #2F1851",
"O#	c #30194F",
"P#	c #30215E",
"Q#	c #301E58",
"R#	c #2A143F",
"S#	c #2C1742",
"T#	c #2E1951",
"U#	c #65280B",
"V#	c #853600",
"W#	c #943F00",
"X#	c #672800",
"Y#	c #201439",
"Z#	c #35287A",
"`#	c #352471",
" $	c #2F1954",
".$	c #2E1952",
"+$	c #27144A",
"@$	c #4A1A00",
"#$	c #863600",
"$$	c #DD6300",
"%$	c #7D2800",
"&$	c #7A2800",
"*$	c #732E00",
"=$	c #471900",
"-$	c #552100",
";$	c #431800",
">$	c #431900",
",$	c #401700",
"'$	c #2D0F00",
")$	c #5D2400",
"!$	c #9E4300",
"~$	c #8A3800",
"{$	c #4D1F00",
"]$	c #502100",
"^$	c #512100",
"/$	c #491D00",
"($	c #321100",
"_$	c #682600",
":$	c #702C00",
"<$	c #612400",
"[$	c #612300",
"}$	c #5C2000",
"|$	c #3B1300",
"1$	c #341200",
"2$	c #532600",
"3$	c #502400",
"4$	c #421F00",
"5$	c #1D1300",
"6$	c #1E1400",
"7$	c #190900",
"8$	c #160700",
"9$	c #0F0500",
"0$	c #230D00",
"a$	c #240E00",
"b$	c #220C00",
"c$	c #170700",
"d$	c #0E0400",
"e$	c #1F1400",
"  . + @ @ @ # + # $ % & * = - ; > , $ ' ' . @ ) # ! . . ~ ' { ] ",
"^ / ( _ : : : < [ } | 1 2 2 3 4 5 6 7 8 [ < 9 0 < < < 9 a b c d ",
"  e f g h i h h j k l m m m n m o p q r s t h i h t h h u v w ] ",
"] e f x y y y y z A B C D D D E D D F G H I y y J y y y K L M N ",
"  O P Q y y R y S T U V D W X Y D Z D `  ...+.y @.#.y y y $.M N ",
"] O %.&.*.=.-.O ;.>.,.'.).!.D D D D D E ~.{.].^.O y /.(.y _.M ^ ",
":.e <.&.[.}.|.1.1.1.2.3.4.5.).D D D X 6.7.8.9.0.a.b./.c.y _.d.] ",
":.e %.e.f.g.h.i.j.k.l.m.n.o.p.q.r.D s.s.t.F u.~.v.w.x.y.y _.M ^ ",
"] O P &.z z.z.A.B.C.D.E.F.G.H.I.J.).r.K.r.L.L.r.M.N.O.P.y $.M Q.",
":.O %.e.y y #.R.S.T.U.V.W.X.Y.Z.`. +.+++@+#+).$+%+I.O.&+y _.d.] ",
"] O %.e.y y y *+z =+-+*+;+>+,+'+)+!+~+{+]+^+/+(+/+_+O./.y $.M d ",
"  :+%.&.y <+z     [+}+|+1+2+3+4+5+6+7+8+9+0+a+b+c+d+e+f+y _.d.g+",
"] h+<.e.y i+j+k+8+l+m+|+n+o+p+q+r+s+t+u+v+] g+w+x+y+/./.y $.M d ",
"] h+%.&.f.z+A+7+7+B+C+D+E+F+'+G+w.H+I+J+K+L+M+a.7 &.y y N+_.M ] ",
"] e O+&.f.P+7+7+8+Q+R+S+T+U+V+W+6+X+u+8+Y+Z+`+ @.@/..@.@+@@@#@] ",
"] O P &.z $@%@&@*@=@T+T+] -@7+C+C+;@9+>@,@'@)@!@~@y /.y {@]@d.d ",
"] O f e..@z ^@^@^@T+T+/@(@_@:@7+<@-+[@}@}@|@1@2@7 3@4@.@y $.M ^ ",
"  O P &.+@+@&.f.  5@6@O 7@8@9@0@a@b@c@d@}@e@f@g@h@~@.@/.y $.d.i@",
":.O %.e./.j@/.&.*+k@l@m@n@o@  T+] p@q@r@T+] ] s@t@y y y.y $.d.] ",
"] O %.e.y b./.y &./.9     u@v@w@x@y@z@A@B@&.*.C@y y /.y &.$.d.T+",
"] D@%.&.y .@/././.E@F@G@H@I@J@K@L.L@M@N@O@H #..@y y /./.y $.d.g+",
"] O P@e.y /..@/.Q@5+R@S@T@U@V@W@D X@Y@Z@`@ #e &.y .#y y y +#@#^ ",
"] ##P@&.y /.$#y z %#&#*#=#U@T+-#;#>#,#'#)#!#~#y y {#y y ]#^#f d ",
"  O P &./.&./#.@b (#_#:#<#[#}#|#1#2#3#Z@4#5#z /.&.&.y y 6#K <.g+",
"] I O+Q &.7#8#/.b 9#0#a#b#c#d#/./.e#f#g#h#i#~#/./..@/.y y $.<.] ",
"  O %.Q *.j#&.c.b (#k#l#m#n#o#~@#.p#q#r#s#t#~#.@y .@u#y y v#w#N ",
":.I %.e././..@/.x#y#z#A#B#C#D#~#f.E#F#G#H#I#J#/./..@K#.@y +#d.] ",
":.##O+e./././././.h+L#M#N#O#P#Q#R#R#S#T#U#V#/.b..@/././.y $.w#d ",
"] x.P@e.y /./.y /./.W#X#T+Y#Z#`# $.$+$@$#$$$/./././..@y %$v##@] ",
":.x.P@&$y y /././././ *$=$-$;$>$;$,$'$)$y !$y .@.@y &.y ~$+##@] ",
"  {$#@v ]$t t t t ^$/$($_$:$<$[$2@}$|$1$2$^$^$^$^$^$^$^$t 3$4$] ",
"  5$6${ { { 6$6$6$7$8$9$0$a$0$0$0$b$c$d${ e$6$6$7${ e$6$6$6${ ] "};
