/* XPM */
static char * player_right_xpm[] = {
"32 32 514 2",
"  	c #000000",
". 	c #301400",
"+ 	c #301B00",
"@ 	c #311400",
"# 	c #311C00",
"$ 	c #301C00",
"% 	c #341C00",
"& 	c #321C00",
"* 	c #2F1400",
"= 	c #2E1300",
"- 	c #230901",
"; 	c #470200",
"> 	c #4C0200",
", 	c #4D0300",
"' 	c #3F0104",
") 	c #2A1000",
"! 	c #180900",
"~ 	c #010D00",
"{ 	c #010000",
"] 	c #893B00",
"^ 	c #7F3300",
"/ 	c #803400",
"( 	c #813500",
"_ 	c #803600",
": 	c #823900",
"< 	c #803500",
"[ 	c #813600",
"} 	c #7B3300",
"| 	c #521F00",
"1 	c #320304",
"2 	c #4D0900",
"3 	c #940B09",
"4 	c #C51000",
"5 	c #D01200",
"6 	c #B20C07",
"7 	c #650708",
"8 	c #6E2C00",
"9 	c #7E3500",
"0 	c #803300",
"a 	c #7E3300",
"b 	c #401A00",
"c 	c #020000",
"d 	c #421900",
"e 	c #4B1C00",
"f 	c #4F1F00",
"g 	c #4E1F00",
"h 	c #4F2000",
"i 	c #4C1E00",
"j 	c #341100",
"k 	c #430400",
"l 	c #92040A",
"m 	c #C40800",
"n 	c #CD0B00",
"o 	c #CC0B00",
"p 	c #900F04",
"q 	c #3D0A02",
"r 	c #451B00",
"s 	c #502000",
"t 	c #4E1D00",
"u 	c #4C1C00",
"v 	c #3E1700",
"w 	c #883800",
"x 	c #772600",
"y 	c #8D3B00",
"z 	c #8D3A00",
"A 	c #9C4500",
"B 	c #873800",
"C 	c #592201",
"D 	c #930A0C",
"E 	c #C91200",
"F 	c #D11400",
"G 	c #D21500",
"H 	c #CB1300",
"I 	c #923500",
"J 	c #682A00",
"K 	c #7D3301",
"L 	c #994200",
"M 	c #833100",
"N 	c #752500",
"O 	c #401800",
"P 	c #883900",
"Q 	c #431A00",
"R 	c #8C3A00",
"S 	c #984000",
"T 	c #8E3900",
"U 	c #D25F00",
"V 	c #582200",
"W 	c #930B0B",
"X 	c #C71100",
"Y 	c #D11500",
"Z 	c #D61C00",
"` 	c #AB0C0B",
" .	c #843201",
"..	c #662801",
"+.	c #7D3401",
"@.	c #DB6300",
"#.	c #8E3C00",
"$.	c #813100",
"%.	c #421A00",
"&.	c #8D3900",
"*.	c #963D00",
"=.	c #DF6400",
"-.	c #893A00",
";.	c #873700",
">.	c #521E00",
",.	c #D91E00",
"'.	c #CC1400",
").	c #A50E09",
"!.	c #6D2A06",
"~.	c #542004",
"{.	c #772F00",
"].	c #8C3900",
"^.	c #8D3800",
"/.	c #803100",
"(.	c #010100",
"_.	c #411900",
":.	c #C54F00",
"<.	c #8A3900",
"[.	c #501E00",
"}.	c #360600",
"|.	c #2A0302",
"1.	c #BD1200",
"2.	c #D01400",
"3.	c #D71B00",
"4.	c #CC1300",
"5.	c #C41500",
"6.	c #A41309",
"7.	c #550C07",
"8.	c #330500",
"9.	c #370700",
"0.	c #360700",
"a.	c #300402",
"b.	c #793000",
"c.	c #8C3800",
"d.	c #3F1800",
"e.	c #8B3A00",
"f.	c #8A3A00",
"g.	c #461901",
"h.	c #950A0D",
"i.	c #C91400",
"j.	c #A70C0B",
"k.	c #C81200",
"l.	c #CD1300",
"m.	c #9F0C0A",
"n.	c #500806",
"o.	c #340900",
"p.	c #89090C",
"q.	c #B91100",
"r.	c #C31500",
"s.	c #C51400",
"t.	c #AD1607",
"u.	c #5D0609",
"v.	c #7C3500",
"w.	c #391301",
"x.	c #930911",
"y.	c #C71300",
"z.	c #D41C00",
"A.	c #CD1400",
"B.	c #CC1200",
"C.	c #9F0C0B",
"D.	c #460306",
"E.	c #7D090D",
"F.	c #B71200",
"G.	c #C21400",
"H.	c #681200",
"I.	c #1B0800",
"J.	c #361100",
"K.	c #3E1600",
"L.	c #020100",
"M.	c #381301",
"N.	c #A21312",
"O.	c #C81700",
"P.	c #D11900",
"Q.	c #9F0D0B",
"R.	c #950910",
"S.	c #981110",
"T.	c #940910",
"U.	c #450406",
"V.	c #040000",
"W.	c #1F0A00",
"X.	c #210A00",
"Y.	c #2E0E00",
"Z.	c #300E00",
"`.	c #8E3700",
" +	c #612700",
".+	c #7D3400",
"++	c #8E3A00",
"@+	c #8E3B00",
"#+	c #E76900",
"$+	c #9D0812",
"%+	c #9F0B12",
"&+	c #960911",
"*+	c #3C0802",
"=+	c #1A0800",
"-+	c #220B00",
";+	c #0B0200",
">+	c #451700",
",+	c #240C00",
"'+	c #9A3C00",
")+	c #B14600",
"!+	c #933B00",
"~+	c #9C3D00",
"{+	c #622700",
"]+	c #722900",
"^+	c #8C3B00",
"/+	c #863900",
"(+	c #4B1D01",
"_+	c #8C0A0F",
":+	c #9C0812",
"<+	c #990A12",
"[+	c #960A10",
"}+	c #390505",
"|+	c #A74A00",
"1+	c #BF5300",
"2+	c #BD5200",
"3+	c #682B00",
"4+	c #622400",
"5+	c #3D1600",
"6+	c #9F4400",
"7+	c #BB5400",
"8+	c #984100",
"9+	c #873901",
"0+	c #954100",
"a+	c #662C00",
"b+	c #7D3200",
"c+	c #873B00",
"d+	c #B75100",
"e+	c #451800",
"f+	c #8E0A0F",
"g+	c #2E0303",
"h+	c #030000",
"i+	c #A84800",
"j+	c #B44A00",
"k+	c #BA5000",
"l+	c #652A00",
"m+	c #632300",
"n+	c #371400",
"o+	c #A04500",
"p+	c #9A4300",
"q+	c #7F3600",
"r+	c #954000",
"s+	c #BF5400",
"t+	c #BF5100",
"u+	c #BF5200",
"v+	c #733000",
"w+	c #7C3200",
"x+	c #863800",
"y+	c #521F01",
"z+	c #461700",
"A+	c #581F00",
"B+	c #A74900",
"C+	c #B34800",
"D+	c #B34700",
"E+	c #552200",
"F+	c #612400",
"G+	c #531D00",
"H+	c #250B00",
"I+	c #9D4300",
"J+	c #BA5100",
"K+	c #BD5300",
"L+	c #C05200",
"M+	c #CF5900",
"N+	c #D65F00",
"O+	c #743300",
"P+	c #7C3300",
"Q+	c #903C00",
"R+	c #431B00",
"S+	c #8E3E00",
"T+	c #6A2800",
"U+	c #301100",
"V+	c #A74800",
"W+	c #B44800",
"X+	c #BA4F00",
"Y+	c #5A2600",
"Z+	c #070100",
"`+	c #A24700",
" @	c #5C2700",
".@	c #692C00",
"+@	c #9E3E00",
"@@	c #C45400",
"#@	c #D15D00",
"$@	c #C05400",
"%@	c #763300",
"&@	c #7D3300",
"*@	c #EA6900",
"=@	c #813200",
"-@	c #401900",
";@	c #501D00",
">@	c #642400",
",@	c #6A2700",
"'@	c #311100",
")@	c #A54700",
"!@	c #BD5100",
"~@	c #BE5200",
"{@	c #BE5300",
"]@	c #E56700",
"^@	c #5D2700",
"/@	c #3F1500",
"(@	c #903900",
"_@	c #AF4600",
":@	c #AE4500",
"<@	c #6F2C00",
"[@	c #8F3C00",
"}@	c #803000",
"|@	c #511F01",
"1@	c #632400",
"2@	c #6C2700",
"3@	c #551D00",
"4@	c #4E1A00",
"5@	c #260C00",
"6@	c #9B3F00",
"7@	c #BF5500",
"8@	c #BE5400",
"9@	c #B04700",
"0@	c #5C2400",
"a@	c #B24700",
"b@	c #8F3E00",
"c@	c #511F00",
"d@	c #471800",
"e@	c #4C1A00",
"f@	c #591F00",
"g@	c #240B00",
"h@	c #070101",
"i@	c #050000",
"j@	c #9B3D00",
"k@	c #B04600",
"l@	c #BA4E00",
"m@	c #E86400",
"n@	c #C15400",
"o@	c #893800",
"p@	c #752E00",
"q@	c #461B00",
"r@	c #000001",
"s@	c #E96900",
"t@	c #040100",
"u@	c #331C5C",
"v@	c #381E65",
"w@	c #22102A",
"x@	c #030100",
"y@	c #973C00",
"z@	c #B14500",
"A@	c #612600",
"B@	c #8C3C00",
"C@	c #8D3D00",
"D@	c #893C00",
"E@	c #8F3B00",
"F@	c #291338",
"G@	c #361F6A",
"H@	c #210F29",
"I@	c #B31300",
"J@	c #CA1400",
"K@	c #5F0900",
"L@	c #341C58",
"M@	c #1C1133",
"N@	c #EA6800",
"O@	c #863A00",
"P@	c #E46100",
"Q@	c #5B2201",
"R@	c #331C5E",
"S@	c #22102B",
"T@	c #86080E",
"U@	c #C51200",
"V@	c #C71400",
"W@	c #641000",
"X@	c #37226A",
"Y@	c #24153C",
"Z@	c #7D080C",
"`@	c #520308",
" #	c #7F3200",
".#	c #441B00",
"+#	c #7C2E00",
"@#	c #511E0F",
"##	c #351D64",
"$#	c #291128",
"%#	c #8D0710",
"&#	c #C51100",
"*#	c #CF1300",
"=#	c #620900",
"-#	c #070000",
";#	c #3C297F",
">#	c #662715",
",#	c #4B1B00",
"'#	c #0A0100",
")#	c #712D00",
"!#	c #B74F00",
"~#	c #823100",
"{#	c #3F1900",
"]#	c #893D00",
"^#	c #863300",
"/#	c #2A143C",
"(#	c #361F6B",
"_#	c #2C1229",
":#	c #8C0710",
"<#	c #4D0505",
"[#	c #280300",
"}#	c #0F0100",
"|#	c #3C2980",
"1#	c #AA6700",
"2#	c #7B3326",
"3#	c #3E2E91",
"4#	c #2C1A49",
"5#	c #C65700",
"6#	c #B55000",
"7#	c #823200",
"8#	c #802D00",
"9#	c #2A143D",
"0#	c #36206C",
"a#	c #1C0200",
"b#	c #6E2D09",
"c#	c #863803",
"d#	c #813604",
"e#	c #742F01",
"f#	c #51244B",
"g#	c #431E53",
"h#	c #593287",
"i#	c #3C329E",
"j#	c #2B1D51",
"k#	c #C65900",
"l#	c #B44E00",
"m#	c #29143E",
"n#	c #2A1329",
"o#	c #6D2C0B",
"p#	c #883703",
"q#	c #873703",
"r#	c #5B2301",
"s#	c #3A2880",
"t#	c #3D319C",
"u#	c #3D339E",
"v#	c #2B1B50",
"w#	c #C55900",
"x#	c #361E6A",
"y#	c #2E1529",
"z#	c #6F2E0B",
"A#	c #8A3901",
"B#	c #CC5C03",
"C#	c #7F3202",
"D#	c #3A2B83",
"E#	c #3D319E",
"F#	c #2C1C4F",
"G#	c #7E3400",
"H#	c #C65000",
"I#	c #813000",
"J#	c #3F1700",
"K#	c #773101",
"L#	c #2C1640",
"M#	c #2E1746",
"N#	c #62280C",
"O#	c #793101",
"P#	c #AB4C00",
"Q#	c #722B1A",
"R#	c #361E65",
"S#	c #382171",
"T#	c #2C1742",
"U#	c #7B3101",
"V#	c #953D00",
"W#	c #883A00",
"X#	c #CF5C00",
"Y#	c #65290D",
"Z#	c #30184F",
"`#	c #2C1641",
" $	c #2A1540",
".$	c #281540",
"+$	c #301E59",
"@$	c #31205C",
"#$	c #301A4E",
"$$	c #2E1951",
"%$	c #2F1851",
"&$	c #67280A",
"*$	c #863600",
"=$	c #853600",
"-$	c #4A1B00",
";$	c #2B184B",
">$	c #2E1954",
",$	c #2F1853",
"'$	c #342573",
")$	c #34297A",
"!$	c #1B1238",
"~$	c #672800",
"{$	c #7D2800",
"]$	c #7A2800",
"^$	c #5E2400",
"/$	c #2F1000",
"($	c #431800",
"_$	c #421800",
":$	c #542000",
"<$	c #471A00",
"[$	c #722F00",
"}$	c #8A3800",
"|$	c #4D1F00",
"1$	c #502100",
"2$	c #512100",
"3$	c #532600",
"4$	c #351401",
"5$	c #3B1100",
"6$	c #5D2100",
"7$	c #612300",
"8$	c #712C00",
"9$	c #672600",
"0$	c #321100",
"a$	c #491D00",
"b$	c #4E1E00",
"c$	c #0D0D00",
"d$	c #1D1300",
"e$	c #1E1400",
"f$	c #1F1400",
"g$	c #191400",
"h$	c #0D0400",
"i$	c #170700",
"j$	c #240D00",
"k$	c #230D00",
"l$	c #100500",
"m$	c #160700",
"n$	c #190900",
"o$	c #190A00",
"  . + @ # # @ + # $ # % & * = = - ; > , ' ) . % # & $ $ + @ ! ~ ",
"{ ] ^ / ( ( ( _ : < [ [ } | 1 2 3 4 5 5 6 7 8 9 _ _ _ < 0 a b c ",
"  ] d e f g f f f h h i j k l m n o o o n p q r f s f f t u v { ",
"{ w d x y y y y z A B C D E F G F F F F H I J K L y y y M N O { ",
"  P Q R y y S y T U V W X G Y Z F F Y F `  ...+.@.#.y y y $.O { ",
"{ P %.z &.*.=.-.;.>.D E G ,.F F F F F '.).!.~.{.B B ].^.y /.O { ",
"(.w _.z &.:.<.[.}.|.1.2.3.F F F F 4.5.6.7.8.9.9.0.a.b.c.y /.d.{ ",
"(.w %.e.y f.g.h.i.j.k.F Y Y Y l.'.m.n.o.p.q.r.r.s.t.u.v.y /.O c ",
"{ P Q z z w.x.y.z.2.F 4.'.A.B.C.x.D.E.F.G.H.I.J.K.K.K.( y $.O L.",
"(.P %.e.y M.x.N.O.P.'.Q.R.S.T.U.V.W.X.Y.Z.`. +.+y ++@+#+y /.d.{ ",
"{ P %.e.y M.x.$+$+%+&+*+=+-+;+>+,+'+)+!+].~+{+]+^+y y z y $.O c ",
"  /+%.z y (+_+:+<+[+}+|+1+2+3+4+5+6+7+8+9+0+a+    b+++z y /.d.L.",
"{ c+_.e.y d+e+f+g+c h+i+j+k+l+m+]+n+o+p+q+r+s+t+u+v+w+y y $.O c ",
"{ x+%.z y y y y+z+A+-+B+C+D+E+F+G+H+I+J+K+L+M+N+1+u+O+P+Q+/.O { ",
"{ w R+z y @+++S+[.T+U+V+1+W+X+Y+Z+`+ @h+.@+@@@#@$@t+%@&@*@=@-@{ ",
"{ P Q z @+@+y T ;@>@,@'@)@!@~@{@{@]@^@(.h+h+/@(@_@:@<@P+[@}@d.c ",
"{ P d e.@+@+S+|@1@2@3@4@4@5@6@X+$@7@8@9@0@  h+V.h+V.a@b@y $.O { ",
"  P Q z *@*@z c@d@e@f@e@g@h@i@j@k@l@m@n@o@p@q@r@b+y b@++y $.d.L.",
"(.P %.e.++s@++R [.(.V.t@u@v@w@x@h+  y@9@z@A@/ B@y y y C@y $.d.{ ",
"{ D@%.e.y E@++y R z P+F@G@H@I@J@K@L@M@    / T N@y y ++y z $.d.h+",
"{ O@%.z y @+++++++P@Q@R@S@T@U@2.V@W@X@Y@Z@`@ #@+y y ++++y $.d.L.",
"{ P .#e.y ++@+++z +#@###$#%#&#*#=#-#;#>#,#'#)#;.y !#y y y ~#{#c ",
"{ ]#.#z y ++^#y z P+/#(#_#:#<#[#}#(.|#1#2#3#4#&@y 5#y y 6#7#d c ",
"  P Q z ++z 8#@+++&@9#0#H@a#b#c#d#e#f#g#h#i#j#a z z y y k#M _.L.",
"{ B R+R z l#c.++++&@m#(#n#o#p#++++q#r#s#t#u#v#a ++@+++y y $._.{ ",
"  P %.R &.w#z T ++b+/#x#y#z#A#y #.B#C#D#E#t#F#G#y @+H#y y I#J#{ ",
"(.B %.e.++++@+++++e.K#L#M#N#O#b+P+P#Q#R#S#T#U#].++@+V#@+y ~#d.{ ",
"(.W#R+e.++++++++++#.X#Y#Z#`# $.$+$@$#$$$%$&$*$E@@+++++++y $.J#c ",
"{ f..#e.y ++++y ++++I+=$-$;$>$,$'$)$!$  ~$X#++++++++@+y {$I#-@{ ",
"(.f..#]$y y ++++++++++++^$/$O ($($_$:$<$[$S y @+@+y z y }$~#-@{ ",
"  |$-@u 1$s s s s 2$2$3$4$5$6$7$7$4+8$9$0$a$2$2$2$2$2$2$s b$d.{ ",
"c$d$! e$e$e$! ! e$f$g$g$h$i$-+j$k$k$k$j$l$m$e$e$n$! o$! ! ! ! { "};
