/* XPM */
static char *player_right[] = {
"32 32 4 1",
"  c None",
". c #FFD700",
"+ c #FFA500",
"# c #000000",
"                                ",
"                                ",
"                                ",
"           .......              ",
"          .........#            ",
"         ...........#           ",
"         ...........#           ",
"         ...........#           ",
"         ...........#           ",
"         ...........#           ",
"          .........#            ",
"           .......              ",
"             ++++               ",
"            ++++++              ",
"           ++++++++             ",
"           ++++++++             ",
"           ++++++++             ",
"           ++++++++             ",
"           ++++++++             ",
"           ++++++++             ",
"           ++++++++             ",
"           ++++++++             ",
"            ++++++              ",
"             ++++               ",
"             ++++               ",
"             ++++               ",
"             ++++               ",
"             ####               ",
"             ####               ",
"             ####               ",
"                                ",
"                                "
};