/* XPM */
static char *player_right[] = {
"32 32 6 1",
"  c None",
"# c #333333",
"S c #FFCC99",
"V c #550055",
"B c #0000FF",
". c #000000",
"                                ",
"           ########             ",
"         ############           ",
"        ##############          ",
"        #######SSSS###          ",
"        #######SSSS###          ",
"        ######SVVSS###          ",
"        ######SVVSS###          ",
"        #######SSSS###          ",
"        ##############          ",
"         ############           ",
"         ############           ",
"        ##############          ",
"       ################         ",
"       ################         ",
"       #### ###########         ",
"      ##### ############        ",
"      ##### ############        ",
"      ##### ############        ",
"            ######              ",
"            ######              ",
"            BBBBBB              ",
"            BBBBBB              ",
"            BBBBBB              ",
"             BBBB               ",
"             BBBB               ",
"             BBBB               ",
"            BBBBBB              ",
"            BBBBBB              ",
"            ......              ",
"            ......              ",
"                                "
};