/* XPM */
static char *player_down[] = {
"32 32 6 1",
"  c None",
"# c #333333", /* Sweat capuche */
"S c #FFCC99", /* Peau */
"V c #550055", /* Cernes/Yeux fatigués */
"B c #0000FF", /* Jean */
". c #000000", /* Contours/Chaussures */
"                                ",
"           ########             ",
"         ############           ",
"        ##############          ",
"        ####SSSSSS####          ",
"        ###SSSSSSSS###          ",
"        ###SVVSSVV####          ",
"        ###SVVSSVV####          ",
"        ###SSSSSSSS###          ",
"        ##############          ",
"         ############           ",
"         ############           ",
"        ##############          ",
"       ################         ",
"       ###  ######  ###         ",
"       ###  ######  ###         ",
"      ####  ######  ####        ",
"      ####  ######  ####        ",
"      ####  ######  ####        ",
"            ######              ",
"            ######              ",
"            BBBBBB              ",
"            BBBBBB              ",
"            BBBBBB              ",
"            BB  BB              ",
"            BB  BB              ",
"            BB  BB              ",
"           BBBB BBBB            ",
"           BBBB BBBB            ",
"           .... ....            ",
"           .... ....            ",
"                                "
};