/* XPM */
static char * player_bottom_xpm[] = {
"32 32 721 2",
"  	c #010101",
". 	c #442F19",
"+ 	c #442E19",
"@ 	c #452F19",
"# 	c #472F19",
"$ 	c #402817",
"% 	c #2E1C0E",
"& 	c #180C05",
"* 	c #0F0702",
"= 	c #190A04",
"- 	c #2F0100",
"; 	c #210000",
"> 	c #160000",
", 	c #0C0000",
"' 	c #120702",
") 	c #100703",
"! 	c #231409",
"~ 	c #352011",
"{ 	c #442E18",
"] 	c #452F18",
"^ 	c #442B19",
"/ 	c #1F1908",
"( 	c #010D00",
"_ 	c #010000",
": 	c #A06032",
"< 	c #96582E",
"[ 	c #96582D",
"} 	c #97592D",
"| 	c #96592C",
"1 	c #854E26",
"2 	c #6E401F",
"3 	c #3C200C",
"4 	c #1A0902",
"5 	c #400301",
"6 	c #8B0C03",
"7 	c #9D1006",
"8 	c #8E120B",
"9 	c #6E0D09",
"0 	c #790905",
"a 	c #6C0602",
"b 	c #450401",
"c 	c #0E0401",
"d 	c #190A03",
"e 	c #4A2A12",
"f 	c #764420",
"g 	c #875027",
"h 	c #96582C",
"i 	c #96572D",
"j 	c #95572D",
"k 	c #533019",
"l 	c #030E01",
"m 	c #9F5F32",
"n 	c #532E17",
"o 	c #5D331A",
"p 	c #653B20",
"q 	c #653C21",
"r 	c #4E2C17",
"s 	c #1D0E04",
"t 	c #1A0001",
"u 	c #710301",
"v 	c #A20702",
"w 	c #9D2112",
"x 	c #68361D",
"y 	c #6A391E",
"z 	c #67351D",
"A 	c #9E2213",
"B 	c #9D0602",
"C 	c #4E0100",
"D 	c #1B0C04",
"E 	c #201006",
"F 	c #402311",
"G 	c #5D361C",
"H 	c #62371D",
"I 	c #5E331A",
"J 	c #522F1A",
"K 	c #020101",
"L 	c #8A4524",
"M 	c #A36131",
"N 	c #A05F30",
"O 	c #8E5429",
"P 	c #5E3519",
"Q 	c #180000",
"R 	c #640601",
"S 	c #B51205",
"T 	c #CE150B",
"U 	c #98582D",
"V 	c #AA4F27",
"W 	c #B74F27",
"X 	c #B14B24",
"Y 	c #AA4F28",
"Z 	c #98582C",
"` 	c #BE1305",
" .	c #A51004",
"..	c #360201",
"+.	c #170902",
"@.	c #4D2D14",
"#.	c #8E542A",
"$.	c #98542B",
"%.	c #874121",
"&.	c #532F19",
"*.	c #9F6032",
"=.	c #532E16",
"-.	c #A36133",
";.	c #955A2F",
">.	c #6E401E",
",.	c #190001",
"'.	c #8A1607",
").	c #AB1104",
"!.	c #D51607",
"~.	c #CA150C",
"{.	c #A55F30",
"].	c #B43E1C",
"^.	c #CC7035",
"/.	c #A45C2F",
"(.	c #B43D1E",
"_.	c #9A592C",
":.	c #CB150C",
"<.	c #D61707",
"[.	c #D71607",
"}.	c #7E0902",
"|.	c #1B0001",
"1.	c #563418",
"2.	c #8B5228",
"3.	c #955229",
"4.	c #522E16",
"5.	c #A36132",
"6.	c #A36032",
"7.	c #9E5C2F",
"8.	c #A56835",
"9.	c #2A1406",
"0.	c #640603",
"a.	c #A91004",
"b.	c #D31607",
"c.	c #BF160D",
"d.	c #B05D2F",
"e.	c #8E4B26",
"f.	c #8F552D",
"g.	c #90542D",
"h.	c #8E4A26",
"i.	c #854525",
"j.	c #C0160F",
"k.	c #D51808",
"l.	c #BD1205",
"m.	c #790804",
"n.	c #2E1707",
"o.	c #341B0A",
"p.	c #784522",
"q.	c #A46033",
"r.	c #945229",
"s.	c #010100",
"t.	c #522E17",
"u.	c #A05E31",
"v.	c #9C5729",
"w.	c #3F220D",
"x.	c #100001",
"y.	c #720802",
"z.	c #D41607",
"A.	c #B61410",
"B.	c #970D15",
"C.	c #AD1712",
"D.	c #B7120F",
"E.	c #B7130E",
"F.	c #B7130F",
"G.	c #AD1812",
"H.	c #9B1919",
"I.	c #B71510",
"J.	c #D51707",
"K.	c #B41105",
"L.	c #210201",
"M.	c #351C0A",
"N.	c #673B1C",
"O.	c #A15E31",
"P.	c #522F19",
"Q.	c #A26132",
"R.	c #5D3518",
"S.	c #0E0501",
"T.	c #090000",
"U.	c #830B09",
"V.	c #990F15",
"W.	c #B61A0D",
"X.	c #B41E0B",
"Y.	c #A7220D",
"Z.	c #8F270F",
"`.	c #90270F",
" +	c #9A3113",
".+	c #AE2C10",
"++	c #B41F0A",
"@+	c #B6190E",
"#+	c #BB140C",
"$+	c #4D060A",
"%+	c #45230C",
"&+	c #663B1B",
"*+	c #975A2D",
"=+	c #030101",
"-+	c #A05F31",
";+	c #553015",
">+	c #000000",
",+	c #110001",
"'+	c #660A12",
")+	c #B3170E",
"!+	c #90250E",
"~+	c #421606",
"{+	c #050200",
"]+	c #743612",
"^+	c #D4551B",
"/+	c #DB571A",
"(+	c #DA571A",
"_+	c #D3551A",
":+	c #753613",
"<+	c #421406",
"[+	c #B2160F",
"}+	c #8E0D1D",
"|+	c #4E050D",
"1+	c #472710",
"2+	c #9C5C2F",
"3+	c #020100",
"4+	c #6C3E1D",
"5+	c #140001",
"6+	c #50060E",
"7+	c #7C3412",
"8+	c #9B4317",
"9+	c #954216",
"0+	c #B14C1C",
"a+	c #A15626",
"b+	c #7C3B13",
"c+	c #D5601E",
"d+	c #7D3B13",
"e+	c #8B4118",
"f+	c #B04C1B",
"g+	c #944116",
"h+	c #994217",
"i+	c #752E0F",
"j+	c #7E0B1A",
"k+	c #3C0308",
"l+	c #361C0A",
"m+	c #E2914E",
"n+	c #93572B",
"o+	c #3B1F0C",
"p+	c #2F0B02",
"q+	c #9E4717",
"r+	c #D1581B",
"s+	c #AA5729",
"t+	c #985D4C",
"u+	c #B16C3F",
"v+	c #B45F21",
"w+	c #D26D22",
"x+	c #D16C22",
"y+	c #B56021",
"z+	c #905435",
"A+	c #985D4D",
"B+	c #A8562A",
"C+	c #CF581C",
"D+	c #984416",
"E+	c #531305",
"F+	c #1E0202",
"G+	c #91562C",
"H+	c #9E6032",
"I+	c #532F17",
"J+	c #7F4B24",
"K+	c #5A3619",
"L+	c #1B0B03",
"M+	c #40230A",
"N+	c #4B270C",
"O+	c #8C4A19",
"P+	c #CE6A21",
"Q+	c #AA5E2F",
"R+	c #745780",
"S+	c #854E28",
"T+	c #CF6E26",
"U+	c #D26D21",
"V+	c #DE7526",
"W+	c #C36822",
"X+	c #745982",
"Y+	c #D58145",
"Z+	c #CF6B21",
"`+	c #8E4A19",
" @	c #6E3611",
".@	c #6E3B14",
"+@	c #2F1808",
"@@	c #3E210D",
"#@	c #7E4A25",
"$@	c #9E5F32",
"%@	c #995B2F",
"&@	c #43240B",
"*@	c #833F14",
"=@	c #773913",
"-@	c #5F2907",
";@	c #CF6A21",
">@	c #AA5F2F",
",@	c #74577D",
"'@	c #1F0A02",
")@	c #A9531D",
"!@	c #A04E1B",
"~@	c #AA531D",
"{@	c #A14F1C",
"]@	c #200B02",
"^@	c #74577E",
"/@	c #CA783D",
"(@	c #D06A21",
"_@	c #612C0A",
":@	c #863F15",
"<@	c #773A13",
"[@	c #371D07",
"}@	c #774421",
"|@	c #895129",
"1@	c #452610",
"2@	c #41240E",
"3@	c #532E0F",
"4@	c #C9641F",
"5@	c #893C13",
"6@	c #B46129",
"7@	c #BE6320",
"8@	c #B25E2B",
"9@	c #885862",
"0@	c #793D1C",
"a@	c #C26522",
"b@	c #C26827",
"c@	c #D26E22",
"d@	c #C86820",
"e@	c #7B3C1D",
"f@	c #895963",
"g@	c #C06320",
"h@	c #AC5720",
"i@	c #974A1D",
"j@	c #763E15",
"k@	c #211003",
"l@	c #7E4A24",
"m@	c #A56130",
"n@	c #532F16",
"o@	c #3E220D",
"p@	c #2A1506",
"q@	c #4B2911",
"r@	c #984E1B",
"s@	c #864217",
"t@	c #D8772E",
"u@	c #3F1F07",
"v@	c #914C1B",
"w@	c #A05420",
"x@	c #B75019",
"y@	c #D16D22",
"z@	c #CF6D22",
"A@	c #D26F21",
"B@	c #B64F19",
"C@	c #914C1C",
"D@	c #3F1E07",
"E@	c #D06E24",
"F@	c #8C4B1F",
"G@	c #562E0F",
"H@	c #220F04",
"I@	c #522E14",
"J@	c #92562B",
"K@	c #F19A53",
"L@	c #955228",
"M@	c #522F18",
"N@	c #6A3D1C",
"O@	c #4C2A12",
"P@	c #2F1707",
"Q@	c #2E1404",
"R@	c #8B4A1A",
"S@	c #442008",
"T@	c #642E06",
"U@	c #582B06",
"V@	c #652D0E",
"W@	c #CE601E",
"X@	c #D26620",
"Y@	c #D0661F",
"Z@	c #EB7D35",
"`@	c #672E0E",
" #	c #632F06",
".#	c #54280B",
"+#	c #9B511C",
"@#	c #341805",
"##	c #1B0C03",
"$#	c #7F4924",
"%#	c #9A5B2E",
"&#	c #A46130",
"*#	c #945129",
"=#	c #9B5B2E",
"-#	c #864F27",
";#	c #542F15",
">#	c #2D1707",
",#	c #241002",
"'#	c #552D0E",
")#	c #50260A",
"!#	c #663106",
"~#	c #623006",
"{#	c #502508",
"]#	c #652A0D",
"^#	c #642B0D",
"/#	c #502507",
"(#	c #663206",
"_#	c #612D0D",
":#	c #BE5F1E",
"<#	c #5D2D0E",
"[#	c #110602",
"}#	c #5F3618",
"|#	c #CA7236",
"1#	c #A46131",
"2#	c #E4914D",
"3#	c #834C25",
"4#	c #71411F",
"5#	c #40220E",
"6#	c #090300",
"7#	c #231002",
"8#	c #6E3A14",
"9#	c #8B4115",
"0#	c #7F471F",
"a#	c #572A05",
"b#	c #622D0F",
"c#	c #622F0F",
"d#	c #7F461E",
"e#	c #8A4015",
"f#	c #BC5D1F",
"g#	c #C85C1C",
"h#	c #321805",
"i#	c #0A0301",
"j#	c #794722",
"k#	c #A46132",
"l#	c #A46031",
"m#	c #F09952",
"n#	c #895028",
"o#	c #6A3D1D",
"p#	c #3A1F0B",
"q#	c #0C0301",
"r#	c #57290C",
"s#	c #D2631E",
"t#	c #CA6620",
"u#	c #B96020",
"v#	c #CC5F1E",
"w#	c #CD601E",
"x#	c #B76020",
"y#	c #CA6720",
"z#	c #AF4C18",
"A#	c #6A3718",
"B#	c #271306",
"C#	c #512E14",
"D#	c #895128",
"E#	c #A36231",
"F#	c #A46030",
"G#	c #9B5A2E",
"H#	c #502D14",
"I#	c #371C0A",
"J#	c #2D1207",
"K#	c #32162A",
"L#	c #6A3218",
"M#	c #A34319",
"N#	c #BF561B",
"O#	c #BF5A1D",
"P#	c #BF571B",
"Q#	c #A34419",
"R#	c #4D2547",
"S#	c #5A2914",
"T#	c #462510",
"U#	c #704522",
"V#	c #573216",
"W#	c #8F5329",
"X#	c #A36031",
"Y#	c #040101",
"Z#	c #9E6133",
"`#	c #91552A",
" $	c #70411F",
".$	c #492811",
"+$	c #311808",
"@$	c #5D0D03",
"#$	c #881117",
"$$	c #362D77",
"%$	c #3B3B97",
"&$	c #551C40",
"*$	c #6F0D14",
"=$	c #6E0C14",
"-$	c #731415",
";$	c #541D40",
">$	c #3C3A96",
",$	c #3A3388",
"'$	c #9C1419",
")$	c #6D0902",
"!$	c #2E1607",
"~$	c #6E3F1E",
"{$	c #91552B",
"]$	c #96532A",
"^$	c #532E15",
"/$	c #63381A",
"($	c #241105",
"_$	c #0F0501",
":$	c #570502",
"<$	c #B30F06",
"[$	c #9D161F",
"}$	c #633953",
"|$	c #824A54",
"1$	c #802143",
"2$	c #AC1C2A",
"3$	c #AC1B2A",
"4$	c #832144",
"5$	c #724252",
"6$	c #643953",
"7$	c #9F161E",
"8$	c #A01206",
"9$	c #640802",
"0$	c #3C210D",
"a$	c #834D25",
"b$	c #965229",
"c$	c #512F18",
"d$	c #9F6132",
"e$	c #93572C",
"f$	c #200F04",
"g$	c #150702",
"h$	c #3B1F0B",
"i$	c #6A2F16",
"j$	c #9E1413",
"k$	c #48204A",
"l$	c #AB7624",
"m$	c #EAAF1D",
"n$	c #6E3F4D",
"o$	c #4040A0",
"p$	c #3F40A1",
"q$	c #3E40A1",
"r$	c #3F40A0",
"s$	c #693E51",
"t$	c #C68C25",
"u$	c #D39F1D",
"v$	c #482049",
"w$	c #9D1414",
"x$	c #963C1D",
"y$	c #613619",
"z$	c #573318",
"A$	c #603719",
"B$	c #B8723A",
"C$	c #965329",
"D$	c #542F18",
"E$	c #512D15",
"F$	c #7F4B25",
"G$	c #3D210D",
"H$	c #3D210E",
"I$	c #42200F",
"J$	c #864F28",
"K$	c #9D5D31",
"L$	c #7B492A",
"M$	c #362E77",
"N$	c #814420",
"O$	c #A2521A",
"P$	c #5B3F92",
"Q$	c #444EBD",
"R$	c #574093",
"S$	c #A0511A",
"T$	c #A25E30",
"U$	c #352E77",
"V$	c #95582D",
"W$	c #4B2A14",
"X$	c #4D2B12",
"Y$	c #C27B41",
"Z$	c #975229",
"`$	c #030201",
" %	c #9F6033",
".%	c #512E15",
"+%	c #683C1D",
"@%	c #41230E",
"#%	c #6E4120",
"$%	c #89502B",
"%%	c #834E2A",
"&%	c #373381",
"*%	c #4448B1",
"=%	c #4F49AA",
"-%	c #444CBD",
";%	c #4143A8",
">%	c #4447AE",
",%	c #383481",
"'%	c #834E2B",
")%	c #653A1C",
"!%	c #2E1708",
"~%	c #A06132",
"{%	c #512E16",
"]%	c #6C3F1F",
"^%	c #6E4421",
"/%	c #8D542E",
"(%	c #995A2F",
"_%	c #8F5732",
":%	c #86502D",
"<%	c #312D7A",
"[%	c #383B99",
"}%	c #5A55B7",
"|%	c #444EBC",
"1%	c #645BBE",
"2%	c #5B53BC",
"3%	c #434BB7",
"4%	c #383A99",
"5%	c #312E7A",
"6%	c #86502E",
"7%	c #8F5733",
"8%	c #875028",
"9%	c #62381B",
"0%	c #40200A",
"a%	c #9C5D2F",
"b%	c #96522A",
"c%	c #522E19",
"d%	c #A06133",
"e%	c #734321",
"f%	c #3F210D",
"g%	c #4C2B14",
"h%	c #643B1F",
"i%	c #643B20",
"j%	c #543231",
"k%	c #3F43A3",
"l%	c #3B3B99",
"m%	c #34338B",
"n%	c #312E78",
"o%	c #24275F",
"p%	c #171D4A",
"q%	c #14183F",
"r%	c #272451",
"s%	c #372D6E",
"t%	c #34328B",
"u%	c #3F42A2",
"v%	c #5A3638",
"w%	c #6D4125",
"x%	c #5A331A",
"y%	c #221105",
"z%	c #552F15",
"A%	c #854F27",
"B%	c #5A3317",
"C%	c #391E0B",
"D%	c #2C1607",
"E%	c #0E1030",
"F%	c #5F52AA",
"G%	c #444FBC",
"H%	c #3B3F98",
"I%	c #1A1B4A",
"J%	c #05071A",
"K%	c #1C0C03",
"L%	c #05030D",
"M%	c #242461",
"N%	c #4047AE",
"O%	c #4348B1",
"P%	c #271F54",
"Q%	c #72411F",
"R%	c #1E0E04",
"S%	c #251205",
"T%	c #613719",
"U%	c #A16133",
"V%	c #542F16",
"W%	c #744220",
"X%	c #532E14",
"Y%	c #1B0906",
"Z%	c #512E2F",
"`%	c #482C56",
" &	c #2A2968",
".&	c #0A0A25",
"+&	c #1E0D06",
"@&	c #4E2B12",
"#&	c #2A1609",
"$&	c #131647",
"%&	c #333381",
"&&	c #482C57",
"*&	c #6E4134",
"=&	c #401F14",
"-&	c #6F3F1E",
";&	c #331A09",
">&	c #663A1B",
",&	c #8F4624",
"'&	c #A26233",
")&	c #8D4624",
"!&	c #7B4622",
"~&	c #080200",
"{&	c #4A2506",
"]&	c #6B3306",
"^&	c #643007",
"/&	c #381906",
"(&	c #0F0305",
"_&	c #754420",
":&	c #693C1C",
"<&	c #281406",
"[&	c #200B0C",
"}&	c #4B220A",
"|&	c #643106",
"1&	c #703708",
"2&	c #8E4510",
"3&	c #492403",
"4&	c #573116",
"5&	c #9F5C2E",
"6&	c #643C21",
"7&	c #663D20",
"8&	c #663C20",
"9&	c #4D2C16",
"0&	c #1F0D00",
"a&	c #522802",
"b&	c #743704",
"c&	c #321602",
"d&	c #180700",
"e&	c #221005",
"f&	c #5A351A",
"g&	c #462713",
"h&	c #240D01",
"i&	c #4F2204",
"j&	c #733604",
"k&	c #753704",
"l&	c #4B2402",
"m&	c #321B0B",
"n&	c #422511",
"o&	c #5E371C",
"p&	c #62381D",
"q&	c #20190A",
"r&	c #201909",
"s&	c #251909",
"t&	c #1A0E06",
"u&	c #0F0703",
"v&	c #180A00",
"w&	c #462101",
"x&	c #552801",
"y&	c #562901",
"z&	c #200F00",
"A&	c #130904",
"B&	c #1E1109",
"C&	c #090402",
"D&	c #291300",
"E&	c #311701",
"F&	c #542701",
"G&	c #2B1300",
"H&	c #050201",
"I&	c #0D0602",
"J&	c #180D05",
"K&	c #201209",
"L&	c #0E0E01",
"  . + @ @ # @ + @ $ % & * = - ; > , ' ) * ! ~ $ { ] ^ . + @ / ( ",
"_ : < [ } } } | 1 2 3 4 5 6 7 8 9 0 a b c d e f g | | h i j k l ",
"  m n o p q p p r s t u v w x y y z A B C t D E F G p p H I J K ",
"_ m n L M M N O P Q R S T U V W X Y Z T `  ...+.@.#.M M $.%.&.K ",
"  *.=.-.M N ;.>.,.'.).!.~.{.].^./.(._.:.<.[.}.|.1.>.2.M M 3.&.K ",
"_ *.4.5.6.7.8.9.0.a.[.b.c.d.e.f.g.h.i.j.k.!.l.m.n.o.p.q.M r.&.K ",
"s.m t.5.u.v.w.x.y.z.A.B.C.D.D.D.E.D.F.G.H.I.J.K.L.M.N.O.M r.P.K ",
"s.m 4.Q.N R.S.T.U.V.W.X.Y.Z.`.`.`.Z. +.+++@+V.#+$+%+&+*+M r.&.=+",
"_ *.=.5.-+;+>+,+'+)+!+~+{+]+^+/+(+_+:+{+<+!+[+}+|+1+R.2+M 3.&.3+",
"s.*.4.Q.M 4++.5+6+7+8+9+0+a+b+c+c+d+e+f+g+h+i+j+k+l+>.m+M r.P.K ",
"_ *.4.Q.n+&+o+_ p+q+r+s+t+u+v+w+x+y+z+A+B+C+D+E+F+>+R.G+M 3.&.=+",
"  H+I+5.J+K+L+M+N+O+P+Q+R+S+T+U+V+W+S+X+Y+Z+`+ @.@+@@@#@M r.P.3+",
"_ $@t.%@>.>+&@*@=@-@;@>@,@'@)@!@~@{@]@^@/@(@_@:@<@[@>+}@M 3.&.=+",
"_ $@I+|@1@2@3@4@5@6@7@8@9@0@a@b@c@d@e@f@8@g@h@i@j@k@1+l@m@r.&.K ",
"_ m n@|@o@p@q@r@s@t@u@v@w@x@y@z@c@A@B@w@C@D@E@F@G@H@I@J@K@L@M@K ",
"_ *.=.G+N@O@o@P@Q@R@S@T@U@V@W@X@Y@Z@`@U@ #.#+#@###O@$#%#&#*#P.=+",
"_ *.n Q.=#-#;#>#>#,#'#)#!#~#{#]#^#/#~#(#_#:#<#[#+.}#|#1#M 3.&.K ",
"  *.=.5.K@2#3#4#5#6#7#8#9#0#a#b#c#a#d#e#f#g#h#i#+.j#1#k#M 3.P.3+",
"s.*.I+Q.l#m#l#n#o#p#q#r#s#t#u#v#w#x#y#s#z#A#;+B#C#D#M E#M 3.P.K ",
"_ *.I+Q.M F#G#l@H#I#J#K#L#M#N#O#O#P#Q#L#R#S#T#U#V#l@W#M X#3.P.Y#",
"_ Z#I+5.M `# $.$+$@$#$$$%$&$*$=$*$-$;$>$,$'$)$!$o+>+~${$M ]$P.3+",
"_ *.^$Q.2./$($_$:$<$[$}$|$1$2$3$3$2$4$5$6$7$8$9$3 0$M.a$M b$c$=+",
"_ d$^$e$>.f$g$h$i$j$k$l$m$n$o$p$q$r$s$t$u$v$w$x$y$z$p#A$B$C$D$=+",
"  *.E$F$G$H$I$J$K$L$M$N$O$P$Q$Q$Q$Q$R$S$T$U$L$u.V$W$p@X$Y$Z$t.`$",
"_  %.%+%@%#%$%1#l#%%&%*%=%-%Q$Q$Q$Q$Q$;%>%,%'%l#k#)%!%;+`#3.t.K ",
"  ~%{%]%>+^%/%(%_%:%<%[%}%|%|%Q$Q$1%2%3%4%5%6%7%8%9%0%>.a%b%c%K ",
"s.d%I+e%f%5#g%h%i%j%k%l%m%n%o%p%q%r%s%t%l%u%v%w%x%y%z%-#N b$P.K ",
"s.d%n@A%B%>+C%D%q@E%F%G%H%I%J%f$K%L%M%N%Q$O%P%Q%R%S%T%G#M ]$c%=+",
"_ U%V%%@-#W%X%o.+.Y%Z%`% &.&+&@&3 #&$&%&&&*&=&-&;&K%>&%#,&b%M@K ",
"s.'&V%)&M N !&>#~&{&]&^&/&(&;&_&:&<&[&}&|&1&2&3&4&2@;#} 5&b$M@K ",
"  6&M@I 7&8&9&D 0&a&b&b&c&d&e&f&g&>+h&i&b&j&k&l&m&e&n&o&8&p&P.K ",
"  q&r&r&s&s&t&u&v&w&x&y&z&>+A&B&& C&D&E&x&x&F&G&H&I&J&K&K&r&r&L&"};
