/* XPM */
static char * player_top_xpm[] = {
"32 32 482 2",
"  	c #000D00",
". 	c #301400",
"+ 	c #301B00",
"@ 	c #311400",
"# 	c #311C00",
"$ 	c #301C00",
"% 	c #341C00",
"& 	c #311500",
"* 	c #2B1100",
"= 	c #240201",
"- 	c #2F0101",
"; 	c #2B1200",
"> 	c #2F1400",
", 	c #321C00",
"' 	c #180900",
") 	c #010000",
"! 	c #893800",
"~ 	c #7F3300",
"{ 	c #803400",
"] 	c #813500",
"^ 	c #803600",
"/ 	c #813600",
"( 	c #803500",
"_ 	c #7F3600",
": 	c #722F00",
"< 	c #542000",
"[ 	c #72070A",
"} 	c #990A08",
"| 	c #BC1200",
"1 	c #9A0A07",
"2 	c #73070A",
"3 	c #6F2E00",
"4 	c #803300",
"5 	c #7E3300",
"6 	c #401A00",
"7 	c #0E0D00",
"8 	c #000000",
"9 	c #883800",
"0 	c #421900",
"a 	c #4B1C00",
"b 	c #4F1F00",
"c 	c #4E1F00",
"d 	c #4C1E00",
"e 	c #301000",
"f 	c #6D020A",
"g 	c #A90505",
"h 	c #C60800",
"i 	c #D60D00",
"j 	c #D40C00",
"k 	c #A90506",
"l 	c #6E020D",
"m 	c #4C1D00",
"n 	c #502000",
"o 	c #4E1D00",
"p 	c #4C1C00",
"q 	c #3E1700",
"r 	c #772600",
"s 	c #8D3B00",
"t 	c #5D2401",
"u 	c #85080E",
"v 	c #BA0F04",
"w 	c #D71400",
"x 	c #D81400",
"y 	c #DA1500",
"z 	c #DB1700",
"A 	c #D81500",
"B 	c #B80F04",
"C 	c #84070F",
"D 	c #552000",
"E 	c #883900",
"F 	c #994200",
"G 	c #833100",
"H 	c #752500",
"I 	c #401800",
"J 	c #431A00",
"K 	c #8C3A00",
"L 	c #984000",
"M 	c #6F2B00",
"N 	c #88100F",
"O 	c #BB1004",
"P 	c #DA1600",
"Q 	c #D91500",
"R 	c #DD1C00",
"S 	c #D71500",
"T 	c #BA0F05",
"U 	c #6E2C01",
"V 	c #DB6300",
"W 	c #8E3C00",
"X 	c #813100",
"Y 	c #893C00",
"Z 	c #421A00",
"` 	c #8D3A00",
" .	c #8D3900",
"..	c #963D00",
"+.	c #DF6400",
"@.	c #4A1701",
"#.	c #B20D08",
"$.	c #E01E00",
"%.	c #D91700",
"&.	c #B20D07",
"*.	c #491701",
"=.	c #7F3400",
"-.	c #8E3A00",
";.	c #8D3800",
">.	c #803100",
",.	c #010100",
"'.	c #411900",
").	c #C54F00",
"!.	c #8E3B00",
"~.	c #642800",
"{.	c #85060F",
"].	c #CB1100",
"^.	c #DE1B00",
"/.	c #D91400",
"(.	c #D91600",
"_.	c #DF1D00",
":.	c #E12300",
"<.	c #CA1200",
"[.	c #83060E",
"}.	c #943D00",
"|.	c #8E3900",
"1.	c #3F1800",
"2.	c #883B00",
"3.	c #8B3A00",
"4.	c #5B060C",
"5.	c #9E0813",
"6.	c #DA1400",
"7.	c #DE1D00",
"8.	c #D81600",
"9.	c #9D0713",
"0.	c #5B050A",
"a.	c #C75000",
"b.	c #8D3D00",
"c.	c #020000",
"d.	c #5C060C",
"e.	c #A20D13",
"f.	c #D61400",
"g.	c #D61500",
"h.	c #9F0713",
"i.	c #5C050B",
"j.	c #923D00",
"k.	c #020100",
"l.	c #630E0C",
"m.	c #9F0A13",
"n.	c #CF1800",
"o.	c #C41100",
"p.	c #BF1903",
"q.	c #B40E05",
"r.	c #B60E06",
"s.	c #B40E06",
"t.	c #B90F03",
"u.	c #C51100",
"v.	c #CB1300",
"w.	c #E76900",
"x.	c #531E01",
"y.	c #8D0611",
"z.	c #A50C10",
"A.	c #C81100",
"B.	c #C11001",
"C.	c #C71100",
"D.	c #D71B00",
"E.	c #D41400",
"F.	c #C61100",
"G.	c #C20F01",
"H.	c #A30910",
"I.	c #8B0410",
"J.	c #541F00",
"K.	c #863900",
"L.	c #C35600",
"M.	c #7D3200",
"N.	c #5E040B",
"O.	c #9D0813",
"P.	c #9E0714",
"Q.	c #AC0C0A",
"R.	c #C41000",
"S.	c #DC1A00",
"T.	c #DB1A00",
"U.	c #C31100",
"V.	c #B1140A",
"W.	c #9D0714",
"X.	c #5D040A",
"Y.	c #7D3300",
"Z.	c #873B00",
"`.	c #B74F00",
" +	c #6C2B00",
".+	c #742F00",
"++	c #75070C",
"@+	c #940711",
"#+	c #A00812",
"$+	c #A90C0D",
"%+	c #CD1600",
"&+	c #CC1200",
"*+	c #CE1600",
"=+	c #9F0812",
"-+	c #9F0C14",
";+	c #940712",
">+	c #76070C",
",+	c #742E00",
"'+	c #863800",
")+	c #6F3000",
"!+	c #B64A00",
"~+	c #2C0F00",
"{+	c #3F0700",
"]+	c #69040C",
"^+	c #950712",
"/+	c #69040D",
"(+	c #3E0600",
"_+	c #2B0D00",
":+	c #CC5600",
"<+	c #903C00",
"[+	c #893B00",
"}+	c #431B00",
"|+	c #6E2E00",
"1+	c #351200",
"2+	c #4E1A00",
"3+	c #4B1A00",
"4+	c #330E00",
"5+	c #2B0A00",
"6+	c #2B0900",
"7+	c #320E00",
"8+	c #4A1A00",
"9+	c #341100",
"0+	c #C85300",
"a+	c #6F2F00",
"b+	c #8E3D00",
"c+	c #EA6900",
"d+	c #813200",
"e+	c #401900",
"f+	c #742D00",
"g+	c #9D3D00",
"h+	c #712C00",
"i+	c #561E00",
"j+	c #6A2400",
"k+	c #5C2000",
"l+	c #461700",
"m+	c #451600",
"n+	c #461800",
"o+	c #562000",
"p+	c #461600",
"q+	c #6A2600",
"r+	c #9D3C00",
"s+	c #732F00",
"t+	c #8F3C00",
"u+	c #803000",
"v+	c #7E3400",
"w+	c #632700",
"x+	c #381400",
"y+	c #6F2800",
"z+	c #652400",
"A+	c #6E2800",
"B+	c #6D2700",
"C+	c #6E2700",
"D+	c #662500",
"E+	c #371400",
"F+	c #7D3400",
"G+	c #CA5200",
"H+	c #5D2200",
"I+	c #4A1900",
"J+	c #752D00",
"K+	c #752C00",
"L+	c #4E1C00",
"M+	c #E96900",
"N+	c #6F2C01",
"O+	c #340500",
"P+	c #391300",
"Q+	c #310E29",
"R+	c #642500",
"S+	c #2F1000",
"T+	c #310F29",
"U+	c #391400",
"V+	c #330500",
"W+	c #702C01",
"X+	c #8F3B00",
"Y+	c #8A3A00",
"Z+	c #732D00",
"`+	c #B00E03",
" @	c #950909",
".@	c #26174B",
"+@	c #342174",
"@@	c #2F0F36",
"#@	c #460800",
"$@	c #800A07",
"%@	c #470800",
"&@	c #352173",
"*@	c #25184B",
"=@	c #940909",
"-@	c #AF0E03",
";@	c #B85001",
">@	c #030000",
",@	c #873D00",
"'@	c #682701",
")@	c #A70D05",
"!@	c #D51F00",
"~@	c #97080D",
"{@	c #2F236B",
"]@	c #712D00",
"^@	c #5E2214",
"/@	c #640512",
"(@	c #840A00",
"_@	c #830B00",
":@	c #690912",
"<@	c #622609",
"[@	c #702B00",
"}@	c #2D246B",
"|@	c #96080D",
"1@	c #CD1300",
"2@	c #672800",
"3@	c #441B00",
"4@	c #893900",
"5@	c #840D00",
"6@	c #D51300",
"7@	c #A20B00",
"8@	c #6E0712",
"9@	c #312473",
"0@	c #A65800",
"a@	c #682623",
"b@	c #392F97",
"c@	c #383098",
"d@	c #393098",
"e@	c #68281F",
"f@	c #9E5400",
"g@	c #302472",
"h@	c #A20F00",
"i@	c #D41300",
"j@	c #B14C00",
"k@	c #823100",
"l@	c #3F1900",
"m@	c #883A00",
"n@	c #8A3800",
"o@	c #692702",
"p@	c #860B08",
"q@	c #500209",
"r@	c #2E1B57",
"s@	c #3A319D",
"t@	c #4A3198",
"u@	c #3B31A0",
"v@	c #3C34A8",
"w@	c #3A32A0",
"x@	c #3A2F97",
"y@	c #49359E",
"z@	c #2E1C56",
"A@	c #850B08",
"B@	c #984204",
"C@	c #B55000",
"D@	c #823200",
"E@	c #7B3201",
"F@	c #6E2602",
"G@	c #843600",
"H@	c #682901",
"I@	c #271544",
"J@	c #3C2F9C",
"K@	c #3C34A9",
"L@	c #533AAA",
"M@	c #3B309A",
"N@	c #281543",
"O@	c #833500",
"P@	c #783104",
"Q@	c #7C3301",
"R@	c #C65900",
"S@	c #873800",
"T@	c #452100",
"U@	c #913E05",
"V@	c #833403",
"W@	c #843605",
"X@	c #793109",
"Y@	c #261547",
"Z@	c #4C38A9",
"`@	c #3C309B",
" #	c #271547",
".#	c #793107",
"+#	c #843607",
"@#	c #853701",
"##	c #732E03",
"$#	c #BA5400",
"%#	c #762E02",
"&#	c #6C2B07",
"*#	c #352277",
"=#	c #523AAA",
"-#	c #3C35A8",
";#	c #5D3DAA",
">#	c #583AA9",
",#	c #352276",
"'#	c #271446",
")#	c #6B2C06",
"!#	c #753001",
"~#	c #8F3E00",
"{#	c #BB4B00",
"]#	c #702E00",
"^#	c #813000",
"/#	c #3F1700",
"(#	c #783000",
"_#	c #813400",
":#	c #7A3201",
"<#	c #602505",
"[#	c #682903",
"}#	c #773004",
"|#	c #311D67",
"1#	c #332277",
"2#	c #34257F",
"3#	c #382C92",
"4#	c #3A329F",
"5#	c #3A32A1",
"6#	c #5038A0",
"7#	c #4B2F93",
"8#	c #342378",
"9#	c #301E66",
"0#	c #772F02",
"a#	c #612603",
"b#	c #7A3200",
"c#	c #883700",
"d#	c #783100",
"e#	c #762F01",
"f#	c #6C2B04",
"g#	c #652803",
"h#	c #853600",
"i#	c #853800",
"j#	c #7A3538",
"k#	c #36277F",
"l#	c #332071",
"m#	c #301B5F",
"n#	c #33206D",
"o#	c #322171",
"p#	c #332173",
"q#	c #33206F",
"r#	c #301C60",
"s#	c #36267F",
"t#	c #4F2035",
"u#	c #863700",
"v#	c #752F01",
"w#	c #8F3D00",
"x#	c #8C3900",
"y#	c #863600",
"z#	c #6A2C0F",
"A#	c #3A3098",
"B#	c #33206E",
"C#	c #421819",
"D#	c #61250D",
"E#	c #61260D",
"F#	c #421918",
"G#	c #2D1C70",
"H#	c #3A2E98",
"I#	c #3B3098",
"J#	c #93400F",
"K#	c #7D2800",
"L#	c #7A2800",
"M#	c #582000",
"N#	c #431528",
"O#	c #2E2369",
"P#	c #2A1C58",
"Q#	c #612500",
"R#	c #602601",
"S#	c #291B59",
"T#	c #2E2269",
"U#	c #431626",
"V#	c #5F2500",
"W#	c #843700",
"X#	c #4D1F00",
"Y#	c #502100",
"Z#	c #522500",
"`#	c #391200",
" $	c #612200",
".$	c #591E00",
"+$	c #512100",
"@$	c #361400",
"#$	c #5D2000",
"$$	c #602200",
"%$	c #762C00",
"&$	c #532100",
"*$	c #4E1E00",
"=$	c #1D1300",
"-$	c #181400",
";$	c #1E1400",
">$	c #18140D",
",$	c #160700",
"'$	c #3A1400",
")$	c #2F0F00",
"!$	c #190900",
"~$	c #160800",
"{$	c #3A1300",
"]$	c #150700",
"^$	c #190A00",
"/$	c #010D00",
"  . + @ @ # # + # $ % % & * = - - = ; > & $ # $ # , $ . + # ' ) ",
") ! ~ { ] ] ] ^ / ( _ : < [ } | | 1 2 < 3 _ ( / ^ ^ ^ ( 4 5 6 7 ",
"8 9 0 a b c b b b d e f g h i i j j h k l e m c b n b b o p q ) ",
") 9 0 r s s s s 9 t u v w x y z y A A w B C D E F s s s G H I 7 ",
"8 E J K s s L s M N O A x P Q R A x A A S T C U V W s s s X I ) ",
") Y Z `  ...+.^ @.#.S A Q $.A A x x x Q %.w &.*.=.s -.;.s >.I ) ",
",.9 '.`  .).!.~.{.].x x ^.x A A x /.(._.:.A <.[.~.}.-.|.s >.1.) ",
",.2.Z 3.s s s 4.5.A x 6.A S A A A A 7.7.8.A A 9.0.a.s b.s >.I c.",
") E J ` ` s s d.e.S A A A S f.S S g.x x x x A h.i.s s j.s X I k.",
",.E Z 3.s s W l.m.n.A A o.p.q.r.r.s.t.u.A Q v.9.i.-.!.w.s >.1.) ",
") E Z 3.s s s x.y.z.A.B.C.D.A S A Q E.F.G.A.H.I.J.s s ` s X I c.",
"8 K.Z ` s L.!.M.N.O.P.Q.R.S S.8.T.Q (.U.V.P.W.X.Y.-.-.` s >.1.k.",
") Z.'.3.s `.-. +.+++@+P.#+$+%+&+*+<.$+=+-+;+>+,+ +!.-.-.s X I c.",
") '+Z ` s s s )+!+~+{+]+^+P.5.P.P.P.W.;+/+(+_+:+)+` s s <+>.I ) ",
") [+}+` s !.-.|+!+1+2+3+4+5+6+5+6+5+5+7+8+2+9+0+a+b+!.!.c+d+e+) ",
") E J ` !.!.s f+g+h+i+j+k+l+l+m+n+o+p+k+q+i+h+r+s+s -.s t+u+1.c.",
") E 0 3.!.!.s !.v+w+x+y+z+A+B+B+C+C+A+D+y+E+w+F+s W G+!.s X I ) ",
"8 E J ` c+c+` s |.5 H+y+I+J+A+k+k+A+K+I+y+L+M.-.-.s !.-.s X 1.k.",
",.E Z 3.-.M+-.` s N+O+P+Q+R+k+S+S+k+R+T+U+V+W+s s s s b.s X 1.) ",
") E Z 3.s X+-.Y+Z+`+ @.@+@@@#@$@$@%@@@&@*@=@-@;@Y+s -.s ` X 1.>@",
") ,@Z ` s !.-.'@)@!@~@{@]@^@/@(@_@:@<@[@}@|@1@)@2@s -.-.s X 1.k.",
") E 3@3.s -.4@5@6@7@8@9@0@a@b@c@c@d@e@f@g@8@h@i@5@j@s s s k@l@c.",
") m@3@` s n@o@p@s.q@r@s@t@u@v@v@v@v@w@x@y@z@q@s.A@B@4@s C@D@0 c.",
"8 E J ` -.E@F@G@H@I@J@v@v@v@K@v@v@v@v@K@L@M@N@H@O@P@Q@s R@G '.k.",
") S@T@K Y.U@V@W@X@Y@J@v@Z@v@v@v@v@K@v@v@v@`@ #.#+#@###Y.s X '.) ",
"8 E Z K h+$#` %#&#Y@*#s@=#K@v@v@-#;#>#v@s@,#'#)#!#~#{#]#s ^#/#) ",
",.S@Z 3.(#_#:#<#[#}#|#1#2#3#4#4#5#6#7#2#8#9#0#[#a#b#c#d#s k@1.) ",
",.m@}+3.-.e#f#g#h#i#j#k#l#m#n#o#p#q#r#o#s#t#h#u#g#f#v#w#s X /#c.",
") Y+3@3.s x#y#E -.-.z#A#x@B#C#D#E#F#G#H#I#J#-.-.! y#K s K#^#e+) ",
",.Y+3@L#s s -.-.-.G@M#N#O#P#Q#!.-.R#S#T#U#V#W#!.!.s ` s n@k@e+) ",
"8 X#e+p Y#n n n Z#`#K+ $k+.$E++$+$@$.$#$$$%$`#&$+$+$+$+$n *$1.) ",
"8 =$' -$-$;$>$;$' ,$'$P+P+)$,$' !$~$S+'$P+{$]$' !$-$^$-$;$;$;$/$"};
