/* XPM */
static char * tube_red_xpm[] = {
"32 32 315 2",
"  	c #010101",
". 	c #442B19",
"+ 	c #442A19",
"@ 	c #452B19",
"# 	c #452B18",
"$ 	c #442B18",
"% 	c #442A18",
"& 	c #1F1108",
"* 	c #010000",
"= 	c #A05F32",
"- 	c #96582E",
"; 	c #96582D",
"> 	c #97592D",
", 	c #96592C",
"' 	c #97592C",
") 	c #96592D",
"! 	c #95582C",
"~ 	c #95592D",
"{ 	c #96582C",
"] 	c #96572D",
"^ 	c #95572D",
"/ 	c #533019",
"( 	c #030101",
"_ 	c #9F5F32",
": 	c #532E17",
"< 	c #5D331A",
"[ 	c #653B20",
"} 	c #653C21",
"| 	c #653C20",
"1 	c #653B1F",
"2 	c #62371D",
"3 	c #5E331A",
"4 	c #522F1A",
"5 	c #020101",
"6 	c #8A4524",
"7 	c #A36131",
"8 	c #A36132",
"9 	c #B16C39",
"0 	c #AC6634",
"a 	c #B06C39",
"b 	c #98542B",
"c 	c #874121",
"d 	c #532F19",
"e 	c #9F6032",
"f 	c #532E16",
"g 	c #A36133",
"h 	c #AF6B39",
"i 	c #A46032",
"j 	c #E6924D",
"k 	c #A46131",
"l 	c #A36032",
"m 	c #AF6735",
"n 	c #A46130",
"o 	c #D07638",
"p 	c #A46132",
"q 	c #E6934E",
"r 	c #A36130",
"s 	c #955229",
"t 	c #522E16",
"u 	c #AB6433",
"v 	c #E9944F",
"w 	c #000000",
"x 	c #A46031",
"y 	c #A46033",
"z 	c #945229",
"A 	c #010100",
"B 	c #522E17",
"C 	c #D2773A",
"D 	c #8D0605",
"E 	c #D02F2A",
"F 	c #E7403C",
"G 	c #FD5B58",
"H 	c #EA433F",
"I 	c #CF2D28",
"J 	c #BF201D",
"K 	c #C01F1C",
"L 	c #C0201D",
"M 	c #C0211D",
"N 	c #BB1D1A",
"O 	c #AF0807",
"P 	c #760606",
"Q 	c #A96433",
"R 	c #522F19",
"S 	c #A26132",
"T 	c #A90602",
"U 	c #DE1F1A",
"V 	c #F53A33",
"W 	c #FE5B58",
"X 	c #E32E2B",
"Y 	c #DE231D",
"Z 	c #CE0703",
"` 	c #CF0703",
" .	c #CF0702",
"..	c #CF0803",
"+.	c #C50604",
"@.	c #B30806",
"#.	c #C30805",
"$.	c #91090A",
"%.	c #760605",
"&.	c #D4783A",
"*.	c #A36231",
"=.	c #AA0502",
"-.	c #E0201A",
";.	c #F43933",
">.	c #FD5A57",
",.	c #E22F2B",
"'.	c #DF231E",
").	c #D10602",
"!.	c #D10501",
"~.	c #D20501",
"{.	c #D20502",
"].	c #C60603",
"^.	c #B50706",
"/.	c #C40804",
"(.	c #920909",
"_.	c #A86433",
":.	c #020100",
"<.	c #A90502",
"[.	c #F43932",
"}.	c #FD5B57",
"|.	c #E22F2A",
"1.	c #DF231D",
"2.	c #D20601",
"3.	c #D20500",
"4.	c #B50805",
"5.	c #910909",
"6.	c #EF9A53",
"7.	c #A30502",
"8.	c #D41B16",
"9.	c #E7342C",
"0.	c #EB514E",
"a.	c #D82C26",
"b.	c #D41F18",
"c.	c #C90501",
"d.	c #C90500",
"e.	c #BF0602",
"f.	c #AF0706",
"g.	c #BD0704",
"h.	c #92090A",
"i.	c #9E6032",
"j.	c #532F17",
"k.	c #D48547",
"l.	c #6A0B0A",
"m.	c #6B0908",
"n.	c #690A08",
"o.	c #6A0909",
"p.	c #6A0908",
"q.	c #6A0A08",
"r.	c #6C0A08",
"s.	c #690908",
"t.	c #6C0B09",
"u.	c #550806",
"v.	c #9E5F32",
"w.	c #C97B40",
"x.	c #3B0507",
"y.	c #55060B",
"z.	c #5D060B",
"A.	c #721515",
"B.	c #670E0F",
"C.	c #59060B",
"D.	c #58060A",
"E.	c #51050B",
"F.	c #50050B",
"G.	c #580509",
"H.	c #51060C",
"I.	c #B71613",
"J.	c #D22B24",
"K.	c #E44B46",
"L.	c #DB3C37",
"M.	c #CA251F",
"N.	c #C41E1B",
"O.	c #AD0706",
"P.	c #AC0706",
"Q.	c #8F070A",
"R.	c #9D0707",
"S.	c #6D080C",
"T.	c #74080C",
"U.	c #D48546",
"V.	c #A56130",
"W.	c #532F16",
"X.	c #DE1B15",
"Y.	c #F6322B",
"Z.	c #F95752",
"`.	c #F74741",
" +	c #EF2C25",
".+	c #E82721",
"++	c #D20602",
"@+	c #D10702",
"#+	c #AB0706",
"$+	c #AE0604",
"%+	c #79090C",
"&+	c #85090C",
"*+	c #CC7E41",
"=+	c #F19A53",
"-+	c #955228",
";+	c #522F18",
">+	c #DE1C15",
",+	c #F63129",
"'+	c #FA5751",
")+	c #F84741",
"!+	c #F02C26",
"~+	c #E82620",
"{+	c #D20703",
"]+	c #D20702",
"^+	c #AA0707",
"/+	c #AE0704",
"(+	c #78080C",
"_+	c #840A0C",
":+	c #945129",
"<+	c #DE1C14",
"[+	c #FA5550",
"}+	c #F84740",
"|+	c #EF2B25",
"1+	c #AA0807",
"2+	c #79090B",
"3+	c #D6793A",
"4+	c #F19952",
"5+	c #A36031",
"6+	c #F63029",
"7+	c #FA5650",
"8+	c #F74640",
"9+	c #EF2B24",
"0+	c #D20701",
"a+	c #AE0705",
"b+	c #78090C",
"c+	c #F09952",
"d+	c #DD1C15",
"e+	c #F6312A",
"f+	c #F84640",
"g+	c #E92620",
"h+	c #780A0C",
"i+	c #A46030",
"j+	c #FA5651",
"k+	c #F84641",
"l+	c #EE2A24",
"m+	c #820A0C",
"n+	c #F19A54",
"o+	c #040101",
"p+	c #9E6133",
"q+	c #EE2B24",
"r+	c #A90907",
"s+	c #AF0805",
"t+	c #830B0C",
"u+	c #A36030",
"v+	c #96532A",
"w+	c #532E15",
"x+	c #DD1B15",
"y+	c #F6302A",
"z+	c #AD0704",
"A+	c #830A0C",
"B+	c #965229",
"C+	c #512F18",
"D+	c #9F6132",
"E+	c #9A552B",
"F+	c #F73029",
"G+	c #F95751",
"H+	c #F74540",
"I+	c #EF2A24",
"J+	c #E82520",
"K+	c #AA0806",
"L+	c #AE0805",
"M+	c #850B0C",
"N+	c #D68647",
"O+	c #C77B3F",
"P+	c #965329",
"Q+	c #542F18",
"R+	c #944E28",
"S+	c #F95650",
"T+	c #F7463F",
"U+	c #D10603",
"V+	c #AD0805",
"W+	c #840B0C",
"X+	c #D68848",
"Y+	c #975229",
"Z+	c #030201",
"`+	c #9F6033",
" @	c #C77B41",
".@	c #A36033",
"+@	c #D20603",
"@@	c #78090B",
"#@	c #D58747",
"$@	c #F85651",
"%@	c #EE2A23",
"&@	c #E8261F",
"*@	c #780A0B",
"=@	c #D27637",
"-@	c #96522A",
";@	c #522E19",
">@	c #FA5752",
",@	c #F74641",
"'@	c #AB0707",
")@	c #AE0605",
"!@	c #77090B",
"~@	c #7F0A0A",
"{@	c #AA6433",
"]@	c #A06133",
"^@	c #A16133",
"/@	c #542F16",
"(@	c #B36D39",
"_@	c #8F4624",
":@	c #A56132",
"<@	c #E7904A",
"[@	c #8D4624",
"}@	c #9E5B2E",
"|@	c #B46E3A",
"1@	c #9F5C2E",
"2@	c #643C21",
"3@	c #663D20",
"4@	c #663C20",
"5@	c #663C1F",
"6@	c #62381D",
"7@	c #20120A",
"8@	c #201209",
"9@	c #211209",
"0@	c #201208",
"  . + @ @ @ @ + @ . @ @ # @ @ @ + $ $ . $ . @ . % # . . + @ & * ",
"* = - ; > > > , ' ) ' ' ' > ) , , ! ) ) ~ , ) ' , , , { ] ^ / ( ",
"  _ : < [ } [ [ [ | | 1 1 [ | [ [ [ | | 1 1 [ } [ 1 [ [ 2 3 4 5 ",
"* _ : 6 7 7 7 7 8 9 7 7 8 8 7 0 7 8 7 7 7 7 7 7 a 7 7 7 b c d 5 ",
"  e f g 7 7 h 7 i j 7 k l m n o p l 7 8 7 8 8 7 q r 7 7 7 s d 5 ",
"* e t 8 l u v w w w w w w w w w w w w w w w w w w 7 x y 7 z d 5 ",
"A _ B 8 l C k w D E F G H I J K L L L J M N O P w Q x i 7 z R 5 ",
"A _ t S 7 7 7 w T U V W X Y Z `  .` ..+.@.#.$.%.w &.7 *.7 z d ( ",
"* e f 8 8 7 7 w =.-.;.>.,.'.).!.~.{.{.].^./.(.P w 7 7 _.7 s d :.",
"A e t S 7 7 r w <.-.[.}.|.1.2.~.~.3.).].4./.5.P w x k 6.7 z R 5 ",
"* e t S 7 7 7 w 7.8.9.0.a.b.c.c.d.c.c.e.f.g.h.%.w 7 7 8 7 s d ( ",
"  i.j.8 7 k.k w w l.m.n.m.o.m.p.q.p.p.p.r.s.t.u.w x p 8 7 z R :.",
"* v.B S 7 w.x 7 7 x.y.z.A.B.C.D.E.F.E.G.E.H.w x 8 k p x 7 s d ( ",
"* v.j.8 7 7 7 7 7 x.I.J.K.L.M.N.O.P.Q.R.S.T.w U.7 8 7 7 V.z d 5 ",
"* _ W.8 7 k x 7 7 x.X.Y.Z.`. +.+++@+#+$+%+&+w *+k x k k =+-+;+5 ",
"* e f 8 k k 7 i x x.>+,+'+)+!+~+{+]+^+/+(+_+w 7 7 7 x 7 n :+R ( ",
"* e : S k k 7 k k x.<+,+[+}+|+~+++]+1+/+2+_+w 7 7 r 3+k 7 s d 5 ",
"  e f 8 =+4+5+7 i x.>+6+7+8+9+~+2.0+1+a+b+_+w x x 7 k p 7 s R :.",
"A e j.S x c+x 5+7 x.d+e+'+f+9+g+]+0+1+a+h+_+w 7 7 7 7 *.7 s R 5 ",
"* e j.S 7 i+x 7 8 x.>+,+j+k+l+g+2.0+1+/+%+m+w n+7 7 x 7 5+s R o+",
"* p+j.8 7 k p x x x.d+,+j+f+q+g+++]+r+s+h+t+w u+7 7 x p 7 v+R :.",
"* e w+S 7 x k x 8 x.x+y+j+8+l+~+).]+1+z+%+A+w 8 7 w.7 7 7 B+C+( ",
"* D+w+8 7 x E+7 8 x.d+F+G+H+I+J+@+@+K+L+b+M+w 7 7 N+7 7 O+P+Q+( ",
"  e f 8 p 8 R+k p x.d+e+S+T+l+g+U+]+1+V+2+W+w x 5+8 7 7 X+Y+B Z+",
"* `+W.g 5+ @.@x x x.d+y+G+T+I+~++@]+^+L+@@M+w x p k x 7 7 s B 5 ",
"  e j.g l #@8 i p x.d+6+$@T+%@&@@+{+1+a+*@M+w k 7 k =@7 7 -@;@5 ",
"A `+j.S x x k p x x.>+F+>@,@%@.+]+{+'@)@!@~@w x x k {@k 7 B+R 5 ",
"A ]@W.S x p p x x w w w w w w w w w w w w w w i+k x x x 7 v+;@( ",
"* ^@/@S 7 x x 7 x x (@x k x x x k 7 _@i :@<@x x x x k 7 _@-@;+5 ",
"A ^@/@[@7 7 x x x x x x x i+x k x 7 }@8 7 |@7 k k 7 5+7 1@B+;+5 ",
"  2@;+3 3@4@4@4@4@5@5@5@5@5@5@5@5@4@4@4@5@5@5@5@5@5@5@5@4@6@R 5 ",
"  7@8@8@8@8@8@8@8@9@9@9@8@8@8@8@9@8@9@9@8@9@8@8@9@8@0@8@8@8@8@5 "};
