/* XPM */
static char * tube_yellow_xpm[] = {
"32 32 302 2",
"  	c #010101",
". 	c #442B19",
"+ 	c #442A19",
"@ 	c #452B19",
"# 	c #452B18",
"$ 	c #442B18",
"% 	c #442A18",
"& 	c #1F1108",
"* 	c #010000",
"= 	c #A05F32",
"- 	c #96582E",
"; 	c #96582D",
"> 	c #97592D",
", 	c #96592C",
"' 	c #97592C",
") 	c #96592D",
"! 	c #95582C",
"~ 	c #95592D",
"{ 	c #96582C",
"] 	c #96572D",
"^ 	c #95572D",
"/ 	c #533019",
"( 	c #030101",
"_ 	c #9F5F32",
": 	c #532E17",
"< 	c #5D331A",
"[ 	c #653B20",
"} 	c #653C21",
"| 	c #653C20",
"1 	c #653B1F",
"2 	c #62371D",
"3 	c #5E331A",
"4 	c #522F1A",
"5 	c #020101",
"6 	c #8A4524",
"7 	c #A36131",
"8 	c #A36132",
"9 	c #B16C39",
"0 	c #AC6634",
"a 	c #B06C39",
"b 	c #98542B",
"c 	c #874121",
"d 	c #532F19",
"e 	c #9F6032",
"f 	c #532E16",
"g 	c #A36133",
"h 	c #AF6B39",
"i 	c #A46032",
"j 	c #E6924D",
"k 	c #A46131",
"l 	c #A36032",
"m 	c #AF6735",
"n 	c #A46130",
"o 	c #D07638",
"p 	c #A46132",
"q 	c #E6934E",
"r 	c #A36130",
"s 	c #955229",
"t 	c #522E16",
"u 	c #AB6433",
"v 	c #E9944F",
"w 	c #000000",
"x 	c #A46031",
"y 	c #A46033",
"z 	c #945229",
"A 	c #010100",
"B 	c #522E17",
"C 	c #D2773A",
"D 	c #A28807",
"E 	c #E2CC42",
"F 	c #FCE45E",
"G 	c #FEF38A",
"H 	c #FCE561",
"I 	c #E0CA41",
"J 	c #CBB72C",
"K 	c #CCB72D",
"L 	c #CCB72C",
"M 	c #CCB82D",
"N 	c #CDB528",
"O 	c #CDAB07",
"P 	c #826B02",
"Q 	c #A96433",
"R 	c #522F19",
"S 	c #A26132",
"T 	c #C9A907",
"U 	c #FADD2D",
"V 	c #FBED51",
"W 	c #FDF38A",
"X 	c #FBDF3D",
"Y 	c #F9DD2D",
"Z 	c #F9D307",
"` 	c #F9D308",
" .	c #F8D308",
"..	c #EAC608",
"+.	c #C6A506",
"@.	c #D4B005",
"#.	c #A38701",
"$.	c #826C02",
"%.	c #D4783A",
"&.	c #A36231",
"*.	c #CAA807",
"=.	c #FADD2E",
"-.	c #FAED52",
";.	c #F9DD30",
">.	c #FBD204",
",.	c #FAD204",
"'.	c #FAD305",
").	c #FBD206",
"!.	c #EAC605",
"~.	c #C7A505",
"{.	c #D4B003",
"].	c #836C02",
"^.	c #A86433",
"/.	c #020100",
"(.	c #FAEC52",
"_.	c #F9DD2E",
":.	c #FAD205",
"<.	c #EBC605",
"[.	c #C6A505",
"}.	c #836C01",
"|.	c #EF9A53",
"1.	c #BFA006",
"2.	c #ECCF27",
"3.	c #ECDE49",
"4.	c #EEE27C",
"5.	c #EDD136",
"6.	c #EBD029",
"7.	c #EDC604",
"8.	c #ECC604",
"9.	c #ECC704",
"0.	c #DFBD04",
"a.	c #BF9F04",
"b.	c #CBA902",
"c.	c #826B01",
"d.	c #9E6032",
"e.	c #532F17",
"f.	c #D48547",
"g.	c #5F4F0C",
"h.	c #7A6712",
"i.	c #796511",
"j.	c #786511",
"k.	c #776411",
"l.	c #776511",
"m.	c #7A6611",
"n.	c #796610",
"o.	c #7B6711",
"p.	c #60500B",
"q.	c #9E5F32",
"r.	c #C97B40",
"s.	c #685504",
"t.	c #987D02",
"u.	c #9E8203",
"v.	c #A8931C",
"w.	c #A58C11",
"x.	c #9A7F02",
"y.	c #947901",
"z.	c #937901",
"A.	c #927901",
"B.	c #605004",
"C.	c #524509",
"D.	c #E1C41C",
"E.	c #EED937",
"F.	c #F8EC6C",
"G.	c #F3E356",
"H.	c #EBD12D",
"I.	c #E8CE2A",
"J.	c #DCBA06",
"K.	c #DBB906",
"L.	c #C6A706",
"M.	c #D4B406",
"N.	c #B89A04",
"O.	c #C1A103",
"P.	c #D48546",
"Q.	c #A56130",
"R.	c #532F16",
"S.	c #FADB26",
"T.	c #F9EA46",
"U.	c #FCF282",
"V.	c #FAEF68",
"W.	c #FAE53C",
"X.	c #FAE337",
"Y.	c #F9D306",
"Z.	c #F9D208",
"`.	c #DBB908",
" +	c #C5A504",
".+	c #D3AE04",
"++	c #CC7E41",
"@+	c #F19A53",
"#+	c #955228",
"$+	c #522F18",
"%+	c #FBDB25",
"&+	c #F9EA47",
"*+	c #FDF281",
"=+	c #FAEE67",
"-+	c #F9E237",
";+	c #DBB909",
">+	c #DCBB06",
",+	c #C5A404",
"'+	c #D3AF04",
")+	c #945129",
"!+	c #FDF181",
"~+	c #FBEE67",
"{+	c #FAE43C",
"]+	c #DCBA05",
"^+	c #D6793A",
"/+	c #F19952",
"(+	c #A36031",
"_+	c #FADB25",
":+	c #FBE43B",
"<+	c #FAE237",
"[+	c #FAD308",
"}+	c #DCBB05",
"|+	c #F09952",
"1+	c #FADA24",
"2+	c #F9EB46",
"3+	c #FBEE68",
"4+	c #FAE53B",
"5+	c #FAE336",
"6+	c #FAD309",
"7+	c #DBBA05",
"8+	c #D4AF04",
"9+	c #A46030",
"0+	c #FAEE68",
"a+	c #FAE43B",
"b+	c #F8D309",
"c+	c #DBB808",
"d+	c #DBBA06",
"e+	c #C4A304",
"f+	c #D3AE03",
"g+	c #F19A54",
"h+	c #040101",
"i+	c #9E6133",
"j+	c #F8EA46",
"k+	c #FAE236",
"l+	c #F9D309",
"m+	c #A36030",
"n+	c #96532A",
"o+	c #532E15",
"p+	c #F8EA45",
"q+	c #FBEE66",
"r+	c #965229",
"s+	c #512F18",
"t+	c #9F6132",
"u+	c #9A552B",
"v+	c #F9DB25",
"w+	c #FDF180",
"x+	c #FAE43A",
"y+	c #F9E236",
"z+	c #FBD408",
"A+	c #C5A405",
"B+	c #D68647",
"C+	c #C77B3F",
"D+	c #965329",
"E+	c #542F18",
"F+	c #944E28",
"G+	c #FBD308",
"H+	c #FAD209",
"I+	c #DCB909",
"J+	c #C6A405",
"K+	c #D4AE04",
"L+	c #D68848",
"M+	c #975229",
"N+	c #030201",
"O+	c #9F6033",
"P+	c #C77B41",
"Q+	c #A36033",
"R+	c #F9DB26",
"S+	c #FBD309",
"T+	c #C5A305",
"U+	c #D58747",
"V+	c #FDF280",
"W+	c #DCB906",
"X+	c #C6A404",
"Y+	c #D27637",
"Z+	c #96522A",
"`+	c #522E19",
" @	c #F9EA45",
".@	c #FAE53A",
"+@	c #DDB90A",
"@@	c #C09F04",
"#@	c #CAA803",
"$@	c #AA6433",
"%@	c #A06133",
"&@	c #A16133",
"*@	c #542F16",
"=@	c #B36D39",
"-@	c #8F4624",
";@	c #A56132",
">@	c #E7904A",
",@	c #8D4624",
"'@	c #9E5B2E",
")@	c #B46E3A",
"!@	c #9F5C2E",
"~@	c #643C21",
"{@	c #663D20",
"]@	c #663C20",
"^@	c #663C1F",
"/@	c #62381D",
"(@	c #20120A",
"_@	c #201209",
":@	c #211209",
"<@	c #201208",
"  . + @ @ @ @ + @ . @ @ # @ @ @ + $ $ . $ . @ . % # . . + @ & * ",
"* = - ; > > > , ' ) ' ' ' > ) , , ! ) ) ~ , ) ' , , , { ] ^ / ( ",
"  _ : < [ } [ [ [ | | 1 1 [ | [ [ [ | | 1 1 [ } [ 1 [ [ 2 3 4 5 ",
"* _ : 6 7 7 7 7 8 9 7 7 8 8 7 0 7 8 7 7 7 7 7 7 a 7 7 7 b c d 5 ",
"  e f g 7 7 h 7 i j 7 k l m n o p l 7 8 7 8 8 7 q r 7 7 7 s d 5 ",
"* e t 8 l u v w w w w w w w w w w w w w w w w w w 7 x y 7 z d 5 ",
"A _ B 8 l C k w D E F G H I J K K L K M M N O P w Q x i 7 z R 5 ",
"A _ t S 7 7 7 w T U V W X Y Z ` `  . ...+.@.#.$.w %.7 &.7 z d ( ",
"* e f 8 8 7 7 w *.=.-.W X ;.>.,.>.'.).!.~.{.#.].w 7 7 ^.7 s d /.",
"A e t S 7 7 r w *.=.(.W X _.,.,.>.,.:.<.[.{.#.}.w x k |.7 z R 5 ",
"* e t S 7 7 7 w 1.2.3.4.5.6.7.7.8.9.8.0.a.b.#.c.w 7 7 8 7 s d ( ",
"  d.e.8 7 f.k w g.h.i.j.i.k.j.j.l.j.i.j.m.n.o.p.w x p 8 7 z R /.",
"* q.B S 7 r.x 7 w s.t.u.v.w.u.x.y.z.z.x.A.A.B.w 8 k p x 7 s d ( ",
"* q.e.8 7 7 7 7 7 C.D.E.F.G.H.I.J.K.L.M.N.O.C.P.7 8 7 7 Q.z d 5 ",
"* _ R.8 7 k x 7 7 C.S.T.U.V.W.X.Y.Z.`.J. +.+C.++k x k k @+#+$+5 ",
"* e f 8 k k 7 i x C.%+&+*+=+W.-+` Z.;+>+,+'+C.7 7 7 x 7 n )+R ( ",
"* e : S k k 7 k k C.%+&+!+~+{+X.` Z.`.]+,+'+C.7 7 r ^+k 7 s d 5 ",
"  e f 8 @+/+(+7 i C._+&+!+~+:+<+[+Z.`.}+,+.+C.x x 7 k p 7 s R /.",
"A e e.S x |+x (+7 C.1+2+!+3+4+5+6+Z.`.7+,+8+C.7 7 7 7 &.7 s R 5 ",
"* e e.S 7 9+x 7 8 C._+T.!+0+a+X.6+b+c+d+e+f+C.g+7 7 x 7 (+s R h+",
"* i+e.8 7 k p x x C._+j+*+~+4+k+6+l+;+J.,+'+C.m+7 7 x p 7 n+R /.",
"* e o+S 7 x k x 8 C._+p+*+q+a+X.6+6+;+J.,+f+C.8 7 r.7 7 7 r+s+( ",
"* t+o+8 7 x u+7 8 C.v+j+w+=+x+y+z+6+`.J.A+.+C.7 7 B+7 7 C+D+E+( ",
"  e f 8 p 8 F+k p C.v+j+!+q+W.5+G+H+I+J.J+K+C.x (+8 7 7 L+M+B N+",
"* O+R.g (+P+Q+x x C.R+T.w+q+x+5+G+S+I+J.T+.+C.x p k x 7 7 s B 5 ",
"  e e.g l U+8 i p C.S.p+V+q+x+X.G+S+I+W+X+'+C.k 7 k Y+7 7 Z+`+5 ",
"A O+e.S x x k p x C.S. @w+q+.@5+S+S++@K.@@#@C.x x k $@k 7 r+R 5 ",
"A %@R.S x p p x x r C.C.C.C.C.C.C.C.C.C.C.C.x 9+k x x x 7 n+`+( ",
"* &@*@S 7 x x 7 x x =@x k x x x k 7 -@i ;@>@x x x x k 7 -@Z+$+5 ",
"A &@*@,@7 7 x x x x x x x 9+x k x 7 '@8 7 )@7 k k 7 (+7 !@r+$+5 ",
"  ~@$+3 {@]@]@]@]@^@^@^@^@^@^@^@^@]@]@]@^@^@^@^@^@^@^@^@]@/@R 5 ",
"  (@_@_@_@_@_@_@_@:@:@:@_@_@_@_@:@_@:@:@_@:@_@_@:@_@<@_@_@_@_@5 "};
