/* XPM */
static char * tube_green_xpm[] = {
"32 32 316 2",
"  	c #010101",
". 	c #442B19",
"+ 	c #442A19",
"@ 	c #452B19",
"# 	c #452B18",
"$ 	c #442B18",
"% 	c #442A18",
"& 	c #1F1108",
"* 	c #010000",
"= 	c #A05F32",
"- 	c #96582E",
"; 	c #96582D",
"> 	c #97592D",
", 	c #96592C",
"' 	c #97592C",
") 	c #96592D",
"! 	c #95582C",
"~ 	c #95592D",
"{ 	c #96582C",
"] 	c #96572D",
"^ 	c #95572D",
"/ 	c #533019",
"( 	c #030101",
"_ 	c #9F5F32",
": 	c #532E17",
"< 	c #5D331A",
"[ 	c #653B20",
"} 	c #653C21",
"| 	c #653C20",
"1 	c #653B1F",
"2 	c #62371D",
"3 	c #5E331A",
"4 	c #522F1A",
"5 	c #020101",
"6 	c #8A4524",
"7 	c #A36131",
"8 	c #A36132",
"9 	c #B16C39",
"0 	c #AC6634",
"a 	c #B06C39",
"b 	c #98542B",
"c 	c #874121",
"d 	c #532F19",
"e 	c #9F6032",
"f 	c #532E16",
"g 	c #A36133",
"h 	c #AF6B39",
"i 	c #A46032",
"j 	c #E6924D",
"k 	c #A46131",
"l 	c #A36032",
"m 	c #AF6735",
"n 	c #A46130",
"o 	c #D07638",
"p 	c #A46132",
"q 	c #E6934E",
"r 	c #A36130",
"s 	c #955229",
"t 	c #522E16",
"u 	c #AB6433",
"v 	c #E9944F",
"w 	c #000000",
"x 	c #A46031",
"y 	c #A46033",
"z 	c #945229",
"A 	c #010100",
"B 	c #522E17",
"C 	c #D2773A",
"D 	c #1A6C13",
"E 	c #46AF34",
"F 	c #59CA44",
"G 	c #79E95D",
"H 	c #5BCD46",
"I 	c #43AE33",
"J 	c #389F2A",
"K 	c #389E29",
"L 	c #399F2A",
"M 	c #39A02A",
"N 	c #3AA22B",
"O 	c #369D29",
"P 	c #208B19",
"Q 	c #146010",
"R 	c #A96433",
"S 	c #522F19",
"T 	c #A26132",
"U 	c #1D8316",
"V 	c #39B52C",
"W 	c #54D241",
"X 	c #77EA5C",
"Y 	c #46BD37",
"Z 	c #3CB62E",
"` 	c #25A21C",
" .	c #24A31C",
"..	c #24A21C",
"+.	c #24A21D",
"@.	c #239C1B",
"#.	c #21911B",
"$.	c #249A1C",
"%.	c #1D7917",
"&.	c #145F10",
"*.	c #D4783A",
"=.	c #A36231",
"-.	c #1C8315",
";.	c #3AB52C",
">.	c #53D240",
",.	c #77E95B",
"'.	c #46BD36",
").	c #3CB52D",
"!.	c #25A31B",
"~.	c #24A41C",
"{.	c #24A41B",
"].	c #24A31B",
"^.	c #229C1A",
"/.	c #209119",
"(.	c #249A1B",
"_.	c #1D7916",
":.	c #155F10",
"<.	c #A86433",
"[.	c #020100",
"}.	c #54D140",
"|.	c #76E95A",
"1.	c #45BD36",
"2.	c #3BB62D",
"3.	c #239A1B",
"4.	c #1E7917",
"5.	c #EF9A53",
"6.	c #1A7E13",
"7.	c #34A927",
"8.	c #4CC339",
"9.	c #6AD751",
"0.	c #3FB231",
"a.	c #36AB29",
"b.	c #219C19",
"c.	c #209C18",
"d.	c #219D19",
"e.	c #209618",
"f.	c #1F8C19",
"g.	c #219319",
"h.	c #1E7817",
"i.	c #165F10",
"j.	c #9E6032",
"k.	c #532F17",
"l.	c #D48547",
"m.	c #12440F",
"n.	c #195A15",
"o.	c #185814",
"p.	c #195615",
"q.	c #185815",
"r.	c #185715",
"s.	c #175814",
"t.	c #185914",
"u.	c #185915",
"v.	c #11450F",
"w.	c #9E5F32",
"x.	c #C97B40",
"y.	c #09320F",
"z.	c #0A491C",
"A.	c #0D4F19",
"B.	c #216A23",
"C.	c #185E1F",
"D.	c #0D4D1C",
"E.	c #0B4B1B",
"F.	c #09451D",
"G.	c #08451D",
"H.	c #09451E",
"I.	c #0C4B1B",
"J.	c #2C9626",
"K.	c #43B331",
"L.	c #60D649",
"M.	c #52C43E",
"N.	c #3BA92E",
"O.	c #37A329",
"P.	c #1E891E",
"Q.	c #187421",
"R.	c #1D801C",
"S.	c #13601F",
"T.	c #17691E",
"U.	c #D48546",
"V.	c #A56130",
"W.	c #532F16",
"X.	c #38B32A",
"Y.	c #50CE3B",
"Z.	c #6FE654",
"`.	c #60DA48",
" +	c #48C437",
".+	c #41BD31",
"++	c #25A41B",
"@+	c #25A31C",
"#+	c #1E8920",
"$+	c #1C861D",
"%+	c #176C1D",
"&+	c #1C751A",
"*+	c #CC7E41",
"=+	c #F19A53",
"-+	c #955228",
";+	c #522F18",
">+	c #37B229",
",+	c #51CD3C",
"'+	c #6EE654",
")+	c #5FD947",
"!+	c #48C536",
"~+	c #42BC31",
"{+	c #1E881F",
"]+	c #1D881D",
"^+	c #176A1D",
"/+	c #1C761A",
"(+	c #945129",
"_+	c #38B229",
":+	c #50CD3B",
"<+	c #6EE653",
"[+	c #60DA47",
"}+	c #47C436",
"|+	c #1E891F",
"1+	c #1D871D",
"2+	c #176C1E",
"3+	c #D6793A",
"4+	c #F19952",
"5+	c #A36031",
"6+	c #38B22A",
"7+	c #4FCC3A",
"8+	c #6DE552",
"9+	c #60D947",
"0+	c #48C436",
"a+	c #41BC31",
"b+	c #25A41C",
"c+	c #1E8820",
"d+	c #1D761A",
"e+	c #F09952",
"f+	c #4FCD3A",
"g+	c #6EE652",
"h+	c #47C435",
"i+	c #41BC30",
"j+	c #1D881F",
"k+	c #186C1E",
"l+	c #A46030",
"m+	c #6EE552",
"n+	c #1E881D",
"o+	c #186B1E",
"p+	c #F19A54",
"q+	c #040101",
"r+	c #9E6133",
"s+	c #4FCD3B",
"t+	c #196C1D",
"u+	c #1E771B",
"v+	c #A36030",
"w+	c #96532A",
"x+	c #532E15",
"y+	c #5FD946",
"z+	c #42BD32",
"A+	c #1F8920",
"B+	c #1F881E",
"C+	c #1E761B",
"D+	c #965229",
"E+	c #512F18",
"F+	c #9F6132",
"G+	c #9A552B",
"H+	c #38B228",
"I+	c #5FD846",
"J+	c #47C335",
"K+	c #1F891F",
"L+	c #1F891E",
"M+	c #1D761B",
"N+	c #D68647",
"O+	c #C77B3F",
"P+	c #965329",
"Q+	c #542F18",
"R+	c #944E28",
"S+	c #37B129",
"T+	c #186C1D",
"U+	c #D68848",
"V+	c #975229",
"W+	c #030201",
"X+	c #9F6033",
"Y+	c #C77B41",
"Z+	c #A36033",
"`+	c #50CC3A",
" @	c #6DE551",
".@	c #20891E",
"+@	c #196C1E",
"@@	c #D58747",
"#@	c #38B129",
"$@	c #6EE551",
"%@	c #42BD31",
"&@	c #1E891D",
"*@	c #186D1D",
"=@	c #1F781B",
"-@	c #D27637",
";@	c #96522A",
">@	c #522E19",
",@	c #48C435",
"'@	c #1F881F",
")@	c #1F871D",
"!@	c #17691D",
"~@	c #1B701A",
"{@	c #AA6433",
"]@	c #A06133",
"^@	c #E9934D",
"/@	c #A16133",
"(@	c #542F16",
"_@	c #B36D39",
":@	c #8F4624",
"<@	c #A56132",
"[@	c #E7904A",
"}@	c #8D4624",
"|@	c #9E5B2E",
"1@	c #B46E3A",
"2@	c #9F5C2E",
"3@	c #643C21",
"4@	c #663D20",
"5@	c #663C20",
"6@	c #663C1F",
"7@	c #62381D",
"8@	c #20120A",
"9@	c #201209",
"0@	c #211209",
"a@	c #201208",
"  . + @ @ @ @ + @ . @ @ # @ @ @ + $ $ . $ . @ . % # . . + @ & * ",
"* = - ; > > > , ' ) ' ' ' > ) , , ! ) ) ~ , ) ' , , , { ] ^ / ( ",
"  _ : < [ } [ [ [ | | 1 1 [ | [ [ [ | | 1 1 [ } [ 1 [ [ 2 3 4 5 ",
"* _ : 6 7 7 7 7 8 9 7 7 8 8 7 0 7 8 7 7 7 7 7 7 a 7 7 7 b c d 5 ",
"  e f g 7 7 h 7 i j 7 k l m n o p l 7 8 7 8 8 7 q r 7 7 7 s d 5 ",
"* e t 8 l u v r w w w w w w w w w w w w w w w w 7 7 x y 7 z d 5 ",
"A _ B 8 l C k w D E F G H I J K J J L M N O P Q w R x i 7 z S 5 ",
"A _ t T 7 7 7 w U V W X Y Z `  ...+. .@.#.$.%.&.w *.7 =.7 z d ( ",
"* e f 8 8 7 7 w -.;.>.,.'.).!.~.{.~.].^./.(._.:.w 7 7 <.7 s d [.",
"A e t T 7 7 r w -.;.}.|.1.2.].].!.].{.^./.3.4.&.w x k 5.7 z S 5 ",
"* e t T 7 7 7 w 6.7.8.9.0.a.b.b.c.d.d.e.f.g.h.i.w 7 7 8 7 s d ( ",
"  j.k.8 7 l.k w m.n.o.p.q.r.q.s.t.u.t.u.n.n.n.v.w x p 8 7 z S [.",
"* w.B T 7 x.x 7 7 y.z.A.B.C.D.E.F.G.H.I.G.G.w x 8 k p x 7 s d ( ",
"* w.k.8 7 7 7 7 7 G.J.K.L.M.N.O.P.P.Q.R.S.T.w U.7 8 7 7 V.z d 5 ",
"* _ W.8 7 k x 7 7 G.X.Y.Z.`. +.+++@+#+$+%+&+w *+k x k k =+-+;+5 ",
"* e f 8 k k 7 i x G.>+,+'+)+!+~+++!.{+]+^+/+w 7 7 7 x 7 n (+S ( ",
"* e : T k k 7 k k G._+:+<+[+}+.+++!.|+1+2+&+w 7 7 r 3+k 7 s d 5 ",
"  e f 8 =+4+5+7 i G.6+7+8+9+0+a+b+!.c+1+^+d+w x x 7 k p 7 s S [.",
"A e k.T x e+x 5+7 G.>+f+g+9+h+i+++~.j+]+k+d+w 7 7 7 7 =.7 s S 5 ",
"* e k.T 7 l+x 7 8 G._+7+m+)+0+i+++@+{+n+o+d+w p+7 7 x 7 5+s S q+",
"* r+k.8 7 k p x x G._+s+g+9+h+~+b+~.#+P.t+u+w v+7 7 x p 7 w+S [.",
"* e x+T 7 x k x 8 G._+7+m+y+0+z+b+@+A+B+k+C+w 8 7 x.7 7 7 D+E+( ",
"* F+x+8 7 x G+7 8 G.H+7+8+I+J+~+b+@+K+L+k+M+w 7 7 N+7 7 O+P+Q+( ",
"  e f 8 p 8 R+k p G.S+f+m+)+h+~+b+@+#+B+T+u+w x 5+8 7 7 U+V+B W+",
"* X+W.g 5+Y+Z+x x G._+`+ @)+h+~+@+!.{+.@+@u+w x p k x 7 7 s B 5 ",
"  e k.g l @@8 i p G.#@7+$@y+}+%@b+@+{+&@*@=@w k 7 k -@7 7 ;@>@5 ",
"A X+k.T x x k p x G._+7+ @9+,@.+b+~.'@)@!@~@w x x k {@k 7 D+S 5 ",
"A ]@W.T x p p x x r ^@r x x k 7 x 7 k 7 x x x l+k x x x 7 w+>@( ",
"* /@(@T 7 x x 7 x x _@x k x x x k 7 :@i <@[@x x x x k 7 :@;@;+5 ",
"A /@(@}@7 7 x x x x x x x l+x k x 7 |@8 7 1@7 k k 7 5+7 2@D+;+5 ",
"  3@;+3 4@5@5@5@5@6@6@6@6@6@6@6@6@5@5@5@6@6@6@6@6@6@6@6@5@7@S 5 ",
"  8@9@9@9@9@9@9@9@0@0@0@9@9@9@9@0@9@0@0@9@0@9@9@0@9@a@9@9@9@9@5 "};
