
/* XPM */


static char *wall[] = {


"32 32 3 1",


"  c #000000",


". c #4A4A4A",


"+ c #6E6E6E",


"................................",


".++++++++++++++++++++++++++++++.",


".++++++++++++++++++++++++++++++.",


".++  ++++  ++++  ++++  ++++  ++.",


".++ +++++ +++++ +++++ +++++ +++.",


".++  ++++  ++++  ++++  ++++  ++.",


".++++++++++++++++++++++++++++++.",


".++++++++++++++++++++++++++++++.",


".++  ++++  ++++  ++++  ++++  ++.",


".++ +++++ +++++ +++++ +++++ +++.",


".++  ++++  ++++  ++++  ++++  ++.",


".++++++++++++++++++++++++++++++.",


".++++++++++++++++++++++++++++++.",


".++  ++++  ++++  ++++  ++++  ++.",


".++ +++++ +++++ +++++ +++++ +++.",


".++  ++++  ++++  ++++  ++++  ++.",


".++++++++++++++++++++++++++++++.",


".++++++++++++++++++++++++++++++.",


".++  ++++  ++++  ++++  ++++  ++.",


".++ +++++ +++++ +++++ +++++ +++.",


".++  ++++  ++++  ++++  ++++  ++.",


".++++++++++++++++++++++++++++++.",


".++++++++++++++++++++++++++++++.",


".++  ++++  ++++  ++++  ++++  ++.",


".++ +++++ +++++ +++++ +++++ +++.",


".++  ++++  ++++  ++++  ++++  ++.",


".++++++++++++++++++++++++++++++.",


".++++++++++++++++++++++++++++++.",


".++  ++++  ++++  ++++  ++++  ++.",


".++ +++++ +++++ +++++ +++++ +++.",


".++  ++++  ++++  ++++  ++++  ++.",


"................................"


};