/* XPM */
static char * wall2_xpm[] = {
"32 32 756 2",
"  	c #945940",
". 	c #B55C3B",
"+ 	c #B55B3B",
"@ 	c #B15B3D",
"# 	c #A06046",
"$ 	c #B65B3B",
"% 	c #94442B",
"& 	c #9D5B3E",
"* 	c #B65C3B",
"= 	c #A35135",
"- 	c #A25E42",
"; 	c #B55A3A",
"> 	c #853924",
", 	c #B2684B",
"' 	c #974C32",
") 	c #AF6344",
"! 	c #B55B3A",
"~ 	c #763320",
"{ 	c #B06343",
"] 	c #8C472E",
"^ 	c #BE6E50",
"/ 	c #B45B3B",
"( 	c #612416",
"_ 	c #8F5239",
": 	c #9D3D1F",
"< 	c #973C21",
"[ 	c #9A5940",
"} 	c #9D3C1F",
"| 	c #9C3D1F",
"1 	c #7E2D19",
"2 	c #945136",
"3 	c #9C3C1F",
"4 	c #8D361B",
"5 	c #995238",
"6 	c #9C3B1E",
"7 	c #742716",
"8 	c #A85C41",
"9 	c #83321A",
"0 	c #A25538",
"a 	c #682115",
"b 	c #A45437",
"c 	c #9B3C1F",
"d 	c #792F19",
"e 	c #B25F44",
"f 	c #9B3D20",
"g 	c #541810",
"h 	c #5A3124",
"i 	c #6A392C",
"j 	c #57261D",
"k 	c #69382C",
"l 	c #6C3F2F",
"m 	c #602D21",
"n 	c #5D2D23",
"o 	c #67392C",
"p 	c #6A3C2C",
"q 	c #693629",
"r 	c #58271E",
"s 	c #65372A",
"t 	c #6E3D2D",
"u 	c #5D2A1F",
"v 	c #623428",
"w 	c #64382B",
"x 	c #713F2F",
"y 	c #683629",
"z 	c #54251C",
"A 	c #63372A",
"B 	c #703D2D",
"C 	c #56241A",
"D 	c #643428",
"E 	c #62382B",
"F 	c #6F3D2D",
"G 	c #663226",
"H 	c #58281F",
"I 	c #5F372A",
"J 	c #723F30",
"K 	c #542016",
"L 	c #693A2D",
"M 	c #5D372B",
"N 	c #81422C",
"O 	c #B55C3D",
"P 	c #6B3322",
"Q 	c #B55C3C",
"R 	c #9B472E",
"S 	c #9E5C42",
"T 	c #B75D3D",
"U 	c #AE5535",
"V 	c #733727",
"W 	c #B65C3C",
"X 	c #8B3D27",
"Y 	c #AD6548",
"Z 	c #AE5537",
"` 	c #723624",
" .	c #B65B3C",
"..	c #7C3520",
"+.	c #AD6041",
"@.	c #B55B3C",
"#.	c #A54E31",
"$.	c #7D3E29",
"%.	c #B65C3D",
"&.	c #692717",
"*.	c #C06E4E",
"=.	c #B55D3D",
"-.	c #5D2213",
";.	c #832F1B",
">.	c #440F09",
",.	c #82301C",
"'.	c #842F1A",
").	c #6E2417",
"!.	c #82452F",
"~.	c #812D1A",
"{.	c #7E2B18",
"].	c #571F15",
"^.	c #812E1A",
"/.	c #832E1A",
"(.	c #6A2114",
"_.	c #894630",
":.	c #822F1A",
"<.	c #832F1A",
"[.	c #7D2B19",
"}.	c #511B10",
"|.	c #5A1A10",
"1.	c #884028",
"2.	c #822E1A",
"3.	c #7B2917",
"4.	c #581F12",
"5.	c #50170F",
"6.	c #984B33",
"7.	c #82301B",
"8.	c #754834",
"9.	c #9C593E",
"0.	c #9B583D",
"a.	c #8C4930",
"b.	c #7E4C38",
"c.	c #9D5A40",
"d.	c #7F4B35",
"e.	c #9E5C41",
"f.	c #9D5A3F",
"g.	c #7E402A",
"h.	c #85503A",
"i.	c #9B593E",
"j.	c #9B583E",
"k.	c #773924",
"l.	c #8F5740",
"m.	c #9C593F",
"n.	c #753824",
"o.	c #90563E",
"p.	c #9B593F",
"q.	c #9C5A3F",
"r.	c #6D3422",
"s.	c #90543B",
"t.	c #9A583D",
"u.	c #612A18",
"v.	c #9D5F47",
"w.	c #9A593E",
"x.	c #582515",
"y.	c #91543B",
"z.	c #9F3E20",
"A.	c #A13F20",
"B.	c #852F1B",
"C.	c #9D5E45",
"D.	c #A13F21",
"E.	c #975439",
"F.	c #A03F20",
"G.	c #7F2E19",
"H.	c #9B553C",
"I.	c #A03E20",
"J.	c #732716",
"K.	c #AB5F44",
"L.	c #6D2415",
"M.	c #A5593C",
"N.	c #672214",
"O.	c #A5573B",
"P.	c #5E1C11",
"Q.	c #B56247",
"R.	c #9E3F21",
"S.	c #531710",
"T.	c #53271A",
"U.	c #59271E",
"V.	c #56261C",
"W.	c #592B1D",
"X.	c #56261D",
"Y.	c #58261D",
"Z.	c #4E1E16",
"`.	c #55281A",
" +	c #59261D",
".+	c #4D221A",
"++	c #58281B",
"@+	c #59271D",
"#+	c #491B13",
"$+	c #5E2C1F",
"%+	c #57261C",
"&+	c #58271D",
"*+	c #492018",
"=+	c #5D2B1D",
"-+	c #58261C",
";+	c #411710",
">+	c #5C2A1D",
",+	c #421D16",
"'+	c #643023",
")+	c #39130D",
"!+	c #94583F",
"~+	c #B65D3C",
"{+	c #B15C3D",
"]+	c #9E5E45",
"^+	c #93432A",
"/+	c #9D5B3F",
"(+	c #A35437",
"_+	c #A35E43",
":+	c #873B24",
"<+	c #B1674A",
"[+	c #B45C3C",
"}+	c #964C33",
"|+	c #AF6445",
"1+	c #B45C3B",
"2+	c #79321F",
"3+	c #B06344",
"4+	c #8D4931",
"5+	c #C07052",
"6+	c #B45D3D",
"7+	c #622516",
"8+	c #93573E",
"9+	c #A34121",
"0+	c #9D4024",
"a+	c #A24021",
"b+	c #822F1B",
"c+	c #99553A",
"d+	c #A24122",
"e+	c #A14021",
"f+	c #91391E",
"g+	c #9F593E",
"h+	c #752917",
"i+	c #AE6246",
"j+	c #86351C",
"k+	c #A85A3D",
"l+	c #682415",
"m+	c #A9593B",
"n+	c #7D321B",
"o+	c #B86549",
"p+	c #A24022",
"q+	c #A04123",
"r+	c #521810",
"s+	c #4B1E12",
"t+	c #4B140D",
"u+	c #4D140D",
"v+	c #4C170F",
"w+	c #502215",
"x+	c #4C140D",
"y+	c #4D150D",
"z+	c #45140D",
"A+	c #4C1D0F",
"B+	c #4C150D",
"C+	c #4E140D",
"D+	c #44130C",
"E+	c #522012",
"F+	c #4B150E",
"G+	c #43130D",
"H+	c #5A2517",
"I+	c #4A140C",
"J+	c #40120C",
"K+	c #551F11",
"L+	c #4B140C",
"M+	c #4B150D",
"N+	c #3A100A",
"O+	c #582011",
"P+	c #49140C",
"Q+	c #3B100A",
"R+	c #5E2518",
"S+	c #4A130C",
"T+	c #4B160F",
"U+	c #37110C",
"V+	c #83452F",
"W+	c #B75E3D",
"X+	c #6B3522",
"Y+	c #B65F3F",
"Z+	c #9B492F",
"`+	c #9E5E43",
" @	c #B65E3E",
".@	c #B75F40",
"+@	c #B05839",
"@@	c #733927",
"#@	c #B65F40",
"$@	c #8D3F28",
"%@	c #AB6549",
"&@	c #AD5739",
"*@	c #733724",
"=@	c #B55E3E",
"-@	c #B75F3E",
";@	c #7E3520",
">@	c #AD6143",
",@	c #B75F3F",
"'@	c #A64F31",
")@	c #7D412C",
"!@	c #B65F3E",
"~@	c #6B2918",
"{@	c #C1704F",
"]@	c #622415",
"^@	c #88311D",
"/@	c #4C130C",
"(@	c #8A341D",
"_@	c #88311B",
":@	c #75281A",
"<@	c #894730",
"[@	c #8B321B",
"}@	c #8A321C",
"|@	c #862F1B",
"1@	c #5A2117",
"2@	c #8B321C",
"3@	c #6B2316",
"4@	c #924C33",
"5@	c #8A311C",
"6@	c #89311C",
"7@	c #832E1B",
"8@	c #561E13",
"9@	c #5E1D12",
"0@	c #91462C",
"a@	c #88311C",
"b@	c #812C1A",
"c@	c #5D2114",
"d@	c #561A13",
"e@	c #A05036",
"f@	c #88321C",
"g@	c #704634",
"h@	c #9B5F46",
"i@	c #9B5E46",
"j@	c #975D47",
"k@	c #784B3A",
"l@	c #834A36",
"m@	c #784835",
"n@	c #9A5E45",
"o@	c #9B5F47",
"p@	c #8C5640",
"q@	c #743C29",
"r@	c #895540",
"s@	c #995D45",
"t@	c #81513D",
"u@	c #8A5640",
"v@	c #9A5D45",
"w@	c #9A5E46",
"x@	c #673424",
"y@	c #8D563F",
"z@	c #774836",
"A@	c #99614B",
"B@	c #9B5E45",
"C@	c #582819",
"D@	c #95593F",
"E@	c #A34020",
"F@	c #A34021",
"G@	c #9F4124",
"H@	c #A44121",
"I@	c #9B583C",
"J@	c #A44021",
"K@	c #A33F21",
"L@	c #933A1E",
"M@	c #A25C41",
"N@	c #A33F20",
"O@	c #762817",
"P@	c #AF6347",
"Q@	c #87351C",
"R@	c #AA5C3F",
"S@	c #692415",
"T@	c #AA5A3D",
"U@	c #7F321B",
"V@	c #BA674A",
"W@	c #A34222",
"X@	c #531810",
"Y@	c #854731",
"Z@	c #8C321C",
"`@	c #8C331D",
" #	c #89341F",
".#	c #804633",
"+#	c #752818",
"@#	c #86442D",
"##	c #7F2E1A",
"$#	c #82402C",
"%#	c #8D331D",
"&#	c #9A4F36",
"*#	c #752B18",
"=#	c #8B432E",
"-#	c #8C331C",
";#	c #601E13",
">#	c #95482E",
",#	c #6B2717",
"'#	c #994C37",
")#	c #8C341E",
"!#	c #521811",
"~#	c #68402E",
"{#	c #90543C",
"]#	c #8D553D",
"^#	c #6F4432",
"/#	c #8F553C",
"(#	c #8F533B",
"_#	c #875039",
":#	c #724430",
"<#	c #90553C",
"[#	c #90543D",
"}#	c #804A35",
"|#	c #764531",
"1#	c #7D4935",
"2#	c #7E4B36",
"3#	c #8F543B",
"4#	c #774531",
"5#	c #824D38",
"6#	c #71412E",
"7#	c #844E38",
"8#	c #90553D",
"9#	c #8F543C",
"0#	c #6F422F",
"a#	c #8F5842",
"b#	c #683E2D",
"c#	c #965940",
"d#	c #A44222",
"e#	c #A04224",
"f#	c #9F5F46",
"g#	c #A54222",
"h#	c #973C20",
"i#	c #9A563B",
"j#	c #A54122",
"k#	c #943B1E",
"l#	c #A25B40",
"m#	c #903B20",
"n#	c #AE6346",
"o#	c #89361D",
"p#	c #A95B3E",
"q#	c #823219",
"r#	c #7F331B",
"s#	c #BA6749",
"t#	c #75301B",
"u#	c #714534",
"v#	c #7A331D",
"w#	c #79341E",
"x#	c #77341F",
"y#	c #784A38",
"z#	c #7A341E",
"A#	c #7A331E",
"B#	c #72301D",
"C#	c #70412F",
"D#	c #79331E",
"E#	c #7C351F",
"F#	c #6F2E1B",
"G#	c #764432",
"H#	c #7B341F",
"I#	c #6B2E1C",
"J#	c #824C39",
"K#	c #672C1A",
"L#	c #7D4633",
"M#	c #7B341E",
"N#	c #5E2716",
"O#	c #7F4532",
"P#	c #79321E",
"Q#	c #5D2717",
"R#	c #8D513D",
"S#	c #7A341F",
"T#	c #572517",
"U#	c #884E38",
"V#	c #BC6749",
"W#	c #5F2313",
"X#	c #BB6A4B",
"Y#	c #BC6748",
"Z#	c #9C4F36",
"`#	c #9D5F46",
" $	c #BC6849",
".$	c #B36042",
"+$	c #753C2C",
"@$	c #BB6647",
"#$	c #BC6848",
"$$	c #8F452E",
"%$	c #AD684C",
"&$	c #B46143",
"*$	c #763B2A",
"=$	c #BB6748",
"-$	c #803B26",
";$	c #AF6648",
">$	c #BC6648",
",$	c #AB573A",
"'$	c #7F4632",
")$	c #6E2D1C",
"!$	c #C27455",
"~$	c #BA6647",
"{$	c #732E19",
"]$	c #51150B",
"^$	c #A44223",
"/$	c #89321C",
"($	c #A54121",
"_$	c #9D3C1E",
":$	c #66281A",
"<$	c #7B2A18",
"[$	c #A96043",
"}$	c #9C3C20",
"|$	c #692313",
"1$	c #A7583A",
"2$	c #94361D",
"3$	c #6F2B17",
"4$	c #581A11",
"5$	c #BA6646",
"6$	c #43130B",
"7$	c #360D08",
"8$	c #591A11",
"9$	c #5E1C10",
"0$	c #531911",
"a$	c #5B2516",
"b$	c #5B1A10",
"c$	c #5C1B10",
"d$	c #581910",
"e$	c #3D130E",
"f$	c #4E160E",
"g$	c #612819",
"h$	c #5A1910",
"i$	c #571910",
"j$	c #3C100A",
"k$	c #581810",
"l$	c #47130B",
"m$	c #632515",
"n$	c #57180F",
"o$	c #591910",
"p$	c #3D100A",
"q$	c #59190F",
"r$	c #58180F",
"s$	c #3F120D",
"t$	c #6D2C1B",
"u$	c #915941",
"v$	c #B76548",
"w$	c #B7674B",
"x$	c #B36449",
"y$	c #8F503B",
"z$	c #B76648",
"A$	c #B8674A",
"B$	c #974C34",
"C$	c #995A41",
"D$	c #B86749",
"E$	c #A55C41",
"F$	c #97563E",
"G$	c #B76549",
"H$	c #8A422C",
"I$	c #AD674D",
"J$	c #B76649",
"K$	c #9A563D",
"L$	c #A55D42",
"M$	c #B66547",
"N$	c #B86649",
"O$	c #7F3B28",
"P$	c #AF674A",
"Q$	c #B66648",
"R$	c #8F5039",
"S$	c #B2664B",
"T$	c #B66548",
"U$	c #B66649",
"V$	c #61281A",
"W$	c #894D35",
"X$	c #91351D",
"Y$	c #92351D",
"Z$	c #923820",
"`$	c #702C1A",
" %	c #92361D",
".%	c #93351D",
"+%	c #7A2918",
"@%	c #8E4A31",
"#%	c #93361D",
"$%	c #88321A",
"%%	c #792D19",
"&%	c #93371D",
"*%	c #6F2416",
"=%	c #9F533A",
"-%	c #94371D",
";%	c #94371E",
">%	c #792D18",
",%	c #82311C",
"'%	c #621F13",
")%	c #9B4C32",
"!%	c #712A17",
"~%	c #8E3822",
"{%	c #91361D",
"]%	c #92371E",
"^%	c #511710",
"/%	c #653D2D",
"(%	c #885039",
"_%	c #884F38",
":%	c #855039",
"<%	c #6B4030",
"[%	c #895039",
"}%	c #7D4934",
"|%	c #6D422F",
"1%	c #7C4A34",
"2%	c #6F412E",
"3%	c #884F39",
"4%	c #774632",
"5%	c #7A4935",
"6%	c #71422F",
"7%	c #7B4934",
"8%	c #885139",
"9%	c #6C3F2D",
"0%	c #7E4C37",
"a%	c #6A3F2D",
"b%	c #86533E",
"c%	c #623A2A",
"d%	c #A84929",
"e%	c #AA4A2B",
"f%	c #A64A2D",
"g%	c #A05F45",
"h%	c #AA4A2A",
"i%	c #9E4428",
"j%	c #9A583C",
"k%	c #9A4326",
"l%	c #A94929",
"m%	c #A9492A",
"n%	c #954227",
"o%	c #AA492A",
"p%	c #8D3D24",
"q%	c #AB5E40",
"r%	c #A94A2A",
"s%	c #863920",
"t%	c #AC5D3F",
"u%	c #833A22",
"v%	c #BC6A4D",
"w%	c #793621",
"x%	c #754430",
"y%	c #7F321A",
"z%	c #81331B",
"A%	c #7F351D",
"B%	c #7C4935",
"C%	c #82331B",
"D%	c #773019",
"E%	c #79442F",
"F%	c #81331A",
"G%	c #80321A",
"H%	c #742D17",
"I%	c #7D4631",
"J%	c #81321A",
"K%	c #702D18",
"L%	c #884D37",
"M%	c #6C2B16",
"N%	c #844731",
"O%	c #652613",
"P%	c #864630",
"Q%	c #622714",
"R%	c #93513A",
"S%	c #80331A",
"T%	c #5B2514",
"U%	c #7D432E",
"V%	c #AA5B3C",
"W%	c #551C0D",
"X%	c #AA5A3C",
"Y%	c #AB5B3C",
"Z%	c #90442C",
"`%	c #91553C",
" &	c #AB5A3C",
".&	c #A45336",
"+&	c #6D3626",
"@&	c #AA593B",
"#&	c #843C26",
"$&	c #9F5E43",
"%&	c #A55337",
"&&	c #6C3523",
"*&	c #AA5A3B",
"=&	c #AB5A3B",
"-&	c #773520",
";&	c #A15A3E",
">&	c #9B4B30",
",&	c #743B27",
"'&	c #632616",
")&	c #B2674A",
"!&	c #AA5B3E",
"~&	c #672615",
"{&	c #4E130B",
"]&	c #93381E",
"^&	c #914F37",
"/&	c #94361C",
"(&	c #8F341B",
"_&	c #602218",
":&	c #93361C",
"<&	c #752716",
"[&	c #995037",
"}&	c #94371C",
"|&	c #5C2013",
"1&	c #95371D",
"2&	c #621F11",
"3&	c #994B2F",
"4&	c #8A2F19",
"5&	c #642414",
"6&	c #93371C",
"7&	c #95371C",
"8&	c #683B37",
"9&	c #AA573B",
"0&	c #623C2D",
"a&	c #87513C",
"b&	c #824F3B",
"c&	c #85513E",
"d&	c #6C4031",
"e&	c #85503C",
"f&	c #86523D",
"g&	c #713B2B",
"h&	c #6E4130",
"i&	c #86503C",
"j&	c #83503B",
"k&	c #7C4937",
"l&	c #724434",
"m&	c #844F3B",
"n&	c #88523D",
"o&	c #683525",
"p&	c #794938",
"q&	c #86503B",
"r&	c #724433",
"s&	c #7A4A38",
"t&	c #844F3C",
"u&	c #88523E",
"v&	c #5F2F21",
"w&	c #7B4937",
"x&	c #84503C",
"y&	c #6B3E2F",
"z&	c #895B4C",
"A&	c #B09991",
"B&	c #946657",
"C&	c #512217",
"D&	c #955940",
"E&	c #AD4F30",
"F&	c #AE4F30",
"G&	c #A94F31",
"H&	c #864029",
"I&	c #AD5030",
"J&	c #8B3A23",
"K&	c #9A573C",
"L&	c #AE5031",
"M&	c #9C472B",
"N&	c #8D4129",
"O&	c #AD4F2F",
"P&	c #7C311E",
"Q&	c #AE6448",
"R&	c #8F4128",
"S&	c #9C492D",
"T&	c #AC4F30",
"U&	c #712C1B",
"V&	c #AD5E3F",
"W&	c #AD4E2F",
"X&	c #873E26",
"Y&	c #A85034",
"Z&	c #B2634C",
"`&	c #5A1E13",
" *	c #784732",
".*	c #83341A",
"+*	c #81341C",
"@*	c #511C12",
"#*	c #692315",
"$*	c #5C1D12",
"%*	c #7A442E",
"&*	c #83341B",
"**	c #772F18",
"=*	c #571D12",
"-*	c #551A11",
";*	c #8B4E37",
">*	c #6C2A16",
",*	c #5E2013",
"'*	c #6B2415",
")*	c #88472F",
"!*	c #84341B",
"~*	c #642715",
"{*	c #652518",
"]*	c #6A2415",
"  . + @ # + $ % & * + = - + ; > , . + ' ) + ! ~ { + ! ] ^ * / ( ",
"_ : : < [ } | 1 2 : 3 4 5 } 6 7 8 : : 9 0 | | a b | c d e | f g ",
"h i j k l m n o p q r s t u v w x y z A B C D E F G H I J K L M ",
"N O P + Q R S Q T U V T W X Y W W Z ` $  ...+.@.W #.$.%.W &.*.=.",
"-.;.>.,.'.).!.'.~.{.].^./.(._.:.<.[.}.<.<.|.1.2.^.3.4.2.<.5.6.7.",
"8.9.0.a.b.9.c.N d.e.f.g.h.i.j.k.l.9.m.n.o.p.q.r.s.q.t.u.v.m.w.x.",
"y.z.A.B.C.D.z.^.E.z.F.G.H.I.F.J.K.I.I.L.M.I.I.N.O.z.I.P.Q.z.R.S.",
"T.U.j V.W.X.Y.Z.`. +j .+++@+j #+$+%+&+*+=+-+-+;+>+-+-+,+'+-+r )+",
"!+=.~+{+]+W W ^+/+Q Q (+_+Q O :+<+Q [+}+|+1+/ 2+3+1+[+4+5+Q 6+7+",
"8+9+D.0+# a+a+b+c+d+e+f+g+e+e+h+i+a+e+j+k+D.e+l+m+e+e+n+o+p+q+r+",
"s+t+u+v+w+x+y+z+A+B+C+D+E+x+F+G+H+B+I+J+K+L+M+N+O+y+P+Q+R+S+T+U+",
"V+W+X+Y+Y+Z+`+ @.@+@@@ @#@$@%@.@ @&@*@=@-@;@>@,@ @'@)@-@!@~@{@=@",
"]@^@/@(@_@:@<@[@}@|@1@2@}@3@4@5@6@7@8@}@5@9@0@5@a@b@c@a@6@d@e@f@",
"g@h@i@j@k@h@h@l@m@n@o@p@b.i@h@q@r@n@s@t@u@v@w@x@y@o@v@z@A@B@w@C@",
"D@E@F@G@# F@H@:.I@J@K@L@M@F@N@O@P@F@J@Q@R@J@H@S@T@F@J@U@V@H@W@X@",
"Y@Z@`@ #.#Z@2@+#@#`@`@##$#`@%#3@&#`@%#*#=#-#`@;#>#`@Z@,#'#`@)#!#",
"~#{#{#]#^#/#(#_#:#<#[#}#|#<#<#1#2#s.3#4#5#{#<#6#7#8#9#0#a#{#8#b#",
"c#H@d#e#f#g#H@h#i#j#H@k#l#H@J@m#n#H@j#o#p#H@J@q#T@H@H@r#s#g#d#t#",
"u#v#w#x#y#z#A#B#C#D#E#F#G#A#H#I#J#D#A#K#L#M#A#N#O#A#P#Q#R#S#S#T#",
"U#V#W#X#Y#Z#`#V# $.$+$@$#$$$%$Y#@$&$*$@$=$-$;$V#>$,$'$=$@$)$!$~$",
"{$d#]$^$F@/$e.($H@_$:$($H@<$[$H@H@}$]@H@H@|$1$H@J@2$3$J@H@4$5$W@",
"6$|.7$8$9$0$a$b$c$d$e$b$c$f$g$h$h$i$j$d$k$l$m$n$o$k$p$q$r$s$t$d$",
"u$v$w$x$y$z$A$B$C$D$D$E$F$G$z$H$I$J$z$K$L$M$N$O$P$z$Q$R$S$T$U$V$",
"W$X$Y$Z$`$ %.%+%@%#%Y$$%%% %&%*%=%-%;%>%,%2$#%'%)%.% %!%~%{%]%^%",
"/%(%_%:%<%[%[%}%|%[%(%1%2%3%[%4%5%[%(%6%7%8%(%9%0%(%(%a%b%(%(%c%",
"D@d%e%f%g%h%e%i%j%h%h%k%M@l%m%n%P@o%o%p%q%o%r%s%t%o%o%u%v%o%r%w%",
"x%y%z%A%B%z%C%D%E%F%G%H%I%F%J%K%L%F%F%M%N%F%F%O%P%F%F%Q%R%F%S%T%",
"U%V%W%X%Y%Z%`%X% &.&+&Y%@&#&$&X%@&%&&&*&=&-&;&X%=&>&,&X%*&'&)&!&",
"~&-%{&]&-%[.^&/&#%(&_&:&:&<&[&:&}&-#|&1&-%2&3&#%:&4&5&6&7&8&9&-%",
"0&a&b&c&d&e&f&g&h&i&j&k&l&m&n&o&p&q&b&r&s&t&u&v&w&i&x&y&z&A&B&C&",
"D&E&F&G&H&I&E&J&K&L&F&M&N&E&O&P&Q&O&O&R&S&E&T&U&V&W&O&X&Y&Z&I&`&",
" *.*.*+*@*S@#*$*%*&*&***=*l+#*-*;*.*.*>*,*S@'*M+)*!*!*~*{*]*S@J+"};
